<?xml version="1.0" encoding="UTF-8"?>
<!DOCTYPE svg PUBLIC "-//W3C//DTD SVG 1.1//EN" "http://www.w3.org/Graphics/SVG/1.1/DTD/svg11.dtd">
<!-- Creator: CorelDRAW 2020 (64-Bit Оценочная версия) -->
<svg xmlns="http://www.w3.org/2000/svg" xml:space="preserve" width="38.0998mm" height="29.6332mm" version="1.1" style="shape-rendering:geometricPrecision; text-rendering:geometricPrecision; image-rendering:optimizeQuality; fill-rule:evenodd; clip-rule:evenodd"
viewBox="0 0 3809.98 2963.32"
 xmlns:xlink="http://www.w3.org/1999/xlink"
 xmlns:xodm="http://www.corel.com/coreldraw/odm/2003">
 <defs>
  <style type="text/css">
   <![CDATA[
    .fil0 {fill:#77A4E5;fill-rule:nonzero}
   ]]>
  </style>
 </defs>
 <g id="Слой_x0020_1">
  <metadata id="CorelCorpID_0Corel-Layer"/>
  <path class="fil0" d="M1988.37 1330.43l405.01 -95.96 52.27 185.78 -404.94 95.94 -52.34 -185.76zm724.98 -1104.67l627.49 0 0 191.94 -627.49 0 0 -191.94zm-2091.81 0l627.49 0 0 191.94 -627.49 0 0 -191.94zm2729.65 383.8l-219.51 0 0 2302.97 219.51 0c224.96,0 408,-167.93 408,-374.33l0 -1554.3c0,-206.37 -183.04,-374.34 -408,-374.34zm-1614.04 1599.29c0,-70.66 -62.45,-127.93 -139.46,-127.93 -77.03,0 -139.45,57.27 -139.45,127.93 0,70.67 62.42,127.96 139.45,127.96 77.01,0 139.46,-57.29 139.46,-127.96zm1185.32 -1599.29l-404.18 0 -98.05 -404.74c-24.34,-100.65 -119.89,-170.96 -232.24,-170.96l-413.62 0c-112.35,0 -207.88,70.31 -232.24,170.96l-98.05 404.74 -404.18 0 0 2302.97 1882.56 0 0 -2302.97zm-378.2 391.02l157.04 557.37 -810.1 192.1 -157.06 -557.46 810.12 -192.01zm-797.97 -754.1c2.96,-12.17 14.52,-20.72 28.08,-20.72l413.62 0c13.54,0 25.1,8.55 28.06,20.72l87.94 363.08 -645.62 0 87.92 -363.08zm-148.61 2282.23c-192.23,0 -348.66,-143.48 -348.66,-319.86 0,-176.39 156.43,-319.83 348.66,-319.83 192.24,0 348.67,143.44 348.67,319.83 0,176.38 -156.43,319.86 -348.67,319.86zm-986.5 -1919.15c-224.96,0 -408,167.97 -408,374.34l0 1554.3c0,206.4 183.04,374.33 408,374.33l219.51 0 0 -2302.97 -219.51 0z"/>
 </g>
</svg>
