<?xml version="1.0" encoding="UTF-8"?>
<!DOCTYPE svg PUBLIC "-//W3C//DTD SVG 1.1//EN" "http://www.w3.org/Graphics/SVG/1.1/DTD/svg11.dtd">
<!-- Creator: CorelDRAW 2020 (64-Bit Оценочная версия) -->
<svg xmlns="http://www.w3.org/2000/svg" xml:space="preserve" width="38.0998mm" height="29.6332mm" version="1.1" style="shape-rendering:geometricPrecision; text-rendering:geometricPrecision; image-rendering:optimizeQuality; fill-rule:evenodd; clip-rule:evenodd"
viewBox="0 0 3809.98 2963.32"
 xmlns:xlink="http://www.w3.org/1999/xlink"
 xmlns:xodm="http://www.corel.com/coreldraw/odm/2003">
 <defs>
  <style type="text/css">
   <![CDATA[
    .fil0 {fill:#77A4E5;fill-rule:nonzero}
   ]]>
  </style>
 </defs>
 <g id="Слой_x0020_1">
  <metadata id="CorelCorpID_0Corel-Layer"/>
  <path class="fil0" d="M2162.6 626.76l-365.83 -288.09 -206.14 162.34 571.97 125.75zm-688.89 1761.69c-50.39,19.69 -171.35,61.02 -248.84,87.2l253.61 299.59 190.71 -150.17 26.22 -330.41c-79.21,34.49 -172.27,74.47 -221.7,93.79l0 0zm1459.86 -995.34l-635.64 500.56 696.26 883.39 337.73 -265.97 -398.35 -1117.98zm-2038.29 510.1c24.09,-38.22 73.47,-109.56 116.7,-171.19l-448.76 22.09 -190.7 150.18 402.97 211.56c31.88,-58.72 92.37,-169.12 119.79,-212.64l0 0zm2180.56 -829.91c182.5,-143.72 289.47,-313.87 377.89,-476.34 34.31,-63.05 16.68,-135.13 -44.89,-183.62l-21.7 -17.08c-61.58,-48.5 -153.1,-62.37 -233.17,-35.36l-21.19 7.15c-234.9,79.27 -429.62,179.02 -578.76,296.47l-1147.96 904.03c-59.33,46.72 -113.36,96.78 -163.78,152.14 0,0 -147.86,192.52 -182.15,246.94 -29.58,46.94 -105.7,187.13 -128.87,229.99l189.81 155.4c69.66,-23.43 217.56,-73.54 270.85,-94.37 70.43,-27.53 317.54,-140.89 317.54,-140.89 75.35,-39.69 148.46,-85.32 217.06,-139.34l1149.32 -905.12zm-925.44 -297.45l-1421.54 -313.45 -337.37 265.67 1123.07 548.51 635.84 -500.73zm972.96 607.51l158.23 450.09 206.66 -162.74 -364.89 -287.35z"/>
 </g>
</svg>
