<?xml version="1.0" encoding="UTF-8"?>
<!DOCTYPE svg PUBLIC "-//W3C//DTD SVG 1.1//EN" "http://www.w3.org/Graphics/SVG/1.1/DTD/svg11.dtd">
<!-- Creator: CorelDRAW 2020 (64-Bit Оценочная версия) -->
<svg xmlns="http://www.w3.org/2000/svg" xml:space="preserve" width="38.0998mm" height="29.6332mm" version="1.1" style="shape-rendering:geometricPrecision; text-rendering:geometricPrecision; image-rendering:optimizeQuality; fill-rule:evenodd; clip-rule:evenodd"
viewBox="0 0 3809.98 2963.32"
 xmlns:xlink="http://www.w3.org/1999/xlink"
 xmlns:xodm="http://www.corel.com/coreldraw/odm/2003">
 <defs>
  <style type="text/css">
   <![CDATA[
    .fil0 {fill:#77A4E5;fill-rule:nonzero}
   ]]>
  </style>
 </defs>
 <g id="Слой_x0020_1">
  <metadata id="CorelCorpID_0Corel-Layer"/>
  <path class="fil0" d="M854.35 845.17c-215.39,0 -390.61,236.74 -390.61,527.74 0,153.03 48.49,290.98 125.75,387.45 -176.58,128.08 -296.93,379.99 -296.93,669.2l0 127.38 672.55 0 0 -116.9c0,-256.02 56.57,-502.86 163.59,-713.81 25.38,-50.05 53.26,-97.17 83.25,-141.37 21.17,-64.92 33,-136.59 33,-211.95 0.01,-290.99 -175.22,-527.74 -390.6,-527.74zm1329.36 659.05c134.84,-122.86 223.68,-331.12 223.68,-566.9 0,-376.79 -226.88,-683.33 -505.77,-683.33 -278.88,0 -505.76,306.54 -505.76,683.33 0,235.78 88.84,444.04 223.68,566.9 -272.99,150.75 -465.86,513.4 -465.86,935.82l0 116.9 1495.89 0 0 -116.9c0,-422.42 -192.87,-785.07 -465.86,-935.82zm1030.05 256.14c77.26,-96.47 125.75,-234.42 125.75,-387.45 0,-290.99 -175.22,-527.74 -390.61,-527.74 -215.38,0 -390.61,236.74 -390.61,527.74 0,75.36 11.83,147.04 32.99,211.95 30,44.2 57.88,91.33 83.26,141.37 107.02,210.94 163.58,457.78 163.58,713.81l0 116.9 672.57 0 0 -127.38c0,-289.21 -120.36,-541.11 -296.93,-669.2z"/>
 </g>
</svg>
