<?xml version="1.0" encoding="UTF-8"?>
<!DOCTYPE svg PUBLIC "-//W3C//DTD SVG 1.1//EN" "http://www.w3.org/Graphics/SVG/1.1/DTD/svg11.dtd">
<!-- Creator: CorelDRAW 2020 (64-Bit Оценочная версия) -->
<svg xmlns="http://www.w3.org/2000/svg" xml:space="preserve" width="38.0998mm" height="29.6332mm" version="1.1" style="shape-rendering:geometricPrecision; text-rendering:geometricPrecision; image-rendering:optimizeQuality; fill-rule:evenodd; clip-rule:evenodd"
viewBox="0 0 3809.98 2963.32"
 xmlns:xlink="http://www.w3.org/1999/xlink"
 xmlns:xodm="http://www.corel.com/coreldraw/odm/2003">
 <defs>
  <style type="text/css">
   <![CDATA[
    .fil0 {fill:#77A4E5;fill-rule:nonzero}
   ]]>
  </style>
 </defs>
 <g id="Слой_x0020_1">
  <metadata id="CorelCorpID_0Corel-Layer"/>
  <g id="_3076521072240">
   <g>
    <g>
     <path class="fil0" d="M3650.22 2612.37l-616.73 -333.5c242.69,-46.57 420.87,-186.85 420.87,-354.25l0 -1046.75c0,-199.75 -259.8,-372.07 -592.66,-372.07l-163.79 0 -138.79 -179.22c-60.65,-76.09 -182.54,-123.4 -318.09,-123.4l-655.16 0c-135.55,0 -257.44,47.31 -318.09,123.4l-138.79 179.22 -163.8 0c-332.59,0 -592.65,172.22 -592.65,372.07l0 1046.75c0,167.4 178.18,307.68 420.88,354.24l-616.74 333.5c-49.66,26.82 -55.21,73.84 -12.5,104.94 42.95,31.2 117.54,34.63 167.14,7.85l241.91 -130.81 2680.45 0 241.9 130.81c49.6,26.78 124.2,23.35 167.14,-7.85 42.72,-31.11 37.16,-78.12 -12.5,-104.93zm-2984.13 -1660.09l2494.72 0 -289.96 454.99c-54.29,85.24 -183.93,140.32 -330.13,140.32l-1254.54 0c-146.2,0 -275.84,-55.09 -330.13,-140.32l-289.96 -454.99zm299.1 897.93l237.07 0c65.51,0 118.53,33.28 118.53,74.41 0,41.13 -53.02,74.41 -118.53,74.41l-237.07 0c-65.51,0 -118.53,-33.28 -118.53,-74.41 0,-41.13 53.02,-74.41 118.53,-74.41zm-116.75 595.31l275.23 -148.83 434.18 0 0 -223.24c0,-123.1 159.52,-223.24 355.6,-223.24 196.08,0 355.59,100.14 355.59,223.24l0 223.24 434.18 0 275.23 148.83 -2130.01 0zm2013.26 -446.49l-237.06 0c-65.52,0 -118.53,-33.28 -118.53,-74.41 0,-41.13 53.01,-74.41 118.53,-74.41l237.06 0c65.52,0 118.53,33.28 118.53,74.41 0,41.13 -53.01,74.41 -118.53,74.41z"/>
    </g>
   </g>
   <g>
    <g>
     <path class="fil0" d="M1913.45 1999.03c-65.4,0 -118.53,33.36 -118.53,74.42l0 223.24 237.06 0 0 -223.24c0,-41.06 -53.12,-74.42 -118.53,-74.42z"/>
    </g>
   </g>
   <g>
   </g>
   <g>
   </g>
   <g>
   </g>
   <g>
   </g>
   <g>
   </g>
   <g>
   </g>
   <g>
   </g>
   <g>
   </g>
   <g>
   </g>
   <g>
   </g>
   <g>
   </g>
   <g>
   </g>
   <g>
   </g>
   <g>
   </g>
   <g>
   </g>
  </g>
 </g>
</svg>
