<?xml version="1.0" encoding="UTF-8"?>
<!DOCTYPE svg PUBLIC "-//W3C//DTD SVG 1.1//EN" "http://www.w3.org/Graphics/SVG/1.1/DTD/svg11.dtd">
<!-- Creator: CorelDRAW 2020 (64-Bit Оценочная версия) -->
<svg xmlns="http://www.w3.org/2000/svg" xml:space="preserve" width="38.0998mm" height="29.6332mm" version="1.1" style="shape-rendering:geometricPrecision; text-rendering:geometricPrecision; image-rendering:optimizeQuality; fill-rule:evenodd; clip-rule:evenodd"
viewBox="0 0 3809.98 2963.32"
 xmlns:xlink="http://www.w3.org/1999/xlink"
 xmlns:xodm="http://www.corel.com/coreldraw/odm/2003">
 <defs>
  <style type="text/css">
   <![CDATA[
    .fil0 {fill:#77A4E5;fill-rule:nonzero}
   ]]>
  </style>
 </defs>
 <g id="Слой_x0020_1">
  <metadata id="CorelCorpID_0Corel-Layer"/>
  <path class="fil0" d="M1773.21 1962.27l175.31 0 0 747.06 -175.31 0 0 -747.06zm701.23 0l525.93 0 0 747.06 -525.93 0 0 -747.06zm-350.61 0l175.31 0 0 747.06 -175.31 0 0 -747.06zm-1051.86 0l525.93 0 0 747.06 -525.93 0 0 -747.06zm-175.31 112.41c-97.74,29.54 -169.1,107.02 -174.92,199.1 -102.24,30.75 -175.7,113.91 -175.7,211.43l0 224.12 350.62 0 0 -634.65zm2453.95 199.1c-5.83,-92.08 -77.18,-169.56 -174.93,-199.1l0 634.65 350.62 0 0 -224.12c0,-97.52 -73.46,-180.68 -175.69,-211.43l0 0zm-1314.43 -834.45c241.66,0 438.26,167.57 438.26,373.53l525.93 0 0 -1643.53 -1928.4 0 0 1643.53 525.93 0c0,-205.96 196.61,-373.53 438.28,-373.53zm438.26 -971.18l175.32 0 0 149.41 -175.32 0 0 -149.41zm0 298.83l175.32 0 0 149.41 -175.32 0 0 -149.41zm0 298.82l175.32 0 0 149.41 -175.32 0.01 0 -149.42zm0 298.83l175.32 0 0 149.4 -175.32 0 0 -149.4zm-175.3 -149.41l-175.31 0 0 -149.41 175.31 -0.01 0 149.42zm-525.93 -747.07l175.31 0 0 149.41 175.31 0 0 -149.41 175.31 0 0 448.24 -175.31 0 0 -149.41 -175.31 0 0 149.41 -175.31 0 0 -448.24zm0 597.65l175.31 0 0 149.41 -175.31 0.01 0 -149.42zm-350.62 -597.65l175.31 0 0 149.41 -175.31 0 0 -149.41zm0 298.83l175.31 0 0 149.41 -175.31 0 0 -149.41zm0 298.82l175.31 0 0 149.41 -175.31 0.01 0 -149.42zm0 298.83l175.31 0 0 149.4 -175.31 0 0 -149.4zm613.59 224.11c-145.01,0 -262.97,100.54 -262.97,224.12l525.93 0c0,-123.58 -117.97,-224.12 -262.96,-224.12l0 0z"/>
 </g>
</svg>
