<?xml version="1.0" encoding="UTF-8"?>
<!DOCTYPE svg PUBLIC "-//W3C//DTD SVG 1.1//EN" "http://www.w3.org/Graphics/SVG/1.1/DTD/svg11.dtd">
<!-- Creator: CorelDRAW 2020 (64-Bit Оценочная версия) -->
<svg xmlns="http://www.w3.org/2000/svg" xml:space="preserve" width="38.0998mm" height="29.6332mm" version="1.1" style="shape-rendering:geometricPrecision; text-rendering:geometricPrecision; image-rendering:optimizeQuality; fill-rule:evenodd; clip-rule:evenodd"
viewBox="0 0 3809.98 2963.32"
 xmlns:xlink="http://www.w3.org/1999/xlink"
 xmlns:xodm="http://www.corel.com/coreldraw/odm/2003">
 <defs>
  <style type="text/css">
   <![CDATA[
    .fil0 {fill:#77A4E5;fill-rule:nonzero}
   ]]>
  </style>
 </defs>
 <g id="Слой_x0020_1">
  <metadata id="CorelCorpID_0Corel-Layer"/>
  <path class="fil0" d="M2176.28 790.9c-340.07,-100.52 -730.04,14.58 -871.01,257.07 -140.96,242.49 20.46,520.56 360.54,621.06 340.07,100.51 730.04,-14.58 871.01,-257.06 140.96,-242.5 -20.46,-520.56 -360.54,-621.07zm829.28 -335.22c-598.43,-426.71 -1572.14,-426.71 -2170.58,0 -598.43,426.7 -598.43,1121 0,1547.71l1085.29 773.85 1085.29 -773.85c598.44,-426.71 598.44,-1121.01 0,-1547.71l0 0zm-1968.81 774.1c0,-347.37 396.35,-629.99 883.52,-629.99 487.18,0 883.53,282.62 883.53,629.99 0,347.37 -396.35,629.99 -883.53,629.99 -487.17,0 -883.52,-282.62 -883.52,-629.99z"/>
 </g>
</svg>
