<svg width="40" height="40" viewBox="0 0 40 40" fill="none" xmlns="http://www.w3.org/2000/svg">
<circle cx="20" cy="20" r="20" fill="#FF9800"/>
<g clip-path="url(#clip0)">
<path d="M19.9998 20.8232C22.9885 20.8232 25.4114 18.4003 25.4114 15.4116C25.4114 12.4228 22.9885 10 19.9998 10C17.011 10 14.5882 12.4229 14.5882 15.4116C14.5919 18.3988 17.0126 20.8195 19.9998 20.8232ZM19.9998 12.4977C21.6091 12.4977 22.9137 13.8023 22.9137 15.4116C22.9137 17.021 21.6091 18.3256 19.9998 18.3256C18.3904 18.3256 17.0858 17.021 17.0858 15.4116C17.0858 13.8023 18.3905 12.4977 19.9998 12.4977Z" fill="white"/>
<path d="M25.3008 23.3882C25.8889 23.0008 26.2433 22.3441 26.2441 21.6398C26.2523 21.0554 25.9225 20.5187 25.3974 20.2619C24.8579 19.9925 24.2121 20.0532 23.7323 20.4185C21.5085 22.0397 18.4923 22.0397 16.2684 20.4185C15.7879 20.0551 15.1432 19.9945 14.6033 20.2619C14.0785 20.5187 13.7485 21.0548 13.7558 21.639C13.757 22.3431 14.1113 22.9997 14.6991 23.3873C15.4532 23.8889 16.2745 24.2813 17.1385 24.5529C17.285 24.5984 17.4363 24.6406 17.5922 24.6795L15.0763 27.1397C14.4163 27.7801 14.4003 28.8342 15.0407 29.4942C15.6811 30.1543 16.7352 30.1702 17.3952 29.5298C17.409 29.5165 17.4225 29.503 17.4357 29.4891L20 26.8349L22.5693 29.4941C23.2091 30.1546 24.2633 30.1714 24.9238 29.5316C25.5843 28.8918 25.6011 27.8376 24.9613 27.1771C24.9479 27.1633 24.9343 27.1497 24.9204 27.1363L22.4086 24.6786C22.5645 24.6387 22.7164 24.5962 22.864 24.5513C23.727 24.2807 24.5475 23.8891 25.3008 23.3882Z" fill="white"/>
</g>
<defs>
<clipPath id="clip0">
<rect width="20" height="20" fill="white" transform="translate(10 10)"/>
</clipPath>
</defs>
</svg>
