<svg width="40" height="40" viewBox="0 0 40 40" fill="none" xmlns="http://www.w3.org/2000/svg">
<g clip-path="url(#clip0)">
<path d="M19.9998 40.0003C31.0453 40.0003 39.9995 31.0461 39.9995 20.0005C39.9995 8.95493 31.0453 0.000732422 19.9998 0.000732422C8.9542 0.000732422 0 8.95493 0 20.0005C0 31.0461 8.9542 40.0003 19.9998 40.0003Z" fill="#41B4E6"/>
<path d="M17.152 22.7356L25.3476 28.9233L29.4846 11.2637L8.3418 19.5803L14.7753 21.7112L26.5166 13.8355L17.152 22.7356Z" fill="white"/>
<path d="M14.7754 21.7117L16.5374 28.0522L17.1521 22.736L26.5167 13.8359L14.7754 21.7117Z" fill="#D2D2D7"/>
<path d="M19.8154 24.7454L16.5371 28.0505L17.1518 22.7344L19.8154 24.7454Z" fill="#B9B9BE"/>
</g>
<defs>
<clipPath id="clip0">
<rect width="40" height="40" fill="white"/>
</clipPath>
</defs>
</svg>
