<svg width="40" height="40" viewBox="0 0 40 40" fill="none" xmlns="http://www.w3.org/2000/svg">
<path d="M20 40C31.0457 40 40 31.0457 40 20C40 8.95431 31.0457 0 20 0C8.95431 0 0 8.95431 0 20C0 31.0457 8.95431 40 20 40Z" fill="#55ACEE"/>
<path d="M32.2502 14.3729C31.3932 14.7529 30.4712 15.01 29.5043 15.1248C30.4915 14.5333 31.2491 13.5975 31.6067 12.4805C30.683 13.0285 29.6594 13.426 28.571 13.6402C27.6989 12.7115 26.4565 12.1311 25.0807 12.1311C22.441 12.1311 20.3001 14.272 20.3001 16.9117C20.3001 17.2864 20.3425 17.6511 20.4245 18.0012C16.4515 17.8019 12.9287 15.8988 10.5707 13.0056C10.1593 13.7116 9.92325 14.5333 9.92325 15.4093C9.92325 17.0675 10.7678 18.5313 12.0499 19.3884C11.2666 19.3638 10.529 19.1488 9.88475 18.7898C9.88439 18.8101 9.88439 18.8305 9.88439 18.8504C9.88439 21.1667 11.5329 23.0987 13.7195 23.5376C13.3187 23.6474 12.8955 23.7055 12.4602 23.7055C12.1515 23.7055 11.8524 23.6759 11.5607 23.6203C12.169 25.5191 13.9341 26.9013 16.0265 26.9402C14.3901 28.2226 12.329 28.9866 10.0887 28.9866C9.70363 28.9866 9.32216 28.9641 8.94888 28.9196C11.0634 30.2765 13.5769 31.0676 16.2764 31.0676C25.0696 31.0676 29.8783 23.7832 29.8783 17.4653C29.8783 17.2582 29.8737 17.0518 29.8644 16.8471C30.7992 16.1733 31.6096 15.3316 32.2502 14.3729Z" fill="#F1F2F2"/>
</svg>
