<svg height="511pt" viewBox="0 0 511 511.99986" width="511pt" xmlns="http://www.w3.org/2000/svg"><path fill="#20b6ea" d="m506.179688 303.765625-54.6875-38.863281v-68.90625c0-8.285156-6.71875-15-15-15-8.285157 0-15 6.714844-15 15v47.589844l-30-21.320313v-56.269531c0-8.28125-6.714844-15-15-15-8.285157 0-15 6.71875-15 15v34.949218l-45-31.976562v-108.96875c0-33.085938-26.914063-60-59.996094-60-33.085938 0-60 26.914062-60 60v108.96875l-45 31.976562v-34.949218c0-8.28125-6.714844-15-15-15-8.28125 0-15 6.71875-15 15v56.269531l-29.996094 21.320313v-47.589844c0-8.285156-6.71875-15-15-15-8.285156 0-15 6.714844-15 15v68.90625l-54.6875 38.863281c-3.960938 2.8125-6.3125 7.371094-6.3125 12.226563v30c0 9.996093 9.582031 17.136718 19.101562 14.429687l177.535157-50.46875 4.625 60.402344-74.046875 53.476562c-3.90625 2.820313-6.21875 7.34375-6.21875 12.160157v61c0 10.316406 10.171875 17.5 19.855468 14.191406l69.371094-23.734375.816406 10.683593c.597657 7.816407 7.117188 13.855469 14.957032 13.855469h60c7.839844 0 14.355468-6.039062 14.953125-13.855469l.820312-10.683593 69.367188 23.734375c9.707031 3.320312 19.855469-3.894532 19.855469-14.191406v-61c0-4.816407-2.3125-9.339844-6.21875-12.160157l-74.042969-53.476562 4.621093-60.402344 177.535157 50.46875c1.351562.382813 2.730469.570313 4.101562.570313 8.289063 0 15-6.726563 15-15v-30c0-4.855469-2.351562-9.414063-6.308593-12.226563zm-309.683594-24.816406-165.996094 47.1875v-2.402344l165.996094-117.960937zm-45 197.054687v-32.34375l52.949218-38.238281 3.910157 51.132813zm135-175.582031c-.855469 11.160156-13.503906 176.421875-13.898438 181.570313h-32.207031c-.148437-1.9375-13.550781-177.054688-13.894531-181.570313v-240.421875c0-16.542969 13.457031-30 30-30 16.539062 0 30 13.457031 30 30zm74.996094 143.238281v32.34375l-56.859376-19.449218 3.914063-51.132813zm121-117.523437-166-47.1875v-73.175781l166 117.960937zm0 0"/></svg>