<?xml version="1.0" encoding="utf-8"?>
<!-- Generator: Adobe Illustrator 16.0.0, SVG Export Plug-In . SVG Version: 6.00 Build 0)  -->
<!DOCTYPE svg PUBLIC "-//W3C//DTD SVG 1.1//EN" "http://www.w3.org/Graphics/SVG/1.1/DTD/svg11.dtd">
<svg version="1.1" id="Слой_1" xmlns="http://www.w3.org/2000/svg" xmlns:xlink="http://www.w3.org/1999/xlink" x="0px" y="0px"
	 width="511px" height="511px" viewBox="0 0 511 511" enable-background="new 0 0 511 511" xml:space="preserve">
<linearGradient id="SVGID_1_" gradientUnits="userSpaceOnUse" x1="170" y1="100" x2="380" y2="260">
   <stop offset="0" style="stop-opacity:1; stop-color:#14C6E5; /*stop-color:#00D9FF;*/"/>
   <stop offset="0.501961" style="stop-opacity:1;stop-color:#3993F6; /*stop-color:#007AFF;*/"/>
   <stop offset="1" style="stop-opacity:1;stop-color:#B873E5; /*stop-color:#B357EF;*/"/>
	</linearGradient>
<path style="fill-rule:evenodd;clip-rule:evenodd;fill:url(#SVGID_1_);" stroke="#FFFFFF" stroke-width="13" stroke-miterlimit="10" d="M495.449,301.214l-52.338-37.194v-65.945
	c0-7.929-6.431-14.355-14.355-14.355c-7.929,0-14.355,6.426-14.355,14.355v45.545l-28.711-20.404v-53.852
	c0-7.926-6.426-14.355-14.355-14.355s-14.355,6.43-14.355,14.355v33.447l-43.066-30.603V67.922
	c0-31.664-25.758-57.421-57.418-57.421c-31.665,0-57.422,25.757-57.422,57.421v104.287l-43.066,30.603v-33.447
	c0-7.926-6.426-14.355-14.355-14.355c-7.925,0-14.355,6.43-14.355,14.355v53.852L98.588,243.62v-45.545
	c0-7.929-6.43-14.355-14.355-14.355c-7.929,0-14.355,6.426-14.355,14.355v65.945L17.54,301.214c-3.791,2.691-6.042,7.054-6.042,11.7
	v28.711c0,9.566,9.17,16.4,18.281,13.81l169.906-48.3l4.427,57.807l-70.865,51.179c-3.738,2.699-5.952,7.028-5.952,11.638v58.379
	c0,9.874,9.735,16.748,19.002,13.582l66.39-22.715l0.781,10.225c0.572,7.48,6.812,13.26,14.314,13.26h57.422
	c7.503,0,13.739-5.779,14.311-13.26l0.784-10.225l66.388,22.715c9.289,3.178,19.002-3.727,19.002-13.582v-58.379
	c0-4.609-2.214-8.938-5.952-11.638l-70.861-51.179l4.424-57.807l169.905,48.3c1.294,0.366,2.614,0.546,3.926,0.546
	c7.933,0,14.355-6.437,14.355-14.355v-28.711C501.486,308.268,499.236,303.905,495.449,301.214z M199.072,277.463l-158.863,45.16
	v-2.299l158.863-112.893V277.463z M156.006,466.051v-30.954l50.674-36.596l3.743,48.937L156.006,466.051z M285.205,298.013
	c-0.818,10.681-12.924,168.841-13.301,173.769h-30.824c-0.142-1.854-12.968-169.446-13.297-173.769V67.922
	c0-15.832,12.879-28.71,28.711-28.71c15.828,0,28.711,12.878,28.711,28.71V298.013z M356.979,435.097v30.954l-54.416-18.613
	l3.746-48.937L356.979,435.097z M472.779,322.623l-158.867-45.16v-70.031l158.867,112.893V322.623z"/>
</svg>
