<?xml version="1.0" encoding="utf-8"?>
<!-- Generator: Adobe Illustrator 16.0.0, SVG Export Plug-In . SVG Version: 6.00 Build 0)  -->
<!DOCTYPE svg PUBLIC "-//W3C//DTD SVG 1.1//EN" "http://www.w3.org/Graphics/SVG/1.1/DTD/svg11.dtd">
<svg version="1.1" id="Capa_1" xmlns="http://www.w3.org/2000/svg" xmlns:xlink="http://www.w3.org/1999/xlink" x="0px" y="0px"
	 width="512px" height="512px" viewBox="0 0 512 512" enable-background="new 0 0 512 512" xml:space="preserve">
<linearGradient id="SVGID_1_" gradientUnits="userSpaceOnUse" x1="170" y1="100" x2="380" y2="260">
   <stop offset="0" style="stop-opacity:1; stop-color:#14C6E5; /*stop-color:#00D9FF;*/"/>
   <stop offset="0.501961" style="stop-opacity:1;stop-color:#3993F6; /*stop-color:#007AFF;*/"/>
   <stop offset="1" style="stop-opacity:1;stop-color:#B873E5; /*stop-color:#B357EF;*/"/>
	</linearGradient>
<path style="fill-rule:evenodd;clip-rule:evenodd;fill:url(#SVGID_1_);" stroke="#FFFFFF" stroke-width="13" stroke-miterlimit="10" d="M472.11,455.35
	c-4.055-1.4-8.216-2.877-12.622-4.441c-6.644-2.358-13.671-4.852-20.965-7.288c-10.832-23.948-34.285-44.366-67.987-59.137
	c-5.414-2.372-11.071-4.552-16.898-6.563c5.146-54.391-3.334-103.134-25.229-144.89c-17.541-33.45-42.928-61.055-75.661-82.354
	c0.532-0.251,1.055-0.527,1.553-0.851l14.546-9.459l16.959,3.672c3.438,0.744,7.029,0.084,9.977-1.833l14.547-9.458l16.958,3.671
	c3.438,0.744,7.03,0.085,9.979-1.832l14.547-9.458l16.959,3.672c4.446,0.963,9.074-0.435,12.244-3.698
	c3.171-3.262,4.436-7.929,3.345-12.346c-5.921-23.999-21.299-42.195-44.47-52.624c-19.726-8.878-43.73-11.275-67.591-6.75
	c-23.417,4.44-44.268,15.167-58.714,30.205c-2.671,2.781-5.103,5.674-7.29,8.672c-1.779-3.933-3.907-7.806-6.388-11.601
	c-11.566-17.692-30.064-32.302-52.083-41.135c-21.612-8.669-44.425-10.814-64.238-6.038c-23.381,5.638-41.137,20.204-51.352,42.129
	c-1.91,4.099-1.585,8.891,0.859,12.696c2.445,3.804,6.689,6.106,11.192,6.056l16.758-0.128l11.889,11.813
	c2.495,2.479,5.866,3.86,9.393,3.83l16.758-0.128l11.888,11.812c2.471,2.455,5.811,3.831,9.292,3.831h0.1l16.902-0.128
	c0.984,0.906,1.938,1.753,2.868,2.555c-2.388,0.141-4.796,0.381-7.226,0.733c-20.637,2.988-41.5,13.694-58.745,30.145
	c-17.572,16.764-29.601,37.674-33.871,58.879c-5.015,24.91,0.824,48.008,16.886,66.796c2.525,2.954,6.198,4.617,10.02,4.617
	c0.652,0,1.309-0.048,1.965-0.146c4.499-0.678,8.331-3.627,10.137-7.803l6.889-15.926l16.161-6.316
	c3.275-1.281,5.903-3.817,7.299-7.044l6.89-15.926l16.161-6.318c3.275-1.28,5.902-3.816,7.298-7.043l6.89-15.926l16.161-6.318
	c3.274-1.28,5.903-3.816,7.299-7.044l6.889-15.925l16.161-6.319c0.762-0.298,1.484-0.665,2.166-1.088
	c35.863,54.769,45.261,130.078,22.089,194.759c-28.69,3.409-55.826,10.596-78.824,21.056c-31.94,14.526-54.864,34.935-65.332,57.95
	c-6.051,2.051-12.13,4.198-18.274,6.369c-5.005,1.769-10.18,3.598-15.312,5.358c-6.886,2.365-10.553,9.864-8.188,16.751
	c2.364,6.886,9.867,10.553,16.75,8.188c5.244-1.8,10.476-3.649,15.536-5.437c29.42-10.397,57.208-20.216,86.089-20.216
	c15.774,0,31.563,5.987,48.278,12.326c18.202,6.903,37.022,14.041,57.628,14.041c20.605,0,39.426-7.138,57.628-14.041
	c16.715-6.34,32.504-12.326,48.277-12.326c29.248,0,60.865,11.224,88.762,21.128c4.464,1.584,8.679,3.081,12.845,4.519
	c1.424,0.491,2.874,0.724,4.301,0.724c5.467,0,10.578-3.429,12.462-8.888C482.649,465.229,478.994,457.724,472.11,455.35z
	 M256.552,293.2c0.166-17.177-1.407-34.332-4.603-51.079c14.742-4.716,27.862-12.128,37.772-21.438
	c10.221,13.8,18.482,28.939,24.73,45.285c-11.104,13.969-32.11,24.226-55.58,26.988C258.103,293.046,257.328,293.127,256.552,293.2
	L256.552,293.2z M277.211,79.29c25.336-4.802,54.556-0.16,70.813,18.662c-2.113,0.195-4.168,0.898-5.979,2.077l-14.546,9.458
	l-16.959-3.672c-3.438-0.744-7.027-0.084-9.977,1.833l-14.547,9.458l-16.958-3.672c-3.437-0.744-7.03-0.084-9.979,1.833
	l-14.546,9.459l-16.958-3.672c-0.924-0.201-1.859-0.299-2.79-0.299c-1.405,0-2.801,0.224-4.132,0.665
	C228.229,98.454,252.163,84.041,277.211,79.29L277.211,79.29z M125.657,98.987l-11.888-11.812c-2.494-2.479-5.868-3.89-9.393-3.83
	l-16.757,0.128L75.73,71.662c-1.52-1.51-3.369-2.612-5.377-3.236c18.159-14.349,44.934-13.542,67.655-4.428
	c24.043,9.646,46.198,29.743,48.407,54.8c-6.074-3.172-10.986-3.913-15.967-4.299c-3.932-0.305-7.327-0.568-18.64-11.809
	c-2.472-2.455-5.812-3.831-9.292-3.831c-0.033,0-0.066,0-0.1,0L125.657,98.987z M155.217,161.744l-6.889,15.926l-16.161,6.318
	c-3.275,1.28-5.902,3.816-7.298,7.043l-6.89,15.926l-16.16,6.318c-3.275,1.28-5.903,3.816-7.3,7.043l-6.89,15.926l-16.161,6.318
	c-2.013,0.788-3.781,2.048-5.168,3.653c-5.831-24.177,7.405-50.639,26.063-68.437c14.542-13.873,33.563-23.684,52.271-23.684
	c5.023,0,10.025,0.708,14.91,2.234C157.661,157.704,156.158,159.566,155.217,161.744L155.217,161.744z M272.596,200.656
	c-0.216,0.18-0.434,0.355-0.64,0.551c-6.745,6.433-15.852,11.68-26.291,15.238c-5.629-18.719-13.371-36.623-23.145-53.092
	C241.726,173.765,258.451,186.267,272.596,200.656z M254.899,319.762c0.227-0.004,0.453-0.008,0.681-0.024
	c2.123-0.147,4.266-0.347,6.375-0.596c23.765-2.797,45.351-11.648,61.084-24.599c5.26,23.419,6.902,48.835,4.776,75.951
	c-22.656-5.317-47.12-8.15-71.813-8.15c-3.309,0-6.61,0.056-9.903,0.155C250.325,348.545,253.24,334.222,254.899,319.762
	L254.899,319.762z M304.278,442.302c-16.717,6.339-32.504,12.327-48.278,12.327c-15.774,0-31.563-5.988-48.278-12.327
	c-18.202-6.902-37.022-14.04-57.628-14.04c-12.231,0-23.988,1.419-35.53,3.762c9.145-8.329,21.02-15.918,35.178-22.358
	c29.711-13.513,67.448-20.954,106.261-20.954c59.436,0,113.415,17.35,141.83,43.573c-11.924-2.46-24.022-4.022-35.926-4.022
	C341.3,428.262,322.479,435.399,304.278,442.302z"/>
</svg>
