<svg id="Capa_1" enable-background="new 0 0 511.999 511.999" height="512" viewBox="0 0 511.999 511.999" width="512" xmlns="http://www.w3.org/2000/svg"><path fill="#20b6ea" d="m501.886 482.815c-4.613-1.592-9.349-3.273-14.362-5.053-7.559-2.683-15.554-5.52-23.853-8.292-12.324-27.247-39.009-50.479-77.354-67.284-6.161-2.7-12.597-5.179-19.227-7.468 5.855-61.885-3.793-117.343-28.706-164.853-19.957-38.059-48.842-69.467-86.085-93.701.605-.286 1.2-.599 1.767-.968l16.551-10.762 19.295 4.178c3.912.846 7.998.096 11.352-2.085l16.551-10.762 19.295 4.178c3.911.846 7.997.096 11.352-2.084l16.551-10.762 19.295 4.178c5.059 1.096 10.325-.495 13.932-4.207s5.046-9.022 3.806-14.047c-6.737-27.305-24.234-48.009-50.598-59.874-22.442-10.101-49.754-12.828-76.902-7.679-26.643 5.052-50.368 17.257-66.804 34.366-3.039 3.164-5.805 6.456-8.294 9.867-2.024-4.475-4.445-8.881-7.268-13.199-13.16-20.13-34.206-36.752-59.259-46.802-24.59-9.864-50.546-12.304-73.089-6.87-26.602 6.414-46.805 22.988-58.427 47.933-2.173 4.664-1.804 10.116.978 14.445 2.782 4.328 7.61 6.948 12.733 6.89l19.067-.146 13.527 13.44c2.838 2.82 6.674 4.392 10.687 4.358l19.067-.146 13.526 13.439c2.812 2.793 6.612 4.359 10.572 4.359h.114l19.23-.146c1.12 1.031 2.205 1.995 3.263 2.907-2.717.16-5.457.434-8.221.834-23.48 3.4-47.217 15.581-66.838 34.298-19.994 19.073-33.68 42.864-38.538 66.991-5.706 28.342.938 54.623 19.212 76 2.873 3.361 7.052 5.253 11.4 5.253.742 0 1.49-.055 2.236-.167 5.118-.771 9.478-4.126 11.533-8.877l7.838-18.12 18.387-7.188c3.727-1.457 6.716-4.342 8.305-8.014l7.839-18.12 18.387-7.189c3.726-1.457 6.716-4.342 8.304-8.014l7.839-18.12 18.387-7.189c3.726-1.457 6.716-4.342 8.305-8.015l7.838-18.12 18.387-7.189c.867-.339 1.689-.756 2.464-1.238 40.804 62.315 51.497 148 25.132 221.592-32.643 3.879-63.517 12.056-89.684 23.957-36.34 16.528-62.423 39.747-74.333 65.934-6.885 2.334-13.801 4.777-20.792 7.247-5.694 2.012-11.582 4.093-17.421 6.097-7.835 2.69-12.007 11.222-9.317 19.058 2.69 7.835 11.226 12.007 19.058 9.317 5.967-2.048 11.919-4.152 17.676-6.186 33.474-11.829 65.091-23.001 97.951-23.001 17.947 0 35.911 6.813 54.93 14.025 20.709 7.854 42.123 15.975 65.568 15.975 23.444 0 44.858-8.121 65.567-15.975 19.019-7.213 36.983-14.025 54.93-14.025 33.277 0 69.251 12.771 100.99 24.039 5.079 1.803 9.875 3.506 14.615 5.141 1.62.559 3.27.824 4.893.824 6.221 0 12.036-3.901 14.179-10.112 2.701-7.83-1.457-16.369-9.289-19.071zm-245.258-184.489c.188-19.544-1.601-39.062-5.237-58.117 16.773-5.366 31.701-13.799 42.977-24.392 11.628 15.701 21.029 32.926 28.138 51.524-12.635 15.893-36.535 27.564-63.238 30.707-.875.102-1.757.194-2.64.278zm23.506-243.382c28.826-5.464 62.071-.182 80.569 21.233-2.404.221-4.742 1.021-6.803 2.362l-16.55 10.762-19.295-4.178c-3.912-.846-7.997-.096-11.352 2.085l-16.551 10.762-19.295-4.178c-3.909-.846-7.997-.096-11.352 2.085l-16.551 10.762-19.295-4.178c-1.051-.228-2.115-.34-3.174-.34-1.599 0-3.187.255-4.702.756 8.62-26.129 35.851-42.528 64.351-47.933zm-172.435 22.411-13.526-13.439c-2.838-2.82-6.676-4.426-10.687-4.358l-19.066.146-13.527-13.44c-1.729-1.718-3.833-2.972-6.118-3.682 20.661-16.325 51.125-15.407 76.976-5.038 27.356 10.974 52.563 33.841 55.076 62.35-6.911-3.609-12.5-4.452-18.167-4.891-4.473-.347-8.336-.646-21.208-13.435-2.812-2.793-6.612-4.359-10.572-4.359-.038 0-.076 0-.114 0zm33.632 71.403-7.838 18.12-18.387 7.189c-3.726 1.457-6.716 4.342-8.304 8.014l-7.839 18.12-18.387 7.189c-3.726 1.457-6.716 4.342-8.305 8.014l-7.839 18.12-18.387 7.189c-2.29.896-4.302 2.33-5.881 4.156-6.634-27.508 8.426-57.615 29.654-77.865 16.546-15.784 38.187-26.947 59.473-26.947 5.716 0 11.406.805 16.965 2.542-2.144 1.562-3.854 3.681-4.925 6.159zm133.551 44.273c-.245.205-.493.404-.728.627-7.673 7.319-18.036 13.29-29.913 17.338-6.405-21.298-15.213-41.669-26.334-60.407 21.852 11.846 40.882 26.07 56.975 42.442zm-20.134 135.516c.258-.005.515-.009.775-.027 2.414-.168 4.854-.396 7.253-.679 27.039-3.182 51.598-13.253 69.499-27.987 5.985 26.645 7.854 55.563 5.435 86.415-25.778-6.05-53.612-9.274-81.708-9.274-3.764 0-7.52.064-11.267.177 4.808-15.876 8.125-32.173 10.013-48.625zm56.181 139.423c-19.019 7.212-36.982 14.025-54.929 14.025s-35.911-6.813-54.93-14.025c-20.709-7.854-42.123-15.975-65.568-15.975-13.917 0-27.293 1.615-40.425 4.28 10.405-9.476 23.915-18.111 40.025-25.438 33.804-15.375 76.741-23.842 120.901-23.842 67.625 0 129.04 19.74 161.37 49.577-13.566-2.799-27.332-4.577-40.875-4.577-23.446 0-44.86 8.121-65.569 15.975z"/></svg>