<?xml version="1.0" encoding="iso-8859-1"?>
<!-- Generator: Adobe Illustrator 19.0.0, SVG Export Plug-In . SVG Version: 6.00 Build 0)  -->
<svg version="1.1" id="Layer_1" xmlns="http://www.w3.org/2000/svg" xmlns:xlink="http://www.w3.org/1999/xlink" x="0px" y="0px"
	 viewBox="0 0 512.31 512.31" style="enable-background:new 0 0 512.31 512.31;" xml:space="preserve">
<g>
	<g>
		<circle fill="#00C7CB" cx="430.545" cy="372.518" r="11.636"/>
	</g>
</g>
<g>
	<g>
		<path fill="#00C7CB" d="M508.509,294.555c-20.945-20.945-51.2-30.255-80.291-27.927c-3.491-13.964-9.309-44.218-16.291-75.636l27.927,6.982
			c3.491,1.164,6.982,0,10.473-2.327c2.327-2.327,4.655-5.818,4.655-9.309v-69.818c0-3.491-1.164-6.982-4.655-9.309
			c-3.491-2.327-6.982-2.327-10.473-2.327l-47.709,9.309c-6.982-17.455-19.782-44.218-54.691-44.218
			c-2.327,0-4.655,1.164-6.982,2.327l-34.909,23.273c-5.818,3.491-6.982,10.473-3.491,16.291s10.473,6.982,16.291,3.491
			l32.582-22.109c18.618,1.164,25.6,17.455,31.418,36.073l1.164,2.327c2.327,5.818,8.145,9.309,12.8,8.145l44.218-9.309v40.727
			l-32.582-8.145c-3.491-1.164-8.146,0-10.473,3.491s-4.655,6.982-3.491,10.473c8.145,36.073,17.455,75.636,20.945,93.091
			c-17.455,4.655-34.909,13.964-48.873,27.927c-6.982,6.982-12.8,15.127-17.455,23.273c-3.491,5.818-1.164,12.8,4.655,16.291
			c5.818,3.491,12.8,1.164,16.291-4.655c3.491-6.982,8.146-12.8,13.964-18.618c27.927-27.927,73.309-33.745,104.727-15.127
			l-118.691,51.2c-10.473,4.655-17.455,8.145-22.109,10.473H174.545H58.182H23.273c1.164-73.309,10.473-104.727,58.182-104.727
			c4.655,0,8.145-2.327,10.473-6.982c2.327-3.491,1.164-8.145-1.164-11.636l-20.945-27.927h128c6.982,0,11.636,4.655,11.636,11.636
			V302.7c0,6.982,4.655,11.636,11.636,11.636h70.982c17.455,0,34.909-8.145,45.382-22.109l20.945-25.6
			c9.309-11.636,13.964-26.764,12.8-41.891l-10.473-97.745c-1.164-5.818-5.818-10.473-12.8-10.473
			c-5.818,1.164-11.636,5.818-10.473,12.8l9.309,97.745c1.164,9.309-2.327,18.618-6.982,25.6l-20.945,25.6
			c-6.982,8.145-16.291,12.8-26.764,12.8h-59.345v-69.818c0-19.782-15.127-34.909-34.909-34.909H46.545
			c-4.655,0-8.145,2.327-10.473,6.982s-1.164,8.145,1.164,11.636l22.109,30.255C0,248.009,0,316.664,0,372.518
			c0,6.982,4.655,11.636,11.636,11.636h36.073c5.818,32.582,33.745,58.182,68.655,58.182c34.909,0,62.836-25.6,68.655-58.182
			h152.436c1.164,0,3.491,0,4.655-1.164c0,0,8.146-3.491,18.618-8.145c1.164,37.236,32.582,67.491,69.818,67.491
			c38.4,0,69.818-31.418,69.818-69.818c0-18.618-6.982-36.073-19.782-48.873c15.127-5.818,24.436-10.473,24.436-10.473
			c3.491-1.164,5.818-4.655,6.982-8.145C513.164,301.536,510.836,296.882,508.509,294.555z M116.364,419.064
			c-22.109,0-39.564-15.127-45.382-34.909h89.6C155.927,403.937,138.473,419.064,116.364,419.064z M430.545,419.064
			c-25.6,0-46.545-20.945-46.545-46.545c0-2.327,0-4.655,1.164-8.145c22.109-9.309,50.036-20.945,72.145-31.418
			c0,1.164,1.164,2.327,1.164,2.327c11.636,9.309,18.618,22.109,18.618,37.236C477.091,398.118,456.145,419.064,430.545,419.064z"/>
	</g>
</g>
<g>
	<g>
		<path fill="#00C7CB" d="M104.727,314.337H58.182c-6.982,0-11.636,4.655-11.636,11.636s4.655,11.636,11.636,11.636h46.545
			c6.982,0,11.636-4.655,11.636-11.636S111.709,314.337,104.727,314.337z"/>
	</g>
</g>
<g>
</g>
<g>
</g>
<g>
</g>
<g>
</g>
<g>
</g>
<g>
</g>
<g>
</g>
<g>
</g>
<g>
</g>
<g>
</g>
<g>
</g>
<g>
</g>
<g>
</g>
<g>
</g>
<g>
</g>
</svg>
