<?xml version="1.0" encoding="iso-8859-1"?>
<!-- Generator: Adobe Illustrator 19.0.0, SVG Export Plug-In . SVG Version: 6.00 Build 0)  -->
<svg version="1.1" id="Capa_1" xmlns="http://www.w3.org/2000/svg" xmlns:xlink="http://www.w3.org/1999/xlink" x="0px" y="0px"
	 viewBox="0 0 512 512" style="enable-background:new 0 0 512 512;" xml:space="preserve">
<g>
	<g>
		<path fill="#2A3D71" d="M458.708,115.875C451.036,100.532,435.613,91,418.459,91H75c-41.355,0-75,33.645-75,75v180c0,24.813,20.187,45,45,45
			h23.072c10.391,17.916,29.769,30,51.928,30s41.537-12.084,51.928-30h168.144c10.391,17.916,29.769,30,51.928,30
			s41.537-12.084,51.928-30H467c24.813,0,45-20.187,45-45v-56.262C512,199.187,470.453,144.633,458.708,115.875z M457.633,181
			c8.983,19.073,15.565,39.289,19.607,60H392v-60H457.633z M120,391c-16.542,0-30-13.458-30-30s13.458-30,30-30s30,13.458,30,30
			S136.542,391,120,391z M392,391c-16.542,0-30-13.458-30-30s13.458-30,30-30s30,13.458,30,30S408.542,391,392,391z M482,301h-15
			c-8.284,0-15,6.716-15,15s6.716,15,15,15h15v15c0,8.271-6.729,15-15,15h-15c0-33.084-26.916-60-60-60s-60,26.916-60,60H180
			c0-33.084-26.916-60-60-60s-60,26.916-60,60H45c-8.271,0-15-6.729-15-15v-15h15c8.284,0,15-6.716,15-15s-6.716-15-15-15H30V166
			c0-24.813,20.187-45,45-45h343.459c5.719,0,10.859,3.177,13.417,8.292L442.73,151H377c-8.284,0-15,6.716-15,15v90
			c0,8.284,6.716,15,15,15h104.274c0.465,6.237,0.726,12.487,0.726,18.738V301z"/>
	</g>
</g>
<g>
	<g>
		<path fill="#2A3D71" d="M317,151h-92c-8.284,0-15,6.716-15,15v90c0,8.284,6.716,15,15,15h92c8.284,0,15-6.716,15-15v-90
			C332,157.716,325.284,151,317,151z M302,241h-62v-60h62V241z"/>
	</g>
</g>
<g>
	<g>
		<path  fill="#2A3D71" d="M165,151H75c-8.284,0-15,6.716-15,15v90c0,8.284,6.716,15,15,15h90c8.284,0,15-6.716,15-15v-90
			C180,157.716,173.284,151,165,151z M150,241H90v-60h60V241z"/>
	</g>
</g>
<g>
</g>
<g>
</g>
<g>
</g>
<g>
</g>
<g>
</g>
<g>
</g>
<g>
</g>
<g>
</g>
<g>
</g>
<g>
</g>
<g>
</g>
<g>
</g>
<g>
</g>
<g>
</g>
<g>
</g>
</svg>
