<?xml version="1.0" encoding="utf-8"?>
<!-- Generator: Adobe Illustrator 16.0.0, SVG Export Plug-In . SVG Version: 6.00 Build 0)  -->
<!DOCTYPE svg PUBLIC "-//W3C//DTD SVG 1.1//EN" "http://www.w3.org/Graphics/SVG/1.1/DTD/svg11.dtd">
<svg version="1.1" id="Capa_1" xmlns="http://www.w3.org/2000/svg" xmlns:xlink="http://www.w3.org/1999/xlink" x="0px" y="0px"
	 width="512px" height="512px" viewBox="0 0 512 512" enable-background="new 0 0 512 512" xml:space="preserve">
<linearGradient id="SVGID_1_" gradientUnits="userSpaceOnUse" x1="170" y1="100" x2="380" y2="260">
   <stop offset="0" style="stop-opacity:1; stop-color:#14C6E5; /*stop-color:#00D9FF;*/"/>
   <stop offset="0.501961" style="stop-opacity:1;stop-color:#3993F6; /*stop-color:#007AFF;*/"/>
   <stop offset="1" style="stop-opacity:1;stop-color:#B873E5; /*stop-color:#B357EF;*/"/>
	</linearGradient>
<path style="fill-rule:evenodd;clip-rule:evenodd;fill:url(#SVGID_1_);"  stroke="#FFFFFF" stroke-width="12" stroke-miterlimit="10" d="M425.705,86.294
	C380.375,40.965,320.106,16,255.999,16c-64.105,0-124.375,24.965-169.705,70.294C40.965,131.625,16.001,191.894,16.001,256
	c0,64.105,24.964,124.374,70.293,169.705c45.33,45.33,105.6,70.295,169.705,70.295c64.106,0,124.375-24.965,169.706-70.295
	c45.33-45.33,70.294-105.599,70.294-169.705C495.999,191.894,471.035,131.625,425.705,86.294L425.705,86.294z M255.999,467.875
	c-116.828,0-211.873-95.047-211.873-211.875c0-116.829,95.045-211.875,211.873-211.875c116.829,0,211.875,95.046,211.875,211.875
	C467.874,372.828,372.828,467.875,255.999,467.875z"/>
<path style="fill-rule:evenodd;clip-rule:evenodd;fill:url(#SVGID_1_);"  stroke="#FFFFFF" stroke-width="12" stroke-miterlimit="10" d="M300.188,256
	c0-24.364-19.823-44.188-44.188-44.188c-24.365,0-44.187,19.824-44.187,44.188c0,24.365,19.822,44.188,44.187,44.188
	C280.364,300.188,300.188,280.364,300.188,256z M239.937,256c0-8.858,7.205-16.063,16.062-16.063
	c8.857,0,16.063,7.205,16.063,16.063c0,8.856-7.206,16.063-16.063,16.063C247.142,272.063,239.937,264.856,239.937,256z"/>
<path style="fill-rule:evenodd;clip-rule:evenodd;fill:url(#SVGID_1_);"  stroke="#FFFFFF" stroke-width="12" stroke-miterlimit="10" d="M255.999,76.25
	C156.885,76.25,76.25,156.885,76.25,256c0,99.114,80.635,179.75,179.749,179.75c99.116,0,179.751-80.636,179.751-179.75
	C435.75,156.885,355.115,76.25,255.999,76.25L255.999,76.25z M255.999,104.375c43.17,0,82.184,18.136,109.824,47.187H146.177
	C173.818,122.51,212.83,104.375,255.999,104.375z M112.336,304.521h18.828c42.081,0.005,76.316,34.241,76.316,76.318v18.825
	C162.836,384.547,127.454,349.164,112.336,304.521L112.336,304.521z M235.605,406.249V380.84
	c0-57.583-46.851-104.437-104.439-104.443h-25.415c-0.901-6.673-1.376-13.479-1.376-20.396c0-27.807,7.531-53.884,20.65-76.313
	h261.95c13.118,22.429,20.65,48.506,20.65,76.313c0,6.916-0.476,13.723-1.377,20.396H380.83
	c-57.585,0.007-104.434,46.86-104.434,104.443v25.409c-6.673,0.901-13.479,1.377-20.396,1.377
	C249.083,407.625,242.278,407.15,235.605,406.249z M304.521,399.664v-18.825c0-42.077,34.234-76.313,76.312-76.318h18.832
	C384.547,349.164,349.164,384.547,304.521,399.664L304.521,399.664z"/>
</svg>
