<svg id="Capa_1" enable-background="new 0 0 512 512" height="512" viewBox="0 0 512 512" width="512" xmlns="http://www.w3.org/2000/svg"><path fill="#00C7CB" d="m437.019 74.981c-48.352-48.352-112.639-74.981-181.02-74.981-68.379 0-132.666 26.629-181.018 74.981-48.352 48.353-74.98 112.639-74.98 181.019 0 68.379 26.628 132.666 74.98 181.019 48.352 48.352 112.639 74.981 181.018 74.981 68.38 0 132.667-26.629 181.02-74.981 48.352-48.352 74.98-112.639 74.98-181.019s-26.628-132.667-74.98-181.019zm-181.02 407.019c-124.616 0-225.998-101.383-225.998-226s101.382-226 225.998-226c124.617 0 226 101.383 226 226s-101.383 226-226 226z"/><path fill="#00C7CB" d="m303.133 256c0-25.989-21.144-47.134-47.134-47.134-25.989 0-47.133 21.145-47.133 47.134s21.144 47.133 47.133 47.133c25.99 0 47.134-21.144 47.134-47.133zm-64.267 0c0-9.448 7.686-17.134 17.133-17.134 9.448 0 17.134 7.686 17.134 17.134 0 9.447-7.686 17.133-17.134 17.133-9.447 0-17.133-7.686-17.133-17.133z"/><path fill="#00C7CB" d="m255.999 64.267c-105.721 0-191.732 86.011-191.732 191.733s86.011 191.733 191.732 191.733c105.723 0 191.734-86.011 191.734-191.733s-86.011-191.733-191.734-191.733zm0 30c46.048 0 87.662 19.345 117.145 50.333h-234.288c29.483-30.989 71.096-50.333 117.143-50.333zm-153.24 213.488h20.083c44.886.006 81.403 36.524 81.403 81.406v20.081c-47.62-16.126-85.361-53.867-101.486-101.487zm131.486 108.511v-27.104c0-61.422-49.974-111.398-111.401-111.406h-27.109c-.961-7.118-1.468-14.378-1.468-21.755 0-29.66 8.033-57.476 22.027-81.4h279.413c13.993 23.924 22.027 51.74 22.027 81.4 0 7.377-.507 14.637-1.468 21.755h-27.113c-61.425.008-111.397 49.984-111.397 111.406v27.104c-7.118.961-14.378 1.468-21.756 1.468-7.378-.001-14.637-.507-21.755-1.468zm73.51-7.024v-20.081c0-44.882 36.517-81.4 81.399-81.406h20.087c-16.125 47.62-53.866 85.361-101.486 101.487z"/></svg>