<?xml version="1.0" encoding="utf-8"?>
<!-- Generator: Adobe Illustrator 16.0.0, SVG Export Plug-In . SVG Version: 6.00 Build 0)  -->
<!DOCTYPE svg PUBLIC "-//W3C//DTD SVG 1.1//EN" "http://www.w3.org/Graphics/SVG/1.1/DTD/svg11.dtd">
<svg version="1.1" id="Layer_1" xmlns="http://www.w3.org/2000/svg" xmlns:xlink="http://www.w3.org/1999/xlink" x="0px" y="0px"
	 width="1000px" height="302px" viewBox="0 0 1000 302" enable-background="new 0 0 1000 302" xml:space="preserve">
<g>
	<g>
		<g>
			<path fill="#00C7CB" stroke="#FFFFFF" stroke-width="4" stroke-miterlimit="10" d="M615.907,152.069V116.23
				c0-12.153-9.427-22.037-21.337-22.995L561.287,35.1c-3.084-5.376-8.064-9.219-14.024-10.815
				c-5.932-1.585-12.134-0.752-17.442,2.337L415.723,93.048h-20.04c-12.785,0-23.182,10.396-23.182,23.182v139.088
				c0,12.785,10.396,23.182,23.182,23.182h197.042c12.784,0,23.182-10.396,23.182-23.182v-35.84c6.731-2.4,11.59-8.772,11.59-16.318
				v-34.772C627.497,160.842,622.639,154.47,615.907,152.069z M581.103,93.048H530.59l37.885-22.056L581.103,93.048z
				 M562.716,60.934l-55.162,32.114h-22.88l72.322-42.106L562.716,60.934z M535.654,36.64c2.621-1.534,5.683-1.941,8.608-1.16
				c2.96,0.792,5.428,2.705,6.962,5.382l0.012,0.021l-89.598,52.165h-22.879L535.654,36.64z M604.316,255.318
				c0,6.39-5.201,11.591-11.591,11.591H395.683c-6.389,0-11.59-5.201-11.59-11.591V116.23c0-6.39,5.201-11.591,11.59-11.591h197.042
				c6.39,0,11.591,5.201,11.591,11.591v34.772h-34.772c-19.175,0-34.772,15.598-34.772,34.772s15.598,34.772,34.772,34.772h34.772
				V255.318z M615.907,203.16c0,3.197-2.598,5.796-5.795,5.796h-40.568c-12.785,0-23.182-10.396-23.182-23.182
				s10.396-23.183,23.182-23.183h40.568c3.196,0,5.795,2.599,5.795,5.796V203.16z"/>
			<path fill="#00C7CB" stroke="#FFFFFF" stroke-width="4" stroke-miterlimit="10" d="M569.544,174.184
				c-6.39,0-11.591,5.201-11.591,11.591c0,6.389,5.201,11.59,11.591,11.59s11.591-5.201,11.591-11.59
				C581.136,179.385,575.934,174.184,569.544,174.184z"/>
		</g>
	</g>
</g>
</svg>
