<?xml version="1.0" encoding="utf-8"?>
<!-- Generator: Adobe Illustrator 16.0.0, SVG Export Plug-In . SVG Version: 6.00 Build 0)  -->
<!DOCTYPE svg PUBLIC "-//W3C//DTD SVG 1.1//EN" "http://www.w3.org/Graphics/SVG/1.1/DTD/svg11.dtd">
<svg version="1.1" id="Layer_1" xmlns="http://www.w3.org/2000/svg" xmlns:xlink="http://www.w3.org/1999/xlink" x="0px" y="0px"
	 width="512px" height="512px" viewBox="0 0 512 512" enable-background="new 0 0 512 512" xml:space="preserve">
<g>
	<path fill="#00C7CB" stroke="#FFFFFF" stroke-width="13" stroke-miterlimit="10" d="M481.431,427.938
		c-14.727,0-29.133-6.305-41.656-18.233c-8.248-7.857-21.171-7.855-29.418,0.001c-9.175,8.742-19.363,14.448-29.947,16.883
		l37.175-104.735c5.488-15.461,4.61-32.128-2.473-46.928c-7.082-14.8-19.509-25.939-34.994-31.366l-19.361-6.787v-88.241
		c0-15.603-12.693-28.295-28.296-28.295h-22.236l-6.922-52.057C302.376,61.208,296.429,56,289.394,56H222.61
		c-7.035,0-12.982,5.208-13.909,12.181l-6.922,52.057h-22.24c-15.602,0-28.295,12.692-28.295,28.295v88.241l-19.362,6.787
		c-15.484,5.427-27.911,16.566-34.994,31.366c-7.081,14.8-7.959,31.467-2.471,46.928l37.173,104.735
		c-10.586-2.435-20.779-8.141-29.961-16.886c-8.249-7.854-21.169-7.854-29.417,0.004c-12.518,11.928-26.917,18.231-41.644,18.231
		c-7.749,0-14.031,6.282-14.031,14.03c0,7.749,6.282,14.031,14.031,14.031c20.183,0,39.548-7.511,56.355-21.794
		C103.735,448.488,123.105,456,143.289,456c20.182,0,39.547-7.511,56.354-21.794C216.454,448.488,235.825,456,256.006,456
		c20.179,0,39.544-7.508,56.353-21.783C329.168,448.491,348.533,456,368.712,456c20.183,0,39.548-7.511,56.355-21.793
		c16.81,14.281,36.18,21.793,56.363,21.793c7.749,0,14.031-6.282,14.031-14.031C495.462,434.221,489.18,427.938,481.431,427.938z
		 M234.896,84.062h42.207l4.81,36.176h-51.827L234.896,84.062z M179.306,148.532c0-0.129,0.105-0.233,0.234-0.233h152.919
		c0.13,0,0.234,0.104,0.234,0.233v78.405l-56.433-19.78c-6.4-2.242-13.115-3.379-19.837-3.425c-0.143-0.004-0.282-0.022-0.424-0.022
		s-0.281,0.018-0.424,0.022c-6.723,0.046-13.438,1.183-19.837,3.426l-56.433,19.779L179.306,148.532L179.306,148.532z
		 M184.931,409.706c-7.49,7.136-15.655,12.242-24.159,15.208l-39.911-112.446c-2.973-8.379-2.498-17.409,1.34-25.43
		s10.572-14.057,18.962-16.998l100.806-35.33v191.291c-9.748-2.702-19.118-8.2-27.621-16.298
		C206.098,401.849,193.178,401.85,184.931,409.706z M297.655,409.713c-8.503,8.097-17.876,13.594-27.624,16.293V234.71
		l100.805,35.332c8.392,2.94,15.126,8.978,18.963,16.998c3.838,8.019,4.312,17.05,1.339,25.429l-39.912,112.446
		c-8.503-2.965-16.671-8.068-24.162-15.202C318.818,401.864,305.901,401.864,297.655,409.713z"/>
	<path fill="#00C7CB" stroke="#FFFFFF" stroke-width="13" stroke-miterlimit="10" d="M189.063,279.168
		c-20.853,0-37.819,16.937-37.819,37.757c0,20.819,16.966,37.757,37.819,37.757c20.854,0,37.82-16.938,37.82-37.757
		C226.882,296.104,209.917,279.168,189.063,279.168z M189.063,326.619c-5.38,0-9.757-4.349-9.757-9.694
		c0-5.348,4.376-9.696,9.757-9.696s9.757,4.349,9.757,9.696C198.82,322.271,194.443,326.619,189.063,326.619z"/>
	<path fill="#00C7CB" stroke="#FFFFFF" stroke-width="13" stroke-miterlimit="10" d="M360.756,316.925
		c0-20.82-16.966-37.757-37.82-37.757c-20.853,0-37.818,16.937-37.818,37.757c0,20.819,16.966,37.757,37.818,37.757
		C343.79,354.682,360.756,337.744,360.756,316.925z M322.938,326.619c-5.381,0-9.758-4.349-9.758-9.694
		c0-5.348,4.377-9.696,9.758-9.696c5.38,0,9.757,4.349,9.757,9.696C332.694,322.271,328.317,326.619,322.938,326.619z"/>
	<path fill="#00C7CB" stroke="#FFFFFF" stroke-width="13" stroke-miterlimit="10" d="M310.152,180.508
		c0-7.749-6.282-14.031-14.03-14.031h-80.244c-7.748,0-14.031,6.282-14.031,14.031c0,7.75,6.283,14.032,14.031,14.032h80.244
		C303.87,194.54,310.152,188.258,310.152,180.508z"/>
</g>
</svg>
