<?xml version="1.0" encoding="iso-8859-1"?>
<!-- Generator: Adobe Illustrator 19.0.0, SVG Export Plug-In . SVG Version: 6.00 Build 0)  -->
<svg xmlns="http://www.w3.org/2000/svg" xmlns:xlink="http://www.w3.org/1999/xlink" version="1.1" id="Layer_1" x="0px" y="0px" viewBox="0 0 512 512" style="enable-background:new 0 0 512 512;" xml:space="preserve" width="512" height="512">
<g>
	<path fill="#2A3D71" d="M497,439.813c-15.744,0-31.145-6.741-44.534-19.493c-8.818-8.4-22.633-8.398-31.449,0.002   c-9.809,9.345-20.701,15.447-32.015,18.048l39.741-111.968c5.867-16.529,4.929-34.347-2.642-50.169   c-7.571-15.822-20.857-27.731-37.411-33.533l-20.699-7.255V141.11c0-16.68-13.57-30.249-30.25-30.249h-23.772l-7.4-55.652   c-0.991-7.454-7.349-13.022-14.869-13.022h-71.396c-7.521,0-13.878,5.568-14.869,13.022l-7.4,55.652H174.26   c-16.68,0-30.25,13.569-30.25,30.249v94.335l-20.7,7.255c-16.553,5.802-29.839,17.711-37.41,33.533   c-7.57,15.822-8.509,33.64-2.642,50.169l39.741,111.968c-11.318-2.601-22.215-8.703-32.031-18.052   c-8.818-8.397-22.631-8.396-31.449,0.005c-13.382,12.751-28.776,19.49-44.519,19.49c-8.284,0-15,6.716-15,15s6.716,15,15,15   c21.577,0,42.28-8.03,60.247-23.299c17.972,15.268,38.68,23.299,60.257,23.299c21.576,0,42.279-8.03,60.246-23.299   c17.973,15.268,38.681,23.299,60.257,23.299c21.573,0,42.275-8.026,60.245-23.288c17.969,15.261,38.672,23.288,60.244,23.288   c21.577,0,42.28-8.03,60.247-23.298c17.972,15.267,38.68,23.298,60.257,23.298c8.284,0,15-6.716,15-15S505.284,439.813,497,439.813   z M233.439,72.187h45.121l5.143,38.675h-55.407L233.439,72.187z M174.01,141.11c0-0.138,0.112-0.249,0.25-0.249h163.48   c0.138,0,0.25,0.111,0.25,0.249v83.82l-60.331-21.146c-6.84-2.397-14.02-3.612-21.207-3.662c-0.152-0.005-0.3-0.023-0.453-0.023   s-0.301,0.018-0.453,0.023c-7.187,0.049-14.367,1.265-21.207,3.663l-60.33,21.145V141.11z M180.023,420.322   c-8.007,7.628-16.737,13.087-25.827,16.257l-42.667-120.212c-3.179-8.957-2.671-18.611,1.432-27.185   c4.103-8.574,11.302-15.027,20.272-18.172L241,233.24v204.502c-10.421-2.888-20.438-8.766-29.528-17.424   C202.652,411.921,188.839,411.923,180.023,420.322z M300.532,420.329c-9.091,8.656-19.11,14.532-29.532,17.418V233.24   l107.767,37.771c8.971,3.145,16.17,9.598,20.272,18.172c4.103,8.573,4.61,18.228,1.432,27.185L357.803,436.58   c-9.091-3.168-17.822-8.625-25.832-16.251C323.156,411.937,309.348,411.937,300.532,420.329z"/>
	<path fill="#2A3D71" d="M184.44,280.767c-22.294,0-40.431,18.107-40.431,40.365s18.137,40.365,40.431,40.365s40.431-18.107,40.431-40.365   S206.734,280.767,184.44,280.767z M184.44,331.497c-5.752,0-10.431-4.649-10.431-10.365s4.679-10.365,10.431-10.365   s10.431,4.649,10.431,10.365S190.192,331.497,184.44,331.497z"/>
	<path fill="#2A3D71" d="M367.99,321.132c0-22.258-18.137-40.365-40.431-40.365s-40.431,18.107-40.431,40.365s18.137,40.365,40.431,40.365   S367.99,343.39,367.99,321.132z M327.56,331.497c-5.752,0-10.431-4.649-10.431-10.365s4.679-10.365,10.431-10.365   s10.431,4.649,10.431,10.365S333.312,331.497,327.56,331.497z"/>
	<path fill="#2A3D71" d="M313.893,175.295c0-8.284-6.716-15-15-15h-85.785c-8.284,0-15,6.716-15,15s6.716,15,15,15h85.785   C307.177,190.295,313.893,183.579,313.893,175.295z"/>
</g>















</svg>
