<svg height="512pt" viewBox="0 -32 512.03779 512" width="512pt" xmlns="http://www.w3.org/2000/svg"><path fill="#00C7CB"  d="m39.96875 283.726562c1.089844 1.296876 2.234375 2.558594 3.480469 3.839844 8.757812 8.777344 19.53125 15.28125 31.378906 18.945313.183594.058593.371094.113281.5625.152343 6.609375 2.003907 13.441406 3.167969 20.34375 3.472657h.101563c5.035156.722656 10.117187 1.085937 15.207031 1.085937 18.765625-.15625 37.210937-4.863281 53.757812-13.714844 14.984375 9.863282 28.988281 21.140626 41.8125 33.679688-10.050781 9.3125-18.875 16.992188-25.019531 21.539062l-22.183594 16.625c-3.019531 1.738282-5.796875 3.863282-8.269531 6.3125v.042969c-4.570313 4.636719-8.003906 10.265625-10.035156 16.453125-.101563.277344-.1875.5625-.257813.851563-5.039062 15.253906-.980468 32.042969 10.46875 43.308593 11.449219 11.269532 28.304688 15.054688 43.472656 9.769532.429688-.09375.851563-.21875 1.261719-.375 5.777344-2.058594 11.039063-5.347656 15.417969-9.644532 2.457031-2.464843 4.578125-5.242187 6.316406-8.257812l16.648438-22.1875c4.558594-6.101562 12.21875-14.976562 21.546875-25.070312 9.453125 10.238281 17.195312 19.191406 21.589843 25.121093l16.476563 21.863281c1.761719 3.121094 3.933594 5.992188 6.460937 8.53125.050782.0625.128907.078126.1875.128907 4.425782 4.375 9.769532 7.714843 15.640626 9.773437h.078124c4.554688 1.632813 9.359376 2.472656 14.199219 2.472656 13.871094.023438 26.886719-6.707031 34.882813-18.039062 7.996094-11.335938 9.972656-25.851562 5.300781-38.914062-2.09375-5.953126-5.492187-11.367188-9.949219-15.835938l-.273437-.171875c-.207031-.1875-.402344-.375-.613281-.546875h-.042969c-2.210938-2.089844-4.65625-3.925781-7.28125-5.46875l-22.1875-16.691406c-5.800781-4.351563-14.742188-12.074219-25.019531-21.527344 12.859374-12.492188 26.859374-23.75 41.816406-33.632812 16.550781 8.832031 35 13.515624 53.757812 13.65625 5.089844 0 10.171875-.363282 15.207032-1.085938h.101562c6.898438-.304688 13.734375-1.46875 20.34375-3.472656.191406-.039063.378906-.089844.5625-.152344 11.847656-3.664062 22.621094-10.164062 31.378906-18.945312 1.304688-1.304688 2.492188-2.644532 3.53125-3.882813 1.707032-1.46875 3.347656-2.984375 4.917969-4.566406 46.65625-46.65625 46.65625-122.300781 0-168.957031-46.660156-46.65625-122.304687-46.65625-168.960937 0-1.613282 1.613281-3.160157 3.285156-4.617188 4.972656-1.296875 1.09375-2.558594 2.226562-3.832031 3.464844-13.894531 13.925781-21.964844 32.621093-22.570313 52.285156v.109375c-3.171875 23.730469 1.246094 47.855469 12.628906 68.917969-9.871093 14.992187-21.152343 29.007812-33.6875 41.855468-12.511718-12.859375-23.789062-26.855468-33.691406-41.816406 11.40625-21.074219 15.839844-45.222656 12.664063-68.972656v-.113282c-.609375-19.664062-8.683594-38.355468-22.578125-52.28125-1.351563-1.339843-2.722656-2.5625-3.988282-3.617187-1.441406-1.65625-2.917968-3.277344-4.460937-4.824219-46.65625-46.65625-122.304687-46.65625-168.960937 0-46.65625 46.660156-46.65625 122.304688 0 168.960938 1.585937 1.5625 3.25 3.089844 4.976562 4.574218zm156.476562-156.484374c2.847657 3.226562 5.472657 6.648437 7.847657 10.238281l-10.863281-3.617188c-3.625-1.203125-7.597657-.738281-10.84375 1.273438-3.238282 1.992187-5.417969 5.328125-5.941407 9.09375l-3.582031 24.894531-36.351562-20.234375c-4.210938-2.222656-9.308594-1.9375-13.242188.746094-3.9375 2.683593-6.066406 7.320312-5.53125 12.054687l3.933594 35.421875-35.480469-3.941406c-4.742187-.492187-9.367187 1.679687-12.015625 5.640625-2.648438 3.964844-2.886719 9.066406-.617188 13.257812l20.113282 36.191407-24.746094 3.574219c-3.78125.519531-7.132812 2.699218-9.140625 5.945312s-2.464844 7.21875-1.242187 10.832031l3.667968 10.976563c-3.558594-2.339844-6.945312-4.929688-10.136718-7.75-27.570313-32.179688-19.277344-87.226563 18.960937-125.441406 38.042969-38.109376 92.800781-46.472657 125.210937-19.15625zm-98.304687 166-.53125-.0625c-4.703125-.753907-9.332031-1.894532-13.847656-3.410157l-7.253907-21.769531 25.949219-3.738281c4.167969-.59375 7.777344-3.203125 9.652344-6.972657 1.875-3.769531 1.777344-8.21875-.265625-11.902343l-19.175781-34.421875 32.617187 3.625c3.863282.429687 7.714844-.917969 10.464844-3.667969s4.101562-6.597656 3.671875-10.464844l-3.625-32.605469 34.507813 19.199219c3.675781 1.996094 8.09375 2.074219 11.835937.203125 3.738281-1.871094 6.332031-5.449218 6.9375-9.589844l3.738281-25.964843 21.777344 7.277343c1.515625 4.492188 2.65625 9.097657 3.414062 13.773438 0 .195312 0 .394531.066407.582031 2.472656 18.0625-.292969 36.453125-7.96875 52.992188-1.804688-1.035157-3.710938-1.871094-5.691407-2.5-.511718-.171875-1.058593-.222657-1.578124-.359375-1.582032-.445313-3.191407-.765625-4.824219-.957032-.851563-.09375-1.703125-.074218-2.558594-.109374-1.375-.058594-2.753906-.042969-4.128906.050781-.980469.078125-1.964844.230469-2.960938.382812-1.304687.214844-2.5625.46875-3.910156.8125-1.039063.261719-2.0625.5625-3.105469.910157-1.28125.4375-2.558594.957031-3.804687 1.519531-1.035157.453125-2.050781.855469-3.0625 1.425781-1.316407.699219-2.5625 1.527344-3.875 2.355469-.914063.597656-1.835938 1.117187-2.722657 1.773437-1.839843 1.390625-3.589843 2.890625-5.25 4.492188-.289062.269531-.597656.46875-.851562.75-.257812.28125-.394531.484375-.613281.707031-1.636719 1.671875-3.164063 3.449219-4.574219 5.316406-.265625.351563-.46875.734375-.71875 1.09375-1.273438 1.773438-2.433594 3.625-3.472656 5.546875-.152344.296875-.265625.597656-.417969.851563-.996094 1.980469-1.851563 4.027343-2.558594 6.128906-.085937.261719-.15625.535156-.238281.800781-.664062 2.078125-1.164062 4.207032-1.496094 6.367188 0 .125-.074218.253906-.09375.382812-.015625.128906 0 .289063 0 .433594-.308594 2.324219-.394531 4.675781-.261718 7.015625v.445313c.265624 4.667968 1.589843 9.21875 3.871093 13.300781-16.554687 7.703125-34.980469 10.472656-53.066406 7.980469zm65.109375 130.695312c-5.628906-5.65625-8.285156-13.625-7.167969-21.527344 14.96875 1.945313 26.753907 13.726563 28.703125 28.695313-7.902344 1.113281-15.875-1.539063-21.535156-7.167969zm57.566406-28.601562-16.386718 21.816406s-.085938.0625-.117188.113281l-3.773438 5.050781c-4.835937-17.308594-18.355468-30.835937-35.660156-35.6875l5.042969-3.769531 21.886719-16.453125c26.453125-19.746094 98.894531-91.007812 114.132812-120.542969l.785156-1.253906c.367188-.621094.8125-1.195313 1.324219-1.707031 2.6875-2.472656 6.265625-3.75 9.914063-3.539063.910156.007813 1.816406.082031 2.714844.21875 6.6875 1.203125 12.828124 4.488281 17.535156 9.386719 9.804687 9.816406 12.570312 23.628906 6.035156 30.175781-.511719.507813-1.085938.949219-1.707031 1.3125-.246094.144531-.855469.523438-1.085938.699219-29.667969 15.300781-100.921875 87.785156-120.640625 114.179688zm239.136719-123.691407c-3.230469 2.839844-6.652344 5.453125-10.242187 7.824219l3.628906-10.871094c1.210937-3.605468.757812-7.558594-1.238282-10.796875-1.992187-3.234375-5.324218-5.417969-9.085937-5.953125l-24.875-3.585937 20.238281-36.359375c2.226563-4.210938 1.9375-9.308594-.742187-13.242188-2.683594-3.9375-7.324219-6.0625-12.054688-5.53125l-35.414062 3.933594 3.933593-35.472656c.515626-4.765625-1.664062-9.417969-5.652343-12.074219s-9.121094-2.871094-13.316407-.554687l-36.191406 20.144531-3.574218-24.875c-.527344-3.773438-2.707032-7.117188-5.949219-9.117188-3.242188-2.003906-7.210938-2.457031-10.820313-1.242187l-10.835937 3.628906c2.394531-3.621094 5.035156-7.074219 7.902343-10.335938 32.230469-27.304687 87.039063-18.925781 125.175782 19.203126 38.132812 38.125 46.417968 92.867187 19.113281 125.277343zm-111.164063 152.25c-5.667968 5.636719-13.644531 8.300781-21.5625 7.203125 1.957032-14.976562 13.753907-26.753906 28.730469-28.6875 1.152344 7.890625-1.503906 15.863282-7.167969 21.484375zm-28.613281-57.539062 21.796875 16.382812c.050782 0 .066406.085938.117188.121094l5.050781 3.769531c-17.300781 4.847656-30.824219 18.367188-35.667969 35.671875l-1.707031-2.238281-2.089844-2.796875-.042969-.042969-16.382812-21.820312c-4.898438-6.605469-13.210938-16.214844-23.511719-27.308594 7.953125-8.25 16.523438-16.835938 25.191407-25.171875 11.171874 10.273437 20.761718 18.570313 27.246093 23.433594zm40.703125-81.066407c1.039063-1.804687 1.882813-3.714843 2.511719-5.699218.167969-.523438.222656-1.078125.367187-1.597656.4375-1.585938.757813-3.203126.953126-4.839844.085937-.792969.0625-1.609375.09375-2.421875.066406-1.449219.046874-2.898438-.058594-4.34375-.078125-.894531-.214844-1.785157-.347656-2.6875-.207032-1.4375-.492188-2.863281-.855469-4.265625-.238281-.914063-.496094-1.808594-.800781-2.722656-.496094-1.46875-1.066407-2.910157-1.707032-4.320313-.394531-.851563-.761718-1.703125-1.203125-2.558594-.839843-1.550781-1.757812-3.058593-2.757812-4.515625-.46875-.707031-.851563-1.433594-1.390625-2.132812-1.621094-2.210938-3.402344-4.296875-5.332032-6.246094-1.945312-1.925781-4.027343-3.707031-6.238281-5.324219-.707031-.527343-1.441406-.9375-2.167969-1.417969-1.441406-.980468-2.929687-1.890624-4.464843-2.71875-.851563-.460937-1.765625-.855468-2.660157-1.238281-1.398437-.632812-2.800781-1.210937-4.214843-1.707031-.949219-.316406-1.878907-.589844-2.835938-.855469-1.390625-.363281-2.761719-.636719-4.144531-.851562-.9375-.144531-1.871094-.28125-2.800781-.359375-1.402344-.105469-2.808594-.125-4.214844-.058594-.851563 0-1.707031 0-2.558594.101562-1.585937.1875-3.152343.5-4.6875.929688-.570312.144531-1.167969.214844-1.703125.394531-1.988281.625-3.898437 1.46875-5.703125 2.507813-7.675781-16.539063-10.441406-34.933594-7.96875-53 .027344-.179688.050781-.359375.058594-.539063.75-4.703125 1.890625-9.335937 3.414063-13.847656l21.761718-7.246094 3.734375 25.941407c.597657 4.167968 3.203125 7.777343 6.972657 9.652343 3.769531 1.875 8.222656 1.777344 11.90625-.265625l34.429687-19.164062-3.625 32.613281c-.425781 3.863281.925781 7.707031 3.675781 10.453125 2.746094 2.746094 6.59375 4.097656 10.453125 3.667969l32.625-3.625-19.261719 34.484375c-1.996093 3.671875-2.070312 8.089844-.199218 11.832031s5.449218 6.332031 9.585937 6.941406l25.96875 3.746094-7.289062 21.773437c-4.488281 1.519532-9.09375 2.664063-13.773438 3.414063l-.570312.070313c-18.058594 2.46875-36.441407-.300782-52.976563-7.972657zm104.109375-163.039062c24.574219 24.644531 34.9375 60.089844 27.511719 94.089844-7.359375-63.867188-57.714844-114.265625-121.574219-121.679688 33.988281-7.378906 69.398438 3.003906 94.019531 27.574219zm-245.914062 197.195312c-14.734375-14.53125-31.03125-27.386718-48.597657-38.328124l-.800781-.523438c-.695312-.433594-1.34375-.941406-1.929687-1.507812-.878906-.890626-1.601563-1.925782-2.132813-3.054688-.152343-.375-.289062-.757812-.402343-1.144531-.289063-.730469-.523438-1.484375-.699219-2.253907-.113281-.703124-.179688-1.414062-.195313-2.125 0-.496093-.101562-1.007812-.09375-1.46875.039063-1.050781.152344-2.101562.339844-3.136718.164062-.863282.371094-1.71875.625-2.5625.175781-.628906.3125-1.261719.542969-1.894532.292969-.851562.683593-1.628906 1.058593-2.441406.300782-.648437.554688-1.296875.90625-1.933594.46875-.855468 1.050782-1.707031 1.613282-2.5625.367187-.554687.679687-1.132812 1.089844-1.707031.640624-.851562 1.390624-1.636719 2.109374-2.441406.433594-.484375.808594-.996094 1.269532-1.464844 1.253906-1.253906 2.597656-2.410156 4.019531-3.464843.113281-.085938.222656-.136719.34375-.222657 1.226563-.902343 2.515625-1.722656 3.855469-2.449219.496094-.273437 1-.453124 1.492187-.691406.925781-.460937 1.875-.871094 2.84375-1.238281.605469-.21875 1.203125-.347656 1.808594-.519531.84375-.253906 1.695313-.464844 2.558594-.632813 1.113281-.199219 2.234375-.320312 3.363281-.355469.144531 0 .316406 0 .46875.042969 1.019531.003907 2.035156.101563 3.039062.289063.550782.136718 1.089844.304687 1.621094.503906.582032.167969 1.152344.371094 1.707032.613281 1.101562.527344 2.113281 1.234375 2.984374 2.089844.492188.492187.921876 1.042969 1.28125 1.640625.207032.40625.445313.792969.71875 1.160156 10.960938 17.53125 23.808594 33.8125 38.3125 48.554688-8.277343 8.738281-16.859374 17.269531-25.121093 25.230468zm-172.007813-197.210937c24.644532-24.59375 60.101563-34.972656 94.113282-27.546875-31.152344 3.160156-60.199219 17.1875-82.046876 39.621094-22.402343 21.820312-36.433593 50.8125-39.644531 81.917968-7.371093-33.980468 3.015625-69.382812 27.578125-93.992187zm0 0"/><path fill="#00C7CB" d="m101.375 176.539062c2.441406-2.441406 3.171875-6.109374 1.847656-9.300781-1.320312-3.1875-4.429687-5.265625-7.882812-5.265625-3.449219 0-6.5625 2.078125-7.882813 5.265625-1.320312 3.191407-.589843 6.859375 1.851563 9.300781 3.332031 3.332032 8.734375 3.332032 12.066406 0zm0 0"/><path fill="#00C7CB" d="m59.132812 230.84375c-2.441406 2.441406-3.171874 6.113281-1.851562 9.300781 1.320312 3.191407 4.433594 5.269531 7.886719 5.269531 3.449219 0 6.5625-2.078124 7.882812-5.269531 1.320313-3.1875.589844-6.859375-1.851562-9.300781-3.332031-3.328125-8.734375-3.328125-12.066407 0zm0 0"/><path fill="#00C7CB" d="m167.746094 146.375c2.441406-2.441406 3.171875-6.113281 1.851562-9.300781-1.320312-3.1875-4.433594-5.269531-7.886718-5.269531-3.449219 0-6.5625 2.082031-7.882813 5.269531s-.589844 6.859375 1.851563 9.300781c3.332031 3.332031 8.734374 3.332031 12.066406 0zm0 0"/><path fill="#00C7CB" d="m410.636719 164.472656c-2.4375 2.441406-3.167969 6.113282-1.847657 9.300782 1.320313 3.1875 4.429688 5.269531 7.882813 5.269531s6.5625-2.082031 7.882813-5.269531c1.320312-3.1875.589843-6.859376-1.851563-9.300782-3.332031-3.332031-8.730469-3.332031-12.066406 0zm0 0"/><path fill="#00C7CB" d="m440.8125 242.910156c2.441406 2.441406 6.109375 3.171875 9.300781 1.851563 3.1875-1.320313 5.265625-4.429688 5.265625-7.882813s-2.078125-6.5625-5.265625-7.882812c-3.191406-1.320313-6.859375-.589844-9.300781 1.847656-3.332031 3.335938-3.332031 8.734375 0 12.066406zm0 0"/><path fill="#00C7CB" d="m344.265625 134.308594c-2.441406 2.441406-3.171875 6.109375-1.851563 9.300781 1.320313 3.1875 4.433594 5.265625 7.886719 5.265625 3.449219 0 6.5625-2.078125 7.882813-5.265625 1.320312-3.191406.589844-6.859375-1.851563-9.300781-3.332031-3.332032-8.734375-3.332032-12.066406 0zm0 0"/><path fill="#00C7CB" d="m410.84375 42.601562c.460938-.078124 45.902344-6.230468 68.265625 30.15625 1.511719 2.773438 4.429687 4.488282 7.589844 4.453126 3.15625-.035157 6.039062-1.808594 7.488281-4.617188 1.449219-2.804688 1.230469-6.183594-.570312-8.78125-28.21875-45.855469-82.980469-38.398438-85.332032-38.109375-3.019531.441406-5.574218 2.460937-6.699218 5.296875s-.65625 6.054688 1.238281 8.449219c1.890625 2.390625 4.914062 3.59375 7.933593 3.152343zm0 0"/><path fill="#00C7CB" d="m452.273438 17.085938c13.542968.40625 26.507812 5.5625 36.632812 14.566406 3.347656 3.234375 8.671875 3.1875 11.960938-.105469 3.292968-3.289063 3.339843-8.613281.105468-11.960937-13.347656-12.171876-30.640625-19.117188-48.699218-19.5664068-4.714844 0-8.535157 3.8203128-8.535157 8.5312498 0 4.714844 3.820313 8.535157 8.535157 8.535157zm0 0"/><path  fill="#00C7CB" d="m18.335938 63.8125c-2.167969 3.984375-.84375 8.964844 3.015624 11.34375 3.859376 2.378906 8.90625 1.324219 11.492188-2.398438 22.277344-36.15625 66.5-30.414062 68.351562-30.15625 4.664063.675782 8.996094-2.558593 9.671876-7.226562.675781-4.664062-2.558594-8.996094-7.222657-9.671875-2.339843-.316406-57.082031-7.765625-85.308593 38.109375zm0 0"/><path fill="#00C7CB" d="m17.074219 34.152344c2.261719 0 4.433593-.898438 6.03125-2.5 10.152343-8.957032 23.101562-14.105469 36.632812-14.566406 4.714844 0 8.535157-3.820313 8.535157-8.535157 0-4.710937-3.820313-8.5312498-8.535157-8.5312498-18.058593.4492188-35.351562 7.3945308-48.699219 19.5664068-2.4375 2.441406-3.167968 6.109374-1.847656 9.296874 1.320313 3.191407 4.429688 5.269532 7.882813 5.269532zm0 0"/><path fill="#00C7CB" d="m103.644531 358.332031c3.015625-.441406 5.570313-2.460937 6.695313-5.292969 1.128906-2.835937.65625-6.054687-1.234375-8.449218-1.894531-2.394532-4.917969-3.59375-7.9375-3.152344-.453125.09375-45.898438 6.230469-68.265625-30.15625-2.585938-3.726562-7.628906-4.777344-11.488282-2.398438-3.859374 2.378907-5.183593 7.359376-3.019531 11.339844 16.285157 25.136719 44.585938 39.851563 74.515625 38.742188 3.585938.027344 7.171875-.183594 10.734375-.632813zm0 0"/><path fill="#00C7CB" d="m23.105469 352.386719c-3.347657-3.234375-8.671875-3.1875-11.960938.101562-3.292969 3.292969-3.339843 8.617188-.105469 11.964844 13.347657 12.171875 30.640626 19.117187 48.699219 19.566406 4.714844 0 8.535157-3.820312 8.535157-8.535156 0-4.710937-3.820313-8.53125-8.535157-8.53125-13.539062-.410156-26.507812-5.566406-36.632812-14.566406zm0 0"/><path fill="#00C7CB" d="m493.675781 320.222656c2.167969-3.980468.84375-8.960937-3.015625-11.339844-3.859375-2.378906-8.90625-1.328124-11.492187 2.398438-22.234375 36.164062-66.429688 30.429688-68.316407 30.15625-4.664062-.675781-8.996093 2.558594-9.671874 7.222656-.675782 4.667969 2.558593 8.996094 7.222656 9.671875 3.582031.453125 7.1875.664063 10.796875.632813 29.914062 1.09375 58.199219-13.621094 74.476562-38.742188zm0 0"/><path fill="#00C7CB" d="m452.273438 384.019531c18.058593-.449219 35.351562-7.394531 48.699218-19.566406 3.234375-3.347656 3.1875-8.671875-.105468-11.964844-3.289063-3.289062-8.613282-3.335937-11.960938-.101562-10.152344 8.957031-23.101562 14.105469-36.632812 14.566406-4.714844 0-8.535157 3.820313-8.535157 8.53125 0 4.714844 3.820313 8.535156 8.535157 8.535156zm0 0"/></svg>