<?xml version="1.0" encoding="iso-8859-1"?>
<!-- Generator: Adobe Illustrator 19.0.0, SVG Export Plug-In . SVG Version: 6.00 Build 0)  -->
<svg version="1.1" id="Capa_1" xmlns="http://www.w3.org/2000/svg" xmlns:xlink="http://www.w3.org/1999/xlink" x="0px" y="0px"
	 viewBox="0 0 512 512" style="enable-background:new 0 0 512 512;" xml:space="preserve">
<g>
	<g>
		<path fill="#2A3D71" d="M426.667,391.49V304c0-7.62-2.266-14.919-6.025-21.374l0.212-0.126c-18.583-30.979-9.594-70.958,20.458-91l1.917-1.271
			c3.375-2.25,5.188-6.208,4.688-10.229C447.688,178.208,423.479,0,256,0S64.312,178.208,64.083,180
			c-0.5,4.021,1.313,7.979,4.688,10.229l1.896,1.25c30.073,20.063,39.063,60.042,20.479,91.021l0.212,0.128
			c-3.759,6.454-6.025,13.753-6.025,21.372v87.49c-25.134,12.033-42.667,37.505-42.667,67.177v42.667
			c0,5.896,4.771,10.667,10.667,10.667H224c5.896,0,10.667-4.771,10.667-10.667v-32h42.667v32c0,5.896,4.771,10.667,10.667,10.667
			h170.667c5.896,0,10.667-4.771,10.667-10.667v-42.667C469.333,428.995,451.801,403.522,426.667,391.49z M425.74,176.375
			c-25.478,18.932-37.841,49.23-35.181,79.206l-57.643-43.221c9.771-12.544,16.522-24.853,20.21-32.359
			C372.229,173.042,384,140.521,384,125.875c0-20.625-10.125-33.833-21.969-38.563c-2.12-14.793-9.605-30.128-20.599-43.801
			C403.745,80.764,421.691,154.154,425.74,176.375z M245.461,22.65c3.495-0.573,6.965-1.316,10.539-1.316
			c3.609,0,7.047,0.721,10.539,1.225l0.086,52.129c0,2.833-1.094,5.521-3.104,7.521c-4.021,4.042-11.021,4.042-15.042,0
			c-2.01-2-3.104-4.688-3.104-7.521L245.461,22.65z M224.117,29.143l-0.076,45.503c-0.01,8.542,3.302,16.583,9.344,22.646
			c6.042,6.042,14.073,9.375,22.615,9.375c8.542,0,16.573-3.333,22.615-9.375c6.042-6.063,9.354-14.104,9.344-22.646l-0.077-46.249
			C319.18,42.206,341.333,73.586,341.333,96c0,5.896,4.771,10.667,10.667,10.667c4.427,0,10.667,5.958,10.667,19.208
			c0,11.708-11.594,33.271-16.938,34.125c-4.208,0-8.031,2.479-9.74,6.313c-3.125,7-31.865,68.354-79.99,68.354
			s-76.865-61.354-79.99-68.354c-1.708-3.833-5.458-6.313-9.667-6.313c-5.417-0.854-17.01-22.417-17.01-34.125
			c0-13.25,6.24-19.208,10.667-19.208c5.573,0,10.208-4.292,10.635-9.854C172.355,74.56,194.652,43.469,224.117,29.143z
			 M86.24,176.375c4.116-22.852,22.746-99.859,89.517-135.983c-12.906,14.867-21.961,31.648-25.194,46.691
			C138.469,91.604,128,104.896,128,125.875c0,14.646,11.771,47.167,30.875,54.125c3.688,7.507,10.439,19.815,20.21,32.359
			l-57.647,43.225C124.099,225.608,111.733,195.309,86.24,176.375z M213.333,490.667h-32v-32c0-5.896-4.771-10.667-10.667-10.667
			c-5.896,0-10.667,4.771-10.667,10.667v32h-42.667v-32c0-5.896-4.771-10.667-10.667-10.667C100.771,448,96,452.771,96,458.667v32
			H64v-32c0-29.417,23.927-53.333,53.333-53.333H160c29.406,0,53.333,23.917,53.333,53.333V490.667z M278.411,448h-44.823
			c-5.232-36.089-36.074-64-73.589-64h-42.667c-3.652,0-7.152,0.569-10.667,1.078V320H224c5.896,0,10.667-4.771,10.667-10.667
			c0-5.896-4.771-10.667-10.667-10.667H107.931c1.227-4.576,3.417-8.848,7.267-11.729l78.229-58.658
			C209.305,243.536,230.117,256,256,256s46.695-12.464,62.573-27.72l78.229,58.658c5.344,4,8.531,10.375,8.531,17.063v37.333
			H266.667c-5.896,0-10.667,4.771-10.667,10.667c0,5.896,4.771,10.667,10.667,10.667h138.667v22.411
			c-3.514-0.509-7.014-1.078-10.667-1.078H352C314.486,384,283.643,411.911,278.411,448z M448,490.667h-32v-32
			c0-5.896-4.771-10.667-10.667-10.667c-5.896,0-10.667,4.771-10.667,10.667v32H352v-32c0-5.896-4.771-10.667-10.667-10.667
			c-5.896,0-10.667,4.771-10.667,10.667v32h-32v-32c0-29.417,23.927-53.333,53.333-53.333h42.667
			c29.406,0,53.333,23.917,53.333,53.333V490.667z"/>
	</g>
</g>
<g>
</g>
<g>
</g>
<g>
</g>
<g>
</g>
<g>
</g>
<g>
</g>
<g>
</g>
<g>
</g>
<g>
</g>
<g>
</g>
<g>
</g>
<g>
</g>
<g>
</g>
<g>
</g>
<g>
</g>
</svg>
