<?xml version="1.0" encoding="utf-8"?>
<!-- Generator: Adobe Illustrator 16.0.0, SVG Export Plug-In . SVG Version: 6.00 Build 0)  -->
<!DOCTYPE svg PUBLIC "-//W3C//DTD SVG 1.1//EN" "http://www.w3.org/Graphics/SVG/1.1/DTD/svg11.dtd">
<svg version="1.1" id="Слой_1" xmlns="http://www.w3.org/2000/svg" xmlns:xlink="http://www.w3.org/1999/xlink" x="0px" y="0px"
	 width="512px" height="512px" viewBox="0 0 512 512" enable-background="new 0 0 512 512" xml:space="preserve">
<linearGradient id="SVGID_1_" gradientUnits="userSpaceOnUse" x1="170" y1="100" x2="380" y2="260">
   <stop offset="0" style="stop-opacity:1; stop-color:#14C6E5; /*stop-color:#00D9FF;*/"/>
   <stop offset="0.501961" style="stop-opacity:1;stop-color:#3993F6; /*stop-color:#007AFF;*/"/>
   <stop offset="1" style="stop-opacity:1;stop-color:#B873E5; /*stop-color:#B357EF;*/"/>
	</linearGradient>
<g id="surface1">
	<path style="fill-rule:evenodd;clip-rule:evenodd;fill:url(#SVGID_1_);" stroke="#FFFFFF" stroke-width="12" stroke-miterlimit="10" d="M348.114,278.319
		c-7.82-7.824-18.224-12.133-29.289-12.133c-11.068,0-21.468,4.309-29.292,12.133l-29.951,29.951
		c-0.145-27.884-17.187-51.841-41.395-62.131l14.31-14.306H269.4c26.735,0,48.484-21.75,48.484-48.484V79.484
		C317.885,52.75,296.136,31,269.4,31H114.068c-26.734,0-48.484,21.75-48.484,48.484v103.862c0,26.738,21.75,48.487,48.484,48.487
		h36.904l14.306,14.306c-24.204,10.29-41.247,34.247-41.391,62.131l-29.948-29.951c-7.824-7.824-18.227-12.133-29.296-12.133
		c-11.065,0-21.468,4.309-29.292,12.133c-7.825,7.824-12.133,18.228-12.133,29.292c0,11.065,4.309,21.472,12.133,29.293
		l86.716,86.716v44.196c0,7.282,5.902,13.184,13.184,13.184h112.967c7.282,0,13.184-5.901,13.184-13.184V423.62l86.713-86.713
		c7.824-7.824,12.137-18.23,12.137-29.296C360.251,296.547,355.942,286.144,348.114,278.319z M114.068,205.466
		c-12.195,0-22.117-9.922-22.117-22.12V79.484c0-12.195,9.922-22.117,22.117-22.117H269.4c12.195,0,22.117,9.922,22.117,22.117
		v103.862c0,12.198-9.922,22.12-22.117,22.12h-42.366c-3.495,0-6.849,1.387-9.321,3.862l-25.979,25.979l-25.979-25.979
		c-2.476-2.475-5.827-3.862-9.325-3.862H114.068z M191.734,267.138c22.875,0,41.487,18.611,41.487,41.487
		c0,22.879-18.612,41.49-41.487,41.49c-22.879,0-41.491-18.611-41.491-41.49C150.244,285.749,168.855,267.138,191.734,267.138z
		 M329.472,318.262l-90.575,90.575c-2.472,2.472-3.862,5.826-3.862,9.325v36.471h-86.6v-36.475c0-3.495-1.391-6.85-3.862-9.321
		l-90.576-90.575c-2.846-2.847-4.412-6.626-4.412-10.646c0-4.023,1.565-7.808,4.412-10.65c2.846-2.846,6.626-4.411,10.646-4.411
		c4.024,0,7.804,1.565,10.65,4.411l75.655,75.658c2.472,2.473,5.826,3.859,9.321,3.859h62.927c3.499,0,6.85-1.387,9.321-3.859
		l75.658-75.658c2.843-2.842,6.626-4.411,10.649-4.411c4.021,0,7.801,1.565,10.646,4.411c2.843,2.843,4.412,6.627,4.412,10.646
		C333.884,311.636,332.314,315.415,329.472,318.262z"/>
	<path style="fill-rule:evenodd;clip-rule:evenodd;fill:url(#SVGID_1_);" stroke="#FFFFFF" stroke-width="12" stroke-miterlimit="10" d="M179.254,169.562
		c3.372,0,6.747-1.287,9.321-3.859l49.926-49.929c5.15-5.146,5.15-13.493,0-18.643c-5.146-5.15-13.496-5.15-18.646,0l-40.602,40.605
		l-15.642-15.642c-5.146-5.146-13.496-5.146-18.646,0c-5.146,5.15-5.146,13.496,0,18.646l24.963,24.963
		C172.505,168.274,175.88,169.562,179.254,169.562z"/>
</g>
</svg>
