<?xml version="1.0" encoding="utf-8"?>
<!-- Generator: Adobe Illustrator 16.0.0, SVG Export Plug-In . SVG Version: 6.00 Build 0)  -->
<!DOCTYPE svg PUBLIC "-//W3C//DTD SVG 1.1//EN" "http://www.w3.org/Graphics/SVG/1.1/DTD/svg11.dtd">
<svg version="1.1" id="Capa_1" xmlns="http://www.w3.org/2000/svg" xmlns:xlink="http://www.w3.org/1999/xlink" x="0px" y="0px"
	 width="302px" height="302px" viewBox="350 0 302 302" enable-background="new 350 0 302 302" xml:space="preserve">
<linearGradient id="SVGID_1_" gradientUnits="userSpaceOnUse" x1="355.9719" y1="223.804" x2="439.502" y2="269.9176">
   <stop offset="0" style="stop-opacity:1; stop-color:#14C6E5; /*stop-color:#00D9FF;*/"/>
   <stop offset="0.501961" style="stop-opacity:1;stop-color:#3993F6; /*stop-color:#007AFF;*/"/>
   <stop offset="1" style="stop-opacity:1;stop-color:#B873E5; /*stop-color:#B357EF;*/"/>
	</linearGradient>
<g>
	<g>
		<path style="fill-rule:evenodd;clip-rule:evenodd;fill:url(#SVGID_1_);" stroke="#FFFFFF" stroke-width="8" stroke-miterlimit="10" d="M482.5,76.625h-32.813
			c-4.531,0-8.203,3.673-8.203,8.203v32.813c0,4.53,3.672,8.203,8.203,8.203H482.5c4.531,0,8.203-3.673,8.203-8.203V84.828
			C490.703,80.298,487.031,76.625,482.5,76.625z M474.297,109.438h-16.406V93.031h16.406V109.438z"/>
	</g>
</g>
<g>
	<g>
		<path style="fill-rule:evenodd;clip-rule:evenodd;fill:url(#SVGID_1_);" stroke="#FFFFFF" stroke-width="8" stroke-miterlimit="10" d="M482.5,142.25h-32.813
			c-4.531,0-8.203,3.673-8.203,8.203v32.813c0,4.53,3.672,8.203,8.203,8.203H482.5c4.531,0,8.203-3.673,8.203-8.203v-32.813
			C490.703,145.923,487.031,142.25,482.5,142.25z M474.297,175.063h-16.406v-16.406h16.406V175.063z"/>
	</g>
</g>
<g>
	<g>
		<path style="fill-rule:evenodd;clip-rule:evenodd;fill:url(#SVGID_1_);" stroke="#FFFFFF" stroke-width="8" stroke-miterlimit="10" d="M549.219,76.625h-32.813
			c-4.53,0-8.203,3.673-8.203,8.203v32.813c0,4.53,3.673,8.203,8.203,8.203h32.813c4.53,0,8.203-3.673,8.203-8.203V84.828
			C557.422,80.298,553.749,76.625,549.219,76.625z M541.016,109.438h-16.406V93.031h16.406V109.438z"/>
	</g>
</g>
<g>
	<g>
		<path style="fill-rule:evenodd;clip-rule:evenodd;fill:url(#SVGID_1_);" stroke="#FFFFFF" stroke-width="8" stroke-miterlimit="10" d="M549.219,142.25h-32.813
			c-4.53,0-8.203,3.673-8.203,8.203v32.813c0,4.53,3.673,8.203,8.203,8.203h32.813c4.53,0,8.203-3.673,8.203-8.203v-32.813
			C557.422,145.923,553.749,142.25,549.219,142.25z M541.016,175.063h-16.406v-16.406h16.406V175.063z"/>
	</g>
</g>
<g>
	<g>
		<path style="fill-rule:evenodd;clip-rule:evenodd;fill:url(#SVGID_1_);" stroke="#FFFFFF" stroke-width="8" stroke-miterlimit="10" d="M631.797,125.844
			c4.53,0,8.203-3.673,8.203-8.203V84.828c0-4.53-3.673-8.203-8.203-8.203c-3.724,0-37.207,0-41.016,0V60.219h8.203
			c4.53,0,8.203-3.673,8.203-8.203V19.203c0-4.53-3.673-8.203-8.203-8.203c-6.697,0-188.547,0-197.969,0
			c-4.53,0-8.203,3.673-8.203,8.203v32.813c0,4.53,3.673,8.203,8.203,8.203h8.203v16.406c-3.808,0-37.291,0-41.016,0
			c-4.53,0-8.203,3.673-8.203,8.203v32.813c0,4.53,3.673,8.203,8.203,8.203h8.203v148.75h-8.203c-4.53,0-8.203,3.673-8.203,8.203
			s3.673,8.203,8.203,8.203c3.289,0,260.209,0,263.594,0c4.53,0,8.203-3.673,8.203-8.203s-3.673-8.203-8.203-8.203h-8.203v-148.75
			H631.797z M409.219,274.594h-16.406v-148.75h16.406V274.594z M409.219,109.438h-32.813V93.031c3.592,0,28.638,0,32.813,0V109.438z
			 M409.219,27.406c6.288,0,175.138,0,181.563,0v16.406H409.219V27.406z M458.438,274.594v-50.313h33.94l0.077,50.313H458.438z
			 M541.563,274.594H508.86l-0.077-50.313h32.779V274.594z M574.375,274.594h-16.406v-58.516c0-4.53-3.673-8.203-8.203-8.203
			c-4.355,0-94.712,0-99.531,0c-4.531,0-8.203,3.673-8.203,8.203v58.516h-16.406c0-5.394,0-208.898,0-214.375h148.75
			C574.375,65.669,574.375,269.198,574.375,274.594z M607.188,274.594h-16.406v-148.75h16.406V274.594z M590.781,109.438V93.031
			c3.77,0,29.276,0,32.813,0v16.406H590.781z"/>
	</g>
</g>
</svg>
