<?xml version="1.0" encoding="iso-8859-1"?>
<!-- Generator: Adobe Illustrator 19.0.0, SVG Export Plug-In . SVG Version: 6.00 Build 0)  -->
<svg version="1.1" id="Capa_1" xmlns="http://www.w3.org/2000/svg" xmlns:xlink="http://www.w3.org/1999/xlink" x="0px" y="0px"
	 viewBox="0 0 512 512" style="enable-background:new 0 0 512 512;" xml:space="preserve">
<g>
	<g>
		<path fill="#00C7CB" d="M224,120h-60c-8.284,0-15,6.716-15,15v60c0,8.284,6.716,15,15,15h60c8.284,0,15-6.716,15-15v-60
			C239,126.716,232.284,120,224,120z M209,180h-30v-30h30V180z"/>
	</g>
</g>
<g>
	<g>
		<path fill="#00C7CB" d="M224,240h-60c-8.284,0-15,6.716-15,15v60c0,8.284,6.716,15,15,15h60c8.284,0,15-6.716,15-15v-60
			C239,246.716,232.284,240,224,240z M209,300h-30v-30h30V300z"/>
	</g>
</g>
<g>
	<g>
		<path fill="#00C7CB" d="M346,120h-60c-8.284,0-15,6.716-15,15v60c0,8.284,6.716,15,15,15h60c8.284,0,15-6.716,15-15v-60
			C361,126.716,354.284,120,346,120z M331,180h-30v-30h30V180z"/>
	</g>
</g>
<g>
	<g>
		<path fill="#00C7CB" d="M346,240h-60c-8.284,0-15,6.716-15,15v60c0,8.284,6.716,15,15,15h60c8.284,0,15-6.716,15-15v-60
			C361,246.716,354.284,240,346,240z M331,300h-30v-30h30V300z"/>
	</g>
</g>
<g>
	<g>
		<path fill="#00C7CB" d="M497,210c8.284,0,15-6.716,15-15v-60c0-8.284-6.716-15-15-15c-6.809,0-68.037,0-75,0V90h15c8.284,0,15-6.716,15-15V15
			c0-8.284-6.716-15-15-15C424.754,0,92.228,0,75,0c-8.284,0-15,6.716-15,15v60c0,8.284,6.716,15,15,15h15v30
			c-6.964,0-68.189,0-75,0c-8.284,0-15,6.716-15,15v60c0,8.284,6.716,15,15,15h15v272H15c-8.284,0-15,6.716-15,15s6.716,15,15,15
			c6.014,0,475.812,0,482,0c8.284,0,15-6.716,15-15s-6.716-15-15-15h-15V210H497z M90,482H60V210h30V482z M90,180H30v-30
			c6.569,0,52.366,0,60,0V180z M90,30c11.498,0,320.251,0,332,0v30H90V30z M180,482v-92h62.062l0.14,92H180z M332,482h-59.798
			l-0.14-92H332V482z M392,482h-30V375c0-8.284-6.716-15-15-15c-7.963,0-173.189,0-182,0c-8.284,0-15,6.716-15,15v107h-30
			c0-9.863,0-381.986,0-392h272C392,99.967,392,472.134,392,482z M452,482h-30V210h30V482z M422,180v-30c6.893,0,53.533,0,60,0v30
			H422z"/>
	</g>
</g>
<g>
</g>
<g>
</g>
<g>
</g>
<g>
</g>
<g>
</g>
<g>
</g>
<g>
</g>
<g>
</g>
<g>
</g>
<g>
</g>
<g>
</g>
<g>
</g>
<g>
</g>
<g>
</g>
<g>
</g>
</svg>
