<svg width="40" height="40" viewBox="0 0 40 40" fill="none" xmlns="http://www.w3.org/2000/svg">
<circle cx="20" cy="20" r="20" fill="url(#paint0_linear)"/>
<path d="M24.4461 9H15.5539C11.9401 9 9 11.9401 9 15.5539V24.4461C9 28.0599 11.9401 31 15.5539 31H24.4461C28.0599 31 31 28.0599 31 24.4461V15.5539C31 11.9401 28.0599 9 24.4461 9ZM28.7868 24.4461C28.7868 26.8434 26.8434 28.7868 24.4461 28.7868H15.5539C13.1566 28.7868 11.2132 26.8434 11.2132 24.4461V15.5539C11.2132 13.1566 13.1566 11.2132 15.5539 11.2132H24.4461C26.8434 11.2132 28.7868 13.1566 28.7868 15.5539V24.4461Z" fill="white"/>
<path d="M20 14.5C16.9673 14.5 14.5 16.9673 14.5 20C14.5 23.0327 16.9673 25.5 20 25.5C23.0327 25.5 25.5 23.0327 25.5 20C25.5 16.9673 23.0327 14.5 20 14.5ZM20 23.3607C18.1439 23.3607 16.6393 21.8561 16.6393 20C16.6393 18.1439 18.144 16.6393 20 16.6393C21.8561 16.6393 23.3607 18.1439 23.3607 20C23.3607 21.8561 21.856 23.3607 20 23.3607Z" fill="white"/>
<path d="M25.9583 15.4167C26.7177 15.4167 27.3333 14.8011 27.3333 14.0417C27.3333 13.2824 26.7177 12.6667 25.9583 12.6667C25.1989 12.6667 24.5833 13.2824 24.5833 14.0417C24.5833 14.8011 25.1989 15.4167 25.9583 15.4167Z" fill="white"/>
<defs>
<linearGradient id="paint0_linear" x1="8" y1="36" x2="24.5" y2="1.5" gradientUnits="userSpaceOnUse">
<stop stop-color="#E09B3D"/>
<stop offset="0.3" stop-color="#C74C4D"/>
<stop offset="0.6" stop-color="#C21975"/>
<stop offset="1" stop-color="#7024C4"/>
</linearGradient>
</defs>
</svg>
