<?xml version="1.0" encoding="utf-8"?>
<!-- Generator: Adobe Illustrator 16.0.0, SVG Export Plug-In . SVG Version: 6.00 Build 0)  -->
<!DOCTYPE svg PUBLIC "-//W3C//DTD SVG 1.1//EN" "http://www.w3.org/Graphics/SVG/1.1/DTD/svg11.dtd">
<svg version="1.1" id="Capa_1" xmlns="http://www.w3.org/2000/svg" xmlns:xlink="http://www.w3.org/1999/xlink" x="0px" y="0px"
	 width="512px" height="512px" viewBox="0 0 512 512" enable-background="new 0 0 512 512" xml:space="preserve">
<path fill="#00C7CB" stroke="#FFFFFF" stroke-width="13" stroke-miterlimit="10" d="M270.117,58.344V30.118
	C270.117,22.321,263.797,16,256,16c-7.796,0-14.118,6.321-14.118,14.119v28.225C128.162,65.539,37.178,159.892,37.178,276.706
	c0,7.796,6.321,14.119,14.118,14.119s14.118-6.321,14.118-14.119c0-12.235,23.188-25.919,54.219-25.919s54.219,13.685,54.219,25.919
	c0,7.796,6.321,14.119,14.118,14.119s14.118-6.321,14.118-14.119c0-10.282,16.287-21.584,39.798-24.932v193.562
	c0,27.937,22.727,50.664,50.664,50.664c26.252,0,50.674-20.229,50.674-52.705c0-7.797-6.322-14.119-14.119-14.119
	s-14.118,6.321-14.118,14.119c0,16.176-11.148,24.47-22.438,24.47c-12.366,0-22.427-10.06-22.427-22.429V251.774
	c23.511,3.348,39.796,14.65,39.796,24.932c0,7.796,6.321,14.119,14.118,14.119c7.798,0,14.119-6.321,14.119-14.119
	c0-12.235,23.187-25.919,54.218-25.919s54.22,13.685,54.22,25.919c0,7.796,6.32,14.119,14.117,14.119
	c7.798,0,14.118-6.321,14.118-14.119C474.823,159.387,383.295,65.502,270.117,58.344L270.117,58.344z M308.457,234.648
	c-29.363-15.874-74.199-16.313-104.632-0.146c-0.079,0.042-0.162,0.082-0.24,0.123c-0.013,0.007-0.027,0.014-0.041,0.021
	C210.15,141.06,237.525,86.118,256,86.118C274.077,86.118,301.758,139.772,308.457,234.648z M175.101,236.222
	c-29.256-17.151-73.74-18.05-104.602-3.353c16.363-69.257,70.62-124.028,139.582-141.151
	c-22.468,38.634-32.013,99.47-34.936,144.531C175.13,236.24,175.117,236.231,175.101,236.222z M336.854,236.249
	c-2.909-44.863-12.421-105.82-34.933-144.53c68.963,17.125,123.218,71.895,139.58,141.151
	C409.202,217.487,364.225,219.89,336.854,236.249L336.854,236.249z"/>
</svg>
