<?xml version="1.0" encoding="utf-8"?>
<!-- Generator: Adobe Illustrator 16.0.0, SVG Export Plug-In . SVG Version: 6.00 Build 0)  -->
<!DOCTYPE svg PUBLIC "-//W3C//DTD SVG 1.1//EN" "http://www.w3.org/Graphics/SVG/1.1/DTD/svg11.dtd">
<svg version="1.1" id="Capa_1" xmlns="http://www.w3.org/2000/svg" xmlns:xlink="http://www.w3.org/1999/xlink" x="0px" y="0px"
	 width="512px" height="512px" viewBox="0 0 512 512" enable-background="new 0 0 512 512" xml:space="preserve">
<path fill="#00C7CB" d="M271.059,45.167V15.059C271.059,6.742,264.316,0,256,0s-15.059,6.742-15.059,15.06v30.107
	C119.639,52.841,22.589,153.484,22.589,278.087c0,8.316,6.742,15.059,15.059,15.059s15.059-6.742,15.059-15.059
	c0-13.052,24.733-27.648,57.833-27.648s57.834,14.597,57.834,27.648c0,8.316,6.742,15.059,15.059,15.059s15.059-6.742,15.059-15.059
	c0-10.968,17.372-23.024,42.451-26.595v206.467c0,29.799,24.243,54.042,54.041,54.042c28.002,0,54.052-21.577,54.052-56.22
	c0-8.316-6.743-15.06-15.06-15.06s-15.059,6.743-15.059,15.06c0,17.255-11.892,26.102-23.934,26.102
	c-13.191,0-23.923-10.731-23.923-23.924V251.492c25.078,3.571,42.45,15.627,42.45,26.595c0,8.316,6.742,15.059,15.059,15.059
	c8.317,0,15.06-6.742,15.06-15.059c0-13.052,24.733-27.648,57.833-27.648c33.099,0,57.834,14.597,57.834,27.648
	c0,8.316,6.742,15.059,15.059,15.059s15.059-6.742,15.059-15.059C489.412,152.946,391.781,52.802,271.059,45.167L271.059,45.167z
	 M311.954,233.225c-31.321-16.932-79.146-17.401-111.608-0.155c-0.084,0.045-0.172,0.087-0.256,0.131
	c-0.014,0.008-0.029,0.015-0.043,0.022C207.094,133.397,236.293,74.792,256,74.792C275.282,74.792,304.809,132.024,311.954,233.225z
	 M169.707,234.903c-31.207-18.294-78.656-19.253-111.575-3.576C75.586,157.453,133.46,99.03,207.019,80.765
	c-23.966,41.21-34.147,106.102-37.265,154.167C169.739,234.923,169.724,234.913,169.707,234.903z M342.244,234.932
	c-3.104-47.854-13.249-112.875-37.261-154.166c73.56,18.266,131.432,76.688,148.885,150.562
	C419.416,214.919,371.439,217.482,342.244,234.932L342.244,234.932z"/>
</svg>
