<?xml version="1.0" encoding="UTF-8"?>
<svg xmlns="http://www.w3.org/2000/svg" xmlns:xlink="http://www.w3.org/1999/xlink" width="512" height="512" viewBox="0 0 48 60" version="1.1"><!-- Generator: Sketch 51.3 (57544) - http://www.bohemiancoding.com/sketch --><title>025 - Torah</title><desc>Created with Sketch.</desc><defs/><g id="Page-1" stroke="none" stroke-width="1" fill="none" fill-rule="evenodd"><g id="025---Torah" fill="#000000" fill-rule="nonzero"><path fill="#00C7CB" d="M45,0 L5,0 C2.23994685,0.00330611633 0.00330611633,2.23994685 0,5 L0,55 C0.00330611633,57.7600532 2.23994685,59.9966939 5,60 L47,60 C47.5522847,60 48,59.5522847 48,59 C48,58.4477153 47.5522847,58 47,58 L45,58 L45,52 C46.6568542,52 48,50.6568542 48,49 L48,3 C48,1.34314575 46.6568542,1.01453063e-16 45,0 Z M43,58 L5,58 C3.34314575,58 2,56.6568542 2,55 C2,53.3431458 3.34314575,52 5,52 L43,52 L43,58 Z M46,49 C46,49.5522847 45.5522847,50 45,50 L5,50 C3.91791431,49.9985511 2.86479922,50.3495895 2,51 L2,5 C2,3.34314575 3.34314575,2 5,2 L45,2 C45.5522847,2 46,2.44771525 46,3 L46,49 Z" id="Shape"/><path fill="#00C7CB" d="M7,4 C6.44771525,4 6,4.44771525 6,5 L6,47 C6,47.5522847 6.44771525,48 7,48 C7.55228475,48 8,47.5522847 8,47 L8,5 C8,4.44771525 7.55228475,4 7,4 Z" id="Shape"/><path fill="#00C7CB" d="M6,56 L40,56 C40.5522847,56 41,55.5522847 41,55 C41,54.4477153 40.5522847,54 40,54 L6,54 C5.44771525,54 5,54.4477153 5,55 C5,55.5522847 5.44771525,56 6,56 Z" id="Shape"/><path fill="#00C7CB" d="M42,4 L12,4 C10.8954305,4 10,4.8954305 10,6 L10,46 C10,47.1045695 10.8954305,48 12,48 L42,48 C43.1045695,48 44,47.1045695 44,46 L44,6 C44,4.8954305 43.1045695,4 42,4 Z M12,46 L12,6 L42,6 L42,46 L12,46 Z" id="Shape"/><path fill="#00C7CB" d="M38.872,19.511 C38.6951339,19.1955042 38.3616894,19.0001026 38,19 L31.228,19 L27.854,13.479 C27.6596167,13.1993142 27.340601,13.0325352 27,13.0325352 C26.659399,13.0325352 26.3403833,13.1993142 26.146,13.479 L22.772,19 L16,19 C15.6382887,18.9998396 15.3046855,19.1950222 15.1275986,19.5104193 C14.9505117,19.8258164 14.9575484,20.2122589 15.146,20.521 L18.494,26 L15.146,31.479 C14.9575484,31.7877411 14.9505117,32.1741836 15.1275986,32.4895807 C15.3046855,32.8049778 15.6382887,33.0001604 16,33 L22.772,33 L26.146,38.521 C26.3275011,38.8189242 26.6511426,39.000727 27,39.000727 C27.3488574,39.000727 27.6724989,38.8189242 27.854,38.521 L31.228,33 L38,33 C38.3617113,33.0001604 38.6953145,32.8049778 38.8724014,32.4895807 C39.0494883,32.1741836 39.0424516,31.7877411 38.854,31.479 L35.506,26 L38.854,20.521 C39.0421001,20.2123301 39.0489821,19.8261764 38.872,19.511 Z M27,15.918 L28.883,19 L25.117,19 L27,15.918 Z M30.106,21 L33.161,26 L30.106,31 L23.894,31 L20.839,26 L23.894,21 L30.106,21 Z M17.783,21 L21.55,21 L19.667,24.082 L17.783,21 Z M17.783,31 L19.667,27.918 L21.55,31 L17.783,31 Z M27,36.082 L25.117,33 L28.883,33 L27,36.082 Z M36.217,31 L32.45,31 L34.333,27.918 L36.217,31 Z M34.333,24.082 L32.45,21 L36.217,21 L34.333,24.082 Z" id="Shape"/></g></g></svg>
