<svg height="480pt" viewBox="-72 0 480 480" width="480pt" xmlns="http://www.w3.org/2000/svg"><path fill="#2A3D71" d="m328 368h-32c-21.769531.03125-42.355469 9.914062-56 26.878906v-98.878906c0-4.417969-3.582031-8-8-8s-8 3.582031-8 8v176c0 4.417969 3.582031 8 8 8s8-3.582031 8-8v-24h24c39.765625 0 72-32.234375 72-72 0-4.417969-3.582031-8-8-8zm-64 64h-23.441406c3.980468-27.558594 27.597656-48.007812 55.441406-48h23.441406c-3.980468 27.558594-27.597656 48.007812-55.441406 48zm0 0"/><path fill="#2A3D71" d="m328 80c-42.980469.054688-82.652344 23.09375-104 60.398438v-20.398438c.015625-36.65625 27.570312-67.445312 64-71.519531v12.238281c0 4.417969 3.582031 8 8 8s8-3.582031 8-8v-20.71875c0-4.417969-3.582031-8-8-8-15.460938.015625-30.644531 4.128906-44 11.921875-15.703125-27.132813-44.652344-43.8632812-76-43.921875-4.417969 0-8 3.582031-8 8v30.078125c-10.199219-3.984375-21.050781-6.046875-32-6.078125-4.417969 0-8 3.582031-8 8v42.398438c-7.898438-1.613282-15.9375-2.417969-24-2.398438-4.417969 0-8 3.582031-8 8v80c0 4.417969 3.582031 8 8 8s8-3.582031 8-8v-72c54.292969 4.1875 96.160156 49.546875 96 104v56h-40c-30.929688 0-56-25.070312-56-56 0-4.417969-3.582031-8-8-8s-8 3.582031-8 8c0 39.765625 32.234375 72 72 72h24v122.878906c-13.644531-16.964844-34.230469-26.847656-56-26.878906-4.417969 0-8 3.582031-8 8s3.582031 8 8 8c27.84375-.007812 51.460938 20.441406 55.441406 48h-23.441406c-30.929688 0-56-25.070312-56-56v-24c30.929688 0 56-25.070312 56-56 0-4.417969-3.582031-8-8-8s-8 3.582031-8 8c0 22.089844-17.910156 40-40 40h-16v-32c.050781-11.820312 3.375-23.394531 9.601562-33.441406 2.042969-2.433594 2.449219-5.84375 1.039063-8.691406-1.410156-2.847657-4.371094-4.59375-7.546875-4.441407-3.175781.148438-5.960938 2.164063-7.09375 5.132813-1.445312 2.378906-2.753906 4.835937-3.921875 7.363281-8.25-17.3125-22.445313-31.082031-40-38.800781v-22.320313c7.339844 1.515625 14.101563 5.066407 19.523437 10.238281 3.203126 3.050782 8.269532 2.925782 11.320313-.277343 3.046875-3.203125 2.921875-8.273438-.28125-11.320313-10.390625-9.960937-24.246094-15.5-38.640625-15.441406-4.417969 0-8 3.582031-8 8v25.601562c-5.269531-1.058593-10.628906-1.597656-16-1.601562-4.417969 0-8 3.582031-8 8v56c.027344 32.230469 24.023438 59.410156 56 63.441406v57.4375c-10.519531-10.777344-24.9375-16.859375-40-16.878906h-16c-4.417969 0-8 3.582031-8 8 0 30.929688 25.070312 56 56 56h16c4.417969 0 8-3.582031 8-8v-96h16v120c0 4.417969 3.582031 8 8 8s8-3.582031 8-8v-50.878906c13.644531 16.964844 34.230469 26.847656 56 26.878906h24v24c0 4.417969 3.582031 8 8 8s8-3.582031 8-8v-200h56c39.765625 0 72-32.234375 72-72v-112c0-4.417969-3.582031-8-8-8zm-272 360c-19.011719.003906-35.398438-13.375-39.199219-32h7.199219c19.011719-.003906 35.398438 13.375 39.199219 32zm16-104c-26.507812 0-48-21.492188-48-48v-47.519531c4.382812.59375 8.695312 1.613281 12.878906 3.039062 25.800782 8.90625 43.113282 33.1875 43.121094 60.480469v32zm112-319.519531c23.128906 2.660156 43.542969 16.339843 54.800781 36.71875-9.675781 8.367187-17.449219 18.703125-22.800781 30.320312-6.949219-15.167969-18.042969-28.0625-32-37.199219zm-40 70.558593v-38.558593c36.429688 4.074219 63.984375 34.863281 64 71.519531v20.398438c-14.273438-24.859376-36.976562-43.789063-64-53.359376zm176 112.960938c0 30.929688-25.070312 56-56 56h-40v-56c-.160156-54.453125 41.707031-99.8125 96-104zm0 0"/></svg>