<svg height="610pt" viewBox="-58 -19 610 610.66768" width="610pt" xmlns="http://www.w3.org/2000/svg"><path fill="#00C7CB" d="m118.472656 472.191406c58.863282 59.464844 116.839844 96.78125 119.273438 98.34375 4.105468 2.621094 9.363281 2.621094 13.460937 0 2.441407-1.5625 60.414063-38.875 119.277344-98.34375 34.773437-35.125 62.53125-70.683594 82.5-105.671875 25.375-44.46875 38.246094-88.234375 38.246094-130.074219 0-130.375-110.691407-236.445312-246.753907-236.445312s-246.746093 106.070312-246.746093 236.445312c0 41.839844 12.867187 85.605469 38.246093 130.074219 19.96875 34.988281 47.726563 70.546875 82.496094 105.671875zm126.003906-447.207031c122.28125 0 221.765626 94.859375 221.765626 211.460937 0 37.375-11.722657 76.894532-34.832032 117.464844-18.832031 33.054688-45.191406 66.820313-78.339844 100.355469-33.367187 33.480469-69.714843 63.84375-108.59375 90.710937-38.878906-26.867187-75.226562-57.230468-108.585937-90.710937-33.152344-33.539063-59.507813-67.304687-78.339844-100.355469-23.113281-40.570312-34.835937-80.089844-34.835937-117.464844 0-116.601562 99.480468-211.460937 221.761718-211.460937zm0 0"/><path fill="#00C7CB" d="m244.476562 426.140625c101.195313 0 183.527344-82.328125 183.527344-183.523437 0-101.191407-82.332031-183.523438-183.527344-183.523438-101.191406 0-183.519531 82.328125-183.519531 183.519531 0 101.195313 82.328125 183.527344 183.519531 183.527344zm0-342.058594c87.558594 0 158.539063 70.976563 158.539063 158.535157 0 87.558593-70.980469 158.535156-158.539063 158.535156-87.554687 0-158.535156-70.976563-158.535156-158.535156.097656-87.519532 71.019532-158.441407 158.535156-158.539063zm0 0"/><path fill="#00C7CB" d="m163.183594 339.945312c4.238281 3.398438 10.1875 3.671876 14.71875.667969l66.574218-44.109375 66.578126 44.109375c4.53125 3.003907 10.480468 2.730469 14.714843-.667969 4.242188-3.398437 5.792969-9.144531 3.851563-14.21875l-73.480469-191.367187c-1.847656-4.828125-6.492187-8.015625-11.664063-8.015625-5.171874 0-9.808593 3.1875-11.664062 8.015625l-73.472656 191.367187c-1.949219 5.074219-.390625 10.820313 3.84375 14.21875zm81.292968-166.257812 47.816407 124.519531-40.914063-27.109375c-4.183594-2.769531-9.613281-2.769531-13.800781 0l-40.910156 27.109375zm0 0"/></svg>