<?xml version="1.0" encoding="utf-8"?>
<!-- Generator: Adobe Illustrator 17.1.0, SVG Export Plug-In . SVG Version: 6.00 Build 0)  -->
<!DOCTYPE svg PUBLIC "-//W3C//DTD SVG 1.1//EN" "http://www.w3.org/Graphics/SVG/1.1/DTD/svg11.dtd">
<svg version="1.1" id="OBJECTS" xmlns="http://www.w3.org/2000/svg" xmlns:xlink="http://www.w3.org/1999/xlink" x="0px" y="0px"
	 viewBox="0 0 750 500" enable-background="new 0 0 750 500" xml:space="preserve">
<g>
	<g>
		<path fill="#E0EDFC" d="M142.8,195c0,0,25.2-52.6,99.9-29.9c74.7,22.7,124,48.1,172.3,49.6c48.3,1.5,107.9-60.7,165.1-44.6
			c57.1,16.1,30.8,178,30.8,178s-41,76.9-164,43.2c-94.8-26-161.1,23.4-214.6,1.5C178.7,370.8,86.4,221.4,142.8,195z"/>
		<g>
			<defs>
				<path id="SVGID_3_" d="M102.4,156.4c0,0,61.5,1.5,102.5,37.3c41,35.9,115,41,145,32.2c30-8.8,73.7-11.7,109.8-2.2
					c86.4,22.7,125.2-88.6,191.9-74v250.5c0,0-53.5-43.2-126.7-19c-83,27.4-123.8-4.4-175.8-6.6c-43.6-1.8-110.9,29.5-143.5,13.2
					c-42.5-21.2-103.3,5.9-103.3,5.9V156.4z"/>
			</defs>
			<clipPath id="SVGID_4_">
				<use xlink:href="#SVGID_3_"  overflow="visible"/>
			</clipPath>
			<rect x="53.3" y="129.3" clip-path="url(#SVGID_4_)" fill="#BDCFFF" width="640.1" height="326.6"/>
			<linearGradient id="SVGID_5_" gradientUnits="userSpaceOnUse" x1="373.3384" y1="319.217" x2="373.3384" y2="189.5935">
				<stop  offset="0" style="stop-color:#FFFFFF"/>
				<stop  offset="0.9987" style="stop-color:#FFFFFF;stop-opacity:0"/>
			</linearGradient>
			<rect x="53.3" y="129.3" clip-path="url(#SVGID_4_)" fill="url(#SVGID_5_)" width="640.1" height="326.6"/>
			<linearGradient id="SVGID_6_" gradientUnits="userSpaceOnUse" x1="376.9997" y1="340.5959" x2="376.9997" y2="231.4575">
				<stop  offset="0" style="stop-color:#E087BE"/>
				<stop  offset="0.9987" style="stop-color:#E087BE;stop-opacity:0"/>
			</linearGradient>
			<rect x="102.4" y="102.3" clip-path="url(#SVGID_4_)" fill="url(#SVGID_6_)" width="549.2" height="326.6"/>
			<path opacity="0.4" clip-path="url(#SVGID_4_)" fill="#BDCFFF" d="M98.5,305.3c0,0,42.8-13,48.3-15.1c6.3-2.4,19.5-9.3,23.4-8.8
				c3.9,0.5,20.5,10.3,26.4,12.7c5.9,2.4,22,1.5,28.8,4.4c6.8,2.9,38.6,10.7,38.6,10.7l13.2,2.4c0,0,95.7,2,110.8,1.5
				c15.1-0.5,45.9-16.6,45.9-16.6s27.8-17.1,33.2-16.1c5.4,1,12.2,1.5,12.2,1.5s18.6-19,22.9-20c4.4-1,8.3-4.4,12.7-2.4
				c4.4,2,22.9,18.1,25.4,19.5c2.4,1.5,13.7,9.3,16.1,9.8c2.4,0.5,27.8,12.2,29.8,12.7c2,0.5,15.6,2.9,17.1,2.9
				c1.5,0,16.1-4.9,16.1-4.9H637l7.8,8.3l3.9,5.9l-536.1,4.9L98.5,305.3z"/>
			<path opacity="0.4" clip-path="url(#SVGID_4_)" fill="#BDCFFF" d="M531.5,310.7c0,0,22-10.3,25.4-13.2c3.4-2.9,15.1-14.6,21-14.2
				c5.9,0.5,24.9-18.6,28.8-21.5c3.9-2.9,18.1-17.1,21-16.6c2.9,0.5,9.3,6.3,9.3,6.3l6.8-1l7.8,0.5l32.7,63.5L531.5,310.7z"/>
			<path opacity="0.4" clip-path="url(#SVGID_4_)" fill="#BDCFFF" d="M591.1,310.2c0,0-38.4-14.3-43.2-16.2
				c-5.5-2.1-16.9-8-20.3-7.6c-3.4,0.4-17.7,8.9-22.8,11c-5.1,2.1-19,1.3-24.9,3.8c-5.9,2.5-33.3,9.3-33.3,9.3l-11.4,2.1
				c0,0-82.7,1.7-95.8,1.3c-13.1-0.4-39.7-14.3-39.7-14.3s-24.1-14.8-28.7-13.9c-4.6,0.8-10.5,1.3-10.5,1.3s-16-16.5-19.8-17.3
				c-3.8-0.8-7.2-3.8-11-2.1c-3.8,1.7-19.8,15.6-21.9,16.9c-2.1,1.3-11.8,8-13.9,8.4c-2.1,0.4-24.1,10.5-25.7,11
				c-1.7,0.4-13.5,2.5-14.8,2.5c-1.3,0-13.9-4.2-13.9-4.2h-15.2l-6.8,7.2l-3.4,5.1l463.3,4.2L591.1,310.2z"/>
			<rect x="53.3" y="310.2" clip-path="url(#SVGID_4_)" fill="#7EA0FF" width="640.1" height="145.7"/>
			<g opacity="0.5" clip-path="url(#SVGID_4_)">
				<linearGradient id="SVGID_7_" gradientUnits="userSpaceOnUse" x1="188.9287" y1="318.8724" x2="312.7231" y2="318.8724">
					<stop  offset="0" style="stop-color:#FFFFFF"/>
					<stop  offset="0.9987" style="stop-color:#FFFFFF;stop-opacity:0"/>
				</linearGradient>
				<path fill="url(#SVGID_7_)" d="M296.7,312.6c-5.4,2.4-13.4,2-19.3,2c-10.7,0-21.3,0.9-32,1c-10,0.1-19.8,0.4-29.8,0.9
					c-8.6,0.4-18.8-1.3-26.7,2.5c7.6,2.2,16.7,0.2,24.6,0.6c7.1,0.4,14,1.3,21.1,1c13.4-0.6,25.8,1.5,39.2,1.5
					c-3.7-0.1-13.5-0.4-17.2,1.8c8.5,2.7,19.9,0.7,28.8,0.2c7-0.3,21.3,2.6,27.2-2.2c-1.4-7.4-15.2-7-20.9-5.3"/>
				<linearGradient id="SVGID_8_" gradientUnits="userSpaceOnUse" x1="118.4883" y1="320.9392" x2="187.334" y2="320.9392">
					<stop  offset="0" style="stop-color:#FFFFFF"/>
					<stop  offset="0.9987" style="stop-color:#FFFFFF;stop-opacity:0"/>
				</linearGradient>
				<path fill="url(#SVGID_8_)" d="M118.5,323.9c10.3,4.5,24.8,0.7,36.1,1.8c5,0.5,10.1,0.9,15.2,1.1c4.3,0.2,14.4,1.6,17.5-0.9
					c-4.3-1.2-9.1-0.4-13.7-0.6c-7.3-0.2-14.6-1.6-21.5-4.2c5.7,1.5,18.4-1.2,24.8-2.7c-7.1-5.8-25.6-3.3-34.9-3.3
					c-6.3,0-17.8-2.1-18.3,5.9"/>
				<linearGradient id="SVGID_9_" gradientUnits="userSpaceOnUse" x1="509.5498" y1="323.3152" x2="583.1582" y2="323.3152">
					<stop  offset="0" style="stop-color:#FFFFFF"/>
					<stop  offset="0.9987" style="stop-color:#FFFFFF;stop-opacity:0"/>
				</linearGradient>
				<path fill="url(#SVGID_9_)" d="M513,327.3c4.9,2.6,12.8,0,18.1-0.4c5-0.3,9.9-0.5,14.8-0.6c11.3-0.1,26.4,1.8,37.2-1.5
					c-5.7-0.7-10.9-0.9-16.9-1c-4.3,0-11-1.7-15,0c6.4,2.2,21.3-0.1,26.6-4.3c-12.1-3-27.6-0.2-40,0.9c-8.7,0.8-20.4-1.3-28.3,1.5"
					/>
				<linearGradient id="SVGID_10_" gradientUnits="userSpaceOnUse" x1="591.2295" y1="321.0673" x2="658.4561" y2="321.0673">
					<stop  offset="0" style="stop-color:#FFFFFF"/>
					<stop  offset="0.9987" style="stop-color:#FFFFFF;stop-opacity:0"/>
				</linearGradient>
				<path fill="url(#SVGID_10_)" d="M658.5,321.9c-12.1-1.6-25.2,1.7-37.5,2.3c-9.9,0.5-19.9,0.1-29.8,0.1c4.1-0.1,5.8,0.9,10-0.4
					c4.5-1.4,8.5-1.8,13.2-2.6c-4.4-0.5-10.1,0.1-14.3-1.5c8.1-3.6,22.6-1.5,31.5-1.5c4.2,0,28.3-3.7,26.4,3.4"/>
			</g>
			<rect x="53.3" y="331.4" clip-path="url(#SVGID_4_)" fill="#1A2D6D" width="640.1" height="124.5"/>
			<linearGradient id="SVGID_11_" gradientUnits="userSpaceOnUse" x1="377.4668" y1="393.7804" x2="377.4668" y2="360.6732">
				<stop  offset="0" style="stop-color:#000000"/>
				<stop  offset="0.9987" style="stop-color:#000000;stop-opacity:0"/>
			</linearGradient>
			<rect x="103.3" y="331.4" clip-path="url(#SVGID_4_)" fill="url(#SVGID_11_)" width="548.3" height="102.9"/>
			<path clip-path="url(#SVGID_4_)" d="M594.5,392.7c0,0,6.3-42,12.2-42.5c5.9-0.5,10.3-2.4,12.2-2c2,0.5,5.4-14.2,8.3-22
				c2.9-7.8,9.8-12.2,12.7-11.2c2.9,1,11.7,14.2,11.7,14.2v78.6L594.5,392.7z"/>
			<linearGradient id="SVGID_12_" gradientUnits="userSpaceOnUse" x1="623.0605" y1="404.8989" x2="623.0605" y2="347.0456">
				<stop  offset="0" style="stop-color:#E087BE"/>
				<stop  offset="0.9987" style="stop-color:#E087BE;stop-opacity:0"/>
			</linearGradient>
			<path clip-path="url(#SVGID_4_)" fill="url(#SVGID_12_)" d="M594.5,392.7c0,0,6.3-42,12.2-42.5c5.9-0.5,10.3-2.4,12.2-2
				c2,0.5,5.4-14.2,8.3-22c2.9-7.8,9.8-12.2,12.7-11.2c2.9,1,11.7,14.2,11.7,14.2v78.6L594.5,392.7z"/>
			<path clip-path="url(#SVGID_4_)" d="M217.6,402.9c0,0-2.4-34.7-7.8-35.6c-5.4-1-11.2-2.4-11.2-2.4s-1-16.6-5.4-18.6
				c-4.4-2-17.6,0.5-20,8.3c-2.4,7.8-15.1,33.2-15.1,33.2L217.6,402.9z"/>
			<linearGradient id="SVGID_13_" gradientUnits="userSpaceOnUse" x1="187.8154" y1="410.026" x2="187.8154" y2="360.8998">
				<stop  offset="0" style="stop-color:#E087BE"/>
				<stop  offset="0.9987" style="stop-color:#E087BE;stop-opacity:0"/>
			</linearGradient>
			<path clip-path="url(#SVGID_4_)" fill="url(#SVGID_13_)" d="M217.6,402.9c0,0-2.4-34.7-7.8-35.6c-5.4-1-11.2-2.4-11.2-2.4
				s-1-16.6-5.4-18.6c-4.4-2-17.6,0.5-20,8.3c-2.4,7.8-15.1,33.2-15.1,33.2L217.6,402.9z"/>
			<path clip-path="url(#SVGID_4_)" d="M102.4,402.9V257.5l9.8,9.3c0,0-3.4,30.3,3.9,34.2c7.3,3.9,13.7,27.3,13.7,27.3
				s-1,22.5,5.9,24.4c0,0,10.7,2.9,13.7,22.5c2.9,19.5,3.9,27.8,3.9,27.8L102.4,402.9z"/>
			<linearGradient id="SVGID_14_" gradientUnits="userSpaceOnUse" x1="127.7649" y1="410.0259" x2="127.7649" y2="354.7898">
				<stop  offset="0" style="stop-color:#E087BE"/>
				<stop  offset="0.9987" style="stop-color:#E087BE;stop-opacity:0"/>
			</linearGradient>
			<path clip-path="url(#SVGID_4_)" fill="url(#SVGID_14_)" d="M102.4,402.9V257.5l9.8,9.3c0,0-3.4,30.3,3.9,34.2
				c7.3,3.9,13.7,27.3,13.7,27.3s-1,22.5,5.9,24.4c0,0,10.7,2.9,13.7,22.5c2.9,19.5,3.9,27.8,3.9,27.8L102.4,402.9z"/>
			<path clip-path="url(#SVGID_4_)" d="M594.9,376.7c0,0-4.4-25.3-15-37c0,0,2.6,26.7,9.5,37H594.9z"/>
			<path clip-path="url(#SVGID_4_)" d="M590.9,379.6c0,0-14.5-21.1-29.1-27.4c0,0,13.5,23.2,24.1,29.6L590.9,379.6z"/>
			<path clip-path="url(#SVGID_4_)" d="M188,346.4c0,0-3.4-19.3-11.5-28.3c0,0,2,20.5,7.3,28.3H188z"/>
			<path clip-path="url(#SVGID_4_)" d="M188.5,347.7c0,0,3.8-13.9,1.3-22.4c0,0-5.1,14.2-4,21.1L188.5,347.7z"/>
			<path clip-path="url(#SVGID_4_)" d="M186.8,347.2c0,0-11.1-16.2-22.2-20.9c0,0,10.3,17.8,18.4,22.7L186.8,347.2z"/>
			<linearGradient id="SVGID_15_" gradientUnits="userSpaceOnUse" x1="626.7013" y1="289.6682" x2="614.984" y2="375.1065">
				<stop  offset="0" style="stop-color:#FFFFFF"/>
				<stop  offset="0.9987" style="stop-color:#FFFFFF;stop-opacity:0"/>
			</linearGradient>
			<path clip-path="url(#SVGID_4_)" fill="url(#SVGID_15_)" d="M621.4,390.3c-3.4-9.8,3.9-23.9,8.8-30.8c4.9-6.8,8.8-16.1,8.3-30.8
				c-0.2-5.1,0.4-9.8,1.3-13.7c-3-0.8-9.7,3.6-12.5,11.3c-2.9,7.8-6.3,22.5-8.3,22c-2-0.5-6.3,1.5-12.2,2
				c-5.9,0.5-12.2,42.5-12.2,42.5l34.3,9.1C625.3,397.7,622.5,393.4,621.4,390.3z"/>
			<g clip-path="url(#SVGID_4_)">
				<linearGradient id="SVGID_16_" gradientUnits="userSpaceOnUse" x1="210.9011" y1="310.6721" x2="210.9011" y2="394.0563">
					<stop  offset="0" style="stop-color:#FFFFFF"/>
					<stop  offset="0.9987" style="stop-color:#FFFFFF;stop-opacity:0"/>
				</linearGradient>
				<path fill="url(#SVGID_16_)" d="M205.6,387.8c-1.5,3.5-1.7,7.7-1.2,11.8l13.1,3.3c0,0-2.4-34.7-7.8-35.6c-1.6-0.3-3.3-0.6-4.9-1
					C206.6,370.1,209.5,379,205.6,387.8z"/>
				<linearGradient id="SVGID_17_" gradientUnits="userSpaceOnUse" x1="190.1257" y1="310.6713" x2="190.1257" y2="394.057">
					<stop  offset="0" style="stop-color:#FFFFFF"/>
					<stop  offset="0.9987" style="stop-color:#FFFFFF;stop-opacity:0"/>
				</linearGradient>
				<path fill="url(#SVGID_17_)" d="M188.3,363.9c2,5.9,8.3,1,10.3,1c0,0-1-16.6-5.4-18.6c-2.3-1-7.1-0.8-11.5,0.7
					C184.1,352.9,187.2,360.5,188.3,363.9z"/>
			</g>
			<linearGradient id="SVGID_18_" gradientUnits="userSpaceOnUse" x1="154.9844" y1="214.6208" x2="127.1559" y2="383.0566">
				<stop  offset="0" style="stop-color:#FFFFFF"/>
				<stop  offset="0.9987" style="stop-color:#FFFFFF;stop-opacity:0"/>
			</linearGradient>
			<path clip-path="url(#SVGID_4_)" fill="url(#SVGID_18_)" d="M116,300.9c-1.7-0.9-2.8-3.3-3.6-6.3c-0.6,4.8-3.2,26,1.1,34.2
				c4.9,9.3,9.3,27.8,8.8,37.6c-0.4,7.9-1.4,28.9-1.8,36.6l32.6,0c0,0-1-8.3-3.9-27.8c-2.9-19.5-13.7-22.5-13.7-22.5
				c-6.8-2-5.9-24.4-5.9-24.4S123.4,304.8,116,300.9z"/>
		</g>
		<g>
			<path fill="#182B71" d="M610.6,331.4l-6.5,0.9c0,0-0.9-19.6-1.1-32.5c-0.2-12.9,2.1-57,2.4-58.9c0.3-2-0.3-3.2-0.3-3.2l-1.5,2.2
				l0.6,3.7l-1.7-2.7l0.4,3.8l-1.9-2.1l0.8,3.7l-2.5-1.8l0.6,3.8l-2.2-1.8l0.1,3.6c0,0-1.9-1.9-1.9-1.5c0,0.4,0.6,3.9,0.6,3.9
				s-2.3-2-2.2-1.6c0,0.4,0.2,3.4,0.2,3.4s-2-4.4-2-3.1c-0.1,1.3-0.5,6.4-0.5,6.4s-0.1-5.6,0.4-7.7c0.4-2.2,3.6-8.1,3.6-8.1l1.9-3.3
				l1.4-3.3c0,0,1.4-1.6,1.2-1.5c-0.2,0.1-2.9,2.5-2.9,2.5l1.8-5.3l-6.3,10.4l3.5-9.7l-1.6,4.9l-1.3-1.7l0.3,2.4l-1.5-0.8l0.1,3.1
				l-1.1-1.7l-0.4,2.5l-2.2-2.7l0.1,4.4l-2.4-3.7c0,0,0.7,3.7,0.8,4.1c0.1,0.4-2.5-3.6-2.5-3.6s0.1,3.9,0.1,4.4
				c0,0.6-2.4-2.5-2.4-2.5l-0.2,3.2l-2.3-2.6l-2.2,2.7c0,0,0.5-2.2,5.7-6.7c5.2-4.5,8.1-7.2,10.5-8.8c2.5-1.6,2.8-2.2,2.8-2.2
				s-1.6-1-2.8-0.9c-1.2,0.1-1.1-1.6-1.1-1.6l-2,2.3l0.3-1.6l-1.2,1.2l-0.1-1.8l-1.5,2.1l-0.6-1.3l-2.2,2.7l0.1-2.1l-3,2.8l0-2
				l-2.2,2.5l0.2-1.8l-2.7,1.7c0,0,1-3.9,5.9-5.2c5-1.4,9.1-0.5,9.1-0.5l0-0.7l-2-0.9l0.5-1.3c0,0-2.8,0.4-2.6,0.3
				c0.2-0.1,3-2.6,2.7-2.5c-0.3,0.1-6.7,1-6.5,0.9c0.2,0,3.1-1.6,2.3-1.3c-0.8,0.3-5.5,1.5-5.3,1.5c0.2-0.1,2.6-1.6,1.6-1.2
				c-1,0.4-5.2,1.4-4.3,0.9c0.8-0.5,4.4-1.6,1.8-1.1c-2.6,0.5-3,0.9-2.6,0.5c0.4-0.4,1.8-1.1,0.6-0.7c-1.1,0.4-2.7,0.3-2.3,0.2
				c0.4-0.1-1.5-0.1-1.5-0.1s2.9-1.7,4.4-1.8s5.2-0.1,5.9,0.1c0.7,0.2,5.1,1.5,7.3,2.9c2.1,1.4,3.2,1.3,3.2,1.3l0.7-0.9l-1.5-3.3
				l1.3-0.5l-2.6-0.8l1.3-0.7c0,0-3.4-0.9-2.9-1c0.5-0.1,3.2-1.2,2.8-1.1c-0.4,0.1-2.8-0.9-2.8-0.9s2.3-0.8,1.9-0.7
				c-0.4,0.1-3.3-0.8-3.3-0.8l2.4-1.8l-2.2-0.4c0,0,1.1-1.3,0.4-1.1c-0.7,0.2-3.7,0-3.7,0s2-1.3,1.6-1.2c-0.4,0.1-2.2-0.9-2.2-0.9
				s2.9-0.9,3.9-0.6c1,0.4,4.8,0.6,6.2,3c1.4,2.5,3.6,5.3,4,6.5c0.4,1.1,1.5,1.7,1.5,1.7s0.3-1.2,0.3-1.4c0-0.2-0.1-2.5-0.1-2.5
				s0.3-1.7,0.2-1.9c-0.1-0.2,0.4-1.9,0.4-1.9s1.3-3.2,1-3.1c-0.2,0.1,1.3-3,1.3-3l1.8-1.1l2.1,1.4l0.2,2l-2.3-0.4l1.6,1.1l-1.1,0.4
				l1.6,1.4l-1.1,0.3c0,0,1.4,1.1,1.1,1.2c-0.3,0.1-1.4,0.4-1.3,0.6c0.1,0.2,0.5,1.7,0.5,1.7l-1.2,0l1.9,1.7l-0.9,0.8
				c0,0,0.3,1.3-0.1,1.4c-0.4,0.1,0.2,0.4,0.4,0.9c0.3,0.5,0,1.5-0.2,1.7c-0.1,0.2,0.6,0.7,0.9,0.1c0.3-0.6-0.8,0,1.9-4.1
				c2.7-4.1,6.2-7.3,6.2-7.3s3.4-0.4,3-0.3c-0.4,0.1-0.2,1.3-0.6,1.5c-0.3,0.2-2.4,2.4-1.9,2.2c0.5-0.1,2.3-1,1.4-0.5
				c-0.8,0.6-3.1,2.2-2.9,2.2c0.3,0,2.2-0.4,1.9-0.1c-0.3,0.2-2,2.1-2,2.1l0.4,0.2c0,0-2.6,1.6-2.4,1.5c0.2,0,1.2-0.1,1.2-0.1
				l-1.8,2.2l0.7,0.2l-1.6,1.8c0,0,0.8-0.1,0.3,0.4c-0.5,0.5-1.3,1.5-1.3,1.5l0.6,0.9c0,0,6.4-4.9,9.5-6.1c3.1-1.2,6.2-1.6,9.1-0.1
				c2.9,1.5,3.4,1.9,3.4,1.9l-6.4-0.6l1.7,1.1l-3-0.5c0,0,1.2,1.2,0.7,1.2c-0.4,0-2.2-0.4-2.2-0.4s0.4,1-0.1,1
				c-0.5,0-2.6-0.8-2.6-0.8l0.9,1.3l-3-0.2l0.2,1.2c0,0-2-0.3-1.9-0.1c0.1,0.2,1,1,0.6,1.1c-0.4,0.1-2,0-2,0l0.3,0.7l-1.5,0l0.3,0.9
				l-2.1-0.2l0.5,1.1c0,0,4.8-1.6,8-1.2c3.2,0.4,7.3,1.6,7.3,1.6s2.1,1.3,2.4,1.7c0.3,0.3,1.3,1.4,1.3,1.4l-2.5-0.6l0,0.7l-3.3-0.9
				c0,0,1.7,1.1,1.2,1.1c-0.5,0-6.2-1.7-6.2-1.7l1.5,1l-3.5-0.4l0.4,0.9l-2.4-0.3c0,0,7.5-0.1,9.1,1.3c1.6,1.4,4.1,2.8,4.1,2.8
				l1,1.1l-2.3-0.3l-0.2,0.7l-2.5-1.9c0,0,0.3,1.4,0.3,1.6c-0.1,0.2-2.7-1.2-2.7-1.2l0.3,0.7l-3.9-2.4c0,0,0.1,1.5,0.2,1.7
				c0.1,0.2-1.1-0.6-1.4-0.6c-0.4,0,0.4,1.6-0.6,0.9c-1-0.7-3.4-1.8-3.4-1.8l0,0.8l-3.7,0.2c0,0,5.9,3,8,4.4c2.1,1.4,5.4,4,5.6,4.4
				c0.2,0.4,1.5,2,1.9,2.6c0.4,0.6,3,5.1,3,5.1l0.6,1.3l-3.6-1.9l-0.5,1.3l-1.8-4l-1.2,2.3l-1.8-3.5l-0.9,0.8l-0.5-3.6
				c0,0-0.7,0.7-0.8,0.1c-0.1-0.7-2-2.1-2-2.1s-0.9,0.1-1.3,0.2c-0.4,0-2-0.8-2-0.8l-2.2,0.4c0,0,5.5,0.9,6.4,2.4
				c1,1.5,0.3,4.1,0.3,4.1s-3.9-3.3-3.8-2.5c0.1,0.8,0.2,1.4,0.2,1.4l-1.9-1.3l-1.1-0.3l-2-1.6c0,0,2,2.1,2.7,5.4
				c0.7,3.3,1,7.1,0.9,7.4c-0.1,0.3-1.1,3.3-1.1,3.3l0.4-5.5c0,0-1.3,3.5-1.4,3.3c-0.1-0.2,0.3-4.9,0.1-4.9c-0.2,0-0.8,1.4-0.8,1.4
				l-0.5-5.2c0,0-1.5,3.7-1.4,3.3c0.1-0.4-0.3-3.6-0.3-3.6s-0.9,2-1.2,1.2c-0.3-0.8-0.9-3.9-0.9-3.9l-0.6,1.4l-0.2-3.9l-1.8,2
				c0,0-0.7,13.8-0.7,17.4c0,3.7,0.4,37.3,0.6,46.8c0.2,9.4,1,7.2,1.4,13.4C608.6,323.3,610.6,331.4,610.6,331.4z"/>
			<linearGradient id="SVGID_19_" gradientUnits="userSpaceOnUse" x1="605.5269" y1="168.1144" x2="605.5269" y2="237.4477">
				<stop  offset="0" style="stop-color:#FFFFFF"/>
				<stop  offset="0.9987" style="stop-color:#FFFFFF;stop-opacity:0"/>
			</linearGradient>
			<path fill="url(#SVGID_19_)" d="M610.6,331.4l-6.5,0.9c0,0-0.9-19.6-1.1-32.5c-0.2-12.9,2.1-57,2.4-58.9c0.3-2-0.3-3.2-0.3-3.2
				l-1.5,2.2l0.6,3.7l-1.7-2.7l0.4,3.8l-1.9-2.1l0.8,3.7l-2.5-1.8l0.6,3.8l-2.2-1.8l0.1,3.6c0,0-1.9-1.9-1.9-1.5
				c0,0.4,0.6,3.9,0.6,3.9s-2.3-2-2.2-1.6c0,0.4,0.2,3.4,0.2,3.4s-2-4.4-2-3.1c-0.1,1.3-0.5,6.4-0.5,6.4s-0.1-5.6,0.4-7.7
				c0.4-2.2,3.6-8.1,3.6-8.1l1.9-3.3l1.4-3.3c0,0,1.4-1.6,1.2-1.5c-0.2,0.1-2.9,2.5-2.9,2.5l1.8-5.3l-6.3,10.4l3.5-9.7l-1.6,4.9
				l-1.3-1.7l0.3,2.4l-1.5-0.8l0.1,3.1l-1.1-1.7l-0.4,2.5l-2.2-2.7l0.1,4.4l-2.4-3.7c0,0,0.7,3.7,0.8,4.1c0.1,0.4-2.5-3.6-2.5-3.6
				s0.1,3.9,0.1,4.4c0,0.6-2.4-2.5-2.4-2.5l-0.2,3.2l-2.3-2.6l-2.2,2.7c0,0,0.5-2.2,5.7-6.7c5.2-4.5,8.1-7.2,10.5-8.8
				c2.5-1.6,2.8-2.2,2.8-2.2s-1.6-1-2.8-0.9c-1.2,0.1-1.1-1.6-1.1-1.6l-2,2.3l0.3-1.6l-1.2,1.2l-0.1-1.8l-1.5,2.1l-0.6-1.3l-2.2,2.7
				l0.1-2.1l-3,2.8l0-2l-2.2,2.5l0.2-1.8l-2.7,1.7c0,0,1-3.9,5.9-5.2c5-1.4,9.1-0.5,9.1-0.5l0-0.7l-2-0.9l0.5-1.3
				c0,0-2.8,0.4-2.6,0.3c0.2-0.1,3-2.6,2.7-2.5c-0.3,0.1-6.7,1-6.5,0.9c0.2,0,3.1-1.6,2.3-1.3c-0.8,0.3-5.5,1.5-5.3,1.5
				c0.2-0.1,2.6-1.6,1.6-1.2c-1,0.4-5.2,1.4-4.3,0.9c0.8-0.5,4.4-1.6,1.8-1.1c-2.6,0.5-3,0.9-2.6,0.5c0.4-0.4,1.8-1.1,0.6-0.7
				c-1.1,0.4-2.7,0.3-2.3,0.2c0.4-0.1-1.5-0.1-1.5-0.1s2.9-1.7,4.4-1.8s5.2-0.1,5.9,0.1c0.7,0.2,5.1,1.5,7.3,2.9
				c2.1,1.4,3.2,1.3,3.2,1.3l0.7-0.9l-1.5-3.3l1.3-0.5l-2.6-0.8l1.3-0.7c0,0-3.4-0.9-2.9-1c0.5-0.1,3.2-1.2,2.8-1.1
				c-0.4,0.1-2.8-0.9-2.8-0.9s2.3-0.8,1.9-0.7c-0.4,0.1-3.3-0.8-3.3-0.8l2.4-1.8l-2.2-0.4c0,0,1.1-1.3,0.4-1.1c-0.7,0.2-3.7,0-3.7,0
				s2-1.3,1.6-1.2c-0.4,0.1-2.2-0.9-2.2-0.9s2.9-0.9,3.9-0.6c1,0.4,4.8,0.6,6.2,3c1.4,2.5,3.6,5.3,4,6.5c0.4,1.1,1.5,1.7,1.5,1.7
				s0.3-1.2,0.3-1.4c0-0.2-0.1-2.5-0.1-2.5s0.3-1.7,0.2-1.9c-0.1-0.2,0.4-1.9,0.4-1.9s1.3-3.2,1-3.1c-0.2,0.1,1.3-3,1.3-3l1.8-1.1
				l2.1,1.4l0.2,2l-2.3-0.4l1.6,1.1l-1.1,0.4l1.6,1.4l-1.1,0.3c0,0,1.4,1.1,1.1,1.2c-0.3,0.1-1.4,0.4-1.3,0.6
				c0.1,0.2,0.5,1.7,0.5,1.7l-1.2,0l1.9,1.7l-0.9,0.8c0,0,0.3,1.3-0.1,1.4c-0.4,0.1,0.2,0.4,0.4,0.9c0.3,0.5,0,1.5-0.2,1.7
				c-0.1,0.2,0.6,0.7,0.9,0.1c0.3-0.6-0.8,0,1.9-4.1c2.7-4.1,6.2-7.3,6.2-7.3s3.4-0.4,3-0.3c-0.4,0.1-0.2,1.3-0.6,1.5
				c-0.3,0.2-2.4,2.4-1.9,2.2c0.5-0.1,2.3-1,1.4-0.5c-0.8,0.6-3.1,2.2-2.9,2.2c0.3,0,2.2-0.4,1.9-0.1c-0.3,0.2-2,2.1-2,2.1l0.4,0.2
				c0,0-2.6,1.6-2.4,1.5c0.2,0,1.2-0.1,1.2-0.1l-1.8,2.2l0.7,0.2l-1.6,1.8c0,0,0.8-0.1,0.3,0.4c-0.5,0.5-1.3,1.5-1.3,1.5l0.6,0.9
				c0,0,6.4-4.9,9.5-6.1c3.1-1.2,6.2-1.6,9.1-0.1c2.9,1.5,3.4,1.9,3.4,1.9l-6.4-0.6l1.7,1.1l-3-0.5c0,0,1.2,1.2,0.7,1.2
				c-0.4,0-2.2-0.4-2.2-0.4s0.4,1-0.1,1c-0.5,0-2.6-0.8-2.6-0.8l0.9,1.3l-3-0.2l0.2,1.2c0,0-2-0.3-1.9-0.1c0.1,0.2,1,1,0.6,1.1
				c-0.4,0.1-2,0-2,0l0.3,0.7l-1.5,0l0.3,0.9l-2.1-0.2l0.5,1.1c0,0,4.8-1.6,8-1.2c3.2,0.4,7.3,1.6,7.3,1.6s2.1,1.3,2.4,1.7
				c0.3,0.3,1.3,1.4,1.3,1.4l-2.5-0.6l0,0.7l-3.3-0.9c0,0,1.7,1.1,1.2,1.1c-0.5,0-6.2-1.7-6.2-1.7l1.5,1l-3.5-0.4l0.4,0.9l-2.4-0.3
				c0,0,7.5-0.1,9.1,1.3c1.6,1.4,4.1,2.8,4.1,2.8l1,1.1l-2.3-0.3l-0.2,0.7l-2.5-1.9c0,0,0.3,1.4,0.3,1.6c-0.1,0.2-2.7-1.2-2.7-1.2
				l0.3,0.7l-3.9-2.4c0,0,0.1,1.5,0.2,1.7c0.1,0.2-1.1-0.6-1.4-0.6c-0.4,0,0.4,1.6-0.6,0.9c-1-0.7-3.4-1.8-3.4-1.8l0,0.8l-3.7,0.2
				c0,0,5.9,3,8,4.4c2.1,1.4,5.4,4,5.6,4.4c0.2,0.4,1.5,2,1.9,2.6c0.4,0.6,3,5.1,3,5.1l0.6,1.3l-3.6-1.9l-0.5,1.3l-1.8-4l-1.2,2.3
				l-1.8-3.5l-0.9,0.8l-0.5-3.6c0,0-0.7,0.7-0.8,0.1c-0.1-0.7-2-2.1-2-2.1s-0.9,0.1-1.3,0.2c-0.4,0-2-0.8-2-0.8l-2.2,0.4
				c0,0,5.5,0.9,6.4,2.4c1,1.5,0.3,4.1,0.3,4.1s-3.9-3.3-3.8-2.5c0.1,0.8,0.2,1.4,0.2,1.4l-1.9-1.3l-1.1-0.3l-2-1.6
				c0,0,2,2.1,2.7,5.4c0.7,3.3,1,7.1,0.9,7.4c-0.1,0.3-1.1,3.3-1.1,3.3l0.4-5.5c0,0-1.3,3.5-1.4,3.3c-0.1-0.2,0.3-4.9,0.1-4.9
				c-0.2,0-0.8,1.4-0.8,1.4l-0.5-5.2c0,0-1.5,3.7-1.4,3.3c0.1-0.4-0.3-3.6-0.3-3.6s-0.9,2-1.2,1.2c-0.3-0.8-0.9-3.9-0.9-3.9
				l-0.6,1.4l-0.2-3.9l-1.8,2c0,0-0.7,13.8-0.7,17.4c0,3.7,0.4,37.3,0.6,46.8c0.2,9.4,1,7.2,1.4,13.4
				C608.6,323.3,610.6,331.4,610.6,331.4z"/>
		</g>
		<g>
			<circle fill="#FFFFFF" cx="168.1" cy="240.9" r="0.6"/>
			<circle fill="#FFFFFF" cx="166.6" cy="251.8" r="1.2"/>
			<circle fill="#FFFFFF" cx="182.7" cy="239.9" r="0.1"/>
			<circle fill="#FFFFFF" cx="186.4" cy="257.9" r="2.1"/>
			<circle fill="#FFFFFF" cx="169.6" cy="277.6" r="1.6"/>
			<circle fill="#FFFFFF" cx="203" cy="246.2" r="1.6"/>
			<circle fill="#FFFFFF" cx="204.7" cy="259.1" r="1.8"/>
			<circle fill="#FFFFFF" cx="206.7" cy="283.1" r="1.2"/>
			<circle fill="#FFFFFF" cx="220.2" cy="231.4" r="0.8"/>
			<circle fill="#FFFFFF" cx="159.9" cy="223.4" r="1.1"/>
			<circle fill="#FFFFFF" cx="264.9" cy="265.8" r="0.6"/>
			<circle fill="#FFFFFF" cx="272.9" cy="273.2" r="1.2"/>
			<circle fill="#FFFFFF" cx="245.8" cy="262.6" r="1.1"/>
			<circle fill="#FFFFFF" cx="128.3" cy="232.2" r="0.6"/>
			<circle fill="#FFFFFF" cx="140.5" cy="259.1" r="3.1"/>
			<circle fill="#FFFFFF" cx="194.4" cy="221.6" r="2"/>
		</g>
		<g>
			<circle fill="#FFFFFF" cx="584.6" cy="266.4" r="0.6"/>
			<circle fill="#FFFFFF" cx="582" cy="255.7" r="1.2"/>
			<circle fill="#FFFFFF" cx="571.4" cy="272.7" r="0.1"/>
			<circle fill="#FFFFFF" cx="561.4" cy="257.2" r="2.1"/>
			<circle fill="#FFFFFF" cx="569.8" cy="232.8" r="1.6"/>
			<circle fill="#FFFFFF" cx="550.2" cy="274.3" r="1.6"/>
			<circle fill="#FFFFFF" cx="543.9" cy="262.9" r="1.8"/>
			<circle fill="#FFFFFF" cx="533.2" cy="241.3" r="1.2"/>
			<circle fill="#FFFFFF" cx="539.7" cy="294.4" r="0.8"/>
			<circle fill="#FFFFFF" cx="598.6" cy="279.7" r="1.1"/>
			<circle fill="#FFFFFF" cx="485.5" cy="278.7" r="0.6"/>
			<circle fill="#FFFFFF" cx="475.2" cy="274.8" r="1.2"/>
			<circle fill="#FFFFFF" cx="504.4" cy="274.7" r="1.1"/>
			<circle fill="#FFFFFF" cx="624.8" cy="259.9" r="0.6"/>
			<circle fill="#FFFFFF" cx="609.1" cy="185.2" r="3.1"/>
			<circle fill="#FFFFFF" cx="567.2" cy="294" r="2"/>
		</g>
	</g>
	<g>
		<g>
			
				<linearGradient id="SVGID_20_" gradientUnits="userSpaceOnUse" x1="263.5014" y1="489.8731" x2="272.1637" y2="489.8731" gradientTransform="matrix(0.9091 0 0 -0.9091 -11.2727 729.1818)">
				<stop  offset="0" style="stop-color:#ACB8F3"/>
				<stop  offset="1" style="stop-color:#E8E5F6"/>
			</linearGradient>
			<rect x="228.2" y="280.4" fill="url(#SVGID_20_)" width="7.9" height="6.8"/>
			<rect x="228.2" y="280.4" opacity="0.55" fill="#4E4575" enable-background="new    " width="2.9" height="6.8"/>
			<rect x="228.2" y="280.4" fill="#2C343A" width="7.9" height="2"/>
			
				<linearGradient id="SVGID_21_" gradientUnits="userSpaceOnUse" x1="274.2928" y1="488.1741" x2="282.0996" y2="488.1741" gradientTransform="matrix(0.9091 0 0 -0.9091 -11.2727 729.1818)">
				<stop  offset="0" style="stop-color:#ACB8F3"/>
				<stop  offset="1" style="stop-color:#E8E5F6"/>
			</linearGradient>
			<rect x="238.1" y="282" fill="url(#SVGID_21_)" width="7.1" height="6.8"/>
			<rect x="238.1" y="282" opacity="0.55" fill="#4E4575" enable-background="new    " width="2.7" height="6.8"/>
			<rect x="238.1" y="282" fill="#2C343A" width="7.1" height="1.7"/>
			
				<linearGradient id="SVGID_22_" gradientUnits="userSpaceOnUse" x1="242.5223" y1="488.6595" x2="246.4791" y2="488.6595" gradientTransform="matrix(0.9091 0 0 -0.9091 -11.2727 729.1818)">
				<stop  offset="0" style="stop-color:#9A2D47"/>
				<stop  offset="1" style="stop-color:#CE3D4B"/>
			</linearGradient>
			<rect x="209.2" y="277.4" fill="url(#SVGID_22_)" width="3.6" height="15"/>
			
				<linearGradient id="SVGID_23_" gradientUnits="userSpaceOnUse" x1="250.8815" y1="488.6595" x2="254.8384" y2="488.6595" gradientTransform="matrix(0.9091 0 0 -0.9091 -11.2727 729.1818)">
				<stop  offset="0" style="stop-color:#9A2D47"/>
				<stop  offset="1" style="stop-color:#CE3D4B"/>
			</linearGradient>
			<rect x="216.8" y="277.4" fill="url(#SVGID_23_)" width="3.6" height="15"/>
			<rect x="209.2" y="277.4" fill="#2C343A" width="3.6" height="3.4"/>
			<rect x="216.8" y="277.4" fill="#2C343A" width="3.6" height="3.4"/>
			<g>
				
					<linearGradient id="SVGID_24_" gradientUnits="userSpaceOnUse" x1="296.2575" y1="483.3185" x2="232.6481" y2="473.6336" gradientTransform="matrix(0.9091 0 0 -0.9091 -11.2727 729.1818)">
					<stop  offset="0" style="stop-color:#E8E5F6"/>
					<stop  offset="1" style="stop-color:#ACB8F3"/>
				</linearGradient>
				<path fill="url(#SVGID_24_)" d="M200.9,294.8v-5.2h13.9v-4.7h37.4l16.4,14.9l-33,3.4c-1.3,0.1-2.4,0.1-3.7,0l-13.2-1.7
					c-0.7-0.1-1.4-0.1-2-0.1h-16v-6.6H200.9z"/>
				
					<linearGradient id="SVGID_25_" gradientUnits="userSpaceOnUse" x1="295.9483" y1="487.5006" x2="232.1448" y2="477.7862" gradientTransform="matrix(0.9091 0 0 -0.9091 -11.2727 729.1818)">
					<stop  offset="0.1123" style="stop-color:#6975BA"/>
					<stop  offset="1" style="stop-color:#6975BA"/>
				</linearGradient>
				<polygon opacity="0.75" fill="url(#SVGID_25_)" enable-background="new    " points="214.8,289 214.8,289.7 257.3,289.6 
					256.7,289 				"/>
				<g>
					
						<linearGradient id="SVGID_26_" gradientUnits="userSpaceOnUse" x1="294.536" y1="485.376" x2="232.4391" y2="475.9214" gradientTransform="matrix(0.9091 0 0 -0.9091 -11.2727 729.1818)">
						<stop  offset="0" style="stop-color:#E8E5F6"/>
						<stop  offset="1" style="stop-color:#ACB8F3"/>
					</linearGradient>
					<polygon fill="url(#SVGID_26_)" points="203.1,298.1 201.2,294.7 199.9,294.5 201.7,298.1 					"/>
					
						<linearGradient id="SVGID_27_" gradientUnits="userSpaceOnUse" x1="235.7687" y1="476.1597" x2="301.9274" y2="476.1597" gradientTransform="matrix(0.9091 0 0 -0.9091 -11.2727 729.1818)">
						<stop  offset="0.1123" style="stop-color:#6975BA"/>
						<stop  offset="1" style="stop-color:#6975BA"/>
					</linearGradient>
					<polygon opacity="0.75" fill="url(#SVGID_27_)" enable-background="new    " points="261.1,292.9 252.2,292.9 247.4,298.6 
						203.1,298.1 204.1,299.7 249.3,299.7 252.3,296.2 253.4,294.8 263.1,294.8 					"/>
				</g>
				
					<linearGradient id="SVGID_28_" gradientUnits="userSpaceOnUse" x1="272.5034" y1="477.369" x2="272.5034" y2="463.5189" gradientTransform="matrix(0.9091 0 0 -0.9091 -11.2727 729.1818)">
					<stop  offset="0" style="stop-color:#E8E5F6"/>
					<stop  offset="1" style="stop-color:#ACB8F3"/>
				</linearGradient>
				<polygon fill="url(#SVGID_28_)" points="253.4,294.8 249.3,299.7 204.1,299.7 201.2,294.7 190.1,293.7 195.6,311.9 272.3,311.9 
					282.8,294.8 				"/>
				<polygon opacity="0.55" fill="#4E4575" enable-background="new    " points="194.1,306.8 195.6,311.9 272.3,311.9 275.4,306.8 
									"/>
				<polygon fill="#2C343A" points="278.6,301.4 257.3,301.4 257.3,299.2 280.1,299.2 				"/>
				<polygon fill="#2C343A" points="276.1,305.8 257.3,305.8 257.3,303.6 277.5,303.6 				"/>
			</g>
			<g>
				<ellipse fill="#2C343A" cx="200" cy="302.4" rx="0.8" ry="0.9"/>
				<ellipse fill="#2C343A" cx="204.8" cy="302.4" rx="0.8" ry="0.9"/>
				<ellipse fill="#2C343A" cx="209.7" cy="302.4" rx="0.8" ry="0.9"/>
				<ellipse fill="#2C343A" cx="214.5" cy="302.4" rx="0.8" ry="0.9"/>
				<ellipse fill="#2C343A" cx="219.4" cy="302.4" rx="0.8" ry="0.9"/>
				<ellipse fill="#2C343A" cx="224.2" cy="302.4" rx="0.8" ry="0.9"/>
				<ellipse fill="#2C343A" cx="229" cy="302.4" rx="0.8" ry="0.9"/>
				<ellipse fill="#2C343A" cx="233.9" cy="302.4" rx="0.8" ry="0.9"/>
				<ellipse fill="#2C343A" cx="239.2" cy="302.4" rx="0.8" ry="0.9"/>
				<ellipse fill="#2C343A" cx="244.1" cy="302.4" rx="0.8" ry="0.9"/>
				<ellipse fill="#2C343A" cx="248.9" cy="302.4" rx="0.8" ry="0.9"/>
				<ellipse fill="#2C343A" cx="200" cy="305.8" rx="0.8" ry="0.9"/>
				<ellipse fill="#2C343A" cx="204.8" cy="305.8" rx="0.8" ry="0.9"/>
				<ellipse fill="#2C343A" cx="209.7" cy="305.8" rx="0.8" ry="0.9"/>
				<ellipse fill="#2C343A" cx="214.5" cy="305.8" rx="0.8" ry="0.9"/>
				<ellipse fill="#2C343A" cx="219.4" cy="305.8" rx="0.8" ry="0.9"/>
				<ellipse fill="#2C343A" cx="224.2" cy="305.8" rx="0.8" ry="0.9"/>
				<ellipse fill="#2C343A" cx="229" cy="305.8" rx="0.8" ry="0.9"/>
				<ellipse fill="#2C343A" cx="233.9" cy="305.8" rx="0.8" ry="0.9"/>
				<ellipse fill="#2C343A" cx="239.2" cy="305.8" rx="0.8" ry="0.9"/>
				<ellipse fill="#2C343A" cx="244.1" cy="305.8" rx="0.8" ry="0.9"/>
				<ellipse fill="#2C343A" cx="248.9" cy="305.8" rx="0.8" ry="0.9"/>
				<ellipse fill="#2C343A" cx="200" cy="309.2" rx="0.8" ry="0.9"/>
				<ellipse fill="#2C343A" cx="204.8" cy="309.2" rx="0.8" ry="0.9"/>
				<ellipse fill="#2C343A" cx="209.7" cy="309.2" rx="0.8" ry="0.9"/>
				<ellipse fill="#2C343A" cx="214.5" cy="309.2" rx="0.8" ry="0.9"/>
				<ellipse fill="#2C343A" cx="219.4" cy="309.2" rx="0.8" ry="0.9"/>
				<ellipse fill="#2C343A" cx="224.2" cy="309.2" rx="0.8" ry="0.9"/>
				<ellipse fill="#2C343A" cx="229" cy="309.2" rx="0.8" ry="0.9"/>
				<ellipse fill="#2C343A" cx="233.9" cy="309.2" rx="0.8" ry="0.9"/>
				<ellipse fill="#2C343A" cx="239.2" cy="309.2" rx="0.8" ry="0.9"/>
				<ellipse fill="#2C343A" cx="244.1" cy="309.2" rx="0.8" ry="0.9"/>
				<ellipse fill="#2C343A" cx="248.9" cy="309.2" rx="0.8" ry="0.9"/>
			</g>
			<g>
				<rect x="233.1" y="286.6" fill="#4E4575" width="1.6" height="2.1"/>
				<rect x="230.7" y="286.6" fill="#4E4575" width="1.6" height="2.1"/>
				<rect x="216.2" y="286.6" fill="#4E4575" width="1.5" height="2.1"/>
				<rect x="228.3" y="286.6" fill="#4E4575" width="1.6" height="2.1"/>
				<rect x="223.5" y="286.6" fill="#4E4575" width="1.6" height="2.1"/>
				<rect x="225.9" y="286.6" fill="#4E4575" width="1.6" height="2.1"/>
				<rect x="238" y="286.6" fill="#4E4575" width="1.6" height="2.1"/>
				<polygon fill="#4E4575" points="253.7,288.6 251.4,286.6 250.1,286.6 250.1,288.6 				"/>
				<rect x="240.4" y="286.6" fill="#4E4575" width="1.6" height="2.1"/>
				<rect x="247.7" y="286.6" fill="#4E4575" width="1.6" height="2.1"/>
				<rect x="245.3" y="286.6" fill="#4E4575" width="1.6" height="2.1"/>
				<rect x="242.8" y="286.6" fill="#4E4575" width="1.6" height="2.1"/>
				<rect x="235.5" y="286.6" fill="#4E4575" width="1.6" height="2.1"/>
				<rect x="221" y="286.6" fill="#4E4575" width="1.6" height="2.1"/>
				<rect x="218.6" y="286.6" fill="#4E4575" width="1.6" height="2.1"/>
			</g>
			<rect x="204.1" y="291.8" fill="#4E4575" width="5.6" height="3.5"/>
			<rect x="211.7" y="291.8" fill="#4E4575" width="5.6" height="3.5"/>
			<rect x="219.4" y="291.8" fill="#4E4575" width="5.6" height="3.5"/>
			<rect x="227" y="291.8" fill="#4E4575" width="5.6" height="3.5"/>
			<rect x="234.7" y="291.8" fill="#4E4575" width="5.6" height="3.5"/>
			<rect x="242.2" y="291.8" fill="#4E4575" width="5.6" height="3.5"/>
		</g>
		<defs>
			<filter id="Adobe_OpacityMaskFilter" filterUnits="userSpaceOnUse" x="230.4" y="284.3" width="23.1" height="26.3">
				<feColorMatrix  type="matrix" values="1 0 0 0 0  0 1 0 0 0  0 0 1 0 0  0 0 0 1 0"/>
			</filter>
		</defs>
		<mask maskUnits="userSpaceOnUse" x="230.4" y="284.3" width="23.1" height="26.3" id="SVGID_2_">
			<g filter="url(#Adobe_OpacityMaskFilter)">
				
					<radialGradient id="SVGID_29_" cx="272.6992" cy="471.9997" r="11.9054" gradientTransform="matrix(0.9722 0 0 -1.1032 -23.1686 818.1956)" gradientUnits="userSpaceOnUse">
					<stop  offset="0" style="stop-color:#FFFFFF"/>
					<stop  offset="1" style="stop-color:#000000"/>
				</radialGradient>
				<ellipse fill="url(#SVGID_29_)" cx="242" cy="297.4" rx="11.6" ry="13.1"/>
			</g>
		</mask>
		
			<radialGradient id="SVGID_30_" cx="272.6992" cy="471.9997" r="11.9054" gradientTransform="matrix(0.9722 0 0 -1.1032 -23.1686 818.1956)" gradientUnits="userSpaceOnUse">
			<stop  offset="0" style="stop-color:#E8E5F6"/>
			<stop  offset="1" style="stop-color:#ACB8F3"/>
		</radialGradient>
		<ellipse mask="url(#SVGID_2_)" fill="url(#SVGID_30_)" cx="242" cy="297.4" rx="11.6" ry="13.1"/>
		<defs>
			<filter id="Adobe_OpacityMaskFilter_1_" filterUnits="userSpaceOnUse" x="210.5" y="288.1" width="15.6" height="17.7">
				<feColorMatrix  type="matrix" values="1 0 0 0 0  0 1 0 0 0  0 0 1 0 0  0 0 0 1 0"/>
			</filter>
		</defs>
		<mask maskUnits="userSpaceOnUse" x="210.5" y="288.1" width="15.6" height="17.7" id="SVGID_1_">
			<g filter="url(#Adobe_OpacityMaskFilter_1_)">
				
					<radialGradient id="SVGID_31_" cx="248.2992" cy="472.4451" r="8" gradientTransform="matrix(0.9722 0 0 -1.1032 -23.1686 818.1956)" gradientUnits="userSpaceOnUse">
					<stop  offset="0" style="stop-color:#FFFFFF"/>
					<stop  offset="1" style="stop-color:#000000"/>
				</radialGradient>
				<ellipse fill="url(#SVGID_31_)" cx="218.2" cy="297" rx="7.8" ry="8.8"/>
			</g>
		</mask>
		
			<radialGradient id="SVGID_32_" cx="248.2992" cy="472.4451" r="8" gradientTransform="matrix(0.9722 0 0 -1.1032 -23.1686 818.1956)" gradientUnits="userSpaceOnUse">
			<stop  offset="0" style="stop-color:#E8E5F6"/>
			<stop  offset="1" style="stop-color:#ACB8F3"/>
		</radialGradient>
		<ellipse mask="url(#SVGID_1_)" fill="url(#SVGID_32_)" cx="218.2" cy="297" rx="7.8" ry="8.8"/>
	</g>
	<g>
		<path fill="#182B71" d="M490.1,333.9l5.4,0.4c0,0,0-31.9-0.5-42.5c-0.5-10.6-4.8-46.5-5.2-48.1c-0.4-1.6,0.1-2.6,0.1-2.6l1.4,1.7
			l-0.3,3l1.3-2.3l-0.1,3.2l1.4-1.9l-0.5,3l1.9-1.6l-0.3,3.1l1.7-1.6l0.1,2.9c0,0,1.4-1.7,1.4-1.3c0,0.4-0.3,3.2-0.3,3.2
			s1.7-1.7,1.7-1.4c0,0.3,0.1,2.8,0.1,2.8s1.4-3.7,1.5-2.6c0.1,1.1,0.8,5.2,0.8,5.2s-0.2-4.5-0.7-6.3c-0.5-1.7-3.3-6.4-3.3-6.4
			l-1.7-2.6l-1.3-2.6c0,0-1.3-1.3-1.1-1.2c0.2,0.1,2.5,1.9,2.5,1.9l-1.8-4.2l5.7,8.2l-3.4-7.7l1.6,3.9l1-1.5l-0.1,2l1.2-0.7l0.1,2.5
			l0.8-1.4l0.5,2l1.6-2.3l0.1,3.6l1.8-3.2c0,0-0.4,3-0.4,3.4c-0.1,0.4,1.9-3,1.9-3s0.1,3.2,0.1,3.6c0,0.5,1.8-2.2,1.8-2.2l0.3,2.6
			l1.7-2.2l1.9,2.1c0,0-0.5-1.8-5-5.2c-4.5-3.4-7-5.4-9.1-6.6c-2.1-1.2-2.4-1.7-2.4-1.7s1.3-0.9,2.2-0.9c1,0,0.8-1.4,0.8-1.4
			l1.8,1.7l-0.4-1.3l1,0.9v-1.5l1.4,1.6l0.4-1.1l2,2.1l-0.2-1.7l2.6,2.1l-0.1-1.6l2,1.9l-0.2-1.5l2.3,1.3c0,0-1-3.1-5.1-3.9
			c-4.1-0.8-7.5,0.1-7.5,0.1v-0.6l1.6-0.8l-0.5-1.1c0,0,2.3,0.2,2.2,0.1c-0.2-0.1-2.6-2-2.3-1.9c0.2,0.1,5.6,0.4,5.4,0.4
			c-0.2,0-2.6-1.1-2-1c0.7,0.2,4.6,1,4.4,0.9c-0.2-0.1-2.2-1.1-1.4-0.9c0.8,0.2,4.3,0.9,3.6,0.5c-0.7-0.4-3.6-1.1-1.5-0.8
			c2.2,0.2,2.5,0.5,2.2,0.2c-0.4-0.3-1.5-0.8-0.5-0.5c1,0.2,2.2,0.1,1.9,0.1c-0.4-0.1,1.3-0.2,1.3-0.2s-2.5-1.3-3.7-1.3
			c-1.3,0-4.2,0.2-4.8,0.4c-0.5,0.2-4.1,1.5-5.8,2.8c-1.7,1.3-2.6,1.3-2.6,1.3l-0.6-0.7l1.1-2.8l-1.1-0.4l2.1-0.8l-1.1-0.5
			c0,0,2.8-0.9,2.3-1c-0.4-0.1-2.7-0.8-2.4-0.8c0.3,0.1,2.2-0.9,2.2-0.9s-1.9-0.5-1.6-0.5c0.4,0.1,2.7-0.8,2.7-0.8l-2.1-1.3l1.7-0.5
			c0,0-1-1-0.4-0.9c0.6,0.1,3-0.2,3-0.2s-1.7-1-1.4-0.9c0.3,0.1,1.7-0.8,1.7-0.8s-2.5-0.6-3.2-0.2c-0.8,0.4-3.9,0.7-4.9,2.8
			c-1,2.1-2.7,4.5-2.9,5.5c-0.2,1-1.1,1.4-1.1,1.4s-0.3-1-0.3-1.1c0-0.2-0.1-2-0.1-2s-0.3-1.4-0.2-1.6c0.1-0.2-0.4-1.6-0.4-1.6
			s-1.2-2.5-1-2.5c0.2,0.1-1.2-2.4-1.2-2.4l-1.6-0.8l-1.7,1.3l-0.1,1.6l1.9-0.4l-1.3,1l0.9,0.2l-1.2,1.3l0.9,0.2c0,0-1.1,1-0.8,1
			c0.2,0.1,1.2,0.2,1.1,0.4c-0.1,0.2-0.3,1.4-0.3,1.4l1-0.1l-1.4,1.5l0.8,0.6c0,0-0.2,1.1,0.1,1.1c0.3,0.1-0.1,0.4-0.3,0.8
			c-0.2,0.4,0.1,1.2,0.2,1.4c0.1,0.2-0.5,0.6-0.7,0.1c-0.2-0.5,0.7-0.1-1.8-3.3c-2.5-3.2-5.5-5.6-5.5-5.6s-2.8-0.2-2.5-0.1
			c0.4,0.1,0.2,1,0.5,1.2c0.3,0.2,2.1,1.8,1.7,1.7c-0.4-0.1-1.9-0.7-1.2-0.3c0.7,0.4,2.7,1.6,2.5,1.6c-0.2,0-1.9-0.2-1.6,0
			c0.3,0.2,1.7,1.6,1.7,1.6l-0.3,0.2c0,0,2.2,1.1,2,1.1c-0.2,0-1,0-1,0l1.6,1.7l-0.6,0.2l1.4,1.4c0,0-0.7,0-0.2,0.4
			c0.4,0.4,1.1,1.1,1.1,1.1l-0.5,0.8c0,0-5.5-3.6-8.1-4.5c-2.6-0.8-5.1-1-7.4,0.4c-2.3,1.4-2.7,1.7-2.7,1.7l5.2-0.8l-1.3,1l2.4-0.6
			c0,0-0.9,1-0.5,1c0.4,0,1.8-0.5,1.8-0.5s-0.3,0.8,0.1,0.8c0.4,0,2.1-0.8,2.1-0.8l-0.7,1.1l2.5-0.3l-0.1,1c0,0,1.6-0.4,1.6-0.2
			c-0.1,0.2-0.8,0.9-0.4,1c0.4,0.1,1.7-0.1,1.7-0.1l-0.2,0.6l1.2-0.1l-0.2,0.7l1.7-0.2l-0.4,0.9c0,0-4-1-6.6-0.5
			c-2.6,0.5-5.9,1.7-5.9,1.7s-1.6,1.2-1.9,1.5c-0.2,0.3-1,1.2-1,1.2l2-0.7v0.6l2.6-0.9c0,0-1.3,1-0.9,1c0.4,0,5-1.7,5-1.7l-1.1,0.9
			l2.9-0.5l-0.2,0.8l1.9-0.4c0,0-6.2,0.3-7.4,1.6c-1.2,1.3-3.2,2.5-3.2,2.5l-0.8,1l1.9-0.4l0.2,0.6l2-1.7c0,0-0.2,1.1-0.1,1.3
			c0.1,0.2,2.2-1.1,2.2-1.1l-0.2,0.6l3-2.2c0,0,0,1.3-0.1,1.4c-0.1,0.2,0.8-0.5,1.1-0.6c0.3-0.1-0.2,1.3,0.5,0.7
			c0.8-0.6,2.7-1.7,2.7-1.7l0.1,0.7h3c0,0-4.7,2.8-6.3,4c-1.7,1.3-4.2,3.5-4.3,3.9c-0.1,0.4-1.1,1.7-1.4,2.2
			c-0.3,0.5-2.2,4.4-2.2,4.4l-0.4,1.1l2.9-1.7l0.5,1.1l1.3-3.4l1.1,1.9l1.3-3l0.8,0.6l0.2-3c0,0,0.6,0.5,0.7,0
			c0.1-0.5,1.6-1.9,1.6-1.9s0.8,0.1,1.1,0.1c0.3,0,1.6-0.8,1.6-0.8l1.8,0.2c0,0-4.4,1-5.1,2.3c-0.7,1.3-0.1,3.4-0.1,3.4s3-2.9,3-2.3
			s-0.1,1.1-0.1,1.1l1.5-1.1l0.9-0.3l1.6-1.4c0,0-1.5,1.8-1.9,4.5c-0.4,2.8-0.4,5.9-0.4,6.1s1.1,2.6,1.1,2.6l-0.6-4.5
			c0,0,1.3,2.8,1.3,2.6c0.1-0.2-0.5-4-0.4-4c0.2,0,0.7,1.1,0.7,1.1l0.1-4.3c0,0,1.4,2.9,1.3,2.6c-0.1-0.3,0.1-3,0.1-3s0.8,1.6,1,1
			c0.2-0.7,0.5-3.2,0.5-3.2l0.6,1.1l-0.1-3.2l1.6,1.5c0,0,1.3,11.2,1.5,14.2c0.2,3,1.7,30.6,2.1,38.3c0.4,7.7-0.7,21.8-0.7,26.9
			C491.3,327.1,490.1,333.9,490.1,333.9z"/>
		<linearGradient id="SVGID_33_" gradientUnits="userSpaceOnUse" x1="488.2835" y1="182.8182" x2="488.2835" y2="264.7613">
			<stop  offset="0" style="stop-color:#FFFFFF"/>
			<stop  offset="0.9987" style="stop-color:#FFFFFF;stop-opacity:0"/>
		</linearGradient>
		<path fill="url(#SVGID_33_)" d="M490.1,333.9l5.4,0.4c0-27.8,0.2-27.8-0.5-42.5c-0.5-10.6-4.8-46.5-5.2-48.1
			c-0.4-1.6,0.1-2.6,0.1-2.6l1.4,1.7l-0.3,3l1.3-2.3l-0.1,3.2l1.4-1.9l-0.5,3l1.9-1.6l-0.3,3.1l1.7-1.6l0.1,2.9c0,0,1.4-1.7,1.4-1.3
			c0,0.4-0.3,3.2-0.3,3.2s1.7-1.7,1.7-1.4c0,0.3,0.1,2.8,0.1,2.8s1.4-3.7,1.5-2.6c0.1,1.1,0.8,5.2,0.8,5.2s-0.2-4.5-0.7-6.3
			c-0.5-1.7-3.3-6.4-3.3-6.4l-1.7-2.6l-1.3-2.6c0,0-1.3-1.3-1.1-1.2c0.2,0.1,2.5,1.9,2.5,1.9l-1.8-4.2l5.7,8.2l-3.4-7.7l1.6,3.9
			l1-1.5l-0.1,2l1.2-0.7l0.1,2.5l0.8-1.4l0.5,2l1.6-2.3l0.1,3.6l1.8-3.2c0,0-0.4,3-0.4,3.4c-0.1,0.4,1.9-3,1.9-3s0.1,3.2,0.1,3.6
			c0,0.5,1.8-2.2,1.8-2.2l0.3,2.6l1.7-2.2l1.9,2.1c0,0-0.5-1.8-5-5.2c-4.5-3.4-7-5.4-9.1-6.6c-2.1-1.2-2.4-1.7-2.4-1.7
			s1.3-0.9,2.2-0.9c1,0,0.8-1.4,0.8-1.4l1.8,1.7l-0.4-1.3l1,0.9v-1.5l1.4,1.6l0.4-1.1l2,2.1l-0.2-1.7l2.6,2.1l-0.1-1.6l2,1.9
			l-0.2-1.5l2.3,1.3c0,0-1-3.1-5.1-3.9c-4.1-0.8-7.5,0.1-7.5,0.1v-0.6l1.6-0.8l-0.5-1.1c0,0,2.3,0.2,2.2,0.1c-0.2-0.1-2.6-2-2.3-1.9
			c0.2,0.1,5.6,0.4,5.4,0.4c-0.2,0-2.6-1.1-2-1c0.7,0.2,4.6,1,4.4,0.9c-0.2-0.1-2.2-1.1-1.4-0.9c0.8,0.2,4.3,0.9,3.6,0.5
			c-0.7-0.4-3.6-1.1-1.5-0.8c2.2,0.2,2.5,0.5,2.2,0.2c-0.4-0.3-1.5-0.8-0.5-0.5c1,0.2,2.2,0.1,1.9,0.1c-0.4-0.1,1.3-0.2,1.3-0.2
			s-2.5-1.3-3.7-1.3c-1.3,0-4.2,0.2-4.8,0.4c-0.5,0.2-4.1,1.5-5.8,2.8c-1.7,1.3-2.6,1.3-2.6,1.3l-0.6-0.7l1.1-2.8l-1.1-0.4l2.1-0.8
			l-1.1-0.5c0,0,2.8-0.9,2.3-1c-0.4-0.1-2.7-0.8-2.4-0.8c0.3,0.1,2.2-0.9,2.2-0.9s-1.9-0.5-1.6-0.5c0.4,0.1,2.7-0.8,2.7-0.8
			l-2.1-1.3l1.7-0.5c0,0-1-1-0.4-0.9c0.6,0.1,3-0.2,3-0.2s-1.7-1-1.4-0.9c0.3,0.1,1.7-0.8,1.7-0.8s-2.5-0.6-3.2-0.2
			c-0.8,0.4-3.9,0.7-4.9,2.8c-1,2.1-2.7,4.5-2.9,5.5c-0.2,1-1.1,1.4-1.1,1.4s-0.3-1-0.3-1.1c0-0.2-0.1-2-0.1-2s-0.3-1.4-0.2-1.6
			c0.1-0.2-0.4-1.6-0.4-1.6s-1.2-2.5-1-2.5c0.2,0.1-1.2-2.4-1.2-2.4l-1.6-0.8l-1.7,1.3l-0.1,1.6l1.9-0.4l-1.3,1l0.9,0.2l-1.2,1.3
			l0.9,0.2c0,0-1.1,1-0.8,1c0.2,0.1,1.2,0.2,1.1,0.4c-0.1,0.2-0.3,1.4-0.3,1.4l1-0.1l-1.4,1.5l0.8,0.6c0,0-0.2,1.1,0.1,1.1
			c0.3,0.1-0.1,0.4-0.3,0.8c-0.2,0.4,0.1,1.2,0.2,1.4c0.1,0.2-0.5,0.6-0.7,0.1c-0.2-0.5,0.7-0.1-1.8-3.3c-2.5-3.2-5.5-5.6-5.5-5.6
			s-2.8-0.2-2.5-0.1c0.4,0.1,0.2,1,0.5,1.2c0.3,0.2,2.1,1.8,1.7,1.7c-0.4-0.1-1.9-0.7-1.2-0.3c0.7,0.4,2.7,1.6,2.5,1.6
			c-0.2,0-1.9-0.2-1.6,0c0.3,0.2,1.7,1.6,1.7,1.6l-0.3,0.2c0,0,2.2,1.1,2,1.1c-0.2,0-1,0-1,0l1.6,1.7l-0.6,0.2l1.4,1.4
			c0,0-0.7,0-0.2,0.4c0.4,0.4,1.1,1.1,1.1,1.1l-0.5,0.8c0,0-5.5-3.6-8.1-4.5c-2.6-0.8-5.1-1-7.4,0.4c-2.3,1.4-2.7,1.7-2.7,1.7
			l5.2-0.8l-1.3,1l2.4-0.6c0,0-0.9,1-0.5,1c0.4,0,1.8-0.5,1.8-0.5s-0.3,0.8,0.1,0.8c0.4,0,2.1-0.8,2.1-0.8l-0.7,1.1l2.5-0.3l-0.1,1
			c0,0,1.6-0.4,1.6-0.2c-0.1,0.2-0.8,0.9-0.4,1c0.4,0.1,1.7-0.1,1.7-0.1l-0.2,0.6l1.2-0.1l-0.2,0.7l1.7-0.2l-0.4,0.9
			c0,0-4-1-6.6-0.5c-2.6,0.5-5.9,1.7-5.9,1.7s-1.6,1.2-1.9,1.5c-0.2,0.3-1,1.2-1,1.2l2-0.7v0.6l2.6-0.9c0,0-1.3,1-0.9,1
			c0.4,0,5-1.7,5-1.7l-1.1,0.9l2.9-0.5l-0.2,0.8l1.9-0.4c0,0-6.2,0.3-7.4,1.6c-1.2,1.3-3.2,2.5-3.2,2.5l-0.8,1l1.9-0.4l0.2,0.6
			l2-1.7c0,0-0.2,1.1-0.1,1.3c0.1,0.2,2.2-1.1,2.2-1.1l-0.2,0.6l3-2.2c0,0,0,1.3-0.1,1.4c-0.1,0.2,0.8-0.5,1.1-0.6
			c0.3-0.1-0.2,1.3,0.5,0.7c0.8-0.6,2.7-1.7,2.7-1.7l0.1,0.7h3c0,0-4.7,2.8-6.3,4c-1.7,1.3-4.2,3.5-4.3,3.9
			c-0.1,0.4-1.1,1.7-1.4,2.2c-0.3,0.5-2.2,4.4-2.2,4.4l-0.4,1.1l2.9-1.7l0.5,1.1l1.3-3.4l1.1,1.9l1.3-3l0.8,0.6l0.2-3
			c0,0,0.6,0.5,0.7,0c0.1-0.5,1.6-1.9,1.6-1.9s0.8,0.1,1.1,0.1c0.3,0,1.6-0.8,1.6-0.8l1.8,0.2c0,0-4.4,1-5.1,2.3
			c-0.7,1.3-0.1,3.4-0.1,3.4s3-2.9,3-2.3s-0.1,1.1-0.1,1.1l1.5-1.1l0.9-0.3l1.6-1.4c0,0-1.5,1.8-1.9,4.5c-0.4,2.8-0.4,5.9-0.4,6.1
			s1.1,2.6,1.1,2.6l-0.6-4.5c0,0,1.3,2.8,1.3,2.6c0.1-0.2-0.5-4-0.4-4c0.2,0,0.7,1.1,0.7,1.1l0.1-4.3c0,0,1.4,2.9,1.3,2.6
			c-0.1-0.3,0.1-3,0.1-3s0.8,1.6,1,1c0.2-0.7,0.5-3.2,0.5-3.2l0.6,1.1l-0.1-3.2l1.6,1.5c0,0,1.3,11.2,1.5,14.2
			c0.2,3,1.7,30.6,2.1,38.3c0.4,7.7-0.7,21.8-0.7,26.9C491.3,327.1,490.1,333.9,490.1,333.9z"/>
	</g>
	<g>
		<path fill="#182B71" d="M192.2,333h6.1c0,0-0.1-37.8-0.8-50.7c-0.7-12.9-5.9-56.7-6.3-58.7c-0.4-2,0.1-3.2,0.1-3.2l1.7,2.1
			l-0.4,3.7l1.5-2.8l-0.1,3.9l1.8-2.3l-0.6,3.7l2.3-2l-0.4,3.8l2-1.9l0.1,3.6c0,0,1.8-2,1.8-1.6c0,0.4-0.4,3.9-0.4,3.9
			s2.1-2.1,2.1-1.8c0,0.4,0.1,3.4,0.1,3.4s1.7-4.5,1.8-3.2c0.1,1.3,0.9,6.3,0.9,6.3s-0.3-5.5-0.9-7.7c-0.6-2.1-4.1-7.8-4.1-7.8
			l-2.1-3.2l-1.6-3.2c0,0-1.5-1.5-1.3-1.5c0.2,0.1,3.1,2.3,3.1,2.3l-2.2-5.2l7,10l-4.2-9.4l1.9,4.7l1.2-1.8l-0.1,2.4l1.5-0.9
			l0.1,3.1l1-1.8l0.6,2.5l2-2.8l0.1,4.4l2.2-3.9c0,0-0.4,3.7-0.5,4.2c-0.1,0.4,2.3-3.7,2.3-3.7s0.1,3.9,0.1,4.4s2.2-2.7,2.2-2.7
			l0.4,3.1l2.1-2.7l2.3,2.6c0,0-0.7-2.2-6.1-6.3c-5.5-4.2-8.5-6.6-11.1-8.1c-2.6-1.5-2.9-2-2.9-2s1.5-1.1,2.7-1.1c1.2,0,1-1.7,1-1.7
			l2.2,2.1l-0.4-1.5l1.2,1.1v-1.8l1.7,2l0.5-1.3l2.4,2.6l-0.3-2.1l3.1,2.6l-0.1-2l2.4,2.3l-0.3-1.8l2.8,1.5c0,0-1.2-3.8-6.3-4.8
			c-5-1-9.1,0.1-9.1,0.1v-0.7l2-1l-0.6-1.3c0,0,2.8,0.2,2.6,0.1c-0.2-0.1-3.1-2.4-2.8-2.3c0.3,0.1,6.8,0.5,6.6,0.5
			c-0.2,0-3.2-1.4-2.4-1.2c0.8,0.2,5.6,1.2,5.4,1.1c-0.2-0.1-2.7-1.4-1.7-1.1c1,0.3,5.3,1.1,4.4,0.7c-0.9-0.4-4.4-1.3-1.8-1
			c2.6,0.3,3.1,0.7,2.6,0.3c-0.4-0.4-1.8-0.9-0.7-0.7c1.2,0.3,2.7,0.1,2.3,0.1c-0.4-0.1,1.5-0.2,1.5-0.2s-3-1.5-4.5-1.5
			c-1.5,0-5.2,0.3-5.8,0.5c-0.7,0.2-5,1.8-7.1,3.4c-2,1.5-3.1,1.5-3.1,1.5l-0.7-0.9l1.3-3.4L198,197l2.6-1l-1.3-0.6
			c0,0,3.4-1.1,2.8-1.2c-0.5-0.1-3.3-1-2.9-0.9c0.4,0.1,2.7-1.1,2.7-1.1s-2.3-0.7-1.9-0.6c0.4,0.1,3.3-1,3.3-1l-2.6-1.6l2.1-0.6
			c0,0-1.2-1.2-0.4-1.1c0.7,0.1,3.6-0.3,3.6-0.3s-2-1.2-1.7-1.1c0.4,0.1,2.1-1,2.1-1s-3-0.7-3.9-0.3c-0.9,0.4-4.7,0.9-6,3.4
			c-1.2,2.6-3.3,5.5-3.6,6.7c-0.3,1.2-1.4,1.8-1.4,1.8s-0.4-1.2-0.4-1.4c0-0.2-0.1-2.5-0.1-2.5s-0.4-1.7-0.3-1.9
			c0.1-0.2-0.5-1.9-0.5-1.9s-1.5-3.1-1.2-3c0.2,0.1-1.5-2.9-1.5-2.9l-1.9-0.9l-2,1.5l-0.1,2l2.3-0.5l-1.5,1.2l1.1,0.3l-1.5,1.5
			l1.1,0.2c0,0-1.3,1.2-1,1.2c0.3,0.1,1.5,0.3,1.4,0.5c-0.1,0.2-0.4,1.7-0.4,1.7l1.2-0.1l-1.8,1.8l0.9,0.7c0,0-0.2,1.3,0.1,1.4
			c0.4,0.1-0.1,0.4-0.4,0.9c-0.2,0.5,0.1,1.5,0.3,1.7c0.1,0.2-0.6,0.7-0.9,0.1c-0.3-0.6,0.8-0.1-2.2-4c-3-3.9-6.7-6.9-6.7-6.9
			s-3.4-0.2-3-0.1c0.4,0.1,0.3,1.2,0.7,1.5c0.4,0.2,2.6,2.2,2,2.1c-0.5-0.1-2.3-0.9-1.5-0.4c0.9,0.5,3.3,2,3,2c-0.3,0-2.3-0.2-1.9,0
			c0.4,0.2,2.1,2,2.1,2l-0.4,0.2c0,0,2.7,1.4,2.5,1.4c-0.2,0-1.2,0-1.2,0l1.9,2.1l-0.7,0.2l1.7,1.7c0,0-0.8,0-0.3,0.4
			c0.5,0.4,1.4,1.4,1.4,1.4l-0.6,0.9c0,0-6.7-4.4-9.9-5.5c-3.2-1-6.3-1.2-9,0.5c-2.8,1.7-3.3,2.1-3.3,2.1l6.3-1l-1.6,1.2l2.9-0.7
			c0,0-1.1,1.2-0.7,1.2c0.4,0,2.2-0.6,2.2-0.6s-0.4,1,0.1,1c0.5,0,2.6-0.9,2.6-0.9l-0.8,1.3l3-0.4l-0.1,1.2c0,0,2-0.4,1.9-0.2
			c-0.1,0.2-0.9,1.1-0.5,1.2c0.4,0.1,2-0.1,2-0.1l-0.2,0.7l1.5-0.1l-0.2,0.9l2.1-0.3l-0.4,1.1c0,0-4.9-1.2-8.1-0.7
			c-3.2,0.6-7.2,2.1-7.2,2.1s-2,1.5-2.3,1.8c-0.3,0.4-1.2,1.5-1.2,1.5l2.4-0.8v0.7l3.2-1.1c0,0-1.6,1.2-1.1,1.2
			c0.5,0,6.1-2.1,6.1-2.1l-1.4,1.1l3.5-0.7l-0.3,0.9l2.3-0.4c0,0-7.5,0.4-9,1.9c-1.5,1.5-3.9,3.1-3.9,3.1l-0.9,1.2l2.3-0.4l0.3,0.7
			l2.4-2c0,0-0.2,1.4-0.1,1.6c0.1,0.2,2.6-1.4,2.6-1.4l-0.2,0.7l3.7-2.6c0,0,0,1.5-0.1,1.8c-0.1,0.2,1-0.7,1.4-0.7
			c0.4-0.1-0.3,1.6,0.7,0.9c0.9-0.7,3.3-2,3.3-2l0.1,0.8h3.7c0,0-5.7,3.4-7.7,4.9c-2,1.5-5.1,4.3-5.3,4.7c-0.1,0.4-1.4,2.1-1.8,2.7
			c-0.4,0.6-2.7,5.3-2.7,5.3l-0.5,1.4l3.5-2.1l0.6,1.3l1.5-4.2l1.3,2.3l1.5-3.6l0.9,0.7l0.3-3.6c0,0,0.7,0.7,0.8,0
			c0.1-0.7,1.9-2.3,1.9-2.3s0.9,0.1,1.3,0.1c0.4,0,1.9-0.9,1.9-0.9l2.2,0.3c0,0-5.4,1.2-6.3,2.8c-0.9,1.6-0.1,4.2-0.1,4.2
			s3.6-3.6,3.6-2.8c0,0.8-0.1,1.4-0.1,1.4l1.8-1.4l1.1-0.4l1.9-1.8c0,0-1.8,2.2-2.3,5.5c-0.5,3.4-0.5,7.1-0.4,7.4
			c0.1,0.3,1.3,3.2,1.3,3.2l-0.7-5.5c0,0,1.5,3.4,1.6,3.2c0.1-0.2-0.7-4.9-0.4-4.9c0.2,0,0.9,1.4,0.9,1.4l0.1-5.3
			c0,0,1.8,3.6,1.6,3.2c-0.1-0.4,0.1-3.6,0.1-3.6s1,2,1.2,1.2c0.2-0.8,0.7-3.9,0.7-3.9l0.7,1.4l-0.1-3.9l2,1.8
			c0,0,1.6,13.7,1.8,17.4c0.2,3.6,2.1,37.3,2.6,46.7c0.4,9.4-0.9,26.6-0.9,32.8C193,325.6,192.2,333,192.2,333z"/>
		<linearGradient id="SVGID_34_" gradientUnits="userSpaceOnUse" x1="189.3166" y1="134.1028" x2="189.3166" y2="254.239">
			<stop  offset="0" style="stop-color:#FFFFFF"/>
			<stop  offset="0.9987" style="stop-color:#FFFFFF;stop-opacity:0"/>
		</linearGradient>
		<path fill="url(#SVGID_34_)" d="M192.2,333h6.1c0,0-0.1-37.8-0.8-50.7c-0.7-12.9-5.9-56.7-6.3-58.7c-0.4-2,0.1-3.2,0.1-3.2
			l1.7,2.1l-0.4,3.7l1.5-2.8l-0.1,3.9l1.8-2.3l-0.6,3.7l2.3-2l-0.4,3.8l2-1.9l0.1,3.6c0,0,1.8-2,1.8-1.6c0,0.4-0.4,3.9-0.4,3.9
			s2.1-2.1,2.1-1.8c0,0.4,0.1,3.4,0.1,3.4s1.7-4.5,1.8-3.2c0.1,1.3,0.9,6.3,0.9,6.3s-0.3-5.5-0.9-7.7c-0.6-2.1-4.1-7.8-4.1-7.8
			l-2.1-3.2l-1.6-3.2c0,0-1.5-1.5-1.3-1.5c0.2,0.1,3.1,2.3,3.1,2.3l-2.2-5.2l7,10l-4.2-9.4l1.9,4.7l1.2-1.8l-0.1,2.4l1.5-0.9
			l0.1,3.1l1-1.8l0.6,2.5l2-2.8l0.1,4.4l2.2-3.9c0,0-0.4,3.7-0.5,4.2c-0.1,0.4,2.3-3.7,2.3-3.7s0.1,3.9,0.1,4.4s2.2-2.7,2.2-2.7
			l0.4,3.1l2.1-2.7l2.3,2.6c0,0-0.7-2.2-6.1-6.3c-5.5-4.2-8.5-6.6-11.1-8.1c-2.6-1.5-2.9-2-2.9-2s1.5-1.1,2.7-1.1c1.2,0,1-1.7,1-1.7
			l2.2,2.1l-0.4-1.5l1.2,1.1v-1.8l1.7,2l0.5-1.3l2.4,2.6l-0.3-2.1l3.1,2.6l-0.1-2l2.4,2.3l-0.3-1.8l2.8,1.5c0,0-1.2-3.8-6.3-4.8
			c-5-1-9.1,0.1-9.1,0.1v-0.7l2-1l-0.6-1.3c0,0,2.8,0.2,2.6,0.1c-0.2-0.1-3.1-2.4-2.8-2.3c0.3,0.1,6.8,0.5,6.6,0.5
			c-0.2,0-3.2-1.4-2.4-1.2c0.8,0.2,5.6,1.2,5.4,1.1c-0.2-0.1-2.7-1.4-1.7-1.1c1,0.3,5.3,1.1,4.4,0.7c-0.9-0.4-4.4-1.3-1.8-1
			c2.6,0.3,3.1,0.7,2.6,0.3c-0.4-0.4-1.8-0.9-0.7-0.7c1.2,0.3,2.7,0.1,2.3,0.1c-0.4-0.1,1.5-0.2,1.5-0.2s-3-1.5-4.5-1.5
			c-1.5,0-5.2,0.3-5.8,0.5c-0.7,0.2-5,1.8-7.1,3.4c-2,1.5-3.1,1.5-3.1,1.5l-0.7-0.9l1.3-3.4L198,197l2.6-1l-1.3-0.6
			c0,0,3.4-1.1,2.8-1.2c-0.5-0.1-3.3-1-2.9-0.9c0.4,0.1,2.7-1.1,2.7-1.1s-2.3-0.7-1.9-0.6c0.4,0.1,3.3-1,3.3-1l-2.6-1.6l2.1-0.6
			c0,0-1.2-1.2-0.4-1.1c0.7,0.1,3.6-0.3,3.6-0.3s-2-1.2-1.7-1.1c0.4,0.1,2.1-1,2.1-1s-3-0.7-3.9-0.3c-0.9,0.4-4.7,0.9-6,3.4
			c-1.2,2.6-3.3,5.5-3.6,6.7c-0.3,1.2-1.4,1.8-1.4,1.8s-0.4-1.2-0.4-1.4c0-0.2-0.1-2.5-0.1-2.5s-0.4-1.7-0.3-1.9
			c0.1-0.2-0.5-1.9-0.5-1.9s-1.5-3.1-1.2-3c0.2,0.1-1.5-2.9-1.5-2.9l-1.9-0.9l-2,1.5l-0.1,2l2.3-0.5l-1.5,1.2l1.1,0.3l-1.5,1.5
			l1.1,0.2c0,0-1.3,1.2-1,1.2c0.3,0.1,1.5,0.3,1.4,0.5c-0.1,0.2-0.4,1.7-0.4,1.7l1.2-0.1l-1.8,1.8l0.9,0.7c0,0-0.2,1.3,0.1,1.4
			c0.4,0.1-0.1,0.4-0.4,0.9c-0.2,0.5,0.1,1.5,0.3,1.7c0.1,0.2-0.6,0.7-0.9,0.1c-0.3-0.6,0.8-0.1-2.2-4c-3-3.9-6.7-6.9-6.7-6.9
			s-3.4-0.2-3-0.1c0.4,0.1,0.3,1.2,0.7,1.5c0.4,0.2,2.6,2.2,2,2.1c-0.5-0.1-2.3-0.9-1.5-0.4c0.9,0.5,3.3,2,3,2c-0.3,0-2.3-0.2-1.9,0
			c0.4,0.2,2.1,2,2.1,2l-0.4,0.2c0,0,2.7,1.4,2.5,1.4c-0.2,0-1.2,0-1.2,0l1.9,2.1l-0.7,0.2l1.7,1.7c0,0-0.8,0-0.3,0.4
			c0.5,0.4,1.4,1.4,1.4,1.4l-0.6,0.9c0,0-6.7-4.4-9.9-5.5c-3.2-1-6.3-1.2-9,0.5c-2.8,1.7-3.3,2.1-3.3,2.1l6.3-1l-1.6,1.2l2.9-0.7
			c0,0-1.1,1.2-0.7,1.2c0.4,0,2.2-0.6,2.2-0.6s-0.4,1,0.1,1c0.5,0,2.6-0.9,2.6-0.9l-0.8,1.3l3-0.4l-0.1,1.2c0,0,2-0.4,1.9-0.2
			c-0.1,0.2-0.9,1.1-0.5,1.2c0.4,0.1,2-0.1,2-0.1l-0.2,0.7l1.5-0.1l-0.2,0.9l2.1-0.3l-0.4,1.1c0,0-4.9-1.2-8.1-0.7
			c-3.2,0.6-7.2,2.1-7.2,2.1s-2,1.5-2.3,1.8c-0.3,0.4-1.2,1.5-1.2,1.5l2.4-0.8v0.7l3.2-1.1c0,0-1.6,1.2-1.1,1.2
			c0.5,0,6.1-2.1,6.1-2.1l-1.4,1.1l3.5-0.7l-0.3,0.9l2.3-0.4c0,0-7.5,0.4-9,1.9c-1.5,1.5-3.9,3.1-3.9,3.1l-0.9,1.2l2.3-0.4l0.3,0.7
			l2.4-2c0,0-0.2,1.4-0.1,1.6c0.1,0.2,2.6-1.4,2.6-1.4l-0.2,0.7l3.7-2.6c0,0,0,1.5-0.1,1.8c-0.1,0.2,1-0.7,1.4-0.7
			c0.4-0.1-0.3,1.6,0.7,0.9c0.9-0.7,3.3-2,3.3-2l0.1,0.8h3.7c0,0-5.7,3.4-7.7,4.9c-2,1.5-5.1,4.3-5.3,4.7c-0.1,0.4-1.4,2.1-1.8,2.7
			c-0.4,0.6-2.7,5.3-2.7,5.3l-0.5,1.4l3.5-2.1l0.6,1.3l1.5-4.2l1.3,2.3l1.5-3.6l0.9,0.7l0.3-3.6c0,0,0.7,0.7,0.8,0
			c0.1-0.7,1.9-2.3,1.9-2.3s0.9,0.1,1.3,0.1c0.4,0,1.9-0.9,1.9-0.9l2.2,0.3c0,0-5.4,1.2-6.3,2.8c-0.9,1.6-0.1,4.2-0.1,4.2
			s3.6-3.6,3.6-2.8c0,0.8-0.1,1.4-0.1,1.4l1.8-1.4l1.1-0.4l1.9-1.8c0,0-1.8,2.2-2.3,5.5c-0.5,3.4-0.5,7.1-0.4,7.4
			c0.1,0.3,1.3,3.2,1.3,3.2l-0.7-5.5c0,0,1.5,3.4,1.6,3.2c0.1-0.2-0.7-4.9-0.4-4.9c0.2,0,0.9,1.4,0.9,1.4l0.1-5.3
			c0,0,1.8,3.6,1.6,3.2c-0.1-0.4,0.1-3.6,0.1-3.6s1,2,1.2,1.2c0.2-0.8,0.7-3.9,0.7-3.9l0.7,1.4l-0.1-3.9l2,1.8
			c0,0,1.6,13.7,1.8,17.4c0.2,3.6,2.1,37.3,2.6,46.7c0.4,9.4-0.9,26.6-0.9,32.8C193,325.6,192.2,333,192.2,333z"/>
	</g>
</g>
<g>
	<rect x="282.8" y="243.9" fill="none" width="184.4" height="56.2"/>
	<text transform="matrix(1 0 0 1 292.457 254.2778)" fill="#FDFEFF" font-family="'Montserrat-Bold'" font-size="14">Сервис путешествий. </text>
	<g>
		<g>
			
				<image overflow="visible" opacity="0.43" width="391" height="139" xlink:href="DBC8B1FA.png"  transform="matrix(0.24 0 0 0.24 331.487 272.5804)">
			</image>
			<g>
				<path fill="#B33189" d="M407.3,277.4h-60.6c-5.7,0-10.3,4.6-10.3,10.3c0,5.7,4.6,10.3,10.3,10.3h60.6c5.7,0,10.3-4.6,10.3-10.3
					C417.6,282.1,413,277.4,407.3,277.4z"/>
			</g>
		</g>
		<text transform="matrix(1 0 0 1 355.8279 290.3413)" fill="#FFFFFF" font-family="'Montserrat-Bold'" font-size="9.8446">НАЙТИ</text>
	</g>
</g>
<g>
	<g>
		
			<linearGradient id="SVGID_35_" gradientUnits="userSpaceOnUse" x1="303.0214" y1="199.9784" x2="265.3117" y2="199.9784" gradientTransform="matrix(0.995 9.950000e-002 -9.950000e-002 0.995 25.9046 -42.3908)">
			<stop  offset="0" style="stop-color:#D6DCFD"/>
			<stop  offset="1" style="stop-color:#292195"/>
		</linearGradient>
		<path fill="url(#SVGID_35_)" d="M294.3,173.5l1.6,10.4l12.6,11.8c0,0,3.6,6.3-9.5,0.2c-13-6.2-14.1-6.7-14.1-6.7l-12.8-2.8
			L294.3,173.5z"/>
		<linearGradient id="SVGID_36_" gradientUnits="userSpaceOnUse" x1="259.7012" y1="162.7584" x2="301.5939" y2="204.651">
			<stop  offset="0" style="stop-color:#D6DCFD"/>
			<stop  offset="1" style="stop-color:#292195"/>
		</linearGradient>
		<path opacity="0.2" fill="url(#SVGID_36_)" d="M272.6,186.5l12.4,2.7c0,0,18.5,9.3,21.5,9.4l-18.6-11.3l-10.8-3.6L272.6,186.5z"/>
		<linearGradient id="SVGID_37_" gradientUnits="userSpaceOnUse" x1="287.7748" y1="179.8008" x2="312.4917" y2="188.5426">
			<stop  offset="0" style="stop-color:#D6DCFD"/>
			<stop  offset="1" style="stop-color:#292195"/>
		</linearGradient>
		<polygon fill="url(#SVGID_37_)" points="290.6,176.9 294.9,185.6 308.5,195.7 295.9,184 294.3,173.5 		"/>
	</g>
	<g>
		<path fill="#FFFFFF" d="M218.2,202.6c0,0-2.3-4.2-2.1-6.1c0.2-1.9,83.4-46.5,83.4-46.5s18.1-10.2,28.6-4.2c0,0,3.1,1.4-1.1,6.4
			c0,0-3.6,5.1-50.2,33C276.8,185.2,241.8,203.9,218.2,202.6z"/>
		<path opacity="0.16" fill="#CACACA" d="M218.2,202.6c0,0-0.5-0.9-1-2c0,0,47.4-9.6,110.8-54.7c0,0,3.1,1.4-1.1,6.4
			c0,0-3.6,5.1-50.2,33C276.8,185.2,241.8,203.9,218.2,202.6z"/>
		<path opacity="0.1" fill="#9D9CEB" d="M218.2,202.6c21.8-11.2,29.1-12.8,50.9-24c24.2-14.1,23.2-27.8,40.7-33
			c7.7-2.3,13.4-2.6,18.2,0.2c0,0,3.1,1.4-1.1,6.4c0,0-3.6,5.1-50.2,33C276.8,185.2,241.8,203.9,218.2,202.6z"/>
	</g>
	<g>
		<g>
			<path fill="#535285" d="M300.8,152.9L300.8,152.9c-0.3,0-0.5-0.2-0.5-0.5l0-0.4c0-0.3,0.2-0.5,0.5-0.5l0,0c0.3,0,0.5,0.2,0.5,0.5
				l0,0.4C301.3,152.7,301.1,152.9,300.8,152.9z"/>
			<path fill="#535285" d="M299.1,153.8L299.1,153.8c-0.3,0-0.5-0.2-0.5-0.5l0-0.4c0-0.3,0.2-0.5,0.5-0.5l0,0c0.3,0,0.5,0.2,0.5,0.5
				l0,0.4C299.5,153.6,299.3,153.8,299.1,153.8z"/>
			<path fill="#535285" d="M299.1,153.8L299.1,153.8c-0.3,0-0.5-0.2-0.5-0.5l0-0.4c0-0.3,0.2-0.5,0.5-0.5l0,0c0.3,0,0.5,0.2,0.5,0.5
				l0,0.4C299.5,153.6,299.3,153.8,299.1,153.8z"/>
			<path fill="#535285" d="M297.3,154.8L297.3,154.8c-0.3,0-0.5-0.2-0.5-0.5l0-0.4c0-0.3,0.2-0.5,0.5-0.5l0,0c0.3,0,0.5,0.2,0.5,0.5
				l0,0.4C297.8,154.6,297.6,154.8,297.3,154.8z"/>
			<path fill="#535285" d="M297.3,154.8L297.3,154.8c-0.3,0-0.5-0.2-0.5-0.5l0-0.4c0-0.3,0.2-0.5,0.5-0.5l0,0c0.3,0,0.5,0.2,0.5,0.5
				l0,0.4C297.8,154.6,297.6,154.8,297.3,154.8z"/>
			<path fill="#535285" d="M295.6,155.8L295.6,155.8c-0.3,0-0.5-0.2-0.5-0.5l0-0.4c0-0.3,0.2-0.5,0.5-0.5l0,0c0.3,0,0.5,0.2,0.5,0.5
				l0,0.4C296,155.6,295.8,155.8,295.6,155.8z"/>
			<path fill="#535285" d="M295.6,155.8L295.6,155.8c-0.3,0-0.5-0.2-0.5-0.5l0-0.4c0-0.3,0.2-0.5,0.5-0.5l0,0c0.3,0,0.5,0.2,0.5,0.5
				l0,0.4C296,155.6,295.8,155.8,295.6,155.8z"/>
			<path fill="#535285" d="M293.8,156.7L293.8,156.7c-0.3,0-0.5-0.2-0.5-0.5l0-0.4c0-0.3,0.2-0.5,0.5-0.5l0,0c0.3,0,0.5,0.2,0.5,0.5
				l0,0.4C294.3,156.5,294.1,156.7,293.8,156.7z"/>
			<path fill="#535285" d="M293.8,156.7L293.8,156.7c-0.3,0-0.5-0.2-0.5-0.5l0-0.4c0-0.3,0.2-0.5,0.5-0.5l0,0c0.3,0,0.5,0.2,0.5,0.5
				l0,0.4C294.3,156.5,294.1,156.7,293.8,156.7z"/>
			<path fill="#535285" d="M292.1,157.7L292.1,157.7c-0.3,0-0.5-0.2-0.5-0.5l0-0.4c0-0.3,0.2-0.5,0.5-0.5l0,0c0.3,0,0.5,0.2,0.5,0.5
				l0,0.4C292.6,157.5,292.4,157.7,292.1,157.7z"/>
			<path fill="#535285" d="M292.1,157.7L292.1,157.7c-0.3,0-0.5-0.2-0.5-0.5l0-0.4c0-0.3,0.2-0.5,0.5-0.5l0,0c0.3,0,0.5,0.2,0.5,0.5
				l0,0.4C292.6,157.5,292.4,157.7,292.1,157.7z"/>
			<path fill="#535285" d="M290.4,158.6L290.4,158.6c-0.3,0-0.5-0.2-0.5-0.5l0-0.4c0-0.3,0.2-0.5,0.5-0.5l0,0c0.3,0,0.5,0.2,0.5,0.5
				l0,0.4C290.8,158.4,290.6,158.6,290.4,158.6z"/>
			<path fill="#535285" d="M290.4,158.6L290.4,158.6c-0.3,0-0.5-0.2-0.5-0.5l0-0.4c0-0.3,0.2-0.5,0.5-0.5l0,0c0.3,0,0.5,0.2,0.5,0.5
				l0,0.4C290.8,158.4,290.6,158.6,290.4,158.6z"/>
			<path fill="#535285" d="M288.6,159.6L288.6,159.6c-0.3,0-0.5-0.2-0.5-0.5l0-0.4c0-0.3,0.2-0.5,0.5-0.5l0,0c0.3,0,0.5,0.2,0.5,0.5
				l0,0.4C289.1,159.4,288.9,159.6,288.6,159.6z"/>
			<path fill="#535285" d="M288.6,159.6L288.6,159.6c-0.3,0-0.5-0.2-0.5-0.5l0-0.4c0-0.3,0.2-0.5,0.5-0.5l0,0c0.3,0,0.5,0.2,0.5,0.5
				l0,0.4C289.1,159.4,288.9,159.6,288.6,159.6z"/>
			<path fill="#535285" d="M286.9,160.6L286.9,160.6c-0.3,0-0.5-0.2-0.5-0.5l0-0.4c0-0.3,0.2-0.5,0.5-0.5l0,0c0.3,0,0.5,0.2,0.5,0.5
				l0,0.4C287.4,160.4,287.1,160.6,286.9,160.6z"/>
			<path fill="#535285" d="M286.9,160.6L286.9,160.6c-0.3,0-0.5-0.2-0.5-0.5l0-0.4c0-0.3,0.2-0.5,0.5-0.5l0,0c0.3,0,0.5,0.2,0.5,0.5
				l0,0.4C287.4,160.4,287.1,160.6,286.9,160.6z"/>
			<path fill="#535285" d="M285.1,161.5L285.1,161.5c-0.3,0-0.5-0.2-0.5-0.5l0-0.4c0-0.3,0.2-0.5,0.5-0.5h0c0.3,0,0.5,0.2,0.5,0.5
				l0,0.4C285.6,161.3,285.4,161.5,285.1,161.5z"/>
			<path fill="#535285" d="M285.1,161.5L285.1,161.5c-0.3,0-0.5-0.2-0.5-0.5l0-0.4c0-0.3,0.2-0.5,0.5-0.5h0c0.3,0,0.5,0.2,0.5,0.5
				l0,0.4C285.6,161.3,285.4,161.5,285.1,161.5z"/>
			<path fill="#535285" d="M283.4,162.5L283.4,162.5c-0.3,0-0.5-0.2-0.5-0.5l0-0.4c0-0.3,0.2-0.5,0.5-0.5l0,0c0.3,0,0.5,0.2,0.5,0.5
				l0,0.4C283.9,162.3,283.7,162.5,283.4,162.5z"/>
			<path fill="#535285" d="M283.4,162.5L283.4,162.5c-0.3,0-0.5-0.2-0.5-0.5l0-0.4c0-0.3,0.2-0.5,0.5-0.5l0,0c0.3,0,0.5,0.2,0.5,0.5
				l0,0.4C283.9,162.3,283.7,162.5,283.4,162.5z"/>
			<path fill="#535285" d="M281.7,163.4L281.7,163.4c-0.3,0-0.5-0.2-0.5-0.5l0-0.4c0-0.3,0.2-0.5,0.5-0.5l0,0c0.3,0,0.5,0.2,0.5,0.5
				l0,0.4C282.1,163.2,281.9,163.4,281.7,163.4z"/>
			<path fill="#535285" d="M281.7,163.4L281.7,163.4c-0.3,0-0.5-0.2-0.5-0.5l0-0.4c0-0.3,0.2-0.5,0.5-0.5l0,0c0.3,0,0.5,0.2,0.5,0.5
				l0,0.4C282.1,163.2,281.9,163.4,281.7,163.4z"/>
			<path fill="#535285" d="M279.9,164.4L279.9,164.4c-0.3,0-0.5-0.2-0.5-0.5l0-0.4c0-0.3,0.2-0.5,0.5-0.5l0,0c0.3,0,0.5,0.2,0.5,0.5
				l0,0.4C280.4,164.2,280.2,164.4,279.9,164.4z"/>
			<path fill="#535285" d="M279.9,164.4L279.9,164.4c-0.3,0-0.5-0.2-0.5-0.5l0-0.4c0-0.3,0.2-0.5,0.5-0.5l0,0c0.3,0,0.5,0.2,0.5,0.5
				l0,0.4C280.4,164.2,280.2,164.4,279.9,164.4z"/>
			<path fill="#535285" d="M278.2,165.4L278.2,165.4c-0.3,0-0.5-0.2-0.5-0.5l0-0.4c0-0.3,0.2-0.5,0.5-0.5l0,0c0.3,0,0.5,0.2,0.5,0.5
				l0,0.4C278.7,165.2,278.4,165.4,278.2,165.4z"/>
			<path fill="#535285" d="M278.2,165.4L278.2,165.4c-0.3,0-0.5-0.2-0.5-0.5l0-0.4c0-0.3,0.2-0.5,0.5-0.5l0,0c0.3,0,0.5,0.2,0.5,0.5
				l0,0.4C278.7,165.2,278.4,165.4,278.2,165.4z"/>
			<path fill="#535285" d="M276.4,166.3L276.4,166.3c-0.3,0-0.5-0.2-0.5-0.5l0-0.4c0-0.3,0.2-0.5,0.5-0.5l0,0c0.3,0,0.5,0.2,0.5,0.5
				l0,0.4C276.9,166.1,276.7,166.3,276.4,166.3z"/>
			<path fill="#535285" d="M276.4,166.3L276.4,166.3c-0.3,0-0.5-0.2-0.5-0.5l0-0.4c0-0.3,0.2-0.5,0.5-0.5l0,0c0.3,0,0.5,0.2,0.5,0.5
				l0,0.4C276.9,166.1,276.7,166.3,276.4,166.3z"/>
			<path fill="#535285" d="M274.7,167.3L274.7,167.3c-0.3,0-0.5-0.2-0.5-0.5l0-0.4c0-0.3,0.2-0.5,0.5-0.5l0,0c0.3,0,0.5,0.2,0.5,0.5
				l0,0.4C275.2,167.1,275,167.3,274.7,167.3z"/>
			<path fill="#535285" d="M274.7,167.3L274.7,167.3c-0.3,0-0.5-0.2-0.5-0.5l0-0.4c0-0.3,0.2-0.5,0.5-0.5l0,0c0.3,0,0.5,0.2,0.5,0.5
				l0,0.4C275.2,167.1,275,167.3,274.7,167.3z"/>
			<path fill="#535285" d="M273,168.2L273,168.2c-0.3,0-0.5-0.2-0.5-0.5l0-0.4c0-0.3,0.2-0.5,0.5-0.5l0,0c0.3,0,0.5,0.2,0.5,0.5
				l0,0.4C273.4,168,273.2,168.2,273,168.2z"/>
			<path fill="#535285" d="M273,168.2L273,168.2c-0.3,0-0.5-0.2-0.5-0.5l0-0.4c0-0.3,0.2-0.5,0.5-0.5l0,0c0.3,0,0.5,0.2,0.5,0.5
				l0,0.4C273.4,168,273.2,168.2,273,168.2z"/>
			<path fill="#535285" d="M271.2,169.2L271.2,169.2c-0.3,0-0.5-0.2-0.5-0.5l0-0.4c0-0.3,0.2-0.5,0.5-0.5l0,0c0.3,0,0.5,0.2,0.5,0.5
				l0,0.4C271.7,169,271.5,169.2,271.2,169.2z"/>
			<path fill="#535285" d="M271.2,169.2L271.2,169.2c-0.3,0-0.5-0.2-0.5-0.5l0-0.4c0-0.3,0.2-0.5,0.5-0.5l0,0c0.3,0,0.5,0.2,0.5,0.5
				l0,0.4C271.7,169,271.5,169.2,271.2,169.2z"/>
			<path fill="#535285" d="M269.5,170.2L269.5,170.2c-0.3,0-0.5-0.2-0.5-0.5l0-0.4c0-0.3,0.2-0.5,0.5-0.5l0,0c0.3,0,0.5,0.2,0.5,0.5
				l0,0.4C270,170,269.7,170.2,269.5,170.2z"/>
			<path fill="#535285" d="M269.5,170.2L269.5,170.2c-0.3,0-0.5-0.2-0.5-0.5l0-0.4c0-0.3,0.2-0.5,0.5-0.5l0,0c0.3,0,0.5,0.2,0.5,0.5
				l0,0.4C270,170,269.7,170.2,269.5,170.2z"/>
			<path fill="#535285" d="M267.7,171.1L267.7,171.1c-0.3,0-0.5-0.2-0.5-0.5l0-0.4c0-0.3,0.2-0.5,0.5-0.5l0,0c0.3,0,0.5,0.2,0.5,0.5
				l0,0.4C268.2,170.9,268,171.1,267.7,171.1z"/>
			<path fill="#535285" d="M267.7,171.1L267.7,171.1c-0.3,0-0.5-0.2-0.5-0.5l0-0.4c0-0.3,0.2-0.5,0.5-0.5l0,0c0.3,0,0.5,0.2,0.5,0.5
				l0,0.4C268.2,170.9,268,171.1,267.7,171.1z"/>
			<path fill="#535285" d="M266,172.1L266,172.1c-0.3,0-0.5-0.2-0.5-0.5l0-0.4c0-0.3,0.2-0.5,0.5-0.5l0,0c0.3,0,0.5,0.2,0.5,0.5
				l0,0.4C266.5,171.9,266.3,172.1,266,172.1z"/>
			<path fill="#535285" d="M266,172.1L266,172.1c-0.3,0-0.5-0.2-0.5-0.5l0-0.4c0-0.3,0.2-0.5,0.5-0.5l0,0c0.3,0,0.5,0.2,0.5,0.5
				l0,0.4C266.5,171.9,266.3,172.1,266,172.1z"/>
			<path fill="#535285" d="M264.3,173L264.3,173c-0.3,0-0.5-0.2-0.5-0.5l0-0.4c0-0.3,0.2-0.5,0.5-0.5l0,0c0.3,0,0.5,0.2,0.5,0.5
				l0,0.4C264.7,172.8,264.5,173,264.3,173z"/>
			<path fill="#535285" d="M264.3,173L264.3,173c-0.3,0-0.5-0.2-0.5-0.5l0-0.4c0-0.3,0.2-0.5,0.5-0.5l0,0c0.3,0,0.5,0.2,0.5,0.5
				l0,0.4C264.7,172.8,264.5,173,264.3,173z"/>
			<path fill="#535285" d="M262.5,174L262.5,174c-0.3,0-0.5-0.2-0.5-0.5l0-0.4c0-0.3,0.2-0.5,0.5-0.5l0,0c0.3,0,0.5,0.2,0.5,0.5
				l0,0.4C263,173.8,262.8,174,262.5,174z"/>
			<path fill="#535285" d="M262.5,174L262.5,174c-0.3,0-0.5-0.2-0.5-0.5l0-0.4c0-0.3,0.2-0.5,0.5-0.5l0,0c0.3,0,0.5,0.2,0.5,0.5
				l0,0.4C263,173.8,262.8,174,262.5,174z"/>
			<path fill="#535285" d="M260.8,175L260.8,175c-0.3,0-0.5-0.2-0.5-0.5l0-0.4c0-0.3,0.2-0.5,0.5-0.5l0,0c0.3,0,0.5,0.2,0.5,0.5
				l0,0.4C261.3,174.8,261,175,260.8,175z"/>
			<path fill="#535285" d="M260.8,175L260.8,175c-0.3,0-0.5-0.2-0.5-0.5l0-0.4c0-0.3,0.2-0.5,0.5-0.5l0,0c0.3,0,0.5,0.2,0.5,0.5
				l0,0.4C261.3,174.8,261,175,260.8,175z"/>
			<path fill="#535285" d="M259.1,175.9L259.1,175.9c-0.3,0-0.5-0.2-0.5-0.5l0-0.4c0-0.3,0.2-0.5,0.5-0.5l0,0c0.3,0,0.5,0.2,0.5,0.5
				l0,0.4C259.5,175.7,259.3,175.9,259.1,175.9z"/>
			<path fill="#535285" d="M259.1,175.9L259.1,175.9c-0.3,0-0.5-0.2-0.5-0.5l0-0.4c0-0.3,0.2-0.5,0.5-0.5l0,0c0.3,0,0.5,0.2,0.5,0.5
				l0,0.4C259.5,175.7,259.3,175.9,259.1,175.9z"/>
			<path fill="#535285" d="M257.3,176.9L257.3,176.9c-0.3,0-0.5-0.2-0.5-0.5l0-0.4c0-0.3,0.2-0.5,0.5-0.5l0,0c0.3,0,0.5,0.2,0.5,0.5
				l0,0.4C257.8,176.7,257.6,176.9,257.3,176.9z"/>
			<path fill="#535285" d="M257.3,176.9L257.3,176.9c-0.3,0-0.5-0.2-0.5-0.5l0-0.4c0-0.3,0.2-0.5,0.5-0.5l0,0c0.3,0,0.5,0.2,0.5,0.5
				l0,0.4C257.8,176.7,257.6,176.9,257.3,176.9z"/>
			<path fill="#535285" d="M255.6,177.8L255.6,177.8c-0.3,0-0.5-0.2-0.5-0.5l0-0.4c0-0.3,0.2-0.5,0.5-0.5l0,0c0.3,0,0.5,0.2,0.5,0.5
				l0,0.4C256,177.6,255.8,177.8,255.6,177.8z"/>
			<path fill="#535285" d="M255.6,177.8L255.6,177.8c-0.3,0-0.5-0.2-0.5-0.5l0-0.4c0-0.3,0.2-0.5,0.5-0.5l0,0c0.3,0,0.5,0.2,0.5,0.5
				l0,0.4C256,177.6,255.8,177.8,255.6,177.8z"/>
			<path fill="#535285" d="M253.8,178.8L253.8,178.8c-0.3,0-0.5-0.2-0.5-0.5l0-0.4c0-0.3,0.2-0.5,0.5-0.5l0,0c0.3,0,0.5,0.2,0.5,0.5
				l0,0.4C254.3,178.6,254.1,178.8,253.8,178.8z"/>
			<path fill="#535285" d="M253.8,178.8L253.8,178.8c-0.3,0-0.5-0.2-0.5-0.5l0-0.4c0-0.3,0.2-0.5,0.5-0.5l0,0c0.3,0,0.5,0.2,0.5,0.5
				l0,0.4C254.3,178.6,254.1,178.8,253.8,178.8z"/>
			<path fill="#535285" d="M252.1,179.8L252.1,179.8c-0.3,0-0.5-0.2-0.5-0.5l0-0.4c0-0.3,0.2-0.5,0.5-0.5l0,0c0.3,0,0.5,0.2,0.5,0.5
				l0,0.4C252.6,179.6,252.4,179.8,252.1,179.8z"/>
			<path fill="#535285" d="M252.1,179.8L252.1,179.8c-0.3,0-0.5-0.2-0.5-0.5l0-0.4c0-0.3,0.2-0.5,0.5-0.5l0,0c0.3,0,0.5,0.2,0.5,0.5
				l0,0.4C252.6,179.6,252.4,179.8,252.1,179.8z"/>
			<path fill="#535285" d="M250.4,180.7L250.4,180.7c-0.3,0-0.5-0.2-0.5-0.5l0-0.4c0-0.3,0.2-0.5,0.5-0.5l0,0c0.3,0,0.5,0.2,0.5,0.5
				l0,0.4C250.8,180.5,250.6,180.7,250.4,180.7z"/>
			<path fill="#535285" d="M250.4,180.7L250.4,180.7c-0.3,0-0.5-0.2-0.5-0.5l0-0.4c0-0.3,0.2-0.5,0.5-0.5l0,0c0.3,0,0.5,0.2,0.5,0.5
				l0,0.4C250.8,180.5,250.6,180.7,250.4,180.7z"/>
			<path fill="#535285" d="M248.6,181.7L248.6,181.7c-0.3,0-0.5-0.2-0.5-0.5l0-0.4c0-0.3,0.2-0.5,0.5-0.5l0,0c0.3,0,0.5,0.2,0.5,0.5
				l0,0.4C249.1,181.5,248.9,181.7,248.6,181.7z"/>
			<path fill="#535285" d="M248.6,181.7L248.6,181.7c-0.3,0-0.5-0.2-0.5-0.5l0-0.4c0-0.3,0.2-0.5,0.5-0.5l0,0c0.3,0,0.5,0.2,0.5,0.5
				l0,0.4C249.1,181.5,248.9,181.7,248.6,181.7z"/>
			<path fill="#535285" d="M246.9,182.6L246.9,182.6c-0.3,0-0.5-0.2-0.5-0.5l0-0.4c0-0.3,0.2-0.5,0.5-0.5h0c0.3,0,0.5,0.2,0.5,0.5
				l0,0.4C247.3,182.4,247.1,182.6,246.9,182.6z"/>
			<path fill="#535285" d="M246.9,182.6L246.9,182.6c-0.3,0-0.5-0.2-0.5-0.5l0-0.4c0-0.3,0.2-0.5,0.5-0.5h0c0.3,0,0.5,0.2,0.5,0.5
				l0,0.4C247.3,182.4,247.1,182.6,246.9,182.6z"/>
			<path fill="#535285" d="M245.1,183.6L245.1,183.6c-0.3,0-0.5-0.2-0.5-0.5l0-0.4c0-0.3,0.2-0.5,0.5-0.5l0,0c0.3,0,0.5,0.2,0.5,0.5
				l0,0.4C245.6,183.4,245.4,183.6,245.1,183.6z"/>
			<path fill="#535285" d="M245.1,183.6L245.1,183.6c-0.3,0-0.5-0.2-0.5-0.5l0-0.4c0-0.3,0.2-0.5,0.5-0.5l0,0c0.3,0,0.5,0.2,0.5,0.5
				l0,0.4C245.6,183.4,245.4,183.6,245.1,183.6z"/>
			<path fill="#535285" d="M243.4,184.6L243.4,184.6c-0.3,0-0.5-0.2-0.5-0.5l0-0.4c0-0.3,0.2-0.5,0.5-0.5l0,0c0.3,0,0.5,0.2,0.5,0.5
				l0,0.4C243.9,184.4,243.7,184.6,243.4,184.6z"/>
			<path fill="#535285" d="M243.4,184.6L243.4,184.6c-0.3,0-0.5-0.2-0.5-0.5l0-0.4c0-0.3,0.2-0.5,0.5-0.5l0,0c0.3,0,0.5,0.2,0.5,0.5
				l0,0.4C243.9,184.4,243.7,184.6,243.4,184.6z"/>
			<path fill="#535285" d="M241.7,185.5L241.7,185.5c-0.3,0-0.5-0.2-0.5-0.5l0-0.4c0-0.3,0.2-0.5,0.5-0.5l0,0c0.3,0,0.5,0.2,0.5,0.5
				l0,0.4C242.1,185.3,241.9,185.5,241.7,185.5z"/>
		</g>
		<path fill="#535285" d="M306.9,148.7l0.6,1c0,0,8.3-4.9,10.8-5.7c0,0-2.9,0.3-4.7,0.7C311.9,145.1,306.9,148.7,306.9,148.7z"/>
	</g>
	<g>
		
			<linearGradient id="SVGID_38_" gradientUnits="userSpaceOnUse" x1="206.7465" y1="180.6709" x2="235.2191" y2="221.6952" gradientTransform="matrix(0.995 9.950000e-002 -9.950000e-002 0.995 25.9046 -42.3908)">
			<stop  offset="0" style="stop-color:#D6DCFD"/>
			<stop  offset="1" style="stop-color:#292195"/>
		</linearGradient>
		<path fill="url(#SVGID_38_)" d="M241.7,181.5c0,0-8.4,3.5-13-0.7s-11.6-9.8-11.6-9.8s-4.4-2.3-5.9,2.1l7.6,21.5L241.7,181.5z"/>
		
			<linearGradient id="SVGID_39_" gradientUnits="userSpaceOnUse" x1="204.0958" y1="171.2372" x2="232.4302" y2="212.0625" gradientTransform="matrix(0.995 9.950000e-002 -9.950000e-002 0.995 25.9046 -42.3908)">
			<stop  offset="0" style="stop-color:#D6DCFD"/>
			<stop  offset="1" style="stop-color:#292195"/>
		</linearGradient>
		<path fill="url(#SVGID_39_)" d="M241.7,181.5c0,0-8.4,3.5-13-0.7c-4.6-4.2-11.6-9.8-11.6-9.8s-2.2-1.2-4-0.3
			c-0.8,0.4,13.3,19.5,13.3,19.5L241.7,181.5z"/>
	</g>
	<g>
		
			<linearGradient id="SVGID_40_" gradientUnits="userSpaceOnUse" x1="201.1487" y1="190.5197" x2="277.4832" y2="190.5197" gradientTransform="matrix(0.995 9.950000e-002 -9.950000e-002 0.995 25.9046 -42.3908)">
			<stop  offset="0" style="stop-color:#D6DCFD"/>
			<stop  offset="1" style="stop-color:#292195"/>
		</linearGradient>
		<path fill="url(#SVGID_40_)" d="M208.8,163.9c0,0-6-5.5,9.1-2.9c15.1,2.6,65.3,8.3,65.3,8.3s5.1,4.3-25.1,10.2l-7.5-3.1
			L208.8,163.9z"/>
		
			<linearGradient id="SVGID_41_" gradientUnits="userSpaceOnUse" x1="277.4832" y1="186.3052" x2="209.2639" y2="186.3052" gradientTransform="matrix(0.995 9.950000e-002 -9.950000e-002 0.995 25.9046 -42.3908)">
			<stop  offset="0" style="stop-color:#D6DCFD"/>
			<stop  offset="1" style="stop-color:#292195"/>
		</linearGradient>
		<path fill="url(#SVGID_41_)" d="M217.9,161.1c15.1,2.6,65.3,8.3,65.3,8.3s1.6,1.4-2.4,3.6C277.6,174.8,202.8,158.5,217.9,161.1z"
			/>
		<linearGradient id="SVGID_42_" gradientUnits="userSpaceOnUse" x1="207.6273" y1="170.4358" x2="266.8896" y2="170.4358">
			<stop  offset="0" style="stop-color:#D6DCFD"/>
			<stop  offset="1" style="stop-color:#292195"/>
		</linearGradient>
		<path opacity="0.2" fill="url(#SVGID_42_)" d="M208.8,163.9c0,0-1.8-1.6-1-2.7c0.7-0.9,59,16.5,59,16.5c-2.5,0.6-5.4,1.3-8.8,1.9
			l-7.5-3.1L208.8,163.9z"/>
	</g>
	
		<linearGradient id="SVGID_43_" gradientUnits="userSpaceOnUse" x1="242.9125" y1="230.2852" x2="222.2744" y2="219.8875" gradientTransform="matrix(0.995 9.950000e-002 -9.950000e-002 0.995 25.9046 -42.3908)">
		<stop  offset="0" style="stop-color:#D6DCFD"/>
		<stop  offset="1" style="stop-color:#292195"/>
	</linearGradient>
	<path fill="url(#SVGID_43_)" d="M225,202.5c0,0,8.4,4.5,9.9,3.6c1.5-0.9,1.9-2.1,0-5.1l-0.4-0.6l-10.5,1.3L225,202.5z"/>
	<g>
		
			<linearGradient id="SVGID_44_" gradientUnits="userSpaceOnUse" x1="178.4858" y1="206.2514" x2="224.148" y2="219.7907" gradientTransform="matrix(0.995 9.950000e-002 -9.950000e-002 0.995 25.9046 -42.3908)">
			<stop  offset="0" style="stop-color:#D6DCFD"/>
			<stop  offset="1" style="stop-color:#292195"/>
		</linearGradient>
		<path fill="url(#SVGID_44_)" d="M224.8,191l-27.7-2.8c0,0-5.2-0.6-6.2,0.4c-0.7,0.7-0.6,1.8,1,2.2l24.4,7
			C216.3,197.9,227.2,192.2,224.8,191z"/>
		
			<linearGradient id="SVGID_45_" gradientUnits="userSpaceOnUse" x1="218.8248" y1="233.2121" x2="188.4475" y2="202.8348" gradientTransform="matrix(0.995 9.950000e-002 -9.950000e-002 0.995 25.9046 -42.3908)">
			<stop  offset="0" style="stop-color:#D6DCFD"/>
			<stop  offset="1" style="stop-color:#292195"/>
		</linearGradient>
		<path fill="url(#SVGID_45_)" d="M190.6,189.2c-0.2,0.6,0.1,1.4,1.3,1.7l24.4,7c0,0,1.7-0.9,3.7-2.1
			C219.9,195.8,190.6,189,190.6,189.2z"/>
	</g>
	<g>
		<g>
			<g>
				<path fill="#FFFFFF" d="M261.6,173c0,0-1.2-2.7,0.1-4.5c1.1-1.4,9.5-5.8,9.5-5.8s3-1.5,5.5,1.6c2.5,3.1-0.2,5.8-0.2,5.8
					S265,179.2,261.6,173"/>
				<path opacity="0.16" fill="#CACACA" d="M261.6,173l15.2-8.7c2.5,3.1-0.2,5.8-0.2,5.8S265,179.2,261.6,173"/>
				<path fill="#565EB0" d="M276.6,170.1c0,0,2.7-2.7,0.2-5.8c-2.5-3.1-5.5-1.6-5.5-1.6S269.6,168.6,276.6,170.1z"/>
				<path fill="#231C55" d="M271.3,164c0,0,2.1-1.5,4.3,0.8c2.2,2.3,1.4,3.7,0.8,4.6C276.3,169.5,272.1,169.5,271.3,164z"/>
				<path fill="#B3B3E1" d="M272.2,162.4c0,0-0.6,0.1-1,0.3c0,0-0.5,0.4-0.6,0.9c-0.2,1.6,0.4,5.3,5.2,6.6c0.2,0,0.4,0,0.7-0.1
					c0,0,0.5-0.5,0.9-1.5c0,0-0.3,0.7-0.9,0.8c-0.9,0.1-2.6-0.5-3.8-2.2c-0.9-1.3-1.4-2.7-1.4-3.6
					C271.5,162.7,272.2,162.4,272.2,162.4z"/>
			</g>
			<path fill="#565EB0" d="M261.6,173c0,0-1.2-2.7,0.1-4.5c0.1-0.2,0.6-0.6,0.8-0.7c-1.1,6.8,5.6,6.9,5.6,6.9
				C264.7,175.9,262.6,174.9,261.6,173"/>
		</g>
		<g>
			<g>
				<path fill="#FFFFFF" d="M294.9,188.3c0,0-1.1-2.4,0.1-3.9c0.9-1.2,8.3-5.1,8.3-5.1s2.6-1.3,4.8,1.4c2.2,2.7-0.2,5.1-0.2,5.1
					S297.8,193.7,294.9,188.3"/>
				<path opacity="0.16" fill="#CACACA" d="M294.9,188.3l13.2-7.6c2.2,2.7-0.2,5.1-0.2,5.1S297.8,193.7,294.9,188.3"/>
				<path fill="#565EB0" d="M308,185.8c0,0,2.4-2.4,0.2-5.1c-2.2-2.7-4.8-1.4-4.8-1.4S301.9,184.5,308,185.8z"/>
				<path fill="#231C55" d="M303.3,180.5c0,0,1.8-1.3,3.7,0.7c1.9,2,1.2,3.2,0.7,4C307.7,185.2,304.1,185.2,303.3,180.5z"/>
				<path fill="#B3B3E1" d="M304.2,179.1c0,0-0.5,0.1-0.8,0.3c0,0-0.4,0.3-0.5,0.8c-0.1,1.4,0.3,4.7,4.5,5.7c0.1,0,0.4,0,0.6-0.1
					c0,0,0.5-0.4,0.8-1.3c0,0-0.2,0.6-0.8,0.7c-0.8,0.1-2.2-0.4-3.3-1.9c-0.8-1.1-1.2-2.3-1.2-3.1
					C303.5,179.3,304.2,179.1,304.2,179.1z"/>
			</g>
			<path fill="#565EB0" d="M294.9,188.3c0,0-1.1-2.4,0.1-3.9c0.1-0.2,0.5-0.5,0.7-0.6c-0.9,5.9,4.9,6,4.9,6
				C297.6,190.8,295.8,190,294.9,188.3"/>
		</g>
	</g>
</g>
<path fill="#70C5C9" d="M213.4,209.3h3.8v-13.5h7.8v-3.1h-19.5v3.1h7.8V209.3L213.4,209.3z M228.5,209.3h3.8v-5.2h9.3
	c2.5,0,3.1,0.5,3.1,2.7v2.5h3.9v-3.3c0-1.6-0.5-2.5-1.5-3.1c-0.5-0.2-0.9-0.3-2.5-0.4c2-0.2,2.8-0.5,3.4-1.1
	c0.6-0.7,0.9-1.8,0.9-3.4c0-1.9-0.3-3.2-1.1-4c-0.9-1-2.2-1.3-5.1-1.3h-14.1L228.5,209.3L228.5,209.3z M232.3,201.1v-5.3h9.2
	c2.8,0,3.4,0.5,3.4,2.8c0,2-0.7,2.5-3.5,2.5L232.3,201.1L232.3,201.1z M269.7,206.1l1.9,3.3h4.2l-9.4-16.6h-5.2l-9.5,16.6h4.3
	l1.8-3.3H269.7L269.7,206.1z M268.3,203.4h-9l4.5-8L268.3,203.4L268.3,203.4z M273.7,192.7h4.2l7.3,13.6l7.4-13.6h4.3l-9.2,16.6h-5
	L273.7,192.7L273.7,192.7z M300.1,209.3h17.8v-2.9h-14v-4.2h13.2v-2.6h-13.2v-3.9h13.9v-2.9h-17.7V209.3L300.1,209.3z M322,209.3h16
	v-3.1h-12.1v-13.5H322V209.3L322,209.3z"/>
<path fill="#70C5C9" d="M415,209.4h3.7l-0.1-13.7l8.6,13.7h3l8.6-13.7l-0.1,13.7h3.8v-16.6h-5.9l-7.8,12.5l-7.8-12.5H415L415,209.4
	L415,209.4z M463.6,206.1l1.9,3.3h4.2l-9.4-16.6h-5.2l-9.5,16.6h4.3l1.8-3.3H463.6L463.6,206.1z M462.2,203.4h-9l4.5-8L462.2,203.4
	L462.2,203.4z M472.1,209.4h3.8v-5.2h9.3c2.5,0,3.1,0.5,3.1,2.7v2.5h3.9v-3.3c0-1.6-0.5-2.5-1.5-3.1c-0.5-0.2-0.9-0.3-2.5-0.4
	c2-0.2,2.8-0.5,3.4-1.1c0.6-0.7,0.9-1.8,0.9-3.4c0-1.9-0.3-3.2-1.1-4c-0.9-1-2.2-1.3-5.1-1.3h-14.1V209.4L472.1,209.4z M475.9,201.2
	v-5.3h9.2c2.8,0,3.4,0.5,3.4,2.8c0,2-0.7,2.5-3.5,2.5L475.9,201.2L475.9,201.2z M496.8,209.4h3.8v-6.9h2.7l9.1,6.9h5.8l-11.4-8.5
	l10.6-8.2h-5.5l-8.5,6.6h-2.8v-6.6h-3.8L496.8,209.4L496.8,209.4z M521.3,209.4h17.8v-2.9h-14v-4.2h13.2v-2.6h-13.2v-3.9H539v-2.9
	h-17.7V209.4L521.3,209.4z M550,209.4h3.8v-13.5h7.8v-3.1h-19.5v3.1h7.8L550,209.4L550,209.4z"/>
<g>
	
		<linearGradient id="SVGID_46_" gradientUnits="userSpaceOnUse" x1="351.0082" y1="314.7682" x2="397.9597" y2="288.8481" gradientTransform="matrix(1 0 0 -1 0 502)">
		<stop  offset="0" style="stop-color:#7AD7FD"/>
		<stop  offset="0.502" style="stop-color:#4479FA"/>
		<stop  offset="1" style="stop-color:#9D58E9"/>
	</linearGradient>
	<path fill="url(#SVGID_46_)" d="M410.8,201.5c0,1.3-0.1,2.6-0.3,3.9c-0.1,0-0.1,0-0.2,0h-16.2c-0.6,0-1.1,0.6-1.1,1.3
		s0.5,1.3,1.1,1.3H410c-3.4,16.1-17.7,28.2-34.8,28.2c-19.6,0-35.5-15.9-35.5-35.5c0-2.3,0.2-4.6,0.7-6.8c0,0,0,0,0.1,0h9.2
		c0.6,0,1.1-0.6,1.1-1.3c0-0.7-0.5-1.3-1.1-1.3H341c0.4-1.3,0.8-2.6,1.3-3.8h15.4c0.6,0,1.1-0.6,1.1-1.3c0-0.7-0.5-1.3-1.1-1.3
		h-14.2c5.8-11.6,17.9-19.5,31.7-19.5c19,0,34.5,14.9,35.5,33.7h-8.5c-0.6,0-1.1,0.6-1.1,1.3c0,0.7,0.5,1.3,1.1,1.3L410.8,201.5
		L410.8,201.5z"/>
	<path fill="#FFFFFF" d="M345.6,212.7c7.2,1.3,13,1.9,21.1,0.3c3-0.6,6.2-1.3,8.3-1.3c0,0,0,0,0,0c2.2,0,5.5,0.7,8.6,1.3
		c7.6,1.5,15.9,0.6,21.2-0.3c-0.6,1.4-1.2,2.7-1.9,4c-7.2,1.4-11.1,1.7-19.7,0c-3.1-0.6-6.3-1.3-8.3-1.2c-1.9,0-5,0.6-7.9,1.2
		c-7.9,1.6-13,1.2-19.5,0.1C346.9,215.4,346.2,214,345.6,212.7L345.6,212.7z M399.7,221.2c-1.3,1.6-2.8,3-4.4,4.3
		c-3.5,0.2-6.9-0.1-12-1.1c-3.1-0.6-6.3-1.3-8.3-1.2c-1.9,0-5,0.6-7.9,1.2c-4.7,1-8.4,1.2-12,1c-1.5-1.2-2.9-2.6-4.2-4.1
		c5,0.6,9.8,0.7,15.8-0.6c3-0.6,6.2-1.3,8.3-1.3c0,0,0,0,0,0c2.2,0,5.5,0.7,8.6,1.3C389.1,221.8,394.9,221.7,399.7,221.2
		L399.7,221.2z M389.4,229.3c-2.4,1.2-4.9,2.1-7.6,2.6c-2.6-0.5-5.1-1-6.8-0.9c-1.6,0-4,0.4-6.4,0.9c-2.6-0.5-5-1.4-7.3-2.5
		c1.7-0.2,3.5-0.4,5.4-0.8c3-0.6,6.2-1.3,8.3-1.3c0,0,0,0,0,0c2.2,0,5.5,0.7,8.6,1.3C385.6,228.9,387.5,229.2,389.4,229.3z"/>
	<path fill="#FFFFFF" d="M381.6,212.7c0.1-2,0.3-4.8,0.6-6.5c0.5-3.2,1.2-6.3,2.4-9.3c0.7-1.6,1.4-3.3,2.1-4.9
		c0.9-1.9,2.1-3.7,3.3-5.4c0.1-0.2,0.2-0.2,0.2-0.4c0.4,0.3,0.7,3.1,0.7,3.5c0.2,2.7-0.3,5-1.6,7.1c-0.1,0.2-0.3,0.4-0.4,0.6
		c-0.1,0.1-0.1,0.2-0.2,0.3c-0.1,0.1-0.2,0.2-0.3,0.3c-0.2,0.2-0.3,0.3-0.5,0.6c-0.2,0.2-0.4,0.3-0.6,0.5c0.4,0,1.5-0.4,1.9-0.5
		c1.8-0.7,3.1-1.5,4.5-2.9c0.7-0.7,1.5-2.1,1.8-3.1c0.4-1.5,0.3-2.9-0.1-4.3c0.5,0.3,1.1,1.4,1.4,1.9c0.4,0.7,0.8,1.5,1,2.3
		c0.3,0.8,0.4,1.9,0.4,3c0,0.8-0.1,2.5-0.4,3c0.2-0.1,0.4-0.4,0.6-0.6c3-4.3,2.9-9.1-0.9-12.7c-0.1-0.1-0.2-0.2-0.3-0.3
		c0.8,0,2.5,1.1,3.2,1.7c1.3,1,1.9,1.9,2.6,3.3l0.1,0.2c0-1.5-0.1-2.8-0.6-4.1c-0.2-0.5-0.5-1.1-0.8-1.6c-0.3-0.4-0.7-1-1-1.3
		c-0.8-0.8-1.7-1.4-2.8-1.9c-0.9-0.4-2-0.6-3-0.5c-0.4,0-0.7,0.1-1.1,0.1c-0.2-0.5-0.3-2.1-1.8-3.7c-0.2-0.2-0.2-0.3-0.4-0.4
		c-3.2-3.2-8-3.3-11.5-0.9c-0.3,0.2-0.6,0.4-0.9,0.7c-0.2,0.2-0.8,0.6-0.8,0.8c1.2-0.6,3.9-0.4,5.1-0.1c1.5,0.4,2.7,1.2,3.5,2.3
		c-5.4-1.3-8.7,3.8-8.7,8.4l0,1.9c0,0.2,0.1,0.3,0.1,0.6c0.2-0.1,0.3-0.4,0.4-0.6c1.4-2.9,4.4-5.4,7.7-5.8c1-0.1,1.1,0.1,1.9,0.2
		c-0.1,0.2-0.2,0.3-0.3,0.5c-0.1,0.2-0.3,0.3-0.4,0.4c-0.7,0.9-1.4,1.8-2.1,2.8c-1,1.5-1.9,3.1-2.7,4.7c-0.8,1.7-1.5,3.5-2.2,5.3
		c-0.1,0.4-0.3,0.8-0.4,1.2c-0.9,2.6-1.5,5.1-2.1,7.8c-0.2,0.9-0.3,1.8-0.5,2.8c-0.1,0.8-0.2,2.4-0.3,3.2L381.6,212.7L381.6,212.7z"
		/>
	<circle fill="#FFFFFF" cx="366.7" cy="177.5" r="4.4"/>
	<path fill="#FFFFFF" d="M357.2,203.3c-0.1,0.7-0.4,1.2-0.4,2.2c0,0.9,0,1.5,0.2,2.4c0.6,2.4,2.6,4.6,4.8,5.7l0.9,0.4
		c0.3,0.2,0.6,0.3,0.9,0.4c0.3,0.1,0.5,0.2,0.7,0.3c0.2-0.1,0.3-0.3,0.5-0.4c-0.1-0.1-0.1-0.1-0.1-0.1c-0.9-0.9-1.6-2.1-2.1-3.3
		c-0.5-1.2-0.8-2.5-1-3.8c-0.1-0.5-0.1-1.8-0.1-2.3c0.1-1.1,0.2-2.1,0.4-3.1c0.1-0.3,0.2-0.6,0.3-0.9l1.3,1.4c0.4,0.5,0.8,1,1.2,1.6
		c0.5,0.7,0.9,1.4,1.2,2.2c0.1,0.2,0.1,0.3,0.2,0.5c0.8,1.6,1.3,3.3,1.8,5c0.1,0.5,0.3,0.9,0.4,1.4c0.9-0.2,1.8-0.3,2.7-0.3
		l-0.5-1.5c-1.1-3.2-2.4-6.2-4.2-9c-0.3-0.5-0.7-0.9-1-1.4c-0.3-0.4-0.9-1-1.1-1.3c0.2,0,0.3-0.1,0.5-0.1c2.3-0.5,4.8,0.2,6.6,1.5
		l0.6,0.5c0.2,0.2,0.4,0.3,0.6,0.6l0.5,0.6c0.7,0.8,1.3,1.7,1.8,2.7c0.1,0.2,0.3,0.6,0.4,0.7c0-0.4,0.1-0.8,0.1-1.2
		c0.1-2-0.2-4-0.9-5.8c-0.1-0.2-0.1-0.3-0.2-0.4l-0.5-0.9c-0.2-0.4-0.5-0.8-0.8-1.1c-0.1-0.1-0.2-0.2-0.3-0.3
		c-1.7-1.7-4-2.4-6.4-1.9c0.1-0.3,0.4-0.6,0.7-0.8c0.6-0.5,1.1-0.9,1.8-1.2c1.2-0.5,2.5-0.8,3.9-0.7c0.2,0,0.4,0,0.7,0
		c0.7,0,1.5,0.3,2,0.4c-0.3-0.4-1.2-1.1-1.7-1.4l-1-0.6c-2.2-1.1-4.2-1.3-6.5-0.7c-0.8,0.2-1.5,0.6-2.2,0.9
		c-0.3,0.2-0.6,0.4-0.9,0.6c-0.9,0.7-1.6,1.5-2.2,2.6c-0.3,0.5-0.7,1.7-0.7,2.4c-0.3,0-0.7-0.1-1.1-0.2c-1.1-0.1-2.5,0-3.6,0.3
		c-1.3,0.4-2.5,0.9-3.4,1.8c-0.2,0.2-0.5,0.4-0.7,0.6l-0.6,0.7c-1.4,1.9-1.7,3.8-1.7,6.2c0,0,0,0,0,0l0.5-0.9
		c0.4-0.6,0.8-1.2,1.3-1.7c0.7-0.8,1.6-1.5,2.5-2c0.6-0.3,1.5-0.8,2.1-0.9c-0.2,0.2-0.5,0.4-0.7,0.6c-0.3,0.3-0.6,0.7-0.9,1
		c-0.7,0.9-1.3,1.9-1.6,3c-0.1,0.3-0.2,0.6-0.3,1c-0.2,1.2-0.3,2.5,0,3.6c0.3,1.4,0.8,2.6,1.5,3.8c0.2,0.3,0.9,1.4,1.1,1.5
		c-0.8-3.6-0.2-6.9,2-9.9l0.6-0.8C357.1,203.4,357.1,203.4,357.2,203.3z"/>
</g>
</svg>
