<?xml version="1.0" encoding="utf-8"?>
<!-- Generator: Adobe Illustrator 17.1.0, SVG Export Plug-In . SVG Version: 6.00 Build 0)  -->
<!DOCTYPE svg PUBLIC "-//W3C//DTD SVG 1.1//EN" "http://www.w3.org/Graphics/SVG/1.1/DTD/svg11.dtd">
<svg version="1.1" id="OBJECTS" xmlns="http://www.w3.org/2000/svg" xmlns:xlink="http://www.w3.org/1999/xlink" x="0px" y="0px"
	 viewBox="136.5 339.1 732.3 361.2" enable-background="new 136.5 339.1 732.3 361.2" xml:space="preserve">
<g>
	<g>
		<path fill="#E0EDFC" d="M190.4,426.7c0,0,33.6-70.1,133.2-39.9c99.6,30.3,165.3,64.1,229.7,66.1s143.9-80.9,220.1-59.5
			c76.1,21.5,41.1,237.3,41.1,237.3s-54.7,102.5-218.7,57.6c-126.4-34.7-214.8,31.2-286.1,2C238.3,661.1,115.2,461.9,190.4,426.7z"
			/>
		<g>
			<g>
				<defs>
					<path id="SVGID_3_" d="M136.5,375.2c0,0,82,2,136.7,49.7c54.7,47.9,153.3,54.7,193.3,42.9s98.3-15.6,146.4-2.9
						c115.2,30.3,166.9-118.1,255.9-98.7v334c0,0-71.3-57.6-168.9-25.3c-110.7,36.5-165.1-5.9-234.4-8.8
						c-58.1-2.4-147.9,39.3-191.3,17.6c-56.7-28.3-137.7,7.9-137.7,7.9V375.2H136.5z"/>
				</defs>
				<clipPath id="SVGID_4_">
					<use xlink:href="#SVGID_3_"  overflow="visible"/>
				</clipPath>
				<rect x="71.1" y="339.1" clip-path="url(#SVGID_4_)" fill="#BDCFFF" width="853.5" height="435.5"/>
			</g>
			<g>
				<defs>
					<path id="SVGID_5_" d="M136.5,375.2c0,0,82,2,136.7,49.7c54.7,47.9,153.3,54.7,193.3,42.9s98.3-15.6,146.4-2.9
						c115.2,30.3,166.9-118.1,255.9-98.7v334c0,0-71.3-57.6-168.9-25.3c-110.7,36.5-165.1-5.9-234.4-8.8
						c-58.1-2.4-147.9,39.3-191.3,17.6c-56.7-28.3-137.7,7.9-137.7,7.9V375.2H136.5z"/>
				</defs>
				<clipPath id="SVGID_6_">
					<use xlink:href="#SVGID_5_"  overflow="visible"/>
				</clipPath>
				
					<linearGradient id="SVGID_7_" gradientUnits="userSpaceOnUse" x1="373.35" y1="680.783" x2="373.35" y2="810.4065" gradientTransform="matrix(1.3333 0 0 -1.3333 0 1500.0001)">
					<stop  offset="0" style="stop-color:#FFFFFF"/>
					<stop  offset="0.9987" style="stop-color:#FFFFFF;stop-opacity:0"/>
				</linearGradient>
				<rect x="71.1" y="339.1" clip-path="url(#SVGID_6_)" fill="url(#SVGID_7_)" width="853.5" height="435.5"/>
			</g>
			<g>
				<defs>
					<path id="SVGID_8_" d="M136.5,375.2c0,0,82,2,136.7,49.7c54.7,47.9,153.3,54.7,193.3,42.9s98.3-15.6,146.4-2.9
						c115.2,30.3,166.9-118.1,255.9-98.7v334c0,0-71.3-57.6-168.9-25.3c-110.7,36.5-165.1-5.9-234.4-8.8
						c-58.1-2.4-147.9,39.3-191.3,17.6c-56.7-28.3-137.7,7.9-137.7,7.9V375.2H136.5z"/>
				</defs>
				<clipPath id="SVGID_9_">
					<use xlink:href="#SVGID_8_"  overflow="visible"/>
				</clipPath>
				
					<linearGradient id="SVGID_10_" gradientUnits="userSpaceOnUse" x1="377" y1="659.4041" x2="377" y2="768.5425" gradientTransform="matrix(1.3333 0 0 -1.3333 0 1500.0001)">
					<stop  offset="0" style="stop-color:#E087BE"/>
					<stop  offset="0.9987" style="stop-color:#E087BE;stop-opacity:0"/>
				</linearGradient>
				<rect x="136.5" y="303.1" clip-path="url(#SVGID_9_)" fill="url(#SVGID_10_)" width="732.3" height="435.5"/>
			</g>
			<g>
				<defs>
					<path id="SVGID_11_" d="M136.5,375.2c0,0,82,2,136.7,49.7c54.7,47.9,153.3,54.7,193.3,42.9s98.3-15.6,146.4-2.9
						c115.2,30.3,166.9-118.1,255.9-98.7v334c0,0-71.3-57.6-168.9-25.3c-110.7,36.5-165.1-5.9-234.4-8.8
						c-58.1-2.4-147.9,39.3-191.3,17.6c-56.7-28.3-137.7,7.9-137.7,7.9V375.2H136.5z"/>
				</defs>
				<clipPath id="SVGID_12_">
					<use xlink:href="#SVGID_11_"  overflow="visible"/>
				</clipPath>
				<path opacity="0.4" clip-path="url(#SVGID_12_)" fill="#BDCFFF" enable-background="new    " d="M131.3,573.7
					c0,0,57.1-17.3,64.4-20.1c8.4-3.2,26-12.4,31.2-11.7c5.2,0.7,27.3,13.7,35.2,16.9c7.9,3.2,29.3,2,38.4,5.9
					c9.1,3.9,51.5,14.3,51.5,14.3l17.6,3.2c0,0,127.6,2.7,147.7,2c20.1-0.7,61.2-22.1,61.2-22.1s37.1-22.8,44.3-21.5
					c7.2,1.3,16.3,2,16.3,2s24.8-25.3,30.5-26.7c5.9-1.3,11.1-5.9,16.9-3.2c5.9,2.7,30.5,24.1,33.9,26c3.2,2,18.3,12.4,21.5,13.1
					c3.2,0.7,37.1,16.3,39.7,16.9s20.8,3.9,22.8,3.9s21.5-6.5,21.5-6.5h23.5l10.4,11.1l5.2,7.9l-714.8,6.5L131.3,573.7z"/>
			</g>
			<g>
				<defs>
					<path id="SVGID_13_" d="M136.5,375.2c0,0,82,2,136.7,49.7c54.7,47.9,153.3,54.7,193.3,42.9s98.3-15.6,146.4-2.9
						c115.2,30.3,166.9-118.1,255.9-98.7v334c0,0-71.3-57.6-168.9-25.3c-110.7,36.5-165.1-5.9-234.4-8.8
						c-58.1-2.4-147.9,39.3-191.3,17.6c-56.7-28.3-137.7,7.9-137.7,7.9V375.2H136.5z"/>
				</defs>
				<clipPath id="SVGID_14_">
					<use xlink:href="#SVGID_13_"  overflow="visible"/>
				</clipPath>
				<path opacity="0.4" clip-path="url(#SVGID_14_)" fill="#BDCFFF" enable-background="new    " d="M708.7,580.9
					c0,0,29.3-13.7,33.9-17.6s20.1-19.5,28-18.9c7.9,0.7,33.2-24.8,38.4-28.7c5.2-3.9,24.1-22.8,28-22.1c3.9,0.7,12.4,8.4,12.4,8.4
					l9.1-1.3l10.4,0.7l43.6,84.7L708.7,580.9z"/>
			</g>
			<g>
				<defs>
					<path id="SVGID_15_" d="M136.5,375.2c0,0,82,2,136.7,49.7c54.7,47.9,153.3,54.7,193.3,42.9s98.3-15.6,146.4-2.9
						c115.2,30.3,166.9-118.1,255.9-98.7v334c0,0-71.3-57.6-168.9-25.3c-110.7,36.5-165.1-5.9-234.4-8.8
						c-58.1-2.4-147.9,39.3-191.3,17.6c-56.7-28.3-137.7,7.9-137.7,7.9V375.2H136.5z"/>
				</defs>
				<clipPath id="SVGID_16_">
					<use xlink:href="#SVGID_15_"  overflow="visible"/>
				</clipPath>
				<path opacity="0.4" clip-path="url(#SVGID_16_)" fill="#BDCFFF" enable-background="new    " d="M788.1,580.3
					c0,0-51.2-19.1-57.6-21.6c-7.3-2.8-22.5-10.7-27.1-10.1c-4.5,0.5-23.6,11.9-30.4,14.7s-25.3,1.7-33.2,5.1
					c-7.9,3.3-44.4,12.4-44.4,12.4l-15.2,2.8c0,0-110.3,2.3-127.7,1.7c-17.5-0.5-52.9-19.1-52.9-19.1s-32.1-19.7-38.3-18.5
					c-6.1,1.1-14,1.7-14,1.7s-21.3-22-26.4-23.1c-5.1-1.1-9.6-5.1-14.7-2.8c-5.1,2.3-26.4,20.8-29.2,22.5
					c-2.8,1.7-15.7,10.7-18.5,11.2c-2.8,0.5-32.1,14-34.3,14.7c-2.3,0.5-18,3.3-19.7,3.3s-18.5-5.6-18.5-5.6h-20.3l-9.1,9.6
					l-4.5,6.8l617.7,5.6L788.1,580.3z"/>
			</g>
			<g>
				<defs>
					<path id="SVGID_17_" d="M136.5,375.2c0,0,82,2,136.7,49.7c54.7,47.9,153.3,54.7,193.3,42.9s98.3-15.6,146.4-2.9
						c115.2,30.3,166.9-118.1,255.9-98.7v334c0,0-71.3-57.6-168.9-25.3c-110.7,36.5-165.1-5.9-234.4-8.8
						c-58.1-2.4-147.9,39.3-191.3,17.6c-56.7-28.3-137.7,7.9-137.7,7.9V375.2H136.5z"/>
				</defs>
				<clipPath id="SVGID_18_">
					<use xlink:href="#SVGID_17_"  overflow="visible"/>
				</clipPath>
				<rect x="71.1" y="580.3" clip-path="url(#SVGID_18_)" fill="#7EA0FF" width="853.5" height="194.3"/>
			</g>
			<g>
				<defs>
					<path id="SVGID_19_" d="M136.5,375.2c0,0,82,2,136.7,49.7c54.7,47.9,153.3,54.7,193.3,42.9s98.3-15.6,146.4-2.9
						c115.2,30.3,166.9-118.1,255.9-98.7v334c0,0-71.3-57.6-168.9-25.3c-110.7,36.5-165.1-5.9-234.4-8.8
						c-58.1-2.4-147.9,39.3-191.3,17.6c-56.7-28.3-137.7,7.9-137.7,7.9V375.2H136.5z"/>
				</defs>
				<clipPath id="SVGID_20_">
					<use xlink:href="#SVGID_19_"  overflow="visible"/>
				</clipPath>
				<g opacity="0.5" clip-path="url(#SVGID_20_)">
					
						<linearGradient id="SVGID_21_" gradientUnits="userSpaceOnUse" x1="188.9" y1="681.0588" x2="312.6" y2="681.0588" gradientTransform="matrix(1.3333 0 0 -1.3333 0 1500.0001)">
						<stop  offset="0" style="stop-color:#FFFFFF"/>
						<stop  offset="0.9987" style="stop-color:#FFFFFF;stop-opacity:0"/>
					</linearGradient>
					<path fill="url(#SVGID_21_)" d="M395.6,583.5c-7.2,3.2-17.9,2.7-25.7,2.7c-14.3,0-28.4,1.2-42.7,1.3
						c-13.3,0.1-26.4,0.5-39.7,1.2c-11.5,0.5-25.1-1.7-35.6,3.3c10.1,2.9,22.3,0.3,32.8,0.8c9.5,0.5,18.7,1.7,28.1,1.3
						c17.9-0.8,34.4,2,52.3,2c-4.9-0.1-18-0.5-22.9,2.4c11.3,3.6,26.5,0.9,38.4,0.3c9.3-0.4,28.4,3.5,36.3-2.9
						c-1.9-9.9-20.3-9.3-27.9-7.1"/>
					
						<linearGradient id="SVGID_22_" gradientUnits="userSpaceOnUse" x1="118.5" y1="679.0326" x2="187.3" y2="679.0326" gradientTransform="matrix(1.3333 0 0 -1.3333 0 1500.0001)">
						<stop  offset="0" style="stop-color:#FFFFFF"/>
						<stop  offset="0.9987" style="stop-color:#FFFFFF;stop-opacity:0"/>
					</linearGradient>
					<path fill="url(#SVGID_22_)" d="M158,598.5c13.7,6,33.1,0.9,48.1,2.4c6.7,0.7,13.5,1.2,20.3,1.5c5.7,0.3,19.2,2.1,23.3-1.2
						c-5.7-1.6-12.1-0.5-18.3-0.8c-9.7-0.3-19.5-2.1-28.7-5.6c7.6,2,24.5-1.6,33.1-3.6c-9.5-7.7-34.1-4.4-46.5-4.4
						c-8.4,0-23.7-2.8-24.4,7.9"/>
					
						<linearGradient id="SVGID_23_" gradientUnits="userSpaceOnUse" x1="509.4999" y1="676.7017" x2="583.1" y2="676.7017" gradientTransform="matrix(1.3333 0 0 -1.3333 0 1500.0001)">
						<stop  offset="0" style="stop-color:#FFFFFF"/>
						<stop  offset="0.9987" style="stop-color:#FFFFFF;stop-opacity:0"/>
					</linearGradient>
					<path fill="url(#SVGID_23_)" d="M684,603.1c6.5,3.5,17.1,0,24.1-0.5c6.7-0.4,13.2-0.7,19.7-0.8c15.1-0.1,35.2,2.4,49.6-2
						c-7.6-0.9-14.5-1.2-22.5-1.3c-5.7,0-14.7-2.3-20,0c8.5,2.9,28.4-0.1,35.5-5.7c-16.1-4-36.8-0.3-53.3,1.2
						c-11.6,1.1-27.2-1.7-37.7,2"/>
					
						<linearGradient id="SVGID_24_" gradientUnits="userSpaceOnUse" x1="591.2" y1="679.045" x2="658.4266" y2="679.045" gradientTransform="matrix(1.3333 0 0 -1.3333 0 1500.0001)">
						<stop  offset="0" style="stop-color:#FFFFFF"/>
						<stop  offset="0.9987" style="stop-color:#FFFFFF;stop-opacity:0"/>
					</linearGradient>
					<path fill="url(#SVGID_24_)" d="M878,595.9c-16.1-2.1-33.6,2.3-50,3.1c-13.2,0.7-26.5,0.1-39.7,0.1c5.5-0.1,7.7,1.2,13.3-0.5
						c6-1.9,11.3-2.4,17.6-3.5c-5.9-0.7-13.5,0.1-19.1-2c10.8-4.8,30.1-2,42-2c5.6,0,37.7-4.9,35.2,4.5"/>
				</g>
			</g>
			<g>
				<defs>
					<path id="SVGID_25_" d="M136.5,375.2c0,0,82,2,136.7,49.7c54.7,47.9,153.3,54.7,193.3,42.9s98.3-15.6,146.4-2.9
						c115.2,30.3,166.9-118.1,255.9-98.7v334c0,0-71.3-57.6-168.9-25.3c-110.7,36.5-165.1-5.9-234.4-8.8
						c-58.1-2.4-147.9,39.3-191.3,17.6c-56.7-28.3-137.7,7.9-137.7,7.9V375.2H136.5z"/>
				</defs>
				<clipPath id="SVGID_26_">
					<use xlink:href="#SVGID_25_"  overflow="visible"/>
				</clipPath>
				<rect x="71.1" y="608.5" clip-path="url(#SVGID_26_)" fill="#1A2D6D" width="853.5" height="166"/>
			</g>
			<g>
				<defs>
					<path id="SVGID_27_" d="M136.5,375.2c0,0,82,2,136.7,49.7c54.7,47.9,153.3,54.7,193.3,42.9s98.3-15.6,146.4-2.9
						c115.2,30.3,166.9-118.1,255.9-98.7v334c0,0-71.3-57.6-168.9-25.3c-110.7,36.5-165.1-5.9-234.4-8.8
						c-58.1-2.4-147.9,39.3-191.3,17.6c-56.7-28.3-137.7,7.9-137.7,7.9V375.2H136.5z"/>
				</defs>
				<clipPath id="SVGID_28_">
					<use xlink:href="#SVGID_27_"  overflow="visible"/>
				</clipPath>
				
					<linearGradient id="SVGID_29_" gradientUnits="userSpaceOnUse" x1="377.45" y1="606.2196" x2="377.45" y2="639.3268" gradientTransform="matrix(1.3333 0 0 -1.3333 0 1500.0001)">
					<stop  offset="0" style="stop-color:#000000"/>
					<stop  offset="0.9987" style="stop-color:#000000;stop-opacity:0"/>
				</linearGradient>
				<rect x="137.7" y="608.5" clip-path="url(#SVGID_28_)" fill="url(#SVGID_29_)" width="731.1" height="137.2"/>
			</g>
			<g>
				<defs>
					<path id="SVGID_30_" d="M136.5,375.2c0,0,82,2,136.7,49.7c54.7,47.9,153.3,54.7,193.3,42.9s98.3-15.6,146.4-2.9
						c115.2,30.3,166.9-118.1,255.9-98.7v334c0,0-71.3-57.6-168.9-25.3c-110.7,36.5-165.1-5.9-234.4-8.8
						c-58.1-2.4-147.9,39.3-191.3,17.6c-56.7-28.3-137.7,7.9-137.7,7.9V375.2H136.5z"/>
				</defs>
				<clipPath id="SVGID_31_">
					<use xlink:href="#SVGID_30_"  overflow="visible"/>
				</clipPath>
				<path clip-path="url(#SVGID_31_)" d="M792.7,690.3c0,0,8.4-56,16.3-56.7s13.7-3.2,16.3-2.7c2.7,0.7,7.2-18.9,11.1-29.3
					c3.9-10.4,13.1-16.3,16.9-14.9s15.6,18.9,15.6,18.9v104.8L792.7,690.3z"/>
			</g>
			<g>
				<defs>
					<path id="SVGID_32_" d="M136.5,375.2c0,0,82,2,136.7,49.7c54.7,47.9,153.3,54.7,193.3,42.9s98.3-15.6,146.4-2.9
						c115.2,30.3,166.9-118.1,255.9-98.7v334c0,0-71.3-57.6-168.9-25.3c-110.7,36.5-165.1-5.9-234.4-8.8
						c-58.1-2.4-147.9,39.3-191.3,17.6c-56.7-28.3-137.7,7.9-137.7,7.9V375.2H136.5z"/>
				</defs>
				<clipPath id="SVGID_33_">
					<use xlink:href="#SVGID_32_"  overflow="visible"/>
				</clipPath>
				
					<linearGradient id="SVGID_34_" gradientUnits="userSpaceOnUse" x1="623.05" y1="595.1011" x2="623.05" y2="652.9544" gradientTransform="matrix(1.3333 0 0 -1.3333 0 1500.0001)">
					<stop  offset="0" style="stop-color:#E087BE"/>
					<stop  offset="0.9987" style="stop-color:#E087BE;stop-opacity:0"/>
				</linearGradient>
				<path clip-path="url(#SVGID_33_)" fill="url(#SVGID_34_)" d="M792.7,690.3c0,0,8.4-56,16.3-56.7s13.7-3.2,16.3-2.7
					c2.7,0.7,7.2-18.9,11.1-29.3c3.9-10.4,13.1-16.3,16.9-14.9s15.6,18.9,15.6,18.9v104.8L792.7,690.3z"/>
			</g>
			<g>
				<defs>
					<path id="SVGID_35_" d="M136.5,375.2c0,0,82,2,136.7,49.7c54.7,47.9,153.3,54.7,193.3,42.9s98.3-15.6,146.4-2.9
						c115.2,30.3,166.9-118.1,255.9-98.7v334c0,0-71.3-57.6-168.9-25.3c-110.7,36.5-165.1-5.9-234.4-8.8
						c-58.1-2.4-147.9,39.3-191.3,17.6c-56.7-28.3-137.7,7.9-137.7,7.9V375.2H136.5z"/>
				</defs>
				<clipPath id="SVGID_36_">
					<use xlink:href="#SVGID_35_"  overflow="visible"/>
				</clipPath>
				<path clip-path="url(#SVGID_36_)" d="M290.1,703.9c0,0-3.2-46.3-10.4-47.5c-7.2-1.3-14.9-3.2-14.9-3.2s-1.3-22.1-7.2-24.8
					c-5.9-2.7-23.5,0.7-26.7,11.1c-3.2,10.4-20.1,44.3-20.1,44.3L290.1,703.9z"/>
			</g>
			<g>
				<defs>
					<path id="SVGID_37_" d="M136.5,375.2c0,0,82,2,136.7,49.7c54.7,47.9,153.3,54.7,193.3,42.9s98.3-15.6,146.4-2.9
						c115.2,30.3,166.9-118.1,255.9-98.7v334c0,0-71.3-57.6-168.9-25.3c-110.7,36.5-165.1-5.9-234.4-8.8
						c-58.1-2.4-147.9,39.3-191.3,17.6c-56.7-28.3-137.7,7.9-137.7,7.9V375.2H136.5z"/>
				</defs>
				<clipPath id="SVGID_38_">
					<use xlink:href="#SVGID_37_"  overflow="visible"/>
				</clipPath>
				
					<linearGradient id="SVGID_39_" gradientUnits="userSpaceOnUse" x1="187.85" y1="589.974" x2="187.85" y2="639.1002" gradientTransform="matrix(1.3333 0 0 -1.3333 0 1500.0001)">
					<stop  offset="0" style="stop-color:#E087BE"/>
					<stop  offset="0.9987" style="stop-color:#E087BE;stop-opacity:0"/>
				</linearGradient>
				<path clip-path="url(#SVGID_38_)" fill="url(#SVGID_39_)" d="M290.1,703.9c0,0-3.2-46.3-10.4-47.5c-7.2-1.3-14.9-3.2-14.9-3.2
					s-1.3-22.1-7.2-24.8c-5.9-2.7-23.5,0.7-26.7,11.1c-3.2,10.4-20.1,44.3-20.1,44.3L290.1,703.9z"/>
			</g>
			<g>
				<defs>
					<path id="SVGID_40_" d="M136.5,375.2c0,0,82,2,136.7,49.7c54.7,47.9,153.3,54.7,193.3,42.9s98.3-15.6,146.4-2.9
						c115.2,30.3,166.9-118.1,255.9-98.7v334c0,0-71.3-57.6-168.9-25.3c-110.7,36.5-165.1-5.9-234.4-8.8
						c-58.1-2.4-147.9,39.3-191.3,17.6c-56.7-28.3-137.7,7.9-137.7,7.9V375.2H136.5z"/>
				</defs>
				<clipPath id="SVGID_41_">
					<use xlink:href="#SVGID_40_"  overflow="visible"/>
				</clipPath>
				<path clip-path="url(#SVGID_41_)" d="M136.5,703.9V510l13.1,12.4c0,0-4.5,40.4,5.2,45.6s18.3,36.4,18.3,36.4s-1.3,30,7.9,32.5
					c0,0,14.3,3.9,18.3,30c3.9,26,5.2,37.1,5.2,37.1L136.5,703.9z"/>
			</g>
			<g>
				<defs>
					<path id="SVGID_42_" d="M136.5,375.2c0,0,82,2,136.7,49.7c54.7,47.9,153.3,54.7,193.3,42.9s98.3-15.6,146.4-2.9
						c115.2,30.3,166.9-118.1,255.9-98.7v334c0,0-71.3-57.6-168.9-25.3c-110.7,36.5-165.1-5.9-234.4-8.8
						c-58.1-2.4-147.9,39.3-191.3,17.6c-56.7-28.3-137.7,7.9-137.7,7.9V375.2H136.5z"/>
				</defs>
				<clipPath id="SVGID_43_">
					<use xlink:href="#SVGID_42_"  overflow="visible"/>
				</clipPath>
				
					<linearGradient id="SVGID_44_" gradientUnits="userSpaceOnUse" x1="127.85" y1="589.9741" x2="127.85" y2="645.2102" gradientTransform="matrix(1.3333 0 0 -1.3333 0 1500.0001)">
					<stop  offset="0" style="stop-color:#E087BE"/>
					<stop  offset="0.9987" style="stop-color:#E087BE;stop-opacity:0"/>
				</linearGradient>
				<path clip-path="url(#SVGID_43_)" fill="url(#SVGID_44_)" d="M136.5,703.9V510l13.1,12.4c0,0-4.5,40.4,5.2,45.6
					s18.3,36.4,18.3,36.4s-1.3,30,7.9,32.5c0,0,14.3,3.9,18.3,30c3.9,26,5.2,37.1,5.2,37.1L136.5,703.9z"/>
			</g>
			<g>
				<defs>
					<path id="SVGID_45_" d="M136.5,375.2c0,0,82,2,136.7,49.7c54.7,47.9,153.3,54.7,193.3,42.9s98.3-15.6,146.4-2.9
						c115.2,30.3,166.9-118.1,255.9-98.7v334c0,0-71.3-57.6-168.9-25.3c-110.7,36.5-165.1-5.9-234.4-8.8
						c-58.1-2.4-147.9,39.3-191.3,17.6c-56.7-28.3-137.7,7.9-137.7,7.9V375.2H136.5z"/>
				</defs>
				<clipPath id="SVGID_46_">
					<use xlink:href="#SVGID_45_"  overflow="visible"/>
				</clipPath>
				<path clip-path="url(#SVGID_46_)" d="M793.2,668.9c0,0-5.9-33.7-20-49.3c0,0,3.5,35.6,12.7,49.3H793.2z"/>
			</g>
			<g>
				<defs>
					<path id="SVGID_47_" d="M136.5,375.2c0,0,82,2,136.7,49.7c54.7,47.9,153.3,54.7,193.3,42.9s98.3-15.6,146.4-2.9
						c115.2,30.3,166.9-118.1,255.9-98.7v334c0,0-71.3-57.6-168.9-25.3c-110.7,36.5-165.1-5.9-234.4-8.8
						c-58.1-2.4-147.9,39.3-191.3,17.6c-56.7-28.3-137.7,7.9-137.7,7.9V375.2H136.5z"/>
				</defs>
				<clipPath id="SVGID_48_">
					<use xlink:href="#SVGID_47_"  overflow="visible"/>
				</clipPath>
				<path clip-path="url(#SVGID_48_)" d="M787.9,672.8c0,0-19.3-28.1-38.8-36.5c0,0,18,30.9,32.1,39.5L787.9,672.8z"/>
			</g>
			<g>
				<defs>
					<path id="SVGID_49_" d="M136.5,375.2c0,0,82,2,136.7,49.7c54.7,47.9,153.3,54.7,193.3,42.9s98.3-15.6,146.4-2.9
						c115.2,30.3,166.9-118.1,255.9-98.7v334c0,0-71.3-57.6-168.9-25.3c-110.7,36.5-165.1-5.9-234.4-8.8
						c-58.1-2.4-147.9,39.3-191.3,17.6c-56.7-28.3-137.7,7.9-137.7,7.9V375.2H136.5z"/>
				</defs>
				<clipPath id="SVGID_50_">
					<use xlink:href="#SVGID_49_"  overflow="visible"/>
				</clipPath>
				<path clip-path="url(#SVGID_50_)" d="M250.7,628.5c0,0-4.5-25.7-15.3-37.7c0,0,2.7,27.3,9.7,37.7H250.7z"/>
			</g>
			<g>
				<defs>
					<path id="SVGID_51_" d="M136.5,375.2c0,0,82,2,136.7,49.7c54.7,47.9,153.3,54.7,193.3,42.9s98.3-15.6,146.4-2.9
						c115.2,30.3,166.9-118.1,255.9-98.7v334c0,0-71.3-57.6-168.9-25.3c-110.7,36.5-165.1-5.9-234.4-8.8
						c-58.1-2.4-147.9,39.3-191.3,17.6c-56.7-28.3-137.7,7.9-137.7,7.9V375.2H136.5z"/>
				</defs>
				<clipPath id="SVGID_52_">
					<use xlink:href="#SVGID_51_"  overflow="visible"/>
				</clipPath>
				<path clip-path="url(#SVGID_52_)" d="M251.3,630.3c0,0,5.1-18.5,1.7-29.9c0,0-6.8,18.9-5.3,28.1L251.3,630.3z"/>
			</g>
			<g>
				<defs>
					<path id="SVGID_53_" d="M136.5,375.2c0,0,82,2,136.7,49.7c54.7,47.9,153.3,54.7,193.3,42.9s98.3-15.6,146.4-2.9
						c115.2,30.3,166.9-118.1,255.9-98.7v334c0,0-71.3-57.6-168.9-25.3c-110.7,36.5-165.1-5.9-234.4-8.8
						c-58.1-2.4-147.9,39.3-191.3,17.6c-56.7-28.3-137.7,7.9-137.7,7.9V375.2H136.5z"/>
				</defs>
				<clipPath id="SVGID_54_">
					<use xlink:href="#SVGID_53_"  overflow="visible"/>
				</clipPath>
				<path clip-path="url(#SVGID_54_)" d="M249.1,629.6c0,0-14.8-21.6-29.6-27.9c0,0,13.7,23.7,24.5,30.3L249.1,629.6z"/>
			</g>
			<g>
				<defs>
					<path id="SVGID_55_" d="M136.5,375.2c0,0,82,2,136.7,49.7c54.7,47.9,153.3,54.7,193.3,42.9s98.3-15.6,146.4-2.9
						c115.2,30.3,166.9-118.1,255.9-98.7v334c0,0-71.3-57.6-168.9-25.3c-110.7,36.5-165.1-5.9-234.4-8.8
						c-58.1-2.4-147.9,39.3-191.3,17.6c-56.7-28.3-137.7,7.9-137.7,7.9V375.2H136.5z"/>
				</defs>
				<clipPath id="SVGID_56_">
					<use xlink:href="#SVGID_55_"  overflow="visible"/>
				</clipPath>
				
					<linearGradient id="SVGID_57_" gradientUnits="userSpaceOnUse" x1="626.791" y1="710.3195" x2="615.0737" y2="624.8812" gradientTransform="matrix(1.3333 0 0 -1.3333 0 1500.0001)">
					<stop  offset="0" style="stop-color:#FFFFFF"/>
					<stop  offset="0.9987" style="stop-color:#FFFFFF;stop-opacity:0"/>
				</linearGradient>
				<path clip-path="url(#SVGID_56_)" fill="url(#SVGID_57_)" d="M828.5,687.1c-4.5-13.1,5.2-31.9,11.7-41.1
					c6.5-9.1,11.7-21.5,11.1-41.1c-0.3-6.8,0.5-13.1,1.7-18.3c-4-1.1-12.9,4.8-16.7,15.1c-3.9,10.4-8.4,30-11.1,29.3
					c-2.7-0.7-8.4,2-16.3,2.7s-16.3,56.7-16.3,56.7l45.7,12.1C833.7,696.9,830,691.2,828.5,687.1z"/>
			</g>
			<g>
				<defs>
					<path id="SVGID_58_" d="M136.5,375.2c0,0,82,2,136.7,49.7c54.7,47.9,153.3,54.7,193.3,42.9s98.3-15.6,146.4-2.9
						c115.2,30.3,166.9-118.1,255.9-98.7v334c0,0-71.3-57.6-168.9-25.3c-110.7,36.5-165.1-5.9-234.4-8.8
						c-58.1-2.4-147.9,39.3-191.3,17.6c-56.7-28.3-137.7,7.9-137.7,7.9V375.2H136.5z"/>
				</defs>
				<clipPath id="SVGID_59_">
					<use xlink:href="#SVGID_58_"  overflow="visible"/>
				</clipPath>
				<g clip-path="url(#SVGID_59_)">
					
						<linearGradient id="SVGID_60_" gradientUnits="userSpaceOnUse" x1="210.8273" y1="689.3279" x2="210.8273" y2="605.9437" gradientTransform="matrix(1.3333 0 0 -1.3333 0 1500.0001)">
						<stop  offset="0" style="stop-color:#FFFFFF"/>
						<stop  offset="0.9987" style="stop-color:#FFFFFF;stop-opacity:0"/>
					</linearGradient>
					<path fill="url(#SVGID_60_)" d="M274.1,683.7c-2,4.7-2.3,10.3-1.6,15.7l17.5,4.4c0,0-3.2-46.3-10.4-47.5
						c-2.1-0.4-4.4-0.8-6.5-1.3C275.5,660.1,279.3,672,274.1,683.7z"/>
					
						<linearGradient id="SVGID_61_" gradientUnits="userSpaceOnUse" x1="190.15" y1="689.3287" x2="190.15" y2="605.943" gradientTransform="matrix(1.3333 0 0 -1.3333 0 1500.0001)">
						<stop  offset="0" style="stop-color:#FFFFFF"/>
						<stop  offset="0.9987" style="stop-color:#FFFFFF;stop-opacity:0"/>
					</linearGradient>
					<path fill="url(#SVGID_61_)" d="M251.1,651.9c2.7,7.9,11.1,1.3,13.7,1.3c0,0-1.3-22.1-7.2-24.8c-3.1-1.3-9.5-1.1-15.3,0.9
						C245.5,637.2,249.6,647.3,251.1,651.9z"/>
				</g>
			</g>
			<g>
				<defs>
					<path id="SVGID_62_" d="M136.5,375.2c0,0,82,2,136.7,49.7c54.7,47.9,153.3,54.7,193.3,42.9s98.3-15.6,146.4-2.9
						c115.2,30.3,166.9-118.1,255.9-98.7v334c0,0-71.3-57.6-168.9-25.3c-110.7,36.5-165.1-5.9-234.4-8.8
						c-58.1-2.4-147.9,39.3-191.3,17.6c-56.7-28.3-137.7,7.9-137.7,7.9V375.2H136.5z"/>
				</defs>
				<clipPath id="SVGID_63_">
					<use xlink:href="#SVGID_62_"  overflow="visible"/>
				</clipPath>
				
					<linearGradient id="SVGID_64_" gradientUnits="userSpaceOnUse" x1="154.9205" y1="785.3898" x2="127.092" y2="616.954" gradientTransform="matrix(1.3333 0 0 -1.3333 0 1500.0001)">
					<stop  offset="0" style="stop-color:#FFFFFF"/>
					<stop  offset="0.9987" style="stop-color:#FFFFFF;stop-opacity:0"/>
				</linearGradient>
				<path clip-path="url(#SVGID_63_)" fill="url(#SVGID_64_)" d="M154.7,567.9c-2.3-1.2-3.7-4.4-4.8-8.4c-0.8,6.4-4.3,34.7,1.5,45.6
					c6.5,12.4,12.4,37.1,11.7,50.1c-0.5,10.5-1.9,38.5-2.4,48.8h43.5c0,0-1.3-11.1-5.2-37.1c-3.9-26-18.3-30-18.3-30
					c-9.1-2.7-7.9-32.5-7.9-32.5S164.5,573.1,154.7,567.9z"/>
			</g>
		</g>
		<g>
			<path fill="#182B71" d="M814.1,608.5l-8.7,1.2c0,0-1.2-26.1-1.5-43.3c-0.3-17.2,2.8-76,3.2-78.5c0.4-2.7-0.4-4.3-0.4-4.3l-2,2.9
				l0.8,4.9l-2.3-3.6l0.5,5.1l-2.5-2.8l1.1,4.9l-3.3-2.4l0.8,5.1l-2.9-2.4l0.1,4.8c0,0-2.5-2.5-2.5-2s0.8,5.2,0.8,5.2
				s-3.1-2.7-2.9-2.1c0,0.5,0.3,4.5,0.3,4.5s-2.7-5.9-2.7-4.1c-0.1,1.7-0.7,8.5-0.7,8.5s-0.1-7.5,0.5-10.3
				c0.5-2.9,4.8-10.8,4.8-10.8l2.5-4.4l1.9-4.4c0,0,1.9-2.1,1.6-2c-0.3,0.1-3.9,3.3-3.9,3.3l2.4-7.1l-8.4,13.9l4.7-12.9l-2.1,6.5
				l-1.7-2.3l0.4,3.2l-2-1.1l0.1,4.1l-1.5-2.3l-0.5,3.3l-2.9-3.6l0.1,5.9l-3.2-4.9c0,0,0.9,4.9,1.1,5.5c0.1,0.5-3.3-4.8-3.3-4.8
				s0.1,5.2,0.1,5.9c0,0.8-3.2-3.3-3.2-3.3l-0.3,4.3l-3.1-3.5l-2.9,3.6c0,0,0.7-2.9,7.6-8.9s10.8-9.6,14-11.7
				c3.3-2.1,3.7-2.9,3.7-2.9s-2.1-1.3-3.7-1.2c-1.6,0.1-1.5-2.1-1.5-2.1l-2.7,3.1l0.4-2.1l-1.6,1.6l-0.1-2.4l-2,2.8l-0.8-1.7
				l-2.9,3.6l0.1-2.8l-4,3.7v-2.7l-2.9,3.3l0.3-2.4l-3.6,2.3c0,0,1.3-5.2,7.9-6.9c6.7-1.9,12.1-0.7,12.1-0.7v-0.9l-2.7-1.2l0.7-1.7
				c0,0-3.7,0.5-3.5,0.4c0.3-0.1,4-3.5,3.6-3.3c-0.4,0.1-8.9,1.3-8.7,1.2c0.3,0,4.1-2.1,3.1-1.7c-1.1,0.4-7.3,2-7.1,2
				c0.3-0.1,3.5-2.1,2.1-1.6c-1.3,0.5-6.9,1.9-5.7,1.2c1.1-0.7,5.9-2.1,2.4-1.5c-3.5,0.7-4,1.2-3.5,0.7s2.4-1.5,0.8-0.9
				c-1.5,0.5-3.6,0.4-3.1,0.3c0.5-0.1-2-0.1-2-0.1s3.9-2.3,5.9-2.4c2-0.1,6.9-0.1,7.9,0.1c0.9,0.3,6.8,2,9.7,3.9
				c2.8,1.9,4.3,1.7,4.3,1.7l0.9-1.2l-2-4.4l1.7-0.7l-3.5-1.1l1.7-0.9c0,0-4.5-1.2-3.9-1.3c0.7-0.1,4.3-1.6,3.7-1.5
				c-0.5,0.1-3.7-1.2-3.7-1.2s3.1-1.1,2.5-0.9s-4.4-1.1-4.4-1.1l3.2-2.4l-2.9-0.5c0,0,1.5-1.7,0.5-1.5c-0.9,0.3-4.9,0-4.9,0
				s2.7-1.7,2.1-1.6c-0.5,0.1-2.9-1.2-2.9-1.2s3.9-1.2,5.2-0.8c1.3,0.5,6.4,0.8,8.3,4c1.9,3.3,4.8,7.1,5.3,8.7c0.5,1.5,2,2.3,2,2.3
				s0.4-1.6,0.4-1.9s-0.1-3.3-0.1-3.3s0.4-2.3,0.3-2.5s0.5-2.5,0.5-2.5s1.7-4.3,1.3-4.1c-0.3,0.1,1.7-4,1.7-4l2.4-1.5l2.8,1.9
				l0.3,2.7l-3.1-0.5l2.1,1.5l-1.5,0.5l2.1,1.9l-1.5,0.4c0,0,1.9,1.5,1.5,1.6c-0.4,0.1-1.9,0.5-1.7,0.8c0.1,0.3,0.7,2.3,0.7,2.3
				h-1.6l2.5,2.3l-1.2,1.1c0,0,0.4,1.7-0.1,1.9c-0.5,0.1,0.3,0.5,0.5,1.2c0.4,0.7,0,2-0.3,2.3c-0.1,0.3,0.8,0.9,1.2,0.1
				c0.4-0.8-1.1,0,2.5-5.5c3.6-5.5,8.3-9.7,8.3-9.7s4.5-0.5,4-0.4c-0.5,0.1-0.3,1.7-0.8,2c-0.4,0.3-3.2,3.2-2.5,2.9
				c0.7-0.1,3.1-1.3,1.9-0.7c-1.1,0.8-4.1,2.9-3.9,2.9c0.4,0,2.9-0.5,2.5-0.1c-0.4,0.3-2.7,2.8-2.7,2.8l0.5,0.3c0,0-3.5,2.1-3.2,2
				c0.3,0,1.6-0.1,1.6-0.1l-2.4,2.9l0.9,0.3l-2.1,2.4c0,0,1.1-0.1,0.4,0.5c-0.7,0.7-1.7,2-1.7,2l0.8,1.2c0,0,8.5-6.5,12.7-8.1
				s8.3-2.1,12.1-0.1c3.9,2,4.5,2.5,4.5,2.5l-8.5-0.8l2.3,1.5l-4-0.7c0,0,1.6,1.6,0.9,1.6c-0.5,0-2.9-0.5-2.9-0.5s0.5,1.3-0.1,1.3
				c-0.7,0-3.5-1.1-3.5-1.1l1.2,1.7l-4-0.3l0.3,1.6c0,0-2.7-0.4-2.5-0.1s1.3,1.3,0.8,1.5c-0.5,0.1-2.7,0-2.7,0l0.4,0.9h-2l0.4,1.2
				l-2.8-0.3l0.7,1.5c0,0,6.4-2.1,10.7-1.6c4.3,0.5,9.7,2.1,9.7,2.1s2.8,1.7,3.2,2.3c0.4,0.4,1.7,1.9,1.7,1.9l-3.3-0.8v0.9l-4.4-1.2
				c0,0,2.3,1.5,1.6,1.5s-8.3-2.3-8.3-2.3l2,1.3l-4.7-0.5l0.5,1.2l-3.2-0.4c0,0,10-0.1,12.1,1.7c2.1,1.9,5.5,3.7,5.5,3.7l1.3,1.5
				l-3.1-0.4l-0.3,0.9l-3.3-2.5c0,0,0.4,1.9,0.4,2.1c-0.1,0.3-3.6-1.6-3.6-1.6l0.4,0.9l-5.2-3.2c0,0,0.1,2,0.3,2.3
				c0.1,0.3-1.5-0.8-1.9-0.8c-0.5,0,0.5,2.1-0.8,1.2c-1.3-0.9-4.5-2.4-4.5-2.4v1.1l-4.9,0.3c0,0,7.9,4,10.7,5.9
				c2.8,1.9,7.2,5.3,7.5,5.9c0.3,0.5,2,2.7,2.5,3.5c0.5,0.8,4,6.8,4,6.8l0.8,1.7l-4.8-2.5l-0.7,1.7l-2.4-5.3l-1.6,3.1l-2.4-4.7
				l-1.2,1.1l-0.7-4.8c0,0-0.9,0.9-1.1,0.1c-0.1-0.9-2.7-2.8-2.7-2.8s-1.2,0.1-1.7,0.3c-0.5,0-2.7-1.1-2.7-1.1l-2.9,0.5
				c0,0,7.3,1.2,8.5,3.2c1.3,2,0.4,5.5,0.4,5.5s-5.2-4.4-5.1-3.3c0.1,1.1,0.3,1.9,0.3,1.9l-2.5-1.7l-1.5-0.4l-2.7-2.1
				c0,0,2.7,2.8,3.6,7.2s1.3,9.5,1.2,9.9s-1.5,4.4-1.5,4.4l0.5-7.3c0,0-1.7,4.7-1.9,4.4c-0.1-0.3,0.4-6.5,0.1-6.5
				c-0.3,0-1.1,1.9-1.1,1.9l-0.7-6.9c0,0-2,4.9-1.9,4.4s-0.4-4.8-0.4-4.8s-1.2,2.7-1.6,1.6c-0.4-1.1-1.2-5.2-1.2-5.2l-0.8,1.9
				l-0.3-5.2l-2.4,2.7c0,0-0.9,18.4-0.9,23.2c0,4.9,0.5,49.7,0.8,62.4c0.3,12.5,1.3,9.6,1.9,17.9
				C811.5,597.7,814.1,608.5,814.1,608.5z"/>
			
				<linearGradient id="SVGID_65_" gradientUnits="userSpaceOnUse" x1="605.35" y1="831.8856" x2="605.35" y2="762.5523" gradientTransform="matrix(1.3333 0 0 -1.3333 0 1500.0001)">
				<stop  offset="0" style="stop-color:#FFFFFF"/>
				<stop  offset="0.9987" style="stop-color:#FFFFFF;stop-opacity:0"/>
			</linearGradient>
			<path fill="url(#SVGID_65_)" d="M814.1,608.5l-8.7,1.2c0,0-1.2-26.1-1.5-43.3c-0.3-17.2,2.8-76,3.2-78.5c0.4-2.7-0.4-4.3-0.4-4.3
				l-2,2.9l0.8,4.9l-2.3-3.6l0.5,5.1l-2.5-2.8l1.1,4.9l-3.3-2.4l0.8,5.1l-2.9-2.4l0.1,4.8c0,0-2.5-2.5-2.5-2s0.8,5.2,0.8,5.2
				s-3.1-2.7-2.9-2.1c0,0.5,0.3,4.5,0.3,4.5s-2.7-5.9-2.7-4.1c-0.1,1.7-0.7,8.5-0.7,8.5s-0.1-7.5,0.5-10.3
				c0.5-2.9,4.8-10.8,4.8-10.8l2.5-4.4l1.9-4.4c0,0,1.9-2.1,1.6-2c-0.3,0.1-3.9,3.3-3.9,3.3l2.4-7.1l-8.4,13.9l4.7-12.9l-2.1,6.5
				l-1.7-2.3l0.4,3.2l-2-1.1l0.1,4.1l-1.5-2.3l-0.5,3.3l-2.9-3.6l0.1,5.9l-3.2-4.9c0,0,0.9,4.9,1.1,5.5c0.1,0.5-3.3-4.8-3.3-4.8
				s0.1,5.2,0.1,5.9c0,0.8-3.2-3.3-3.2-3.3l-0.3,4.3l-3.1-3.5l-2.9,3.6c0,0,0.7-2.9,7.6-8.9s10.8-9.6,14-11.7
				c3.3-2.1,3.7-2.9,3.7-2.9s-2.1-1.3-3.7-1.2c-1.6,0.1-1.5-2.1-1.5-2.1l-2.7,3.1l0.4-2.1l-1.6,1.6l-0.1-2.4l-2,2.8l-0.8-1.7
				l-2.9,3.6l0.1-2.8l-4,3.7v-2.7l-2.9,3.3l0.3-2.4l-3.6,2.3c0,0,1.3-5.2,7.9-6.9c6.7-1.9,12.1-0.7,12.1-0.7v-0.9l-2.7-1.2l0.7-1.7
				c0,0-3.7,0.5-3.5,0.4c0.3-0.1,4-3.5,3.6-3.3c-0.4,0.1-8.9,1.3-8.7,1.2c0.3,0,4.1-2.1,3.1-1.7c-1.1,0.4-7.3,2-7.1,2
				c0.3-0.1,3.5-2.1,2.1-1.6c-1.3,0.5-6.9,1.9-5.7,1.2c1.1-0.7,5.9-2.1,2.4-1.5c-3.5,0.7-4,1.2-3.5,0.7s2.4-1.5,0.8-0.9
				c-1.5,0.5-3.6,0.4-3.1,0.3c0.5-0.1-2-0.1-2-0.1s3.9-2.3,5.9-2.4c2-0.1,6.9-0.1,7.9,0.1c0.9,0.3,6.8,2,9.7,3.9
				c2.8,1.9,4.3,1.7,4.3,1.7l0.9-1.2l-2-4.4l1.7-0.7l-3.5-1.1l1.7-0.9c0,0-4.5-1.2-3.9-1.3c0.7-0.1,4.3-1.6,3.7-1.5
				c-0.5,0.1-3.7-1.2-3.7-1.2s3.1-1.1,2.5-0.9s-4.4-1.1-4.4-1.1l3.2-2.4l-2.9-0.5c0,0,1.5-1.7,0.5-1.5c-0.9,0.3-4.9,0-4.9,0
				s2.7-1.7,2.1-1.6c-0.5,0.1-2.9-1.2-2.9-1.2s3.9-1.2,5.2-0.8c1.3,0.5,6.4,0.8,8.3,4c1.9,3.3,4.8,7.1,5.3,8.7c0.5,1.5,2,2.3,2,2.3
				s0.4-1.6,0.4-1.9s-0.1-3.3-0.1-3.3s0.4-2.3,0.3-2.5s0.5-2.5,0.5-2.5s1.7-4.3,1.3-4.1c-0.3,0.1,1.7-4,1.7-4l2.4-1.5l2.8,1.9
				l0.3,2.7l-3.1-0.5l2.1,1.5l-1.5,0.5l2.1,1.9l-1.5,0.4c0,0,1.9,1.5,1.5,1.6c-0.4,0.1-1.9,0.5-1.7,0.8c0.1,0.3,0.7,2.3,0.7,2.3
				h-1.6l2.5,2.3l-1.2,1.1c0,0,0.4,1.7-0.1,1.9c-0.5,0.1,0.3,0.5,0.5,1.2c0.4,0.7,0,2-0.3,2.3c-0.1,0.3,0.8,0.9,1.2,0.1
				c0.4-0.8-1.1,0,2.5-5.5c3.6-5.5,8.3-9.7,8.3-9.7s4.5-0.5,4-0.4c-0.5,0.1-0.3,1.7-0.8,2c-0.4,0.3-3.2,3.2-2.5,2.9
				c0.7-0.1,3.1-1.3,1.9-0.7c-1.1,0.8-4.1,2.9-3.9,2.9c0.4,0,2.9-0.5,2.5-0.1c-0.4,0.3-2.7,2.8-2.7,2.8l0.5,0.3c0,0-3.5,2.1-3.2,2
				c0.3,0,1.6-0.1,1.6-0.1l-2.4,2.9l0.9,0.3l-2.1,2.4c0,0,1.1-0.1,0.4,0.5c-0.7,0.7-1.7,2-1.7,2l0.8,1.2c0,0,8.5-6.5,12.7-8.1
				s8.3-2.1,12.1-0.1c3.9,2,4.5,2.5,4.5,2.5l-8.5-0.8l2.3,1.5l-4-0.7c0,0,1.6,1.6,0.9,1.6c-0.5,0-2.9-0.5-2.9-0.5s0.5,1.3-0.1,1.3
				c-0.7,0-3.5-1.1-3.5-1.1l1.2,1.7l-4-0.3l0.3,1.6c0,0-2.7-0.4-2.5-0.1s1.3,1.3,0.8,1.5c-0.5,0.1-2.7,0-2.7,0l0.4,0.9h-2l0.4,1.2
				l-2.8-0.3l0.7,1.5c0,0,6.4-2.1,10.7-1.6c4.3,0.5,9.7,2.1,9.7,2.1s2.8,1.7,3.2,2.3c0.4,0.4,1.7,1.9,1.7,1.9l-3.3-0.8v0.9l-4.4-1.2
				c0,0,2.3,1.5,1.6,1.5s-8.3-2.3-8.3-2.3l2,1.3l-4.7-0.5l0.5,1.2l-3.2-0.4c0,0,10-0.1,12.1,1.7c2.1,1.9,5.5,3.7,5.5,3.7l1.3,1.5
				l-3.1-0.4l-0.3,0.9l-3.3-2.5c0,0,0.4,1.9,0.4,2.1c-0.1,0.3-3.6-1.6-3.6-1.6l0.4,0.9l-5.2-3.2c0,0,0.1,2,0.3,2.3
				c0.1,0.3-1.5-0.8-1.9-0.8c-0.5,0,0.5,2.1-0.8,1.2c-1.3-0.9-4.5-2.4-4.5-2.4v1.1l-4.9,0.3c0,0,7.9,4,10.7,5.9
				c2.8,1.9,7.2,5.3,7.5,5.9c0.3,0.5,2,2.7,2.5,3.5c0.5,0.8,4,6.8,4,6.8l0.8,1.7l-4.8-2.5l-0.7,1.7l-2.4-5.3l-1.6,3.1l-2.4-4.7
				l-1.2,1.1l-0.7-4.8c0,0-0.9,0.9-1.1,0.1c-0.1-0.9-2.7-2.8-2.7-2.8s-1.2,0.1-1.7,0.3c-0.5,0-2.7-1.1-2.7-1.1l-2.9,0.5
				c0,0,7.3,1.2,8.5,3.2c1.3,2,0.4,5.5,0.4,5.5s-5.2-4.4-5.1-3.3c0.1,1.1,0.3,1.9,0.3,1.9l-2.5-1.7l-1.5-0.4l-2.7-2.1
				c0,0,2.7,2.8,3.6,7.2s1.3,9.5,1.2,9.9s-1.5,4.4-1.5,4.4l0.5-7.3c0,0-1.7,4.7-1.9,4.4c-0.1-0.3,0.4-6.5,0.1-6.5
				c-0.3,0-1.1,1.9-1.1,1.9l-0.7-6.9c0,0-2,4.9-1.9,4.4s-0.4-4.8-0.4-4.8s-1.2,2.7-1.6,1.6c-0.4-1.1-1.2-5.2-1.2-5.2l-0.8,1.9
				l-0.3-5.2l-2.4,2.7c0,0-0.9,18.4-0.9,23.2c0,4.9,0.5,49.7,0.8,62.4c0.3,12.5,1.3,9.6,1.9,17.9
				C811.5,597.7,814.1,608.5,814.1,608.5z"/>
		</g>
		<g>
			<circle fill="#FFFFFF" cx="224.1" cy="487.9" r="0.8"/>
			<circle fill="#FFFFFF" cx="222.1" cy="502.4" r="1.6"/>
			<circle fill="#FFFFFF" cx="243.6" cy="486.5" r="0.1"/>
			<circle fill="#FFFFFF" cx="248.5" cy="510.5" r="2.8"/>
			<circle fill="#FFFFFF" cx="226.1" cy="536.8" r="2.1"/>
			<circle fill="#FFFFFF" cx="270.7" cy="494.9" r="2.1"/>
			<circle fill="#FFFFFF" cx="272.9" cy="512.1" r="2.4"/>
			<circle fill="#FFFFFF" cx="275.6" cy="544.1" r="1.6"/>
			<circle fill="#FFFFFF" cx="293.6" cy="475.2" r="1.1"/>
			<circle fill="#FFFFFF" cx="213.2" cy="464.5" r="1.5"/>
			<circle fill="#FFFFFF" cx="353.2" cy="521.1" r="0.8"/>
			<circle fill="#FFFFFF" cx="363.9" cy="530.9" r="1.6"/>
			<circle fill="#FFFFFF" cx="327.7" cy="516.8" r="1.5"/>
			<circle fill="#FFFFFF" cx="171.1" cy="476.3" r="0.8"/>
			<circle fill="#FFFFFF" cx="187.3" cy="512.1" r="4.1"/>
			<circle fill="#FFFFFF" cx="259.2" cy="462.1" r="2.7"/>
		</g>
		<g>
			<circle fill="#FFFFFF" cx="779.5" cy="521.9" r="0.8"/>
			<circle fill="#FFFFFF" cx="776" cy="507.6" r="1.6"/>
			<circle fill="#FFFFFF" cx="761.9" cy="530.3" r="0.1"/>
			<circle fill="#FFFFFF" cx="748.5" cy="509.6" r="2.8"/>
			<circle fill="#FFFFFF" cx="759.7" cy="477.1" r="2.1"/>
			<circle fill="#FFFFFF" cx="733.6" cy="532.4" r="2.1"/>
			<circle fill="#FFFFFF" cx="725.2" cy="517.2" r="2.4"/>
			<circle fill="#FFFFFF" cx="710.9" cy="488.4" r="1.6"/>
			<circle fill="#FFFFFF" cx="719.6" cy="559.2" r="1.1"/>
			<circle fill="#FFFFFF" cx="798.1" cy="539.6" r="1.5"/>
			<circle fill="#FFFFFF" cx="647.3" cy="538.3" r="0.8"/>
			<circle fill="#FFFFFF" cx="633.6" cy="533.1" r="1.6"/>
			<circle fill="#FFFFFF" cx="672.5" cy="532.9" r="1.5"/>
			<circle fill="#FFFFFF" cx="833.1" cy="513.2" r="0.8"/>
			<circle fill="#FFFFFF" cx="812.1" cy="413.6" r="4.1"/>
			<circle fill="#FFFFFF" cx="756.3" cy="558.7" r="2.7"/>
		</g>
	</g>
	<g>
		<g>
			
				<linearGradient id="SVGID_66_" gradientUnits="userSpaceOnUse" x1="263.5014" y1="510.0849" x2="272.1637" y2="510.0849" gradientTransform="matrix(1.2121 0 0 1.2121 -15.0303 -73.2243)">
				<stop  offset="0" style="stop-color:#ACB8F3"/>
				<stop  offset="1" style="stop-color:#E8E5F6"/>
			</linearGradient>
			<rect x="304.3" y="540.5" fill="url(#SVGID_66_)" width="10.5" height="9.1"/>
			<rect x="304.3" y="540.5" opacity="0.55" fill="#4E4575" enable-background="new    " width="3.9" height="9.1"/>
			<rect x="304.3" y="540.5" fill="#2C343A" width="10.5" height="2.7"/>
			
				<linearGradient id="SVGID_67_" gradientUnits="userSpaceOnUse" x1="274.2928" y1="511.8449" x2="282.1027" y2="511.8449" gradientTransform="matrix(1.2121 0 0 1.2121 -15.0303 -73.2243)">
				<stop  offset="0" style="stop-color:#ACB8F3"/>
				<stop  offset="1" style="stop-color:#E8E5F6"/>
			</linearGradient>
			<rect x="317.5" y="542.7" fill="url(#SVGID_67_)" width="9.5" height="9.1"/>
			<rect x="317.5" y="542.7" opacity="0.55" fill="#4E4575" enable-background="new    " width="3.6" height="9.1"/>
			<rect x="317.5" y="542.7" fill="#2C343A" width="9.5" height="2.3"/>
			
				<linearGradient id="SVGID_68_" gradientUnits="userSpaceOnUse" x1="242.5223" y1="511.2949" x2="246.4823" y2="511.2949" gradientTransform="matrix(1.2121 0 0 1.2121 -15.0303 -73.2243)">
				<stop  offset="0" style="stop-color:#9A2D47"/>
				<stop  offset="1" style="stop-color:#CE3D4B"/>
			</linearGradient>
			<rect x="278.9" y="536.5" fill="url(#SVGID_68_)" width="4.8" height="20"/>
			
				<linearGradient id="SVGID_69_" gradientUnits="userSpaceOnUse" x1="250.8815" y1="511.2949" x2="254.8415" y2="511.2949" gradientTransform="matrix(1.2121 0 0 1.2121 -15.0303 -73.2243)">
				<stop  offset="0" style="stop-color:#9A2D47"/>
				<stop  offset="1" style="stop-color:#CE3D4B"/>
			</linearGradient>
			<rect x="289.1" y="536.5" fill="url(#SVGID_69_)" width="4.8" height="20"/>
			<rect x="278.9" y="536.5" fill="#2C343A" width="4.8" height="4.5"/>
			<rect x="289.1" y="536.5" fill="#2C343A" width="4.8" height="4.5"/>
			<g>
				
					<linearGradient id="SVGID_70_" gradientUnits="userSpaceOnUse" x1="296.2678" y1="516.7491" x2="232.6584" y2="526.434" gradientTransform="matrix(1.2121 0 0 1.2121 -15.0303 -73.2243)">
					<stop  offset="0" style="stop-color:#E8E5F6"/>
					<stop  offset="1" style="stop-color:#ACB8F3"/>
				</linearGradient>
				<path fill="url(#SVGID_70_)" d="M267.9,559.7v-6.9h18.5v-6.3h49.9l21.9,19.9l-44,4.5c-1.7,0.1-3.2,0.1-4.9,0l-17.6-2.3
					c-0.9-0.1-1.9-0.1-2.7-0.1h-21.3v-8.8L267.9,559.7L267.9,559.7z"/>
				
					<linearGradient id="SVGID_71_" gradientUnits="userSpaceOnUse" x1="295.9479" y1="512.4966" x2="232.1444" y2="522.211" gradientTransform="matrix(1.2121 0 0 1.2121 -15.0303 -73.2243)">
					<stop  offset="0.1123" style="stop-color:#6975BA"/>
					<stop  offset="1" style="stop-color:#6975BA"/>
				</linearGradient>
				<polygon opacity="0.75" fill="url(#SVGID_71_)" enable-background="new    " points="286.4,552 286.4,552.9 343.1,552.8 
					342.3,552 				"/>
				<g>
					
						<linearGradient id="SVGID_72_" gradientUnits="userSpaceOnUse" x1="294.5362" y1="514.6251" x2="232.4393" y2="524.0797" gradientTransform="matrix(1.2121 0 0 1.2121 -15.0303 -73.2243)">
						<stop  offset="0" style="stop-color:#E8E5F6"/>
						<stop  offset="1" style="stop-color:#ACB8F3"/>
					</linearGradient>
					<polygon fill="url(#SVGID_72_)" points="270.8,564.1 268.3,559.6 266.5,559.3 268.9,564.1 					"/>
					
						<linearGradient id="SVGID_73_" gradientUnits="userSpaceOnUse" x1="235.8076" y1="523.8348" x2="301.9663" y2="523.8348" gradientTransform="matrix(1.2121 0 0 1.2121 -15.0303 -73.2243)">
						<stop  offset="0.1123" style="stop-color:#6975BA"/>
						<stop  offset="1" style="stop-color:#6975BA"/>
					</linearGradient>
					<polygon opacity="0.75" fill="url(#SVGID_73_)" enable-background="new    " points="348.1,557.2 336.3,557.2 329.9,564.8 
						270.8,564.1 272.1,566.3 332.4,566.3 336.4,561.6 337.9,559.7 350.8,559.7 					"/>
				</g>
				
					<linearGradient id="SVGID_74_" gradientUnits="userSpaceOnUse" x1="272.4922" y1="522.631" x2="272.4922" y2="536.4811" gradientTransform="matrix(1.2121 0 0 1.2121 -15.0303 -73.2243)">
					<stop  offset="0" style="stop-color:#E8E5F6"/>
					<stop  offset="1" style="stop-color:#ACB8F3"/>
				</linearGradient>
				<polygon fill="url(#SVGID_74_)" points="337.9,559.7 332.4,566.3 272.1,566.3 268.3,559.6 253.5,558.3 260.8,582.5 363.1,582.5 
					377.1,559.7 				"/>
				<polygon opacity="0.55" fill="#4E4575" enable-background="new    " points="258.8,575.7 260.8,582.5 363.1,582.5 367.2,575.7 
									"/>
				<polygon fill="#2C343A" points="371.5,568.5 343.1,568.5 343.1,565.6 373.5,565.6 				"/>
				<polygon fill="#2C343A" points="368.1,574.4 343.1,574.4 343.1,571.5 370,571.5 				"/>
			</g>
			<g>
				<ellipse fill="#2C343A" cx="266.7" cy="569.9" rx="1.1" ry="1.2"/>
				<ellipse fill="#2C343A" cx="273.1" cy="569.9" rx="1.1" ry="1.2"/>
				<ellipse fill="#2C343A" cx="279.6" cy="569.9" rx="1.1" ry="1.2"/>
				<ellipse fill="#2C343A" cx="286" cy="569.9" rx="1.1" ry="1.2"/>
				<ellipse fill="#2C343A" cx="292.5" cy="569.9" rx="1.1" ry="1.2"/>
				<ellipse fill="#2C343A" cx="298.9" cy="569.9" rx="1.1" ry="1.2"/>
				<ellipse fill="#2C343A" cx="305.3" cy="569.9" rx="1.1" ry="1.2"/>
				<ellipse fill="#2C343A" cx="311.9" cy="569.9" rx="1.1" ry="1.2"/>
				<ellipse fill="#2C343A" cx="318.9" cy="569.9" rx="1.1" ry="1.2"/>
				<ellipse fill="#2C343A" cx="325.5" cy="569.9" rx="1.1" ry="1.2"/>
				<ellipse fill="#2C343A" cx="331.9" cy="569.9" rx="1.1" ry="1.2"/>
				<ellipse fill="#2C343A" cx="266.7" cy="574.4" rx="1.1" ry="1.2"/>
				<ellipse fill="#2C343A" cx="273.1" cy="574.4" rx="1.1" ry="1.2"/>
				<ellipse fill="#2C343A" cx="279.6" cy="574.4" rx="1.1" ry="1.2"/>
				<ellipse fill="#2C343A" cx="286" cy="574.4" rx="1.1" ry="1.2"/>
				<ellipse fill="#2C343A" cx="292.5" cy="574.4" rx="1.1" ry="1.2"/>
				<ellipse fill="#2C343A" cx="298.9" cy="574.4" rx="1.1" ry="1.2"/>
				<ellipse fill="#2C343A" cx="305.3" cy="574.4" rx="1.1" ry="1.2"/>
				<ellipse fill="#2C343A" cx="311.9" cy="574.4" rx="1.1" ry="1.2"/>
				<ellipse fill="#2C343A" cx="318.9" cy="574.4" rx="1.1" ry="1.2"/>
				<ellipse fill="#2C343A" cx="325.5" cy="574.4" rx="1.1" ry="1.2"/>
				<ellipse fill="#2C343A" cx="331.9" cy="574.4" rx="1.1" ry="1.2"/>
				<ellipse fill="#2C343A" cx="266.7" cy="578.9" rx="1.1" ry="1.2"/>
				<ellipse fill="#2C343A" cx="273.1" cy="578.9" rx="1.1" ry="1.2"/>
				<ellipse fill="#2C343A" cx="279.6" cy="578.9" rx="1.1" ry="1.2"/>
				<ellipse fill="#2C343A" cx="286" cy="578.9" rx="1.1" ry="1.2"/>
				<ellipse fill="#2C343A" cx="292.5" cy="578.9" rx="1.1" ry="1.2"/>
				<ellipse fill="#2C343A" cx="298.9" cy="578.9" rx="1.1" ry="1.2"/>
				<ellipse fill="#2C343A" cx="305.3" cy="578.9" rx="1.1" ry="1.2"/>
				<ellipse fill="#2C343A" cx="311.9" cy="578.9" rx="1.1" ry="1.2"/>
				<ellipse fill="#2C343A" cx="318.9" cy="578.9" rx="1.1" ry="1.2"/>
				<ellipse fill="#2C343A" cx="325.5" cy="578.9" rx="1.1" ry="1.2"/>
				<ellipse fill="#2C343A" cx="331.9" cy="578.9" rx="1.1" ry="1.2"/>
			</g>
			<g>
				<rect x="310.8" y="548.8" fill="#4E4575" width="2.1" height="2.8"/>
				<rect x="307.6" y="548.8" fill="#4E4575" width="2.1" height="2.8"/>
				<rect x="288.3" y="548.8" fill="#4E4575" width="2" height="2.8"/>
				<rect x="304.4" y="548.8" fill="#4E4575" width="2.1" height="2.8"/>
				<rect x="298" y="548.8" fill="#4E4575" width="2.1" height="2.8"/>
				<rect x="301.2" y="548.8" fill="#4E4575" width="2.1" height="2.8"/>
				<rect x="317.3" y="548.8" fill="#4E4575" width="2.1" height="2.8"/>
				<polygon fill="#4E4575" points="338.3,551.5 335.2,548.8 333.5,548.8 333.5,551.5 				"/>
				<rect x="320.5" y="548.8" fill="#4E4575" width="2.1" height="2.8"/>
				<rect x="330.3" y="548.8" fill="#4E4575" width="2.1" height="2.8"/>
				<rect x="327.1" y="548.8" fill="#4E4575" width="2.1" height="2.8"/>
				<rect x="323.7" y="548.8" fill="#4E4575" width="2.1" height="2.8"/>
				<rect x="314" y="548.8" fill="#4E4575" width="2.1" height="2.8"/>
				<rect x="294.7" y="548.8" fill="#4E4575" width="2.1" height="2.8"/>
				<rect x="291.5" y="548.8" fill="#4E4575" width="2.1" height="2.8"/>
			</g>
			<rect x="272.1" y="555.7" fill="#4E4575" width="7.5" height="4.7"/>
			<rect x="282.3" y="555.7" fill="#4E4575" width="7.5" height="4.7"/>
			<rect x="292.5" y="555.7" fill="#4E4575" width="7.5" height="4.7"/>
			<rect x="302.7" y="555.7" fill="#4E4575" width="7.5" height="4.7"/>
			<rect x="312.9" y="555.7" fill="#4E4575" width="7.5" height="4.7"/>
			<rect x="322.9" y="555.7" fill="#4E4575" width="7.5" height="4.7"/>
		</g>
		<defs>
			<filter id="Adobe_OpacityMaskFilter" filterUnits="userSpaceOnUse" x="307.2" y="545.7" width="30.9" height="34.9">
				<feColorMatrix  type="matrix" values="1 0 0 0 0  0 1 0 0 0  0 0 1 0 0  0 0 0 1 0"/>
			</filter>
		</defs>
		<mask maskUnits="userSpaceOnUse" x="307.2" y="545.7" width="30.9" height="34.9" id="SVGID_2_">
			<g filter="url(#Adobe_OpacityMaskFilter)">
				
					<radialGradient id="SVGID_75_" cx="272.6992" cy="528.0003" r="11.9054" gradientTransform="matrix(1.2963 0 0 1.4709 -30.8915 -213.3392)" gradientUnits="userSpaceOnUse">
					<stop  offset="0" style="stop-color:#FFFFFF"/>
					<stop  offset="1" style="stop-color:#000000"/>
				</radialGradient>
				<ellipse fill="url(#SVGID_75_)" cx="322.7" cy="563.2" rx="15.5" ry="17.5"/>
			</g>
		</mask>
		
			<radialGradient id="SVGID_76_" cx="272.6992" cy="528.0003" r="11.9054" gradientTransform="matrix(1.2963 0 0 1.4709 -30.8915 -213.3392)" gradientUnits="userSpaceOnUse">
			<stop  offset="0" style="stop-color:#E8E5F6"/>
			<stop  offset="1" style="stop-color:#ACB8F3"/>
		</radialGradient>
		<ellipse mask="url(#SVGID_2_)" fill="url(#SVGID_76_)" cx="322.7" cy="563.2" rx="15.5" ry="17.5"/>
		<defs>
			<filter id="Adobe_OpacityMaskFilter_1_" filterUnits="userSpaceOnUse" x="280.5" y="550.9" width="20.8" height="23.5">
				<feColorMatrix  type="matrix" values="1 0 0 0 0  0 1 0 0 0  0 0 1 0 0  0 0 0 1 0"/>
			</filter>
		</defs>
		<mask maskUnits="userSpaceOnUse" x="280.5" y="550.9" width="20.8" height="23.5" id="SVGID_1_">
			<g filter="url(#Adobe_OpacityMaskFilter_1_)">
				
					<radialGradient id="SVGID_77_" cx="248.2992" cy="527.5602" r="7.9974" gradientTransform="matrix(1.2963 0 0 1.4709 -30.8915 -213.3392)" gradientUnits="userSpaceOnUse">
					<stop  offset="0" style="stop-color:#FFFFFF"/>
					<stop  offset="1" style="stop-color:#000000"/>
				</radialGradient>
				<ellipse fill="url(#SVGID_77_)" cx="290.9" cy="562.7" rx="10.4" ry="11.7"/>
			</g>
		</mask>
		
			<radialGradient id="SVGID_78_" cx="248.2992" cy="527.5602" r="7.9974" gradientTransform="matrix(1.2963 0 0 1.4709 -30.8915 -213.3392)" gradientUnits="userSpaceOnUse">
			<stop  offset="0" style="stop-color:#E8E5F6"/>
			<stop  offset="1" style="stop-color:#ACB8F3"/>
		</radialGradient>
		<ellipse mask="url(#SVGID_1_)" fill="url(#SVGID_78_)" cx="290.9" cy="562.7" rx="10.4" ry="11.7"/>
	</g>
	<g>
		<path fill="#182B71" d="M653.5,611.9l7.2,0.5c0,0,0-42.5-0.7-56.7c-0.7-14.1-6.4-62-6.9-64.1c-0.5-2.1,0.1-3.5,0.1-3.5l1.9,2.3
			l-0.4,4l1.7-3.1l-0.1,4.3l1.9-2.5l-0.7,4l2.5-2.1l-0.4,4.1l2.3-2.1l0.1,3.9c0,0,1.9-2.3,1.9-1.7s-0.4,4.3-0.4,4.3s2.3-2.3,2.3-1.9
			c0,0.4,0.1,3.7,0.1,3.7s1.9-4.9,2-3.5c0.1,1.5,1.1,6.9,1.1,6.9s-0.3-6-0.9-8.4c-0.7-2.3-4.4-8.5-4.4-8.5l-2.3-3.5l-1.7-3.5
			c0,0-1.7-1.7-1.5-1.6c0.3,0.1,3.3,2.5,3.3,2.5l-2.4-5.6l7.6,10.9l-4.5-10.3l2.1,5.2l1.3-2l-0.1,2.7l1.6-0.9l0.1,3.3l1.1-1.9
			l0.7,2.7l2.1-3.1l0.1,4.8l2.4-4.3c0,0-0.5,4-0.5,4.5c-0.1,0.5,2.5-4,2.5-4s0.1,4.3,0.1,4.8c0,0.7,2.4-2.9,2.4-2.9l0.4,3.5l2.3-2.9
			l2.5,2.8c0,0-0.7-2.4-6.7-6.9s-9.3-7.2-12.1-8.8c-2.8-1.6-3.2-2.3-3.2-2.3s1.7-1.2,2.9-1.2c1.3,0,1.1-1.9,1.1-1.9l2.4,2.3
			l-0.5-1.7l1.3,1.2v-2l1.9,2.1l0.5-1.5l2.7,2.8l-0.3-2.3l3.5,2.8l-0.1-2.1l2.7,2.5l-0.3-2l3.1,1.7c0,0-1.3-4.1-6.8-5.2
			c-5.5-1.1-10,0.1-10,0.1V470l2.1-1.1l-0.7-1.5c0,0,3.1,0.3,2.9,0.1c-0.3-0.1-3.5-2.7-3.1-2.5c0.3,0.1,7.5,0.5,7.2,0.5
			c-0.3,0-3.5-1.5-2.7-1.3c0.9,0.3,6.1,1.3,5.9,1.2c-0.3-0.1-2.9-1.5-1.9-1.2c1.1,0.3,5.7,1.2,4.8,0.7c-0.9-0.5-4.8-1.5-2-1.1
			c2.9,0.3,3.3,0.7,2.9,0.3c-0.5-0.4-2-1.1-0.7-0.7c1.3,0.3,2.9,0.1,2.5,0.1c-0.5-0.1,1.7-0.3,1.7-0.3s-3.3-1.7-4.9-1.7
			c-1.7,0-5.6,0.3-6.4,0.5c-0.7,0.3-5.5,2-7.7,3.7s-3.5,1.7-3.5,1.7l-0.8-0.9l1.5-3.7l-1.5-0.5l2.8-1.1l-1.5-0.7
			c0,0,3.7-1.2,3.1-1.3c-0.5-0.1-3.6-1.1-3.2-1.1c0.4,0.1,2.9-1.2,2.9-1.2s-2.5-0.7-2.1-0.7c0.5,0.1,3.6-1.1,3.6-1.1l-2.8-1.7
			l2.3-0.7c0,0-1.3-1.3-0.5-1.2c0.8,0.1,4-0.3,4-0.3s-2.3-1.3-1.9-1.2c0.4,0.1,2.3-1.1,2.3-1.1s-3.3-0.8-4.3-0.3
			c-1.1,0.5-5.2,0.9-6.5,3.7c-1.3,2.8-3.6,6-3.9,7.3c-0.3,1.3-1.5,1.9-1.5,1.9s-0.4-1.3-0.4-1.5c0-0.3-0.1-2.7-0.1-2.7
			s-0.4-1.9-0.3-2.1c0.1-0.3-0.5-2.1-0.5-2.1s-1.6-3.3-1.3-3.3c0.3,0.1-1.6-3.2-1.6-3.2l-2.1-1.1l-2.3,1.7l-0.1,2.1l2.5-0.5
			l-1.7,1.3l1.2,0.3l-1.6,1.7l1.2,0.3c0,0-1.5,1.3-1.1,1.3c0.3,0.1,1.6,0.3,1.5,0.5c-0.1,0.3-0.4,1.9-0.4,1.9l1.3-0.1l-1.9,2
			l1.1,0.8c0,0-0.3,1.5,0.1,1.5c0.4,0.1-0.1,0.5-0.4,1.1c-0.3,0.5,0.1,1.6,0.3,1.9s-0.7,0.8-0.9,0.1c-0.3-0.7,0.9-0.1-2.4-4.4
			c-3.3-4.3-7.3-7.5-7.3-7.5s-3.7-0.3-3.3-0.1c0.5,0.1,0.3,1.3,0.7,1.6c0.4,0.3,2.8,2.4,2.3,2.3c-0.5-0.1-2.5-0.9-1.6-0.4
			c0.9,0.5,3.6,2.1,3.3,2.1c-0.3,0-2.5-0.3-2.1,0s2.3,2.1,2.3,2.1l-0.4,0.3c0,0,2.9,1.5,2.7,1.5c-0.3,0-1.3,0-1.3,0l2.1,2.3
			l-0.8,0.3l1.9,1.9c0,0-0.9,0-0.3,0.5c0.5,0.5,1.5,1.5,1.5,1.5l-0.7,1.1c0,0-7.3-4.8-10.8-6c-3.5-1.1-6.8-1.3-9.9,0.5
			s-3.6,2.3-3.6,2.3l6.9-1.1l-1.7,1.3l3.2-0.8c0,0-1.2,1.3-0.7,1.3s2.4-0.7,2.4-0.7s-0.4,1.1,0.1,1.1s2.8-1.1,2.8-1.1l-0.9,1.5
			l3.3-0.4l-0.1,1.3c0,0,2.1-0.5,2.1-0.3c-0.1,0.3-1.1,1.2-0.5,1.3c0.5,0.1,2.3-0.1,2.3-0.1l-0.3,0.8l1.6-0.1l-0.3,0.9l2.3-0.3
			l-0.5,1.2c0,0-5.3-1.3-8.8-0.7s-7.9,2.3-7.9,2.3s-2.1,1.6-2.5,2c-0.3,0.4-1.3,1.6-1.3,1.6l2.7-0.9v0.8l3.5-1.2
			c0,0-1.7,1.3-1.2,1.3s6.7-2.3,6.7-2.3l-1.5,1.2l3.9-0.7l-0.3,1.1l2.5-0.5c0,0-8.3,0.4-9.9,2.1c-1.6,1.7-4.3,3.3-4.3,3.3l-1.1,1.3
			l2.5-0.5l0.3,0.8l2.7-2.3c0,0-0.3,1.5-0.1,1.7c0.1,0.3,2.9-1.5,2.9-1.5l-0.3,0.8l4-2.9c0,0,0,1.7-0.1,1.9
			c-0.1,0.3,1.1-0.7,1.5-0.8c0.4-0.1-0.3,1.7,0.7,0.9c1.1-0.8,3.6-2.3,3.6-2.3l0.1,0.9h4c0,0-6.3,3.7-8.4,5.3
			c-2.3,1.7-5.6,4.7-5.7,5.2c-0.1,0.5-1.5,2.3-1.9,2.9c-0.4,0.7-2.9,5.9-2.9,5.9l-0.5,1.5l3.9-2.3l0.7,1.5l1.7-4.5l1.5,2.5l1.7-4
			l1.1,0.8l0.3-4c0,0,0.8,0.7,0.9,0s2.1-2.5,2.1-2.5s1.1,0.1,1.5,0.1c0.4,0,2.1-1.1,2.1-1.1l2.4,0.3c0,0-5.9,1.3-6.8,3.1
			s-0.1,4.5-0.1,4.5s4-3.9,4-3.1s-0.1,1.5-0.1,1.5l2-1.5l1.2-0.4l2.1-1.9c0,0-2,2.4-2.5,6c-0.5,3.7-0.5,7.9-0.5,8.1s1.5,3.5,1.5,3.5
			l-0.8-6c0,0,1.7,3.7,1.7,3.5c0.1-0.3-0.7-5.3-0.5-5.3c0.3,0,0.9,1.5,0.9,1.5l0.1-5.7c0,0,1.9,3.9,1.7,3.5s0.1-4,0.1-4
			s1.1,2.1,1.3,1.3c0.3-0.9,0.7-4.3,0.7-4.3l0.8,1.5l-0.1-4.3l2.1,2c0,0,1.7,14.9,2,18.9s2.3,40.8,2.8,51.1s-0.9,29.1-0.9,35.9
			C655.1,602.8,653.5,611.9,653.5,611.9z"/>
		
			<linearGradient id="SVGID_79_" gradientUnits="userSpaceOnUse" x1="488.6501" y1="817.1818" x2="488.6501" y2="735.2387" gradientTransform="matrix(1.3333 0 0 -1.3333 0 1500.0001)">
			<stop  offset="0" style="stop-color:#FFFFFF"/>
			<stop  offset="0.9987" style="stop-color:#FFFFFF;stop-opacity:0"/>
		</linearGradient>
		<path fill="url(#SVGID_79_)" d="M653.5,611.9l7.2,0.5c0-37.1,0.3-37.1-0.7-56.7c-0.7-14.1-6.4-62-6.9-64.1
			c-0.5-2.1,0.1-3.5,0.1-3.5l1.9,2.3l-0.4,4l1.7-3.1l-0.1,4.3l1.9-2.5l-0.7,4l2.5-2.1l-0.4,4.1l2.3-2.1l0.1,3.9c0,0,1.9-2.3,1.9-1.7
			s-0.4,4.3-0.4,4.3s2.3-2.3,2.3-1.9c0,0.4,0.1,3.7,0.1,3.7s1.9-4.9,2-3.5c0.1,1.5,1.1,6.9,1.1,6.9s-0.3-6-0.9-8.4
			c-0.7-2.3-4.4-8.5-4.4-8.5l-2.3-3.5l-1.7-3.5c0,0-1.7-1.7-1.5-1.6c0.3,0.1,3.3,2.5,3.3,2.5l-2.4-5.6l7.6,10.9l-4.5-10.3l2.1,5.2
			l1.3-2l-0.1,2.7l1.6-0.9l0.1,3.3l1.1-1.9l0.7,2.7l2.1-3.1l0.1,4.8l2.4-4.3c0,0-0.5,4-0.5,4.5c-0.1,0.5,2.5-4,2.5-4
			s0.1,4.3,0.1,4.8c0,0.7,2.4-2.9,2.4-2.9l0.4,3.5l2.3-2.9l2.5,2.8c0,0-0.7-2.4-6.7-6.9s-9.3-7.2-12.1-8.8c-2.8-1.6-3.2-2.3-3.2-2.3
			s1.7-1.2,2.9-1.2c1.3,0,1.1-1.9,1.1-1.9l2.4,2.3l-0.5-1.7l1.3,1.2v-2l1.9,2.1l0.5-1.5l2.7,2.8l-0.3-2.3l3.5,2.8l-0.1-2.1l2.7,2.5
			l-0.3-2l3.1,1.7c0,0-1.3-4.1-6.8-5.2c-5.5-1.1-10,0.1-10,0.1V470l2.1-1.1l-0.7-1.5c0,0,3.1,0.3,2.9,0.1c-0.3-0.1-3.5-2.7-3.1-2.5
			c0.3,0.1,7.5,0.5,7.2,0.5c-0.3,0-3.5-1.5-2.7-1.3c0.9,0.3,6.1,1.3,5.9,1.2c-0.3-0.1-2.9-1.5-1.9-1.2c1.1,0.3,5.7,1.2,4.8,0.7
			c-0.9-0.5-4.8-1.5-2-1.1c2.9,0.3,3.3,0.7,2.9,0.3c-0.5-0.4-2-1.1-0.7-0.7c1.3,0.3,2.9,0.1,2.5,0.1c-0.5-0.1,1.7-0.3,1.7-0.3
			s-3.3-1.7-4.9-1.7c-1.7,0-5.6,0.3-6.4,0.5c-0.7,0.3-5.5,2-7.7,3.7s-3.5,1.7-3.5,1.7l-0.8-0.9l1.5-3.7l-1.5-0.5l2.8-1.1l-1.5-0.7
			c0,0,3.7-1.2,3.1-1.3c-0.5-0.1-3.6-1.1-3.2-1.1c0.4,0.1,2.9-1.2,2.9-1.2s-2.5-0.7-2.1-0.7c0.5,0.1,3.6-1.1,3.6-1.1l-2.8-1.7
			l2.3-0.7c0,0-1.3-1.3-0.5-1.2c0.8,0.1,4-0.3,4-0.3s-2.3-1.3-1.9-1.2c0.4,0.1,2.3-1.1,2.3-1.1s-3.3-0.8-4.3-0.3
			c-1.1,0.5-5.2,0.9-6.5,3.7c-1.3,2.8-3.6,6-3.9,7.3c-0.3,1.3-1.5,1.9-1.5,1.9s-0.4-1.3-0.4-1.5c0-0.3-0.1-2.7-0.1-2.7
			s-0.4-1.9-0.3-2.1c0.1-0.3-0.5-2.1-0.5-2.1s-1.6-3.3-1.3-3.3c0.3,0.1-1.6-3.2-1.6-3.2l-2.1-1.1l-2.3,1.7l-0.1,2.1l2.5-0.5
			l-1.7,1.3l1.2,0.3l-1.6,1.7l1.2,0.3c0,0-1.5,1.3-1.1,1.3c0.3,0.1,1.6,0.3,1.5,0.5c-0.1,0.3-0.4,1.9-0.4,1.9l1.3-0.1l-1.9,2
			l1.1,0.8c0,0-0.3,1.5,0.1,1.5c0.4,0.1-0.1,0.5-0.4,1.1c-0.3,0.5,0.1,1.6,0.3,1.9s-0.7,0.8-0.9,0.1c-0.3-0.7,0.9-0.1-2.4-4.4
			c-3.3-4.3-7.3-7.5-7.3-7.5s-3.7-0.3-3.3-0.1c0.5,0.1,0.3,1.3,0.7,1.6c0.4,0.3,2.8,2.4,2.3,2.3c-0.5-0.1-2.5-0.9-1.6-0.4
			c0.9,0.5,3.6,2.1,3.3,2.1c-0.3,0-2.5-0.3-2.1,0s2.3,2.1,2.3,2.1l-0.4,0.3c0,0,2.9,1.5,2.7,1.5c-0.3,0-1.3,0-1.3,0l2.1,2.3
			l-0.8,0.3l1.9,1.9c0,0-0.9,0-0.3,0.5c0.5,0.5,1.5,1.5,1.5,1.5l-0.7,1.1c0,0-7.3-4.8-10.8-6c-3.5-1.1-6.8-1.3-9.9,0.5
			s-3.6,2.3-3.6,2.3l6.9-1.1l-1.7,1.3l3.2-0.8c0,0-1.2,1.3-0.7,1.3s2.4-0.7,2.4-0.7s-0.4,1.1,0.1,1.1s2.8-1.1,2.8-1.1l-0.9,1.5
			l3.3-0.4l-0.1,1.3c0,0,2.1-0.5,2.1-0.3c-0.1,0.3-1.1,1.2-0.5,1.3c0.5,0.1,2.3-0.1,2.3-0.1l-0.3,0.8l1.6-0.1l-0.3,0.9l2.3-0.3
			l-0.5,1.2c0,0-5.3-1.3-8.8-0.7s-7.9,2.3-7.9,2.3s-2.1,1.6-2.5,2c-0.3,0.4-1.3,1.6-1.3,1.6l2.7-0.9v0.8l3.5-1.2
			c0,0-1.7,1.3-1.2,1.3s6.7-2.3,6.7-2.3l-1.5,1.2l3.9-0.7l-0.3,1.1l2.5-0.5c0,0-8.3,0.4-9.9,2.1c-1.6,1.7-4.3,3.3-4.3,3.3l-1.1,1.3
			l2.5-0.5l0.3,0.8l2.7-2.3c0,0-0.3,1.5-0.1,1.7c0.1,0.3,2.9-1.5,2.9-1.5l-0.3,0.8l4-2.9c0,0,0,1.7-0.1,1.9
			c-0.1,0.3,1.1-0.7,1.5-0.8c0.4-0.1-0.3,1.7,0.7,0.9c1.1-0.8,3.6-2.3,3.6-2.3l0.1,0.9h4c0,0-6.3,3.7-8.4,5.3
			c-2.3,1.7-5.6,4.7-5.7,5.2c-0.1,0.5-1.5,2.3-1.9,2.9c-0.4,0.7-2.9,5.9-2.9,5.9l-0.5,1.5l3.9-2.3l0.7,1.5l1.7-4.5l1.5,2.5l1.7-4
			l1.1,0.8l0.3-4c0,0,0.8,0.7,0.9,0s2.1-2.5,2.1-2.5s1.1,0.1,1.5,0.1c0.4,0,2.1-1.1,2.1-1.1l2.4,0.3c0,0-5.9,1.3-6.8,3.1
			s-0.1,4.5-0.1,4.5s4-3.9,4-3.1s-0.1,1.5-0.1,1.5l2-1.5l1.2-0.4l2.1-1.9c0,0-2,2.4-2.5,6c-0.5,3.7-0.5,7.9-0.5,8.1s1.5,3.5,1.5,3.5
			l-0.8-6c0,0,1.7,3.7,1.7,3.5c0.1-0.3-0.7-5.3-0.5-5.3c0.3,0,0.9,1.5,0.9,1.5l0.1-5.7c0,0,1.9,3.9,1.7,3.5s0.1-4,0.1-4
			s1.1,2.1,1.3,1.3c0.3-0.9,0.7-4.3,0.7-4.3l0.8,1.5l-0.1-4.3l2.1,2c0,0,1.7,14.9,2,18.9s2.3,40.8,2.8,51.1s-0.9,29.1-0.9,35.9
			C655.1,602.8,653.5,611.9,653.5,611.9z"/>
	</g>
	<g>
		<path fill="#182B71" d="M256.3,610.7h8.1c0,0-0.1-50.4-1.1-67.6c-0.9-17.2-7.9-75.6-8.4-78.3c-0.5-2.7,0.1-4.3,0.1-4.3l2.3,2.8
			l-0.5,4.9l2-3.7l-0.1,5.2l2.4-3.1l-0.8,4.9l3.1-2.7l-0.5,5.1l2.7-2.5l0.1,4.8c0,0,2.4-2.7,2.4-2.1s-0.5,5.2-0.5,5.2
			s2.8-2.8,2.8-2.4c0,0.5,0.1,4.5,0.1,4.5s2.3-6,2.4-4.3c0.1,1.7,1.2,8.4,1.2,8.4s-0.4-7.3-1.2-10.3c-0.8-2.8-5.5-10.4-5.5-10.4
			l-2.8-4.3l-2.1-4.3c0,0-2-2-1.7-2c0.3,0.1,4.1,3.1,4.1,3.1l-2.9-6.9l9.3,13.3l-5.6-12.5l2.5,6.3l1.6-2.4l-0.1,3.2l2-1.2l0.1,4.1
			l1.3-2.4l0.8,3.3l2.7-3.7l0.1,5.9l2.9-5.2c0,0-0.5,4.9-0.7,5.6c-0.1,0.5,3.1-4.9,3.1-4.9s0.1,5.2,0.1,5.9c0,0.7,2.9-3.6,2.9-3.6
			l0.5,4.1l2.8-3.6l3.1,3.5c0,0-0.9-2.9-8.1-8.4c-7.3-5.6-11.3-8.8-14.8-10.8s-3.9-2.7-3.9-2.7s2-1.5,3.6-1.5c1.6,0,1.3-2.3,1.3-2.3
			l2.9,2.8l-0.5-2l1.6,1.5v-2.4l2.3,2.7l0.7-1.7l3.2,3.5l-0.4-2.8l4.1,3.5l-0.1-2.7l3.2,3.1l-0.4-2.4l3.7,2c0,0-1.6-5.1-8.4-6.4
			c-6.7-1.3-12.1,0.1-12.1,0.1v-0.9l2.7-1.3l-0.8-1.7c0,0,3.7,0.3,3.5,0.1c-0.3-0.1-4.1-3.2-3.7-3.1c0.4,0.1,9.1,0.7,8.8,0.7
			s-4.3-1.9-3.2-1.6s7.5,1.6,7.2,1.5c-0.3-0.1-3.6-1.9-2.3-1.5c1.3,0.4,7.1,1.5,5.9,0.9c-1.2-0.5-5.9-1.7-2.4-1.3
			c3.5,0.4,4.1,0.9,3.5,0.4c-0.5-0.5-2.4-1.2-0.9-0.9c1.6,0.4,3.6,0.1,3.1,0.1c-0.5-0.1,2-0.3,2-0.3s-4-2-6-2s-6.9,0.4-7.7,0.7
			c-0.9,0.3-6.7,2.4-9.5,4.5c-2.7,2-4.1,2-4.1,2l-0.9-1.2l1.7-4.5l-2-0.4l3.5-1.3l-1.7-0.8c0,0,4.5-1.5,3.7-1.6
			c-0.7-0.1-4.4-1.3-3.9-1.2c0.5,0.1,3.6-1.5,3.6-1.5s-3.1-0.9-2.5-0.8s4.4-1.3,4.4-1.3l-3.5-2.1l2.8-0.8c0,0-1.6-1.6-0.5-1.5
			c0.9,0.1,4.8-0.4,4.8-0.4s-2.7-1.6-2.3-1.5c0.5,0.1,2.8-1.3,2.8-1.3s-4-0.9-5.2-0.4c-1.2,0.5-6.3,1.2-8,4.5
			c-1.6,3.5-4.4,7.3-4.8,8.9c-0.4,1.6-1.9,2.4-1.9,2.4s-0.5-1.6-0.5-1.9s-0.1-3.3-0.1-3.3s-0.5-2.3-0.4-2.5s-0.7-2.5-0.7-2.5
			s-2-4.1-1.6-4c0.3,0.1-2-3.9-2-3.9l-2.5-1.2l-2.7,2l-0.1,2.7l3.1-0.7l-2,1.6l1.5,0.4l-2,2l1.5,0.3c0,0-1.7,1.6-1.3,1.6
			c0.4,0.1,2,0.4,1.9,0.7c-0.1,0.3-0.5,2.3-0.5,2.3l1.6-0.1l-2.4,2.4l1.2,0.9c0,0-0.3,1.7,0.1,1.9c0.5,0.1-0.1,0.5-0.5,1.2
			c-0.3,0.7,0.1,2,0.4,2.3c0.1,0.3-0.8,0.9-1.2,0.1c-0.4-0.8,1.1-0.1-2.9-5.3c-4-5.2-8.9-9.2-8.9-9.2s-4.5-0.3-4-0.1s0.4,1.6,0.9,2
			c0.5,0.3,3.5,2.9,2.7,2.8c-0.7-0.1-3.1-1.2-2-0.5c1.2,0.7,4.4,2.7,4,2.7c-0.4,0-3.1-0.3-2.5,0c0.5,0.3,2.8,2.7,2.8,2.7l-0.5,0.3
			c0,0,3.6,1.9,3.3,1.9s-1.6,0-1.6,0l2.5,2.8l-0.9,0.3l2.3,2.3c0,0-1.1,0-0.4,0.5c0.7,0.5,1.9,1.9,1.9,1.9l-0.8,1.2
			c0,0-8.9-5.9-13.2-7.3c-4.3-1.3-8.4-1.6-12,0.7c-3.7,2.3-4.4,2.8-4.4,2.8l8.4-1.3l-2.1,1.6l3.9-0.9c0,0-1.5,1.6-0.9,1.6
			c0.5,0,2.9-0.8,2.9-0.8s-0.5,1.3,0.1,1.3c0.7,0,3.5-1.2,3.5-1.2l-1.1,1.7l4-0.5l-0.1,1.6c0,0,2.7-0.5,2.5-0.3
			c-0.1,0.3-1.2,1.5-0.7,1.6s2.7-0.1,2.7-0.1l-0.3,0.9l2-0.1l-0.3,1.2l2.8-0.4l-0.5,1.5c0,0-6.5-1.6-10.8-0.9
			c-4.3,0.8-9.6,2.8-9.6,2.8s-2.7,2-3.1,2.4c-0.4,0.5-1.6,2-1.6,2l3.2-1.1v0.9l4.3-1.5c0,0-2.1,1.6-1.5,1.6c0.7,0,8.1-2.8,8.1-2.8
			l-1.9,1.5l4.7-0.9l-0.4,1.2l3.1-0.5c0,0-10,0.5-12,2.5c-2,2-5.2,4.1-5.2,4.1l-1.2,1.6l3.1-0.5l0.4,0.9l3.2-2.7
			c0,0-0.3,1.9-0.1,2.1c0.1,0.3,3.5-1.9,3.5-1.9l-0.3,0.9l4.9-3.5c0,0,0,2-0.1,2.4c-0.1,0.3,1.3-0.9,1.9-0.9
			c0.5-0.1-0.4,2.1,0.9,1.2c1.2-0.9,4.4-2.7,4.4-2.7l0.1,1.1h4.9c0,0-7.6,4.5-10.3,6.5c-2.7,2-6.8,5.7-7.1,6.3
			c-0.1,0.5-1.9,2.8-2.4,3.6c-0.5,0.8-3.6,7.1-3.6,7.1l-0.7,1.9l4.7-2.8l0.8,1.7l2-5.6l1.7,3.1l2-4.8l1.2,0.9l0.4-4.8
			c0,0,0.9,0.9,1.1,0s2.5-3.1,2.5-3.1s1.2,0.1,1.7,0.1c0.5,0,2.5-1.2,2.5-1.2l2.9,0.4c0,0-7.2,1.6-8.4,3.7c-1.2,2.1-0.1,5.6-0.1,5.6
			s4.8-4.8,4.8-3.7c0,1.1-0.1,1.9-0.1,1.9l2.4-1.9l1.5-0.5l2.5-2.4c0,0-2.4,2.9-3.1,7.3c-0.7,4.5-0.7,9.5-0.5,9.9
			c0.1,0.4,1.7,4.3,1.7,4.3l-0.9-7.3c0,0,2,4.5,2.1,4.3c0.1-0.3-0.9-6.5-0.5-6.5c0.3,0,1.2,1.9,1.2,1.9l0.1-7.1c0,0,2.4,4.8,2.1,4.3
			c-0.1-0.5,0.1-4.8,0.1-4.8s1.3,2.7,1.6,1.6c0.3-1.1,0.9-5.2,0.9-5.2l0.9,1.9l-0.1-5.2l2.7,2.4c0,0,2.1,18.3,2.4,23.2
			c0.3,4.8,2.8,49.7,3.5,62.3c0.5,12.5-1.2,35.5-1.2,43.7C257.3,600.8,256.3,610.7,256.3,610.7z"/>
		
			<linearGradient id="SVGID_80_" gradientUnits="userSpaceOnUse" x1="189.2" y1="865.8972" x2="189.2" y2="745.761" gradientTransform="matrix(1.3333 0 0 -1.3333 0 1500.0001)">
			<stop  offset="0" style="stop-color:#FFFFFF"/>
			<stop  offset="0.9987" style="stop-color:#FFFFFF;stop-opacity:0"/>
		</linearGradient>
		<path fill="url(#SVGID_80_)" d="M256.3,610.7h8.1c0,0-0.1-50.4-1.1-67.6c-0.9-17.2-7.9-75.6-8.4-78.3c-0.5-2.7,0.1-4.3,0.1-4.3
			l2.3,2.8l-0.5,4.9l2-3.7l-0.1,5.2l2.4-3.1l-0.8,4.9l3.1-2.7l-0.5,5.1l2.7-2.5l0.1,4.8c0,0,2.4-2.7,2.4-2.1s-0.5,5.2-0.5,5.2
			s2.8-2.8,2.8-2.4c0,0.5,0.1,4.5,0.1,4.5s2.3-6,2.4-4.3c0.1,1.7,1.2,8.4,1.2,8.4s-0.4-7.3-1.2-10.3c-0.8-2.8-5.5-10.4-5.5-10.4
			l-2.8-4.3l-2.1-4.3c0,0-2-2-1.7-2c0.3,0.1,4.1,3.1,4.1,3.1l-2.9-6.9l9.3,13.3l-5.6-12.5l2.5,6.3l1.6-2.4l-0.1,3.2l2-1.2l0.1,4.1
			l1.3-2.4l0.8,3.3l2.7-3.7l0.1,5.9l2.9-5.2c0,0-0.5,4.9-0.7,5.6c-0.1,0.5,3.1-4.9,3.1-4.9s0.1,5.2,0.1,5.9c0,0.7,2.9-3.6,2.9-3.6
			l0.5,4.1l2.8-3.6l3.1,3.5c0,0-0.9-2.9-8.1-8.4c-7.3-5.6-11.3-8.8-14.8-10.8s-3.9-2.7-3.9-2.7s2-1.5,3.6-1.5c1.6,0,1.3-2.3,1.3-2.3
			l2.9,2.8l-0.5-2l1.6,1.5v-2.4l2.3,2.7l0.7-1.7l3.2,3.5l-0.4-2.8l4.1,3.5l-0.1-2.7l3.2,3.1l-0.4-2.4l3.7,2c0,0-1.6-5.1-8.4-6.4
			c-6.7-1.3-12.1,0.1-12.1,0.1v-0.9l2.7-1.3l-0.8-1.7c0,0,3.7,0.3,3.5,0.1c-0.3-0.1-4.1-3.2-3.7-3.1c0.4,0.1,9.1,0.7,8.8,0.7
			s-4.3-1.9-3.2-1.6s7.5,1.6,7.2,1.5c-0.3-0.1-3.6-1.9-2.3-1.5c1.3,0.4,7.1,1.5,5.9,0.9c-1.2-0.5-5.9-1.7-2.4-1.3
			c3.5,0.4,4.1,0.9,3.5,0.4c-0.5-0.5-2.4-1.2-0.9-0.9c1.6,0.4,3.6,0.1,3.1,0.1c-0.5-0.1,2-0.3,2-0.3s-4-2-6-2s-6.9,0.4-7.7,0.7
			c-0.9,0.3-6.7,2.4-9.5,4.5c-2.7,2-4.1,2-4.1,2l-0.9-1.2l1.7-4.5l-2-0.4l3.5-1.3l-1.7-0.8c0,0,4.5-1.5,3.7-1.6
			c-0.7-0.1-4.4-1.3-3.9-1.2c0.5,0.1,3.6-1.5,3.6-1.5s-3.1-0.9-2.5-0.8s4.4-1.3,4.4-1.3l-3.5-2.1l2.8-0.8c0,0-1.6-1.6-0.5-1.5
			c0.9,0.1,4.8-0.4,4.8-0.4s-2.7-1.6-2.3-1.5c0.5,0.1,2.8-1.3,2.8-1.3s-4-0.9-5.2-0.4c-1.2,0.5-6.3,1.2-8,4.5
			c-1.6,3.5-4.4,7.3-4.8,8.9c-0.4,1.6-1.9,2.4-1.9,2.4s-0.5-1.6-0.5-1.9s-0.1-3.3-0.1-3.3s-0.5-2.3-0.4-2.5s-0.7-2.5-0.7-2.5
			s-2-4.1-1.6-4c0.3,0.1-2-3.9-2-3.9l-2.5-1.2l-2.7,2l-0.1,2.7l3.1-0.7l-2,1.6l1.5,0.4l-2,2l1.5,0.3c0,0-1.7,1.6-1.3,1.6
			c0.4,0.1,2,0.4,1.9,0.7c-0.1,0.3-0.5,2.3-0.5,2.3l1.6-0.1l-2.4,2.4l1.2,0.9c0,0-0.3,1.7,0.1,1.9c0.5,0.1-0.1,0.5-0.5,1.2
			c-0.3,0.7,0.1,2,0.4,2.3c0.1,0.3-0.8,0.9-1.2,0.1c-0.4-0.8,1.1-0.1-2.9-5.3c-4-5.2-8.9-9.2-8.9-9.2s-4.5-0.3-4-0.1s0.4,1.6,0.9,2
			c0.5,0.3,3.5,2.9,2.7,2.8c-0.7-0.1-3.1-1.2-2-0.5c1.2,0.7,4.4,2.7,4,2.7c-0.4,0-3.1-0.3-2.5,0c0.5,0.3,2.8,2.7,2.8,2.7l-0.5,0.3
			c0,0,3.6,1.9,3.3,1.9s-1.6,0-1.6,0l2.5,2.8l-0.9,0.3l2.3,2.3c0,0-1.1,0-0.4,0.5c0.7,0.5,1.9,1.9,1.9,1.9l-0.8,1.2
			c0,0-8.9-5.9-13.2-7.3c-4.3-1.3-8.4-1.6-12,0.7c-3.7,2.3-4.4,2.8-4.4,2.8l8.4-1.3l-2.1,1.6l3.9-0.9c0,0-1.5,1.6-0.9,1.6
			c0.5,0,2.9-0.8,2.9-0.8s-0.5,1.3,0.1,1.3c0.7,0,3.5-1.2,3.5-1.2l-1.1,1.7l4-0.5l-0.1,1.6c0,0,2.7-0.5,2.5-0.3
			c-0.1,0.3-1.2,1.5-0.7,1.6s2.7-0.1,2.7-0.1l-0.3,0.9l2-0.1l-0.3,1.2l2.8-0.4l-0.5,1.5c0,0-6.5-1.6-10.8-0.9
			c-4.3,0.8-9.6,2.8-9.6,2.8s-2.7,2-3.1,2.4c-0.4,0.5-1.6,2-1.6,2l3.2-1.1v0.9l4.3-1.5c0,0-2.1,1.6-1.5,1.6c0.7,0,8.1-2.8,8.1-2.8
			l-1.9,1.5l4.7-0.9l-0.4,1.2l3.1-0.5c0,0-10,0.5-12,2.5c-2,2-5.2,4.1-5.2,4.1l-1.2,1.6l3.1-0.5l0.4,0.9l3.2-2.7
			c0,0-0.3,1.9-0.1,2.1c0.1,0.3,3.5-1.9,3.5-1.9l-0.3,0.9l4.9-3.5c0,0,0,2-0.1,2.4c-0.1,0.3,1.3-0.9,1.9-0.9
			c0.5-0.1-0.4,2.1,0.9,1.2c1.2-0.9,4.4-2.7,4.4-2.7l0.1,1.1h4.9c0,0-7.6,4.5-10.3,6.5c-2.7,2-6.8,5.7-7.1,6.3
			c-0.1,0.5-1.9,2.8-2.4,3.6c-0.5,0.8-3.6,7.1-3.6,7.1l-0.7,1.9l4.7-2.8l0.8,1.7l2-5.6l1.7,3.1l2-4.8l1.2,0.9l0.4-4.8
			c0,0,0.9,0.9,1.1,0s2.5-3.1,2.5-3.1s1.2,0.1,1.7,0.1c0.5,0,2.5-1.2,2.5-1.2l2.9,0.4c0,0-7.2,1.6-8.4,3.7c-1.2,2.1-0.1,5.6-0.1,5.6
			s4.8-4.8,4.8-3.7c0,1.1-0.1,1.9-0.1,1.9l2.4-1.9l1.5-0.5l2.5-2.4c0,0-2.4,2.9-3.1,7.3c-0.7,4.5-0.7,9.5-0.5,9.9
			c0.1,0.4,1.7,4.3,1.7,4.3l-0.9-7.3c0,0,2,4.5,2.1,4.3c0.1-0.3-0.9-6.5-0.5-6.5c0.3,0,1.2,1.9,1.2,1.9l0.1-7.1c0,0,2.4,4.8,2.1,4.3
			c-0.1-0.5,0.1-4.8,0.1-4.8s1.3,2.7,1.6,1.6c0.3-1.1,0.9-5.2,0.9-5.2l0.9,1.9l-0.1-5.2l2.7,2.4c0,0,2.1,18.3,2.4,23.2
			c0.3,4.8,2.8,49.7,3.5,62.3c0.5,12.5-1.2,35.5-1.2,43.7C257.3,600.8,256.3,610.7,256.3,610.7z"/>
	</g>
</g>
<g>
	<rect x="377.1" y="491.9" fill="none" width="245.9" height="74.9"/>
	<text transform="matrix(1 0 0 1 389.9423 505.7042)" fill="#FDFEFF" font-family="'Montserrat-Bold'" font-size="18.6667"> . </text>
	<g>
		<g>
			
				<image overflow="visible" opacity="0.43" enable-background="new    " width="396" height="142" xlink:href="DBC8B1FA.png"  transform="matrix(0.316 0 0 0.3132 441.9827 530.1072)">
			</image>
			<g>
				<path fill="#B33189" d="M543.1,536.5h-80.8c-7.6,0-13.7,6.1-13.7,13.7c0,7.6,6.1,13.7,13.7,13.7h80.8c7.6,0,13.7-6.1,13.7-13.7
					C556.8,542.8,550.7,536.5,543.1,536.5z"/>
			</g>
		</g>
		<text transform="matrix(1 0 0 1 474.4369 553.7889)" fill="#FFFFFF" font-family="'Montserrat-Bold'" font-size="13.1261"></text>
	</g>
</g>
<g>
	<g>
		
			<linearGradient id="SVGID_81_" gradientUnits="userSpaceOnUse" x1="303.0214" y1="800.0402" x2="265.3117" y2="800.0402" gradientTransform="matrix(1.3267 0.1327 0.1327 -1.3267 -98.1272 1436.8124)">
			<stop  offset="0" style="stop-color:#D6DCFD"/>
			<stop  offset="1" style="stop-color:#292195"/>
		</linearGradient>
		<path fill="url(#SVGID_81_)" d="M392.4,398l2.1,13.9l16.8,15.7c0,0,4.8,8.4-12.7,0.3c-17.3-8.3-18.8-8.9-18.8-8.9l-17.1-3.7
			L392.4,398z"/>
		
			<linearGradient id="SVGID_82_" gradientUnits="userSpaceOnUse" x1="259.7298" y1="837.2702" x2="301.6225" y2="795.3776" gradientTransform="matrix(1.3333 0 0 -1.3333 0 1500.0001)">
			<stop  offset="0" style="stop-color:#D6DCFD"/>
			<stop  offset="1" style="stop-color:#292195"/>
		</linearGradient>
		<path opacity="0.2" fill="url(#SVGID_82_)" enable-background="new    " d="M363.5,415.3l16.5,3.6c0,0,24.7,12.4,28.7,12.5
			l-24.8-15.1l-14.4-4.8L363.5,415.3z"/>
		
			<linearGradient id="SVGID_83_" gradientUnits="userSpaceOnUse" x1="287.781" y1="820.2167" x2="312.4979" y2="811.4749" gradientTransform="matrix(1.3333 0 0 -1.3333 0 1500.0001)">
			<stop  offset="0" style="stop-color:#D6DCFD"/>
			<stop  offset="1" style="stop-color:#292195"/>
		</linearGradient>
		<polygon fill="url(#SVGID_83_)" points="387.5,402.5 393.2,414.1 411.3,427.6 394.5,412 392.4,398 		"/>
	</g>
	<g>
		<path fill="#FFFFFF" d="M290.9,436.8c0,0-3.1-5.6-2.8-8.1s111.2-62,111.2-62s24.1-13.6,38.1-5.6c0,0,4.1,1.9-1.5,8.5
			c0,0-4.8,6.8-66.9,44C369.1,413.6,322.4,438.5,290.9,436.8z"/>
		<path opacity="0.16" fill="#CACACA" enable-background="new    " d="M290.9,436.8c0,0-0.7-1.2-1.3-2.7c0,0,63.2-12.8,147.7-72.9
			c0,0,4.1,1.9-1.5,8.5c0,0-4.8,6.8-66.9,44C369.1,413.6,322.4,438.5,290.9,436.8z"/>
		<path opacity="0.1" fill="#9D9CEB" enable-background="new    " d="M290.9,436.8c29.1-14.9,38.8-17.1,67.9-32
			c32.3-18.8,30.9-37.1,54.3-44c10.3-3.1,17.9-3.5,24.3,0.3c0,0,4.1,1.9-1.5,8.5c0,0-4.8,6.8-66.9,44
			C369.1,413.6,322.4,438.5,290.9,436.8z"/>
	</g>
	<g>
		<g>
			<path fill="#535285" d="M401.1,370.5L401.1,370.5c-0.4,0-0.7-0.3-0.7-0.7v-0.5c0-0.4,0.3-0.7,0.7-0.7l0,0c0.4,0,0.7,0.3,0.7,0.7
				v0.5C401.7,370.3,401.5,370.5,401.1,370.5z"/>
			<path fill="#535285" d="M398.8,371.7L398.8,371.7c-0.4,0-0.7-0.3-0.7-0.7v-0.5c0-0.4,0.3-0.7,0.7-0.7l0,0c0.4,0,0.7,0.3,0.7,0.7
				v0.5C399.3,371.5,399.1,371.7,398.8,371.7z"/>
			<path fill="#535285" d="M398.8,371.7L398.8,371.7c-0.4,0-0.7-0.3-0.7-0.7v-0.5c0-0.4,0.3-0.7,0.7-0.7l0,0c0.4,0,0.7,0.3,0.7,0.7
				v0.5C399.3,371.5,399.1,371.7,398.8,371.7z"/>
			<path fill="#535285" d="M396.4,373.1L396.4,373.1c-0.4,0-0.7-0.3-0.7-0.7v-0.5c0-0.4,0.3-0.7,0.7-0.7l0,0c0.4,0,0.7,0.3,0.7,0.7
				v0.5C397.1,372.8,396.8,373.1,396.4,373.1z"/>
			<path fill="#535285" d="M396.4,373.1L396.4,373.1c-0.4,0-0.7-0.3-0.7-0.7v-0.5c0-0.4,0.3-0.7,0.7-0.7l0,0c0.4,0,0.7,0.3,0.7,0.7
				v0.5C397.1,372.8,396.8,373.1,396.4,373.1z"/>
			<path fill="#535285" d="M394.1,374.4L394.1,374.4c-0.4,0-0.7-0.3-0.7-0.7v-0.5c0-0.4,0.3-0.7,0.7-0.7l0,0c0.4,0,0.7,0.3,0.7,0.7
				v0.5C394.7,374.1,394.4,374.4,394.1,374.4z"/>
			<path fill="#535285" d="M394.1,374.4L394.1,374.4c-0.4,0-0.7-0.3-0.7-0.7v-0.5c0-0.4,0.3-0.7,0.7-0.7l0,0c0.4,0,0.7,0.3,0.7,0.7
				v0.5C394.7,374.1,394.4,374.4,394.1,374.4z"/>
			<path fill="#535285" d="M391.7,375.6L391.7,375.6c-0.4,0-0.7-0.3-0.7-0.7v-0.5c0-0.4,0.3-0.7,0.7-0.7l0,0c0.4,0,0.7,0.3,0.7,0.7
				v0.5C392.4,375.3,392.1,375.6,391.7,375.6z"/>
			<path fill="#535285" d="M391.7,375.6L391.7,375.6c-0.4,0-0.7-0.3-0.7-0.7v-0.5c0-0.4,0.3-0.7,0.7-0.7l0,0c0.4,0,0.7,0.3,0.7,0.7
				v0.5C392.4,375.3,392.1,375.6,391.7,375.6z"/>
			<path fill="#535285" d="M389.5,376.9L389.5,376.9c-0.4,0-0.7-0.3-0.7-0.7v-0.5c0-0.4,0.3-0.7,0.7-0.7l0,0c0.4,0,0.7,0.3,0.7,0.7
				v0.5C390.1,376.7,389.9,376.9,389.5,376.9z"/>
			<path fill="#535285" d="M389.5,376.9L389.5,376.9c-0.4,0-0.7-0.3-0.7-0.7v-0.5c0-0.4,0.3-0.7,0.7-0.7l0,0c0.4,0,0.7,0.3,0.7,0.7
				v0.5C390.1,376.7,389.9,376.9,389.5,376.9z"/>
			<path fill="#535285" d="M387.2,378.1L387.2,378.1c-0.4,0-0.7-0.3-0.7-0.7v-0.5c0-0.4,0.3-0.7,0.7-0.7l0,0c0.4,0,0.7,0.3,0.7,0.7
				v0.5C387.7,377.9,387.5,378.1,387.2,378.1z"/>
			<path fill="#535285" d="M387.2,378.1L387.2,378.1c-0.4,0-0.7-0.3-0.7-0.7v-0.5c0-0.4,0.3-0.7,0.7-0.7l0,0c0.4,0,0.7,0.3,0.7,0.7
				v0.5C387.7,377.9,387.5,378.1,387.2,378.1z"/>
			<path fill="#535285" d="M384.8,379.5L384.8,379.5c-0.4,0-0.7-0.3-0.7-0.7v-0.5c0-0.4,0.3-0.7,0.7-0.7l0,0c0.4,0,0.7,0.3,0.7,0.7
				v0.5C385.5,379.2,385.2,379.5,384.8,379.5z"/>
			<path fill="#535285" d="M384.8,379.5L384.8,379.5c-0.4,0-0.7-0.3-0.7-0.7v-0.5c0-0.4,0.3-0.7,0.7-0.7l0,0c0.4,0,0.7,0.3,0.7,0.7
				v0.5C385.5,379.2,385.2,379.5,384.8,379.5z"/>
			<path fill="#535285" d="M382.5,380.8L382.5,380.8c-0.4,0-0.7-0.3-0.7-0.7v-0.5c0-0.4,0.3-0.7,0.7-0.7l0,0c0.4,0,0.7,0.3,0.7,0.7
				v0.5C383.2,380.5,382.8,380.8,382.5,380.8z"/>
			<path fill="#535285" d="M382.5,380.8L382.5,380.8c-0.4,0-0.7-0.3-0.7-0.7v-0.5c0-0.4,0.3-0.7,0.7-0.7l0,0c0.4,0,0.7,0.3,0.7,0.7
				v0.5C383.2,380.5,382.8,380.8,382.5,380.8z"/>
			<path fill="#535285" d="M380.1,382L380.1,382c-0.4,0-0.7-0.3-0.7-0.7v-0.5c0-0.4,0.3-0.7,0.7-0.7l0,0c0.4,0,0.7,0.3,0.7,0.7v0.5
				C380.8,381.7,380.5,382,380.1,382z"/>
			<path fill="#535285" d="M380.1,382L380.1,382c-0.4,0-0.7-0.3-0.7-0.7v-0.5c0-0.4,0.3-0.7,0.7-0.7l0,0c0.4,0,0.7,0.3,0.7,0.7v0.5
				C380.8,381.7,380.5,382,380.1,382z"/>
			<path fill="#535285" d="M377.9,383.3L377.9,383.3c-0.4,0-0.7-0.3-0.7-0.7v-0.5c0-0.4,0.3-0.7,0.7-0.7l0,0c0.4,0,0.7,0.3,0.7,0.7
				v0.5C378.5,383.1,378.3,383.3,377.9,383.3z"/>
			<path fill="#535285" d="M377.9,383.3L377.9,383.3c-0.4,0-0.7-0.3-0.7-0.7v-0.5c0-0.4,0.3-0.7,0.7-0.7l0,0c0.4,0,0.7,0.3,0.7,0.7
				v0.5C378.5,383.1,378.3,383.3,377.9,383.3z"/>
			<path fill="#535285" d="M375.6,384.5L375.6,384.5c-0.4,0-0.7-0.3-0.7-0.7v-0.5c0-0.4,0.3-0.7,0.7-0.7l0,0c0.4,0,0.7,0.3,0.7,0.7
				v0.5C376.1,384.3,375.9,384.5,375.6,384.5z"/>
			<path fill="#535285" d="M375.6,384.5L375.6,384.5c-0.4,0-0.7-0.3-0.7-0.7v-0.5c0-0.4,0.3-0.7,0.7-0.7l0,0c0.4,0,0.7,0.3,0.7,0.7
				v0.5C376.1,384.3,375.9,384.5,375.6,384.5z"/>
			<path fill="#535285" d="M373.2,385.9L373.2,385.9c-0.4,0-0.7-0.3-0.7-0.7v-0.5c0-0.4,0.3-0.7,0.7-0.7l0,0c0.4,0,0.7,0.3,0.7,0.7
				v0.5C373.9,385.6,373.6,385.9,373.2,385.9z"/>
			<path fill="#535285" d="M373.2,385.9L373.2,385.9c-0.4,0-0.7-0.3-0.7-0.7v-0.5c0-0.4,0.3-0.7,0.7-0.7l0,0c0.4,0,0.7,0.3,0.7,0.7
				v0.5C373.9,385.6,373.6,385.9,373.2,385.9z"/>
			<path fill="#535285" d="M370.9,387.2L370.9,387.2c-0.4,0-0.7-0.3-0.7-0.7V386c0-0.4,0.3-0.7,0.7-0.7l0,0c0.4,0,0.7,0.3,0.7,0.7
				v0.5C371.6,386.9,371.2,387.2,370.9,387.2z"/>
			<path fill="#535285" d="M370.9,387.2L370.9,387.2c-0.4,0-0.7-0.3-0.7-0.7V386c0-0.4,0.3-0.7,0.7-0.7l0,0c0.4,0,0.7,0.3,0.7,0.7
				v0.5C371.6,386.9,371.2,387.2,370.9,387.2z"/>
			<path fill="#535285" d="M368.5,388.4L368.5,388.4c-0.4,0-0.7-0.3-0.7-0.7v-0.5c0-0.4,0.3-0.7,0.7-0.7l0,0c0.4,0,0.7,0.3,0.7,0.7
				v0.5C369.2,388.1,368.9,388.4,368.5,388.4z"/>
			<path fill="#535285" d="M368.5,388.4L368.5,388.4c-0.4,0-0.7-0.3-0.7-0.7v-0.5c0-0.4,0.3-0.7,0.7-0.7l0,0c0.4,0,0.7,0.3,0.7,0.7
				v0.5C369.2,388.1,368.9,388.4,368.5,388.4z"/>
			<path fill="#535285" d="M366.3,389.7L366.3,389.7c-0.4,0-0.7-0.3-0.7-0.7v-0.5c0-0.4,0.3-0.7,0.7-0.7l0,0c0.4,0,0.7,0.3,0.7,0.7
				v0.5C366.9,389.5,366.7,389.7,366.3,389.7z"/>
			<path fill="#535285" d="M366.3,389.7L366.3,389.7c-0.4,0-0.7-0.3-0.7-0.7v-0.5c0-0.4,0.3-0.7,0.7-0.7l0,0c0.4,0,0.7,0.3,0.7,0.7
				v0.5C366.9,389.5,366.7,389.7,366.3,389.7z"/>
			<path fill="#535285" d="M364,390.9L364,390.9c-0.4,0-0.7-0.3-0.7-0.7v-0.5c0-0.4,0.3-0.7,0.7-0.7l0,0c0.4,0,0.7,0.3,0.7,0.7v0.5
				C364.5,390.7,364.3,390.9,364,390.9z"/>
			<path fill="#535285" d="M364,390.9L364,390.9c-0.4,0-0.7-0.3-0.7-0.7v-0.5c0-0.4,0.3-0.7,0.7-0.7l0,0c0.4,0,0.7,0.3,0.7,0.7v0.5
				C364.5,390.7,364.3,390.9,364,390.9z"/>
			<path fill="#535285" d="M361.6,392.3L361.6,392.3c-0.4,0-0.7-0.3-0.7-0.7v-0.5c0-0.4,0.3-0.7,0.7-0.7l0,0c0.4,0,0.7,0.3,0.7,0.7
				v0.5C362.3,392,362,392.3,361.6,392.3z"/>
			<path fill="#535285" d="M361.6,392.3L361.6,392.3c-0.4,0-0.7-0.3-0.7-0.7v-0.5c0-0.4,0.3-0.7,0.7-0.7l0,0c0.4,0,0.7,0.3,0.7,0.7
				v0.5C362.3,392,362,392.3,361.6,392.3z"/>
			<path fill="#535285" d="M359.3,393.6L359.3,393.6c-0.4,0-0.7-0.3-0.7-0.7v-0.5c0-0.4,0.3-0.7,0.7-0.7l0,0c0.4,0,0.7,0.3,0.7,0.7
				v0.5C360,393.3,359.6,393.6,359.3,393.6z"/>
			<path fill="#535285" d="M359.3,393.6L359.3,393.6c-0.4,0-0.7-0.3-0.7-0.7v-0.5c0-0.4,0.3-0.7,0.7-0.7l0,0c0.4,0,0.7,0.3,0.7,0.7
				v0.5C360,393.3,359.6,393.6,359.3,393.6z"/>
			<path fill="#535285" d="M356.9,394.8L356.9,394.8c-0.4,0-0.7-0.3-0.7-0.7v-0.5c0-0.4,0.3-0.7,0.7-0.7l0,0c0.4,0,0.7,0.3,0.7,0.7
				v0.5C357.6,394.5,357.3,394.8,356.9,394.8z"/>
			<path fill="#535285" d="M356.9,394.8L356.9,394.8c-0.4,0-0.7-0.3-0.7-0.7v-0.5c0-0.4,0.3-0.7,0.7-0.7l0,0c0.4,0,0.7,0.3,0.7,0.7
				v0.5C357.6,394.5,357.3,394.8,356.9,394.8z"/>
			<path fill="#535285" d="M354.7,396.1L354.7,396.1c-0.4,0-0.7-0.3-0.7-0.7v-0.5c0-0.4,0.3-0.7,0.7-0.7l0,0c0.4,0,0.7,0.3,0.7,0.7
				v0.5C355.3,395.9,355.1,396.1,354.7,396.1z"/>
			<path fill="#535285" d="M354.7,396.1L354.7,396.1c-0.4,0-0.7-0.3-0.7-0.7v-0.5c0-0.4,0.3-0.7,0.7-0.7l0,0c0.4,0,0.7,0.3,0.7,0.7
				v0.5C355.3,395.9,355.1,396.1,354.7,396.1z"/>
			<path fill="#535285" d="M352.4,397.3L352.4,397.3c-0.4,0-0.7-0.3-0.7-0.7v-0.5c0-0.4,0.3-0.7,0.7-0.7l0,0c0.4,0,0.7,0.3,0.7,0.7
				v0.5C352.9,397.1,352.7,397.3,352.4,397.3z"/>
			<path fill="#535285" d="M352.4,397.3L352.4,397.3c-0.4,0-0.7-0.3-0.7-0.7v-0.5c0-0.4,0.3-0.7,0.7-0.7l0,0c0.4,0,0.7,0.3,0.7,0.7
				v0.5C352.9,397.1,352.7,397.3,352.4,397.3z"/>
			<path fill="#535285" d="M350,398.7L350,398.7c-0.4,0-0.7-0.3-0.7-0.7v-0.5c0-0.4,0.3-0.7,0.7-0.7l0,0c0.4,0,0.7,0.3,0.7,0.7v0.5
				C350.7,398.4,350.4,398.7,350,398.7z"/>
			<path fill="#535285" d="M350,398.7L350,398.7c-0.4,0-0.7-0.3-0.7-0.7v-0.5c0-0.4,0.3-0.7,0.7-0.7l0,0c0.4,0,0.7,0.3,0.7,0.7v0.5
				C350.7,398.4,350.4,398.7,350,398.7z"/>
			<path fill="#535285" d="M347.7,400L347.7,400c-0.4,0-0.7-0.3-0.7-0.7v-0.5c0-0.4,0.3-0.7,0.7-0.7l0,0c0.4,0,0.7,0.3,0.7,0.7v0.5
				C348.4,399.7,348,400,347.7,400z"/>
			<path fill="#535285" d="M347.7,400L347.7,400c-0.4,0-0.7-0.3-0.7-0.7v-0.5c0-0.4,0.3-0.7,0.7-0.7l0,0c0.4,0,0.7,0.3,0.7,0.7v0.5
				C348.4,399.7,348,400,347.7,400z"/>
			<path fill="#535285" d="M345.5,401.2L345.5,401.2c-0.4,0-0.7-0.3-0.7-0.7V400c0-0.4,0.3-0.7,0.7-0.7l0,0c0.4,0,0.7,0.3,0.7,0.7
				v0.5C346,400.9,345.7,401.2,345.5,401.2z"/>
			<path fill="#535285" d="M345.5,401.2L345.5,401.2c-0.4,0-0.7-0.3-0.7-0.7V400c0-0.4,0.3-0.7,0.7-0.7l0,0c0.4,0,0.7,0.3,0.7,0.7
				v0.5C346,400.9,345.7,401.2,345.5,401.2z"/>
			<path fill="#535285" d="M343.1,402.5L343.1,402.5c-0.4,0-0.7-0.3-0.7-0.7v-0.5c0-0.4,0.3-0.7,0.7-0.7l0,0c0.4,0,0.7,0.3,0.7,0.7
				v0.5C343.7,402.3,343.5,402.5,343.1,402.5z"/>
			<path fill="#535285" d="M343.1,402.5L343.1,402.5c-0.4,0-0.7-0.3-0.7-0.7v-0.5c0-0.4,0.3-0.7,0.7-0.7l0,0c0.4,0,0.7,0.3,0.7,0.7
				v0.5C343.7,402.3,343.5,402.5,343.1,402.5z"/>
			<path fill="#535285" d="M340.8,403.7L340.8,403.7c-0.4,0-0.7-0.3-0.7-0.7v-0.5c0-0.4,0.3-0.7,0.7-0.7l0,0c0.4,0,0.7,0.3,0.7,0.7
				v0.5C341.3,403.5,341.1,403.7,340.8,403.7z"/>
			<path fill="#535285" d="M340.8,403.7L340.8,403.7c-0.4,0-0.7-0.3-0.7-0.7v-0.5c0-0.4,0.3-0.7,0.7-0.7l0,0c0.4,0,0.7,0.3,0.7,0.7
				v0.5C341.3,403.5,341.1,403.7,340.8,403.7z"/>
			<path fill="#535285" d="M338.4,405.1L338.4,405.1c-0.4,0-0.7-0.3-0.7-0.7v-0.5c0-0.4,0.3-0.7,0.7-0.7l0,0c0.4,0,0.7,0.3,0.7,0.7
				v0.5C339.1,404.8,338.8,405.1,338.4,405.1z"/>
			<path fill="#535285" d="M338.4,405.1L338.4,405.1c-0.4,0-0.7-0.3-0.7-0.7v-0.5c0-0.4,0.3-0.7,0.7-0.7l0,0c0.4,0,0.7,0.3,0.7,0.7
				v0.5C339.1,404.8,338.8,405.1,338.4,405.1z"/>
			<path fill="#535285" d="M336.1,406.4L336.1,406.4c-0.4,0-0.7-0.3-0.7-0.7v-0.5c0-0.4,0.3-0.7,0.7-0.7l0,0c0.4,0,0.7,0.3,0.7,0.7
				v0.5C336.8,406.1,336.5,406.4,336.1,406.4z"/>
			<path fill="#535285" d="M336.1,406.4L336.1,406.4c-0.4,0-0.7-0.3-0.7-0.7v-0.5c0-0.4,0.3-0.7,0.7-0.7l0,0c0.4,0,0.7,0.3,0.7,0.7
				v0.5C336.8,406.1,336.5,406.4,336.1,406.4z"/>
			<path fill="#535285" d="M333.9,407.6L333.9,407.6c-0.4,0-0.7-0.3-0.7-0.7v-0.5c0-0.4,0.3-0.7,0.7-0.7l0,0c0.4,0,0.7,0.3,0.7,0.7
				v0.5C334.4,407.3,334.1,407.6,333.9,407.6z"/>
			<path fill="#535285" d="M333.9,407.6L333.9,407.6c-0.4,0-0.7-0.3-0.7-0.7v-0.5c0-0.4,0.3-0.7,0.7-0.7l0,0c0.4,0,0.7,0.3,0.7,0.7
				v0.5C334.4,407.3,334.1,407.6,333.9,407.6z"/>
			<path fill="#535285" d="M331.5,408.9L331.5,408.9c-0.4,0-0.7-0.3-0.7-0.7v-0.5c0-0.4,0.3-0.7,0.7-0.7l0,0c0.4,0,0.7,0.3,0.7,0.7
				v0.5C332.1,408.7,331.9,408.9,331.5,408.9z"/>
			<path fill="#535285" d="M331.5,408.9L331.5,408.9c-0.4,0-0.7-0.3-0.7-0.7v-0.5c0-0.4,0.3-0.7,0.7-0.7l0,0c0.4,0,0.7,0.3,0.7,0.7
				v0.5C332.1,408.7,331.9,408.9,331.5,408.9z"/>
			<path fill="#535285" d="M329.2,410.1L329.2,410.1c-0.4,0-0.7-0.3-0.7-0.7v-0.5c0-0.4,0.3-0.7,0.7-0.7l0,0c0.4,0,0.7,0.3,0.7,0.7
				v0.5C329.7,409.9,329.5,410.1,329.2,410.1z"/>
			<path fill="#535285" d="M329.2,410.1L329.2,410.1c-0.4,0-0.7-0.3-0.7-0.7v-0.5c0-0.4,0.3-0.7,0.7-0.7l0,0c0.4,0,0.7,0.3,0.7,0.7
				v0.5C329.7,409.9,329.5,410.1,329.2,410.1z"/>
			<path fill="#535285" d="M326.8,411.5L326.8,411.5c-0.4,0-0.7-0.3-0.7-0.7v-0.5c0-0.4,0.3-0.7,0.7-0.7l0,0c0.4,0,0.7,0.3,0.7,0.7
				v0.5C327.5,411.2,327.2,411.5,326.8,411.5z"/>
			<path fill="#535285" d="M326.8,411.5L326.8,411.5c-0.4,0-0.7-0.3-0.7-0.7v-0.5c0-0.4,0.3-0.7,0.7-0.7l0,0c0.4,0,0.7,0.3,0.7,0.7
				v0.5C327.5,411.2,327.2,411.5,326.8,411.5z"/>
			<path fill="#535285" d="M324.5,412.8L324.5,412.8c-0.4,0-0.7-0.3-0.7-0.7v-0.5c0-0.4,0.3-0.7,0.7-0.7l0,0c0.4,0,0.7,0.3,0.7,0.7
				v0.5C325.2,412.5,324.9,412.8,324.5,412.8z"/>
			<path fill="#535285" d="M324.5,412.8L324.5,412.8c-0.4,0-0.7-0.3-0.7-0.7v-0.5c0-0.4,0.3-0.7,0.7-0.7l0,0c0.4,0,0.7,0.3,0.7,0.7
				v0.5C325.2,412.5,324.9,412.8,324.5,412.8z"/>
			<path fill="#535285" d="M322.3,414L322.3,414c-0.4,0-0.7-0.3-0.7-0.7v-0.5c0-0.4,0.3-0.7,0.7-0.7l0,0c0.4,0,0.7,0.3,0.7,0.7v0.5
				C322.8,413.7,322.5,414,322.3,414z"/>
		</g>
		<path fill="#535285" d="M409.2,364.9l0.8,1.3c0,0,11.1-6.5,14.4-7.6c0,0-3.9,0.4-6.3,0.9C415.9,360.1,409.2,364.9,409.2,364.9z"/>
	</g>
	<g>
		
			<linearGradient id="SVGID_84_" gradientUnits="userSpaceOnUse" x1="206.6661" y1="819.2733" x2="235.1387" y2="778.249" gradientTransform="matrix(1.3267 0.1327 0.1327 -1.3267 -98.1272 1436.8124)">
			<stop  offset="0" style="stop-color:#D6DCFD"/>
			<stop  offset="1" style="stop-color:#292195"/>
		</linearGradient>
		<path fill="url(#SVGID_84_)" d="M322.3,408.7c0,0-11.2,4.7-17.3-0.9c-6.1-5.6-15.5-13.1-15.5-13.1s-5.9-3.1-7.9,2.8l10.1,28.7
			L322.3,408.7z"/>
		
			<linearGradient id="SVGID_85_" gradientUnits="userSpaceOnUse" x1="204.0388" y1="828.7233" x2="232.3732" y2="787.8979" gradientTransform="matrix(1.3267 0.1327 0.1327 -1.3267 -98.1272 1436.8124)">
			<stop  offset="0" style="stop-color:#D6DCFD"/>
			<stop  offset="1" style="stop-color:#292195"/>
		</linearGradient>
		<path fill="url(#SVGID_85_)" d="M322.3,408.7c0,0-11.2,4.7-17.3-0.9c-6.1-5.6-15.5-13.1-15.5-13.1s-2.9-1.6-5.3-0.4
			c-1.1,0.5,17.7,26,17.7,26L322.3,408.7z"/>
	</g>
	<g>
		
			<linearGradient id="SVGID_86_" gradientUnits="userSpaceOnUse" x1="201.1411" y1="809.5904" x2="277.4998" y2="809.5904" gradientTransform="matrix(1.3267 0.1327 0.1327 -1.3267 -98.1272 1436.8124)">
			<stop  offset="0" style="stop-color:#D6DCFD"/>
			<stop  offset="1" style="stop-color:#292195"/>
		</linearGradient>
		<path fill="url(#SVGID_86_)" d="M278.4,385.2c0,0-8-7.3,12.1-3.9s87.1,11.1,87.1,11.1s6.8,5.7-33.5,13.6l-10-4.1L278.4,385.2z"/>
		
			<linearGradient id="SVGID_87_" gradientUnits="userSpaceOnUse" x1="277.5007" y1="813.7076" x2="209.2711" y2="813.7076" gradientTransform="matrix(1.3267 0.1327 0.1327 -1.3267 -98.1272 1436.8124)">
			<stop  offset="0" style="stop-color:#D6DCFD"/>
			<stop  offset="1" style="stop-color:#292195"/>
		</linearGradient>
		<path fill="url(#SVGID_87_)" d="M290.5,381.5c20.1,3.5,87.1,11.1,87.1,11.1s2.1,1.9-3.2,4.8C370.1,399.7,270.4,378,290.5,381.5z"
			/>
		
			<linearGradient id="SVGID_88_" gradientUnits="userSpaceOnUse" x1="207.595" y1="829.6169" x2="266.8" y2="829.6169" gradientTransform="matrix(1.3333 0 0 -1.3333 0 1500.0001)">
			<stop  offset="0" style="stop-color:#D6DCFD"/>
			<stop  offset="1" style="stop-color:#292195"/>
		</linearGradient>
		<path opacity="0.2" fill="url(#SVGID_88_)" enable-background="new    " d="M278.4,385.2c0,0-2.4-2.1-1.3-3.6
			c0.9-1.2,78.7,22,78.7,22c-3.3,0.8-7.2,1.7-11.7,2.5l-10-4.1L278.4,385.2z"/>
	</g>
	
		<linearGradient id="SVGID_89_" gradientUnits="userSpaceOnUse" x1="242.8988" y1="769.6875" x2="222.2607" y2="780.0852" gradientTransform="matrix(1.3267 0.1327 0.1327 -1.3267 -98.1272 1436.8124)">
		<stop  offset="0" style="stop-color:#D6DCFD"/>
		<stop  offset="1" style="stop-color:#292195"/>
	</linearGradient>
	<path fill="url(#SVGID_89_)" d="M300,436.7c0,0,11.2,6,13.2,4.8c2-1.2,2.5-2.8,0-6.8l-0.5-0.8l-14,1.7L300,436.7z"/>
	<g>
		
			<linearGradient id="SVGID_90_" gradientUnits="userSpaceOnUse" x1="178.4958" y1="793.7824" x2="224.158" y2="780.2432" gradientTransform="matrix(1.3267 0.1327 0.1327 -1.3267 -98.1272 1436.8124)">
			<stop  offset="0" style="stop-color:#D6DCFD"/>
			<stop  offset="1" style="stop-color:#292195"/>
		</linearGradient>
		<path fill="url(#SVGID_90_)" d="M299.7,421.3l-36.9-3.7c0,0-6.9-0.8-8.3,0.5c-0.9,0.9-0.8,2.4,1.3,2.9l32.5,9.3
			C288.4,430.5,302.9,422.9,299.7,421.3z"/>
		
			<linearGradient id="SVGID_91_" gradientUnits="userSpaceOnUse" x1="218.8354" y1="766.7985" x2="188.4581" y2="797.1758" gradientTransform="matrix(1.3267 0.1327 0.1327 -1.3267 -98.1272 1436.8124)">
			<stop  offset="0" style="stop-color:#D6DCFD"/>
			<stop  offset="1" style="stop-color:#292195"/>
		</linearGradient>
		<path fill="url(#SVGID_91_)" d="M254.1,418.9c-0.3,0.8,0.1,1.9,1.7,2.3l32.5,9.3c0,0,2.3-1.2,4.9-2.8
			C293.2,427.7,254.1,418.7,254.1,418.9z"/>
	</g>
	<g>
		<g>
			<g>
				<path fill="#FFFFFF" d="M348.8,397.3c0,0-1.6-3.6,0.1-6c1.5-1.9,12.7-7.7,12.7-7.7s4-2,7.3,2.1c3.3,4.1-0.3,7.7-0.3,7.7
					S353.3,405.6,348.8,397.3"/>
				<path opacity="0.16" fill="#CACACA" enable-background="new    " d="M348.8,397.3l20.3-11.6c3.3,4.1-0.3,7.7-0.3,7.7
					S353.3,405.6,348.8,397.3"/>
				<path fill="#565EB0" d="M368.8,393.5c0,0,3.6-3.6,0.3-7.7c-3.3-4.1-7.3-2.1-7.3-2.1S359.5,391.5,368.8,393.5z"/>
				<path fill="#231C55" d="M361.7,385.3c0,0,2.8-2,5.7,1.1c2.9,3.1,1.9,4.9,1.1,6.1C368.4,392.7,362.8,392.7,361.7,385.3z"/>
				<path fill="#B3B3E1" d="M362.9,383.2c0,0-0.8,0.1-1.3,0.4c0,0-0.7,0.5-0.8,1.2c-0.3,2.1,0.5,7.1,6.9,8.8c0.3,0,0.5,0,0.9-0.1
					c0,0,0.7-0.7,1.2-2c0,0-0.4,0.9-1.2,1.1c-1.2,0.1-3.5-0.7-5.1-2.9c-1.2-1.7-1.9-3.6-1.9-4.8C362,383.6,362.9,383.2,362.9,383.2z
					"/>
			</g>
			<path fill="#565EB0" d="M348.8,397.3c0,0-1.6-3.6,0.1-6c0.1-0.3,0.8-0.8,1.1-0.9c-1.5,9.1,7.5,9.2,7.5,9.2
				C352.9,401.2,350.1,399.9,348.8,397.3"/>
		</g>
		<g>
			<g>
				<path fill="#FFFFFF" d="M393.2,417.7c0,0-1.5-3.2,0.1-5.2c1.2-1.6,11.1-6.8,11.1-6.8s3.5-1.7,6.4,1.9c2.9,3.6-0.3,6.8-0.3,6.8
					S397.1,424.9,393.2,417.7"/>
				<path opacity="0.16" fill="#CACACA" enable-background="new    " d="M393.2,417.7l17.6-10.1c2.9,3.6-0.3,6.8-0.3,6.8
					S397.1,424.9,393.2,417.7"/>
				<path fill="#565EB0" d="M410.7,414.4c0,0,3.2-3.2,0.3-6.8c-2.9-3.6-6.4-1.9-6.4-1.9S402.5,412.7,410.7,414.4z"/>
				<path fill="#231C55" d="M404.4,407.3c0,0,2.4-1.7,4.9,0.9c2.5,2.7,1.6,4.3,0.9,5.3C410.3,413.6,405.5,413.6,404.4,407.3z"/>
				<path fill="#B3B3E1" d="M405.6,405.5c0,0-0.7,0.1-1.1,0.4c0,0-0.5,0.4-0.7,1.1c-0.1,1.9,0.4,6.3,6,7.6c0.1,0,0.5,0,0.8-0.1
					c0,0,0.7-0.5,1.1-1.7c0,0-0.3,0.8-1.1,0.9c-1.1,0.1-2.9-0.5-4.4-2.5c-1.1-1.5-1.6-3.1-1.6-4.1
					C404.7,405.7,405.6,405.5,405.6,405.5z"/>
			</g>
			<path fill="#565EB0" d="M393.2,417.7c0,0-1.5-3.2,0.1-5.2c0.1-0.3,0.7-0.7,0.9-0.8c-1.2,7.9,6.5,8,6.5,8
				C396.8,421.1,394.4,420,393.2,417.7"/>
		</g>
	</g>
</g>
<path fill="#70C5C9" d="M284.5,445.7h5.1v-18H300v-4.1h-26v4.1h10.4v18H284.5z M304.7,445.7h5.1v-6.9h12.4c3.3,0,4.1,0.7,4.1,3.6
	v3.3h5.2v-4.4c0-2.1-0.7-3.3-2-4.1c-0.7-0.3-1.2-0.4-3.3-0.5c2.7-0.3,3.7-0.7,4.5-1.5c0.8-0.9,1.2-2.4,1.2-4.5
	c0-2.5-0.4-4.3-1.5-5.3c-1.2-1.3-2.9-1.7-6.8-1.7h-18.8L304.7,445.7L304.7,445.7z M309.7,434.8v-7.1H322c3.7,0,4.5,0.7,4.5,3.7
	c0,2.7-0.9,3.3-4.7,3.3H309.7L309.7,434.8z M359.6,441.5l2.5,4.4h5.6l-12.5-22.1h-6.9l-12.7,22.1h5.7l2.4-4.4H359.6L359.6,441.5z
	 M357.7,437.9h-12l6-10.7L357.7,437.9L357.7,437.9z M364.9,423.6h5.6l9.7,18.1l9.9-18.1h5.7l-12.3,22.1h-6.7L364.9,423.6
	L364.9,423.6z M400.1,445.7h23.7v-3.9h-18.7v-5.6h17.6v-3.5h-17.6v-5.2h18.5v-3.9h-23.6L400.1,445.7L400.1,445.7z M429.3,445.7h21.3
	v-4.1h-16.1v-18h-5.2V445.7L429.3,445.7z"/>
<path fill="#70C5C9" d="M553.3,445.9h4.9l-0.1-18.3l11.5,18.3h4l11.5-18.3l-0.1,18.3h5.1v-22.1h-7.9l-10.4,16.7l-10.4-16.7h-8V445.9
	L553.3,445.9z M618.1,441.5l2.5,4.4h5.6l-12.5-22.1h-6.9l-12.7,22.1h5.7l2.4-4.4H618.1L618.1,441.5z M616.3,437.9h-12l6-10.7
	L616.3,437.9L616.3,437.9z M629.5,445.9h5.1v-6.9h12.4c3.3,0,4.1,0.7,4.1,3.6v3.3h5.2v-4.4c0-2.1-0.7-3.3-2-4.1
	c-0.7-0.3-1.2-0.4-3.3-0.5c2.7-0.3,3.7-0.7,4.5-1.5c0.8-0.9,1.2-2.4,1.2-4.5c0-2.5-0.4-4.3-1.5-5.3c-1.2-1.3-2.9-1.7-6.8-1.7h-18.8
	v22.1H629.5z M634.5,434.9v-7.1h12.3c3.7,0,4.5,0.7,4.5,3.7c0,2.7-0.9,3.3-4.7,3.3H634.5L634.5,434.9z M662.4,445.9h5.1v-9.2h3.6
	l12.1,9.2h7.7l-15.2-11.3l14.1-10.9h-7.3l-11.3,8.8h-3.7v-8.8h-5.1V445.9L662.4,445.9z M695.1,445.9h23.7V442h-18.7v-5.6h17.6v-3.5
	h-17.6v-5.2h18.5v-3.9h-23.6V445.9L695.1,445.9z M733.3,445.9h5.1v-18h10.4v-4.1h-26v4.1h10.4L733.3,445.9L733.3,445.9z"/>
<g>
	
		<linearGradient id="SVGID_92_" gradientUnits="userSpaceOnUse" x1="350.9197" y1="685.3921" x2="397.8712" y2="711.3122" gradientTransform="matrix(1.3333 0 0 1.3333 0 -497.3334)">
		<stop  offset="0" style="stop-color:#7AD7FD"/>
		<stop  offset="0.502" style="stop-color:#4479FA"/>
		<stop  offset="1" style="stop-color:#9D58E9"/>
	</linearGradient>
	<path fill="url(#SVGID_92_)" d="M547.7,435.3c0,1.7-0.1,3.5-0.4,5.2c-0.1,0-0.1,0-0.3,0h-21.6c-0.8,0-1.5,0.8-1.5,1.7
		c0,0.9,0.7,1.7,1.5,1.7h21.2c-4.5,21.5-23.6,37.6-46.4,37.6c-26.1,0-47.3-21.2-47.3-47.3c0-3.1,0.3-6.1,0.9-9.1c0,0,0,0,0.1,0h12.3
		c0.8,0,1.5-0.8,1.5-1.7c0-0.9-0.7-1.7-1.5-1.7h-11.6c0.5-1.7,1.1-3.5,1.7-5.1h20.5c0.8,0,1.5-0.8,1.5-1.7s-0.7-1.7-1.5-1.7H458
		c7.7-15.5,23.9-26,42.3-26c25.3,0,46,19.9,47.3,44.9h-11.3c-0.8,0-1.5,0.8-1.5,1.7c0,0.9,0.7,1.7,1.5,1.7L547.7,435.3L547.7,435.3z
		"/>
	<path fill="#FFFFFF" d="M460.8,450.3c9.6,1.7,17.3,2.5,28.1,0.4c4-0.8,8.3-1.7,11.1-1.7l0,0c2.9,0,7.3,0.9,11.5,1.7
		c10.1,2,21.2,0.8,28.3-0.4c-0.8,1.9-1.6,3.6-2.5,5.3c-9.6,1.9-14.8,2.3-26.3,0c-4.1-0.8-8.4-1.7-11.1-1.6c-2.5,0-6.7,0.8-10.5,1.6
		c-10.5,2.1-17.3,1.6-26,0.1C462.5,453.9,461.6,452,460.8,450.3L460.8,450.3z M532.9,461.6c-1.7,2.1-3.7,4-5.9,5.7
		c-4.7,0.3-9.2-0.1-16-1.5c-4.1-0.8-8.4-1.7-11.1-1.6c-2.5,0-6.7,0.8-10.5,1.6c-6.3,1.3-11.2,1.6-16,1.3c-2-1.6-3.9-3.5-5.6-5.5
		c6.7,0.8,13.1,0.9,21.1-0.8c4-0.8,8.3-1.7,11.1-1.7l0,0c2.9,0,7.3,0.9,11.5,1.7C518.8,462.4,526.5,462.3,532.9,461.6L532.9,461.6z
		 M519.2,472.4c-3.2,1.6-6.5,2.8-10.1,3.5c-3.5-0.7-6.8-1.3-9.1-1.2c-2.1,0-5.3,0.5-8.5,1.2c-3.5-0.7-6.7-1.9-9.7-3.3
		c2.3-0.3,4.7-0.5,7.2-1.1c4-0.8,8.3-1.7,11.1-1.7l0,0c2.9,0,7.3,0.9,11.5,1.7C514.1,471.9,516.7,472.3,519.2,472.4z"/>
	<path fill="#FFFFFF" d="M508.8,450.3c0.1-2.7,0.4-6.4,0.8-8.7c0.7-4.3,1.6-8.4,3.2-12.4c0.9-2.1,1.9-4.4,2.8-6.5
		c1.2-2.5,2.8-4.9,4.4-7.2c0.1-0.3,0.3-0.3,0.3-0.5c0.5,0.4,0.9,4.1,0.9,4.7c0.3,3.6-0.4,6.7-2.1,9.5c-0.1,0.3-0.4,0.5-0.5,0.8
		c-0.1,0.1-0.1,0.3-0.3,0.4c-0.1,0.1-0.3,0.3-0.4,0.4c-0.3,0.3-0.4,0.4-0.7,0.8c-0.3,0.3-0.5,0.4-0.8,0.7c0.5,0,2-0.5,2.5-0.7
		c2.4-0.9,4.1-2,6-3.9c0.9-0.9,2-2.8,2.4-4.1c0.5-2,0.4-3.9-0.1-5.7c0.7,0.4,1.5,1.9,1.9,2.5c0.5,0.9,1.1,2,1.3,3.1
		c0.4,1.1,0.5,2.5,0.5,4c0,1.1-0.1,3.3-0.5,4c0.3-0.1,0.5-0.5,0.8-0.8c4-5.7,3.9-12.1-1.2-16.9c-0.1-0.1-0.3-0.3-0.4-0.4
		c1.1,0,3.3,1.5,4.3,2.3c1.7,1.3,2.5,2.5,3.5,4.4l0.1,0.3c0-2-0.1-3.7-0.8-5.5c-0.3-0.7-0.7-1.5-1.1-2.1c-0.4-0.5-0.9-1.3-1.3-1.7
		c-1.1-1.1-2.3-1.9-3.7-2.5c-1.2-0.5-2.7-0.8-4-0.7c-0.5,0-0.9,0.1-1.5,0.1c-0.3-0.7-0.4-2.8-2.4-4.9c-0.3-0.3-0.3-0.4-0.5-0.5
		c-4.3-4.3-10.7-4.4-15.3-1.2c-0.4,0.3-0.8,0.5-1.2,0.9c-0.3,0.3-1.1,0.8-1.1,1.1c1.6-0.8,5.2-0.5,6.8-0.1c2,0.5,3.6,1.6,4.7,3.1
		c-7.2-1.7-11.6,5.1-11.6,11.2v2.5c0,0.3,0.1,0.4,0.1,0.8c0.3-0.1,0.4-0.5,0.5-0.8c1.9-3.9,5.9-7.2,10.3-7.7
		c1.3-0.1,1.5,0.1,2.5,0.3c-0.1,0.3-0.3,0.4-0.4,0.7s-0.4,0.4-0.5,0.5c-0.9,1.2-1.9,2.4-2.8,3.7c-1.3,2-2.5,4.1-3.6,6.3
		c-1.1,2.3-2,4.7-2.9,7.1c-0.1,0.5-0.4,1.1-0.5,1.6c-1.2,3.5-2,6.8-2.8,10.4c-0.3,1.2-0.4,2.4-0.7,3.7c-0.1,1.1-0.3,3.2-0.4,4.3
		L508.8,450.3L508.8,450.3z"/>
	<circle fill="#FFFFFF" cx="488.9" cy="403.3" r="5.9"/>
	<path fill="#FFFFFF" d="M476.3,437.7c-0.1,0.9-0.5,1.6-0.5,2.9c0,1.2,0,2,0.3,3.2c0.8,3.2,3.5,6.1,6.4,7.6l1.2,0.5
		c0.4,0.3,0.8,0.4,1.2,0.5c0.4,0.1,0.7,0.3,0.9,0.4c0.3-0.1,0.4-0.4,0.7-0.5c-0.1-0.1-0.1-0.1-0.1-0.1c-1.2-1.2-2.1-2.8-2.8-4.4
		c-0.7-1.6-1.1-3.3-1.3-5.1c-0.1-0.7-0.1-2.4-0.1-3.1c0.1-1.5,0.3-2.8,0.5-4.1c0.1-0.4,0.3-0.8,0.4-1.2l1.7,1.9
		c0.5,0.7,1.1,1.3,1.6,2.1c0.7,0.9,1.2,1.9,1.6,2.9c0.1,0.3,0.1,0.4,0.3,0.7c1.1,2.1,1.7,4.4,2.4,6.7c0.1,0.7,0.4,1.2,0.5,1.9
		c1.2-0.3,2.4-0.4,3.6-0.4l-0.7-2c-1.5-4.3-3.2-8.3-5.6-12c-0.4-0.7-0.9-1.2-1.3-1.9c-0.4-0.5-1.2-1.3-1.5-1.7
		c0.3,0,0.4-0.1,0.7-0.1c3.1-0.7,6.4,0.3,8.8,2l0.8,0.7c0.3,0.3,0.5,0.4,0.8,0.8l0.7,0.8c0.9,1.1,1.7,2.3,2.4,3.6
		c0.1,0.3,0.4,0.8,0.5,0.9c0-0.5,0.1-1.1,0.1-1.6c0.1-2.7-0.3-5.3-1.2-7.7c-0.1-0.3-0.1-0.4-0.3-0.5l-0.7-1.2
		c-0.3-0.5-0.7-1.1-1.1-1.5c-0.1-0.1-0.3-0.3-0.4-0.4c-2.3-2.3-5.3-3.2-8.5-2.5c0.1-0.4,0.5-0.8,0.9-1.1c0.8-0.7,1.5-1.2,2.4-1.6
		c1.6-0.7,3.3-1.1,5.2-0.9c0.3,0,0.5,0,0.9,0c0.9,0,2,0.4,2.7,0.5c-0.4-0.5-1.6-1.5-2.3-1.9l-1.3-0.8c-2.9-1.5-5.6-1.7-8.7-0.9
		c-1.1,0.3-2,0.8-2.9,1.2c-0.4,0.3-0.8,0.5-1.2,0.8c-1.2,0.9-2.1,2-2.9,3.5c-0.4,0.7-0.9,2.3-0.9,3.2c-0.4,0-0.9-0.1-1.5-0.3
		c-1.5-0.1-3.3,0-4.8,0.4c-1.7,0.5-3.3,1.2-4.5,2.4c-0.3,0.3-0.7,0.5-0.9,0.8l-0.8,0.9c-1.9,2.5-2.3,5.1-2.3,8.3l0,0l0.7-1.2
		c0.5-0.8,1.1-1.6,1.7-2.3c0.9-1.1,2.1-2,3.3-2.7c0.8-0.4,2-1.1,2.8-1.2c-0.3,0.3-0.7,0.5-0.9,0.8c-0.4,0.4-0.8,0.9-1.2,1.3
		c-0.9,1.2-1.7,2.5-2.1,4c-0.1,0.4-0.3,0.8-0.4,1.3c-0.3,1.6-0.4,3.3,0,4.8c0.4,1.9,1.1,3.5,2,5.1c0.3,0.4,1.2,1.9,1.5,2
		c-1.1-4.8-0.3-9.2,2.7-13.2l0.8-1.1C476.1,437.9,476.1,437.9,476.3,437.7z"/>
</g>
</svg>
