<?xml version="1.0" encoding="iso-8859-1"?>
<!-- Generator: Adobe Illustrator 19.0.0, SVG Export Plug-In . SVG Version: 6.00 Build 0)  -->
<svg version="1.1" id="Capa_1" xmlns="http://www.w3.org/2000/svg" xmlns:xlink="http://www.w3.org/1999/xlink" x="0px" y="0px"
	 viewBox="0 0 512 512" style="enable-background:new 0 0 512 512;" xml:space="preserve">
<g>
	<g>
		<path fill="#00C7CB" d="M497,420h-23.031v-71.654c18.144-40.3,4.571-88.327-32.495-113.038c-17.223-11.482-27.505-30.694-27.505-51.393V165
			c0-8.284-6.716-15-15-15s-15,6.716-15,15v18.916c0,6.219-0.935,12.301-2.7,18.082l-43.745-87.49C351.5,106.864,361,92.021,361,75
			c0-19.555-12.541-36.228-30-42.42V15c0-8.284-6.716-15-15-15s-15,6.716-15,15v17.58c-17.459,6.192-30,22.865-30,42.42
			c0,17.021,9.5,31.864,23.476,39.508l-51.892,103.784C241.549,220.36,241,222.688,241,225v12.057
			c-0.824-0.59-1.646-1.183-2.495-1.749C221.282,223.827,211,204.614,211,183.916V165c0-8.284-6.716-15-15-15s-15,6.716-15,15
			v18.916c0,20.699-10.282,39.911-27.505,51.393c-7.838,5.225-14.607,11.506-20.267,18.524
			c-10.722-14.501-18.561-31.009-22.966-48.63l-4.71-18.84C103.883,179.685,97.883,175,91,175s-12.883,4.685-14.552,11.362
			l-4.71,18.84c-6.073,24.291-18.641,46.488-36.345,64.191c-20.81,20.81-22.267,53.743-4.394,76.266V420H15c-8.284,0-15,6.716-15,15
			v62c0,8.284,6.716,15,15,15h121h120h90h60h91c8.284,0,15-6.716,15-15v-62C512,426.716,505.284,420,497,420z M56.606,290.607
			C71.043,276.17,82.673,259.281,91,240.813c6.788,15.054,15.772,29.058,26.68,41.541c-4.513,13.609-5.823,28.234-3.597,42.646
			H53.035C46.088,314.368,47.278,299.935,56.606,290.607z M121,482H30v-32h16h75V482z M121,420H61v-65h60V420z M241,482h-90v-32h90
			V482z M241,420h-30v-15c0-8.284-6.716-15-15-15s-15,6.716-15,15v15h-30v-60h90V420z M245.994,329.999h-98.836
			c-0.509-0.567-1.048-1.105-1.636-1.59c-7.502-25.218,2.071-53.11,24.614-68.139c10.456-6.971,19.19-15.859,25.864-26.033
			c6.674,10.173,15.408,19.063,25.864,26.033C244.881,275.614,254.389,304.372,245.994,329.999z M316,60c8.271,0,15,6.729,15,15
			s-6.729,15-15,15s-15-6.729-15-15S307.729,60,316,60z M316,138.541L351.729,210H280.27L316,138.541z M323.969,482H271v-32h52.969
			V482z M323.969,348.346V420H271v-71.654c10.945-24.311,10.337-51.424,0-74.545V240h79.068
			C317.894,265.752,306.912,310.459,323.969,348.346z M443.969,482H406h-52.031v-32h90V482z M443.969,420h-30v-15
			c0-8.284-6.716-15-15-15s-15,6.716-15,15v15h-30v-60h90V420z M448.963,330h-99.988c-8.396-25.627,1.113-54.385,24.131-69.73
			c10.456-6.97,19.19-15.859,25.863-26.032c6.674,10.173,15.408,19.062,25.864,26.033C447.85,275.615,457.358,304.373,448.963,330z
			 M482,482h-8.031v-32H482V482z"/>
	</g>
</g>
<g>
</g>
<g>
</g>
<g>
</g>
<g>
</g>
<g>
</g>
<g>
</g>
<g>
</g>
<g>
</g>
<g>
</g>
<g>
</g>
<g>
</g>
<g>
</g>
<g>
</g>
<g>
</g>
<g>
</g>
</svg>
