<svg id="sapsan_logo" xmlns="http://www.w3.org/2000/svg" viewBox="0 0 128 46" width="128px" height="46px"><path fill="#e74c3c" id="_10" dataName="10" d="M82.07,23.51c-3.1.17-3.82,1.75-4.65,3.14h0c-.32.51-1.31,2-2.4,3.71H70.43l4.13-6.87c-.21,0-.8,0-1.16,0-3.1.17-3.89,1.75-4.73,3.14h0c-.69,1.09-4,6.43-6.05,9.72,4.07.11,5.38-2,6.39-3.69h4.56l-2.29,3.7a6.28,6.28,0,0,0,6.3-3.55c.64-1,5.63-9.33,5.63-9.33-.26,0-.8,0-1.15,0"></path><path fill="#e74c3c" id="_9" dataName="9" d="M35.41,23.51s-1.07,0-1.49,0a5.44,5.44,0,0,0-5,3.18S25.05,33.17,23,36.47c4.08.11,5.27-2.07,6.21-3.57.63-1,3.7-6.14,4.28-7l4.71,0c-4.09,6.77-4.08,6.76-6.43,10.6,4.07.11,5.28-2,6.22-3.54.77-1.24,5.67-9.39,5.67-9.39Z"></path><path fill="#e74c3c" id="_8" dataName="8" d="M10.29,33.79a7.31,7.31,0,0,1-2.88.61c-1.79,0-2.75-1.13-2.41-3.15A7.21,7.21,0,0,1,9.35,26c2.66-1.05,5.1.06,6.61-.79a3.92,3.92,0,0,0,1.37-1.26C7.87,20.82,1.76,27.58,1.08,31.57.54,34.77,2.73,37,6.09,37c4,0,7.05-2.13,9.69-4.51H12.17a8.35,8.35,0,0,1-1.88,1.3"></path><path fill="#e74c3c" id="_7" dataName="7" d="M23.82,32.49h-4l-.79,3.95a4.75,4.75,0,0,0,4.74-3.87Z"></path><path fill="#e74c3c" id="_6" dataName="6" d="M21.16,27l-.9,3.51h3.92c.36-1.89,1.29-6.72,1.35-7A8.84,8.84,0,0,0,21,24.54c-2,1.18-4.34,3.76-6.63,6h3.46c1-1.05,1.87-2,2.35-2.44a11.22,11.22,0,0,0,1-1.07"></path><path fill="#e74c3c" id="_5" dataName="5" d="M49.89,33.69a7.3,7.3,0,0,1-2.89.62c-1.79,0-2.75-1.14-2.41-3.15a7.29,7.29,0,0,1,4.35-5.3c2.66-1,5.11.07,6.61-.78a3.92,3.92,0,0,0,1.37-1.26c-9.45-3.09-15.56,3.66-16.24,7.65-.55,3.21,1.65,5.43,5,5.43,4,0,7-2.13,9.69-4.5h-3.6a8.52,8.52,0,0,1-1.88,1.29"></path><path fill="#e74c3c" id="_4" dataName="4" d="M63.41,32.4h-4l-.8,4a4.75,4.75,0,0,0,4.74-3.87Z"></path><path fill="#e74c3c" id="_3" dataName="3" d="M60.76,26.91l-.9,3.5h3.92c.36-1.89,1.29-6.72,1.35-7a8.75,8.75,0,0,0-4.51,1.09c-2,1.18-4.35,3.75-6.63,6h3.46c1-1,1.87-1.95,2.34-2.43.63-.64,1-1.07,1-1.07"></path><path fill="#e74c3c" id="_2" dataName="2" d="M126.8,35.29a15.53,15.53,0,0,0-3.52-2.39,13.39,13.39,0,0,0-5.39-1.2h-5.37s4.54-6.51,6.5-9.41c1.24-1.83.5-2.44-1.08-2.9-1.35-.4-29.83-9.08-31.39-9.57C71.14,4.93,67.13,1.7,67.13,1.7s2.53,5.83,16,10.22c2.24.73,19.37,6.23,26.21,8.26,1.43.43,1.54,1.06,1.07,1.3a2.6,2.6,0,0,1-1.58-.14C107.44,20.93,85,14,81.31,12.76,73.23,10,69.88,7.35,69.88,7.35s2.6,5.44,14,9.56c2.45.89,17.61,5.44,22.8,7.09,1.79.57,1.44,1.69-.37,1.18C105.07,24.83,89.5,20,86.41,19,76.15,15.9,73,12.66,73,12.66s2.68,6.24,11.81,9.22c2.12.69,22.83,7,22.87,7l-3.86,5.27c-.87,1.16-.58,2.25,1.12,2.25h17.75a16.11,16.11,0,0,0,3.9-.27c.63-.21.4-.63.21-.84"></path><path fill="#e74c3c" id="_1" dataName="1" d="M107.68,28.89l3.09.93c1,.35,2,.84,1.86,1.66-.22,1.07-3.64,1.43-7.14,2.45-1.37.4-2,.77-2.14,1.49a2,2,0,0,1,.47-1.26l3.86-5.27"></path></svg>