<?xml version="1.0" encoding="utf-8"?>
<!-- Generator: Adobe Illustrator 16.0.0, SVG Export Plug-In . SVG Version: 6.00 Build 0)  -->
<!DOCTYPE svg PUBLIC "-//W3C//DTD SVG 1.1//EN" "http://www.w3.org/Graphics/SVG/1.1/DTD/svg11.dtd">
<svg version="1.1" id="Capa_1" xmlns="http://www.w3.org/2000/svg" xmlns:xlink="http://www.w3.org/1999/xlink" x="0px" y="0px"
	 width="595.281px" height="110.55px" viewBox="0 0 595.281 110.55" enable-background="new 0 0 595.281 110.55"
	 xml:space="preserve">
<g>
	<rect x="287.276" y="48.366" fill="#FFA000" width="6.909" height="13.818"/>
	<rect x="301.094" y="48.366" fill="#FFA000" width="6.91" height="13.818"/>
	<rect x="287.276" y="82.913" fill="#FFA000" width="6.909" height="13.818"/>
	<rect x="301.094" y="82.913" fill="#FFA000" width="6.91" height="13.818"/>
</g>
<path fill="#2A3D71" d="M332.187,110.55h-69.094c-1.908,0-3.455-1.547-3.455-3.455V3.455c0-1.908,1.547-3.455,3.455-3.455h44.911
	c0.916-0.002,1.797,0.361,2.445,1.009l24.183,24.183c0.647,0.649,1.011,1.529,1.009,2.446v79.458
	C335.641,109.003,334.095,110.55,332.187,110.55z M266.548,103.64h62.185V29.075L306.574,6.909h-40.026V103.64z"/>
<path fill="#2A3D71" d="M318.368,96.731h-41.456c-1.908,0-3.454-1.546-3.454-3.454V51.82c0-1.908,1.546-3.455,3.454-3.455h41.456
	c1.908,0,3.455,1.546,3.455,3.455v41.457C321.823,95.185,320.276,96.731,318.368,96.731z M280.367,89.822h34.547V55.275h-34.547
	V89.822z"/>
<path fill="#2A3D71" d="M290.731,69.093c-1.908,0-3.455-1.547-3.455-3.454V51.82c0-1.908,1.547-3.455,3.455-3.455c1.907,0,3.454,1.546,3.454,3.455
	v13.819C294.185,67.546,292.638,69.093,290.731,69.093z"/>
<path fill="#2A3D71" d="M304.55,69.093c-1.908,0-3.455-1.547-3.455-3.454V51.82c0-1.908,1.547-3.455,3.455-3.455s3.455,1.546,3.455,3.455v13.819
	C308.005,67.546,306.458,69.093,304.55,69.093z"/>
<path fill="#2A3D71" d="M290.731,96.731c-1.908,0-3.455-1.546-3.455-3.454V79.458c0-1.907,1.547-3.454,3.455-3.454c1.907,0,3.454,1.547,3.454,3.454
	v13.819C294.185,95.185,292.638,96.731,290.731,96.731z"/>
<path fill="#2A3D71" d="M304.55,96.731c-1.908,0-3.455-1.546-3.455-3.454V79.458c0-1.907,1.547-3.454,3.455-3.454s3.455,1.547,3.455,3.454v13.819
	C308.005,95.185,306.458,96.731,304.55,96.731z"/>
</svg>
