<?xml version="1.0" encoding="utf-8"?>
<!-- Generator: Adobe Illustrator 16.0.0, SVG Export Plug-In . SVG Version: 6.00 Build 0)  -->
<!DOCTYPE svg PUBLIC "-//W3C//DTD SVG 1.1//EN" "http://www.w3.org/Graphics/SVG/1.1/DTD/svg11.dtd">
<svg version="1.1" id="Capa_1" xmlns="http://www.w3.org/2000/svg" xmlns:xlink="http://www.w3.org/1999/xlink" x="0px" y="0px"
	 width="595.281px" height="110.55px" viewBox="0 0 595.281 110.55" enable-background="new 0 0 595.281 110.55"
	 xml:space="preserve">
<g>
	
		<rect x="288.265" y="49.025" fill="#00C7CB" stroke="#FFFFFF" stroke-width="3" stroke-miterlimit="10" width="6.25" height="12.5"/>
	
		<rect x="300.764" y="49.025" fill="#00C7CB" stroke="#FFFFFF" stroke-width="3" stroke-miterlimit="10" width="6.251" height="12.5"/>
	
		<rect x="288.265" y="80.276" fill="#00C7CB" stroke="#FFFFFF" stroke-width="3" stroke-miterlimit="10" width="6.25" height="12.499"/>
	
		<rect x="300.764" y="80.276" fill="#00C7CB" stroke="#FFFFFF" stroke-width="3" stroke-miterlimit="10" width="6.251" height="12.499"/>
</g>
<path fill="#00C7CB" stroke="#FFFFFF" stroke-width="3" stroke-miterlimit="10" d="M328.891,105.275H266.39
	c-1.726,0-3.125-1.399-3.125-3.125V8.4c0-1.726,1.399-3.125,3.125-3.125h40.625c0.829-0.001,1.626,0.327,2.212,0.913l21.875,21.875
	c0.586,0.587,0.914,1.383,0.912,2.213v71.875C332.014,103.875,330.616,105.275,328.891,105.275z M269.515,99.025h56.25V31.576
	l-20.043-20.051h-36.207V99.025z"/>
<path fill="#00C7CB" stroke="#FFFFFF" stroke-width="3" stroke-miterlimit="10" d="M316.39,92.775h-37.5
	c-1.726,0-3.125-1.398-3.125-3.125v-37.5c0-1.726,1.398-3.125,3.125-3.125h37.5c1.726,0,3.126,1.398,3.126,3.125v37.5
	C319.516,91.376,318.115,92.775,316.39,92.775z M282.016,86.525h31.25v-31.25h-31.25V86.525z"/>
<path fill="#00C7CB" stroke="#FFFFFF" stroke-width="3" stroke-miterlimit="10" d="M291.39,67.775c-1.726,0-3.125-1.399-3.125-3.125
	v-12.5c0-1.726,1.4-3.125,3.125-3.125c1.725,0,3.125,1.398,3.125,3.125v12.5C294.515,66.375,293.115,67.775,291.39,67.775z"/>
<path fill="#00C7CB" stroke="#FFFFFF" stroke-width="3" stroke-miterlimit="10" d="M303.891,67.775
	c-1.726,0-3.125-1.399-3.125-3.125v-12.5c0-1.726,1.399-3.125,3.125-3.125s3.125,1.398,3.125,3.125v12.5
	C307.016,66.375,305.616,67.775,303.891,67.775z"/>
<path fill="#00C7CB" stroke="#FFFFFF" stroke-width="3" stroke-miterlimit="10" d="M291.39,92.775c-1.726,0-3.125-1.398-3.125-3.125
	V77.151c0-1.727,1.4-3.126,3.125-3.126c1.725,0,3.125,1.399,3.125,3.126V89.65C294.515,91.376,293.115,92.775,291.39,92.775z"/>
<path fill="#00C7CB" stroke="#FFFFFF" stroke-width="3" stroke-miterlimit="10" d="M303.891,92.775
	c-1.726,0-3.125-1.398-3.125-3.125V77.151c0-1.727,1.399-3.126,3.125-3.126s3.125,1.399,3.125,3.126V89.65
	C307.016,91.376,305.616,92.775,303.891,92.775z"/>
</svg>
