<svg height="480pt" viewBox="0 -8 480 480" width="480pt" xmlns="http://www.w3.org/2000/svg"><path fill="#00C7CB" d="m472 448v-88h-8v-21.601562c0-2.398438-.800781-4.796876-1.601562-7.199219l-6.398438-20.800781c-.800781-13.597657-12-23.199219-25.601562-22.398438-12 .800781-21.597657 10.398438-22.398438 22.398438l-7.199219 20.800781c0 2.402343-.800781 4.800781-.800781 7.199219v21.601562h-24v-22.398438l8-16v-12l-8-16v-133.601562h16v-28l-61.601562-44h-7.199219l-64-56h-11.199219v-32h-16v32h-11.199219l-64 56h-7.199219l-61.601562 44v28h16v134.398438l-8 16v12l8 16v21.601562h-24v-21.601562c0-2.398438-.800781-4.796876-1.601562-7.199219l-6.398438-20.800781c-.800781-13.597657-12-23.199219-25.601562-22.398438-12 .800781-21.597657 10.398438-22.398438 22.398438l-7.199219 20.800781c0 2.402343-.800781 4.800781-.800781 7.199219v21.601562h-8v88h-8v16h480v-16zm-56-109.601562c0-.796876 0-1.597657.800781-2.398438l7.199219-22.398438v-1.601562c0-4.800781 3.199219-8 8-8s8 3.199219 8 8v1.601562l7.199219 22.398438c0 .800781.800781 1.601562.800781 2.398438v21.601562h-32zm-80-74.398438v-16h24v16zm-76.800781-160 23.199219 40h-84.796876l23.199219-40zm-31.199219-16 12-28 12 28zm100 72v12.800781l-3.199219 3.199219h-20.800781v-16zm32 72h-24v-44.800781l8-8v-19.199219h16zm-120-32c-17.601562 0-32 14.398438-32 32h-16v-40h96v40h-16c0-17.601562-14.398438-32-32-32zm16 32h-32c0-8.800781 7.199219-16 16-16s16 7.199219 16 16zm48-40h16v40h-16zm-16-32v16h-96v-16zm-112 16h-20.800781l-3.199219-3.199219v-12.800781h24zm-32 11.199219v44.800781h-24v-72h16v19.199219zm16 4.800781h16v40h-16zm16 56v16h-16v-16zm16 0h16v16h-16zm32 0h32v16h-32zm48 0h16v16h-16zm32 0h16v16h-16zm21.601562-144 50.398438 36v4h-75.199219l-23.199219-40zm-27.203124-16h-29.597657l-16.800781-40h.800781zm-71.199219-40h.800781l-16.800781 40h-29.597657zm-123.199219 92 50.398438-36h48l-23.199219 40h-75.199219zm16 108h24v16h-24zm-8 70.398438v-4l8-16v-18.398438h240v17.601562l8 16v4l-8 16v26.398438h-240v-25.601562zm-80 20c0-.796876 0-1.597657.800781-2.398438l7.199219-22.398438v-1.601562c0-4.800781 3.199219-8 8-8s8 3.199219 8 8v1.601562l7.199219 22.398438c0 .800781.800781 1.601562.800781 2.398438v21.601562h-32zm-8 37.601562h432v72h-432zm0 0"/><path fill="#00C7CB" d="m264 320c0-13.601562-10.398438-24-24-24s-24 10.398438-24 24v24h48zm-16 8h-16v-8c0-4.800781 3.199219-8 8-8s8 3.199219 8 8zm0 0"/><path fill="#00C7CB" d="m280 296h64v16h-64zm0 0"/><path fill="#00C7CB" d="m280 328h64v16h-64zm0 0"/><path fill="#00C7CB" d="m136 296h64v16h-64zm0 0"/><path fill="#00C7CB" d="m136 328h64v16h-64zm0 0"/><path fill="#00C7CB" d="m40 392h16v40h-16zm0 0"/><path fill="#00C7CB" d="m88 392h16v40h-16zm0 0"/><path fill="#00C7CB" d="m136 392h16v40h-16zm0 0"/><path fill="#00C7CB" d="m184 392h16v40h-16zm0 0"/><path fill="#00C7CB" d="m232 392h16v40h-16zm0 0"/><path fill="#00C7CB" d="m280 392h16v40h-16zm0 0"/><path fill="#00C7CB" d="m328 392h16v40h-16zm0 0"/><path fill="#00C7CB" d="m376 392h16v40h-16zm0 0"/><path fill="#00C7CB" d="m424 392h16v40h-16zm0 0"/></svg>