<?xml version="1.0" encoding="utf-8"?>
<!-- Generator: Adobe Illustrator 16.0.0, SVG Export Plug-In . SVG Version: 6.00 Build 0)  -->
<!DOCTYPE svg PUBLIC "-//W3C//DTD SVG 1.1//EN" "http://www.w3.org/Graphics/SVG/1.1/DTD/svg11.dtd">
<svg version="1.1" id="Layer_1" xmlns="http://www.w3.org/2000/svg" xmlns:xlink="http://www.w3.org/1999/xlink" x="0px" y="0px"
	 width="512px" height="512px" viewBox="0 0 512 512" enable-background="new 0 0 512 512" xml:space="preserve">
<g>
	<path fill="#00C7CB" stroke="#FDFFFF" stroke-width="8" stroke-miterlimit="10" d="M417.998,98.148h-53.443
		c-0.459-7.19-6.418-12.885-13.725-12.885h-0.709V55.735C350.12,36.583,334.378,21,315.028,21H196.972
		c-19.35,0-35.094,15.583-35.094,34.735v29.528h-0.709c-7.305,0-13.266,5.694-13.724,12.885H94.001
		c-39.86,0-72.289,32.428-72.289,72.288v261.516c0,32.56,26.489,59.048,59.048,59.048H431.24c32.559,0,59.046-26.488,59.046-59.048
		V170.436C490.286,130.576,457.857,98.148,417.998,98.148z M264.575,125.687c12.289,2.453,22.978,9.417,30.178,19.721
		c7.403,10.596,10.239,23.442,7.981,36.169c-0.89,5.021-2.534,9.78-4.879,14.208l-38.692,4.44c-3.955,0.454-7.519,2.597-9.775,5.877
		l-56.677,82.408c-2.07,3.008-2.859,6.717-2.195,10.308c0.664,3.592,2.728,6.771,5.737,8.842l56.525,38.876
		c2.383,1.639,5.101,2.425,7.79,2.425c4.38,0,8.687-2.085,11.358-5.968l56.676-82.407c2.256-3.279,2.982-7.375,1.99-11.23
		l-9.802-38.132c4.451-7.666,7.493-16.002,9.06-24.835c3.542-19.971-0.906-40.126-12.524-56.753
		c-0.948-1.357-1.95-2.664-2.975-3.946h49.723v337.772H147.926V125.687H264.575z M302.363,250.141l-45.325,65.9l-33.833-23.271
		l45.325-65.9l27.054-3.105L302.363,250.141z M189.418,55.735c0-4.102,3.247-7.196,7.555-7.196h118.055
		c4.306,0,7.554,3.094,7.554,7.196v29.528h-0.711c-7.305,0-13.266,5.694-13.725,12.885H203.854
		c-0.458-7.19-6.419-12.885-13.724-12.885h-0.711V55.735z M49.252,431.952V170.436c0-24.675,20.075-44.749,44.75-44.749h26.384
		v337.774H80.761C63.387,463.461,49.252,449.326,49.252,431.952z M462.747,431.952c0,17.374-14.133,31.509-31.507,31.509h-39.627
		V125.687h26.385c24.675,0,44.749,20.074,44.749,44.749V431.952z"/>
</g>
</svg>
