<?xml version="1.0" encoding="iso-8859-1"?>
<!-- Generator: Adobe Illustrator 19.0.0, SVG Export Plug-In . SVG Version: 6.00 Build 0)  -->
<svg xmlns="http://www.w3.org/2000/svg" xmlns:xlink="http://www.w3.org/1999/xlink" version="1.1" id="Layer_1" x="0px" y="0px" viewBox="0 0 512.025 512.025" style="enable-background:new 0 0 512.025 512.025;" xml:space="preserve" width="512" height="512">
<g>
	<path fill="#00C7CB" d="M496.927,408.377h-77.266l-18.949-23.455h27.536c26.85,0,51.395-12.389,67.341-33.99   c15.947-21.601,20.558-48.706,12.651-74.364l-26.438-85.791c-5.308-17.225-15.778-31.986-30.278-42.691   c-14.5-10.704-31.691-16.362-49.714-16.362h-98.319c-0.389-1.677-1.059-3.318-2.059-4.842l-15.257-23.232h1.042   c8.284,0,15-6.716,15-15s-6.716-15-15-15h-72.736c-8.284,0-15,6.716-15,15s6.716,15,15,15h36.637   c0.407,1.44,1.034,2.843,1.899,4.16l15.705,23.914H48.157C21.603,131.723,0,153.326,0,179.88v156.885   c0,25.722,20.27,46.798,45.675,48.094l19,23.518H15c-8.284,0-15,6.716-15,15s6.716,15,15,15h481.927c8.284,0,15-6.716,15-15   S505.211,408.377,496.927,408.377z M381.094,408.377h-40.538l-18.949-23.455h40.538L381.094,408.377z M261.452,408.377   l-18.949-23.455h40.537l18.949,23.455H261.452z M182.347,408.377l-18.949-23.455h40.538l18.949,23.455H182.347z M453.134,199.61   l11.923,38.692h-84.726c-11.944,0-21.661-9.717-21.661-21.661v-54.919h43.142C425.526,161.723,446.15,176.948,453.134,199.61z    M30,336.765v-16.991h392.191c8.284,0,15-6.716,15-15s-6.716-15-15-15H30V179.88c0-10.012,8.145-18.157,18.157-18.157H328.67   v54.919c0,28.486,23.175,51.661,51.661,51.661h93.971l5.269,17.1c0.447,1.45,0.809,2.909,1.132,4.371h-6.057   c-8.284,0-15,6.716-15,15s6.716,15,15,15h4.03c-1.741,4.684-4.146,9.174-7.222,13.341c-10.231,13.859-25.979,21.808-43.206,21.808   H48.157C38.145,354.922,30,346.776,30,336.765z M84.294,384.922h40.537l18.949,23.455h-40.537L84.294,384.922z"/>
	<path fill="#00C7CB" d="M142.957,181.598H66.122c-8.853,0-16.055,7.202-16.055,16.055v54.597c0,8.852,7.202,16.054,16.055,16.054h76.835   c8.853,0,16.054-7.202,16.054-16.054v-54.597C159.011,188.8,151.81,181.598,142.957,181.598z M129.011,238.303H80.067v-26.705   h48.944V238.303z"/>
	<path fill="#00C7CB" d="M277.822,181.598h-76.835c-8.853,0-16.055,7.202-16.055,16.055v54.597c0,8.852,7.202,16.054,16.055,16.054h76.835   c8.853,0,16.055-7.202,16.055-16.054v-54.597C293.876,188.8,286.674,181.598,277.822,181.598z M263.876,238.303h-48.944v-26.705   h48.944V238.303z"/>
</g>















</svg>
