<?xml version="1.0" encoding="utf-8"?>
<!-- Generator: Adobe Illustrator 16.0.0, SVG Export Plug-In . SVG Version: 6.00 Build 0)  -->
<!DOCTYPE svg PUBLIC "-//W3C//DTD SVG 1.1//EN" "http://www.w3.org/Graphics/SVG/1.1/DTD/svg11.dtd">
<svg version="1.1" id="Layer_1" xmlns="http://www.w3.org/2000/svg" xmlns:xlink="http://www.w3.org/1999/xlink" x="0px" y="0px"
	 width="512px" height="512px" viewBox="0 0 512 512" enable-background="new 0 0 512 512" xml:space="preserve">
<g>
	<path fill="#00C7CB" stroke="#FFFFFF" stroke-width="12" stroke-miterlimit="10" d="M454.16,381.325h-63.554l-15.586-19.293h22.649
		c22.085,0,42.273-10.19,55.39-27.957c13.117-17.769,16.91-40.063,10.405-61.167l-21.746-70.566
		c-4.365-14.168-12.978-26.31-24.904-35.115c-11.927-8.804-26.066-13.458-40.891-13.458h-80.871
		c-0.319-1.38-0.871-2.729-1.693-3.983l-12.55-19.109h0.857c6.813,0,12.338-5.524,12.338-12.338c0-6.813-5.524-12.338-12.338-12.338
		h-59.828c-6.814,0-12.338,5.524-12.338,12.338c0,6.814,5.524,12.338,12.338,12.338h30.135c0.334,1.185,0.85,2.338,1.562,3.422
		l12.918,19.67H85.032c-21.841-0.001-39.611,17.768-39.611,39.609v129.043c0,21.157,16.673,38.492,37.569,39.559l15.628,19.345
		h-40.86c-6.813,0-12.338,5.523-12.338,12.338c0,6.813,5.524,12.338,12.338,12.338H454.16c6.814,0,12.338-5.524,12.338-12.338
		C466.498,386.849,460.975,381.325,454.16,381.325z M358.884,381.325h-33.345l-15.585-19.293h33.343L358.884,381.325z
		 M260.475,381.325l-15.587-19.293h33.344l15.586,19.293H260.475z M195.407,381.325l-15.586-19.293h33.344l15.586,19.293H195.407z
		 M418.14,209.607l9.807,31.826h-69.69c-9.824,0-17.816-7.993-17.816-17.817v-45.173h35.486
		C395.43,178.444,412.395,190.967,418.14,209.607z M70.097,322.422v-13.976h322.589c6.814,0,12.339-5.524,12.339-12.339
		c0-6.813-5.524-12.337-12.339-12.337H70.097v-90.392c0-8.235,6.699-14.935,14.935-14.935h230.732v45.173
		c0,23.431,19.062,42.493,42.492,42.493h77.295l4.334,14.065c0.367,1.192,0.665,2.393,0.931,3.596h-4.982
		c-6.813,0-12.337,5.523-12.337,12.337c0,6.814,5.523,12.339,12.337,12.339h3.314c-1.431,3.853-3.409,7.546-5.94,10.974
		c-8.415,11.399-21.368,17.938-35.537,17.938H85.032C76.796,337.356,70.097,330.656,70.097,322.422z M114.756,362.032h33.343
		l15.586,19.293h-33.343L114.756,362.032z"/>
	<path fill="#00C7CB" stroke="#FFFFFF" stroke-width="12" stroke-miterlimit="10" d="M163.008,194.792h-63.2
		c-7.282,0-13.206,5.924-13.206,13.206v44.908c0,7.281,5.924,13.205,13.206,13.205h63.2c7.282,0,13.205-5.924,13.205-13.205v-44.908
		C176.213,200.716,170.29,194.792,163.008,194.792z M151.537,241.434h-40.258v-21.966h40.258V241.434z"/>
	<path fill="#00C7CB" stroke="#FFFFFF" stroke-width="12" stroke-miterlimit="10" d="M273.939,194.792h-63.2
		c-7.282,0-13.206,5.924-13.206,13.206v44.908c0,7.281,5.924,13.205,13.206,13.205h63.2c7.281,0,13.206-5.924,13.206-13.205v-44.908
		C287.144,200.716,281.22,194.792,273.939,194.792z M262.468,241.434h-40.258v-21.966h40.258V241.434z"/>
</g>
</svg>
