<?xml version="1.0" encoding="utf-8"?>
<!-- Generator: Adobe Illustrator 16.0.0, SVG Export Plug-In . SVG Version: 6.00 Build 0)  -->
<!DOCTYPE svg PUBLIC "-//W3C//DTD SVG 1.1//EN" "http://www.w3.org/Graphics/SVG/1.1/DTD/svg11.dtd">
<svg version="1.1" id="Capa_1" xmlns="http://www.w3.org/2000/svg" xmlns:xlink="http://www.w3.org/1999/xlink" x="0px" y="0px"
	 width="302px" height="302px" viewBox="350 -50 302 302" enable-background="new 0 0 302 302" xml:space="preserve">
<linearGradient id="SVGID_1_" gradientUnits="userSpaceOnUse" x1="355.9719" y1="223.804" x2="439.502" y2="269.9176">
   <stop offset="0" style="stop-opacity:1; stop-color:#14C6E5; /*stop-color:#00D9FF;*/"/>
   <stop offset="0.501961" style="stop-opacity:1;stop-color:#3993F6; /*stop-color:#007AFF;*/"/>
   <stop offset="1" style="stop-opacity:1;stop-color:#B873E5; /*stop-color:#B357EF;*/"/>
	</linearGradient>
<g>
	<g>
		<path style="fill-rule:evenodd;clip-rule:evenodd;fill:url(#SVGID_1_);" fill="#00C7CB" stroke="#FFFFFF" stroke-width="8" stroke-miterlimit="10" d="M619.566,68.348
			c-4.525-9.05-13.623-14.672-23.741-14.672H393.238C368.845,53.676,349,73.521,349,97.914v106.172
			c0,14.636,11.907,26.543,26.543,26.543h13.609c6.129,10.568,17.559,17.695,30.629,17.695s24.5-7.127,30.63-17.695h99.178
			c6.13,10.568,17.56,17.695,30.63,17.695s24.5-7.127,30.63-17.695h13.608c14.636,0,26.543-11.907,26.543-26.543V170.9
			C651,117.489,626.494,85.311,619.566,68.348z M618.932,106.762c5.299,11.25,9.182,23.174,11.565,35.391h-50.278v-35.391H618.932z
			 M419.781,230.629c-9.757,0-17.695-7.938-17.695-17.695s7.938-17.695,17.695-17.695c9.757,0,17.695,7.938,17.695,17.695
			S429.538,230.629,419.781,230.629z M580.219,230.629c-9.757,0-17.695-7.938-17.695-17.695s7.938-17.695,17.695-17.695
			s17.695,7.938,17.695,17.695S589.976,230.629,580.219,230.629z M633.305,177.543h-8.848c-4.887,0-8.848,3.961-8.848,8.848
			s3.961,8.848,8.848,8.848h8.848v8.848c0,4.879-3.969,8.848-8.848,8.848h-8.848c0-19.514-15.876-35.391-35.391-35.391
			s-35.391,15.877-35.391,35.391h-89.656c0-19.514-15.876-35.391-35.391-35.391s-35.391,15.877-35.391,35.391h-8.848
			c-4.878,0-8.848-3.969-8.848-8.848v-8.848h8.848c4.886,0,8.848-3.961,8.848-8.848s-3.961-8.848-8.848-8.848h-8.848V97.914
			c0-14.636,11.907-26.543,26.543-26.543h202.587c3.373,0,6.405,1.874,7.914,4.891l6.402,12.804h-38.771
			c-4.887,0-8.848,3.961-8.848,8.848V151c0,4.887,3.961,8.848,8.848,8.848h61.505c0.274,3.679,0.429,7.365,0.429,11.053V177.543z"/>
	</g>
</g>
<g>
	<g>
		<path style="fill-rule:evenodd;clip-rule:evenodd;fill:url(#SVGID_1_);" fill="#00C7CB" stroke="#FFFFFF" stroke-width="8" stroke-miterlimit="10" d="M535.98,89.066h-54.266
			c-4.887,0-8.848,3.961-8.848,8.848V151c0,4.887,3.961,8.848,8.848,8.848h54.266c4.887,0,8.848-3.961,8.848-8.848V97.914
			C544.828,93.028,540.867,89.066,535.98,89.066z M527.133,142.152h-36.57v-35.391h36.57V142.152z"/>
	</g>
</g>
<g>
	<g>
		<path style="fill-rule:evenodd;clip-rule:evenodd;fill:url(#SVGID_1_);" fill="#00C7CB" stroke="#FFFFFF" stroke-width="8" stroke-miterlimit="10" d="M446.324,89.066h-53.086
			c-4.886,0-8.848,3.961-8.848,8.848V151c0,4.887,3.961,8.848,8.848,8.848h53.086c4.887,0,8.848-3.961,8.848-8.848V97.914
			C455.172,93.028,451.211,89.066,446.324,89.066z M437.477,142.152h-35.391v-35.391h35.391V142.152z"/>
	</g>
</g>
</svg>
