<?xml version="1.0" encoding="iso-8859-1"?>
<!-- Generator: Adobe Illustrator 19.0.0, SVG Export Plug-In . SVG Version: 6.00 Build 0)  -->
<svg version="1.1" id="Capa_1" xmlns="http://www.w3.org/2000/svg" xmlns:xlink="http://www.w3.org/1999/xlink" x="0px" y="0px"
	 viewBox="0 0 512 512" style="enable-background:new 0 0 512 512;" xml:space="preserve">
<g>
	<g>
		<path fill="#00C7CB" d="M506.809,232.597l-91.059-85.061c-3.032-2.83-7.017-4.406-11.167-4.406H218.65c-4.526,0-8.85,1.876-11.941,5.18
			l-75.889,81.08L40.84,245.329C17.176,249.413,0,269.719,0,293.623v64.341c0,9.035,7.323,16.358,16.358,16.358h44.166v-32.716
			H32.716v-47.983c0-7.934,5.758-14.684,13.757-16.063l95.421-16.903c3.484-0.616,6.674-2.345,9.089-4.929l74.761-79.881h172.39
			l81.151,75.808v89.952h-21.81v32.716h38.168c9.04,0,16.358-7.323,16.358-16.358V244.549
			C512,240.018,510.119,235.689,506.809,232.597z"/>
	</g>
</g>
<g>
	<g>
		<rect fill="#00C7CB" x="154.309" y="341.606" width="209.38" height="32.716"/>
	</g>
</g>
<g>
	<g>
		<path fill="#00C7CB" d="M107.416,290.891c-34.875,0-63.25,28.37-63.25,63.25s28.375,63.256,63.25,63.256s63.25-28.375,63.25-63.256
			S142.291,290.891,107.416,290.891z M107.416,384.687c-16.838,0-30.535-13.702-30.535-30.54c0-16.838,13.697-30.535,30.535-30.535
			s30.535,13.697,30.535,30.535C137.951,370.985,124.249,384.687,107.416,384.687z"/>
	</g>
</g>
<g>
	<g>
		<path fill="#00C7CB" d="M410.581,290.891c-34.88,0-63.25,28.37-63.25,63.25s28.375,63.256,63.25,63.256s63.25-28.37,63.25-63.25
			C473.832,319.267,445.462,290.891,410.581,290.891z M410.581,384.687c-16.838,0-30.535-13.702-30.535-30.54
			c0-16.838,13.697-30.535,30.535-30.535s30.535,13.697,30.535,30.535C441.116,370.985,427.419,384.687,410.581,384.687z"/>
	</g>
</g>
<g>
	<g>
		<rect fill="#00C7CB" x="139.587" y="228.192" width="354.42" height="32.716"/>
	</g>
</g>
<g>
	<g>
		<rect fill="#00C7CB" x="268.814" y="159.489" width="32.716" height="85.061"/>
	</g>
</g>
<g>
	<g>
		<path fill="#00C7CB" d="M270.995,289.806h-28.899c-9.035,0-16.358,7.323-16.358,16.358s7.323,16.358,16.358,16.358h28.899
			c9.035,0,16.358-7.323,16.358-16.358S280.03,289.806,270.995,289.806z"/>
	</g>
</g>
<g>
	<g>
		
			<rect fill="#00C7CB" x="351.139" y="155.691" transform="matrix(0.9069 -0.4213 0.4213 0.9069 -51.0159 173.6578)" width="32.715" height="93.183"/>
	</g>
</g>
<g>
	<g>
		<path fill="#00C7CB" d="M412.217,94.603H217.014c-9.035,0-16.358,7.323-16.358,16.358s7.323,16.358,16.358,16.358h195.203
			c9.035,0,16.358-7.323,16.358-16.358S421.252,94.603,412.217,94.603z"/>
	</g>
</g>
<g>
	<g>
		<rect fill="#00C7CB" x="244.822" y="110.961" width="32.716" height="48.528"/>
	</g>
</g>
<g>
	<g>
		<rect fill="#00C7CB" x="351.693" y="110.961" width="32.716" height="48.528"/>
	</g>
</g>
<g>
</g>
<g>
</g>
<g>
</g>
<g>
</g>
<g>
</g>
<g>
</g>
<g>
</g>
<g>
</g>
<g>
</g>
<g>
</g>
<g>
</g>
<g>
</g>
<g>
</g>
<g>
</g>
<g>
</g>
</svg>
