<?xml version="1.0" encoding="iso-8859-1"?>
<!-- Generator: Adobe Illustrator 19.0.0, SVG Export Plug-In . SVG Version: 6.00 Build 0)  -->
<svg version="1.1" id="Capa_1" xmlns="http://www.w3.org/2000/svg" xmlns:xlink="http://www.w3.org/1999/xlink" x="0px" y="0px"
	 viewBox="0 0 512.002 512.002" style="enable-background:new 0 0 512.002 512.002;" xml:space="preserve">
<g>
	<g>
		<path fill="#00C7CB" d="M457.671,66.577h-6.538v-1.201c0-24.813-20.187-45-45-45H105.866c-24.813,0-45,20.187-45,45v1.201h-6.538
			C24.372,66.577,0,90.948,0,120.905v119.953c0,8.284,6.716,15,15,15s15-6.716,15-15v-31.813v-88.14
			c0-13.415,10.914-24.328,24.329-24.328h6.538v7.525v39.48v101.56v141.531c0,20.051,13.184,37.075,31.337,42.873v21.466
			c0,22.395,18.219,40.614,40.614,40.614c22.395,0,40.614-18.22,40.614-40.614v-19.339h165.139v19.339
			c0,22.395,18.219,40.614,40.614,40.614c22.394,0,40.613-18.22,40.613-40.614v-21.466c18.152-5.798,31.337-22.822,31.337-42.873
			V245.142v-101.56v-39.48v-7.525h6.538c13.415,0,24.329,10.913,24.329,24.328v88.14v31.813c0,8.284,6.716,15,15,15s15-6.716,15-15
			V120.905C512,90.948,487.628,66.577,457.671,66.577z M143.432,451.012L143.432,451.012c-0.001,5.853-4.762,10.614-10.615,10.614
			c-5.852,0-10.613-4.762-10.613-10.614v-19.339h21.228V451.012z M389.798,451.012c-0.001,5.853-4.762,10.614-10.614,10.614
			c-5.853,0-10.614-4.762-10.614-10.614v-19.339h21.228V451.012z M421.134,386.673c0,8.272-6.729,15-15,15H105.866
			c-8.271,0-15-6.729-15-15V260.142h330.268V386.673z M421.134,230.142H90.866v-111.04h330.268V230.142z M421.134,89.103H90.866
			V65.376c0-8.271,6.729-15,15-15h300.268c8.271,0,15,6.729,15,15V89.103z"/>
	</g>
</g>
<g>
	<g>
		<path fill="#00C7CB" d="M370.644,302.842c-8.284,0-15,6.716-15,15v35.976c0,8.284,6.716,15,15,15c8.284,0,15-6.716,15-15v-35.976
			C385.644,309.558,378.928,302.842,370.644,302.842z"/>
	</g>
</g>
<g>
	<g>
		<path fill="#00C7CB" d="M141.356,302.842c-8.284,0-15,6.716-15,15v35.976c0,8.284,6.716,15,15,15s15-6.716,15-15v-35.976
			C156.356,309.558,149.64,302.842,141.356,302.842z"/>
	</g>
</g>
<g>
</g>
<g>
</g>
<g>
</g>
<g>
</g>
<g>
</g>
<g>
</g>
<g>
</g>
<g>
</g>
<g>
</g>
<g>
</g>
<g>
</g>
<g>
</g>
<g>
</g>
<g>
</g>
<g>
</g>
</svg>
