<?xml version="1.0" encoding="iso-8859-1"?>
<!-- Generator: Adobe Illustrator 19.0.0, SVG Export Plug-In . SVG Version: 6.00 Build 0)  -->
<svg version="1.1" id="Capa_1" xmlns="http://www.w3.org/2000/svg" xmlns:xlink="http://www.w3.org/1999/xlink" x="0px" y="0px"
	 viewBox="0 0 496 496" style="enable-background:new 0 0 496 496;" xml:space="preserve">
<g>
	<g>
		<g>
			<rect fill="#2A3D71" x="112" y="144" width="16" height="16"/>
			<rect fill="#2A3D71" x="104" y="416" width="16" height="16"/>
			<rect fill="#2A3D71" x="120" y="448" width="16" height="16"/>
			<path fill="#2A3D71"  d="M448,0v48h-16V0h-64v48h-16V0h-48v48v16v48h8v64H184v-64h8V64V48V0h-48v48h-16V0H64v48H48V0H0v48v16v48h8v384h152h24h32
				v-80c0-17.648,14.352-32,32-32s32,14.352,32,32v32h16v-32c0-26.472-21.528-48-48-48s-48,21.528-48,48v64h-16v-64
				c0-35.288,28.712-64,64-64c35.288,0,64,28.712,64,64v64h-16v-16h-16v32h32h24h152V112h8V64V48V0H448z M80,16h32v32H80V16z M16,16
				h16v32H16V16z M168,368h-40v16h40v16h-24v16h24v64h-8H24v-16h32v-16H24v-16h48v-16H24v-16h24v-16H24v-16h40v-16H24v-16h144V368z
				 M24,320v-80h24v80H24z M64,320v-80h24v80H64z M104,320v-80h24v80H104z M168,276v20v24h-24v-80h24V276z M168,160h-24v16h24v16H80
				v16h88v16H24v-16h40v-16H24v-16h24v-16H24v-16h40v-16H24v-16h144V160z M176,96H16V64h32h16h64h16h32V96z M176,48h-16V16h16V48z
				 M184,276c0-15.44,12.56-28,28-28s28,12.56,28,28v4h-56V276z M312,368.208C297.4,348.704,274.184,336,248,336
				s-49.4,12.704-64,32.208V328h128V368.208z M312,312H184v-16h128V312z M312,280h-56v-4c0-15.44,12.56-28,28-28s28,12.56,28,28V280
				z M312,242.088C304.384,235.792,294.624,232,284,232c-14.864,0-28.032,7.408-36,18.728C240.032,239.408,226.864,232,212,232
				c-10.624,0-20.384,3.792-28,10.088V192h128V242.088z M384,16h32v32h-32V16z M320,16h16v32h-16V16z M472,384h-40v16h40v16h-24v16
				h24v48H336h-8v-16h16v-16h-16v-16h40v-16h-40v-16h24v-16h-24v-48h144V384z M328,320v-24v-20v-36h24v80H328z M368,320v-80h24v80
				H368z M472,320h-24v-16h-16v16h-24v-80h24v48h16v-48h24V320z M472,224H328v-16h144V224z M472,128h-40v16h40v16h-24v16h24v16H328
				v-48h40v-16h-40v-16h144V128z M480,96H320V64h32h16h64h16h32V96z M480,48h-16V16h16V48z"/>
			<rect fill="#2A3D71" x="384" y="144" width="16" height="16"/>
			<rect fill="#2A3D71" x="368" y="352" width="16" height="16"/>
			<rect fill="#2A3D71" x="392" y="432" width="16" height="16"/>
			<rect fill="#2A3D71" x="440" y="456" width="16" height="16"/>
		</g>
	</g>
</g>
<g>
</g>
<g>
</g>
<g>
</g>
<g>
</g>
<g>
</g>
<g>
</g>
<g>
</g>
<g>
</g>
<g>
</g>
<g>
</g>
<g>
</g>
<g>
</g>
<g>
</g>
<g>
</g>
<g>
</g>
</svg>
