<svg id="Capa_1" enable-background="new 0 0 512 512" height="512" viewBox="0 0 512 512" width="512" xmlns="http://www.w3.org/2000/svg"><path fill="#2A3D71" d="m256 157.667c-5.523 0-10-4.478-10-10v-13.916c0-5.523 4.477-10 10-10 5.522 0 10 4.478 10 10v13.916c0 5.522-4.478 10-10 10z"/><path fill="#2A3D71" d="m372.585 360.631v-111.437c5.112-.444 9.124-4.734 9.124-9.961 0-5.522-4.478-10-10-10h-14.277v-29.89h5.717c5.522 0 10-4.478 10-10 0-5.523-4.478-10-10-10h-10.122l-87.027-141.801v-27.542c0-5.523-4.478-10-10-10-5.523 0-10 4.477-10 10v27.542l-87.027 141.801h-10.122c-5.522 0-10 4.477-10 10 0 5.522 4.478 10 10 10h5.717v29.89h-14.277c-5.522 0-10 4.478-10 10 0 5.227 4.012 9.518 9.124 9.961v111.437c-5.273.279-9.463 4.643-9.463 9.986 0 5.342 4.19 9.706 9.463 9.986v121.397c0 5.522 4.478 10 10 10h213.17c5.522 0 10-4.478 10-10v-121.398c5.273-.279 9.463-4.643 9.463-9.986 0-5.342-4.19-9.706-9.463-9.985zm-116.585-301.148 73.561 119.859h-147.122zm-96.585 273.832c0-6.842 5.566-12.408 12.408-12.408s12.408 5.566 12.408 12.408v27.302h-24.816zm193.17 158.685h-24.816v-63.001c0-5.522-4.478-10-10-10s-10 4.478-10 10v63.001h-41.769v-63.001c0-5.522-4.478-10-10-10-5.523 0-10 4.478-10 10v63.001h-41.769v-63.001c0-5.522-4.477-10-10-10-5.522 0-10 4.478-10 10v63.001h-24.816v-111.384h193.17zm-108.993-131.384v-27.302c0-6.842 5.566-12.408 12.408-12.408s12.408 5.566 12.408 12.408v27.302zm108.993 0h-24.816v-27.302c0-6.842 5.566-12.408 12.408-12.408s12.408 5.566 12.408 12.408zm0-57.24c-3.824-1.591-8.015-2.47-12.408-2.47-17.87 0-32.408 14.538-32.408 32.408v27.302h-19.36v-27.302c0-17.87-14.538-32.408-32.408-32.408s-32.408 14.538-32.408 32.408v27.302h-19.36v-27.302c0-17.87-14.538-32.408-32.408-32.408-4.393 0-8.584.879-12.408 2.47v-54.144h51.418c5.523 0 10-4.478 10-10s-4.477-10-10-10h-36.265v-29.89h162.863v29.89h-36.265c-5.522 0-10 4.478-10 10s4.478 10 10 10h51.418v54.144z"/><path fill="#2A3D71" d="m255.819 249.23c-4.299 0-8.205-2.849-9.519-6.942-1.292-4.023.15-8.581 3.566-11.086 3.326-2.439 7.866-2.592 11.348-.38 3.423 2.174 5.206 6.392 4.406 10.368-.928 4.612-5.091 8.04-9.801 8.04z"/></svg>