<svg width="40" height="40" viewBox="0 0 40 40" fill="none" xmlns="http://www.w3.org/2000/svg">
<path d="M20 40C31.0457 40 40 31.0457 40 20C40 8.9543 31.0457 0 20 0C8.9543 0 0 8.9543 0 20C0 31.0457 8.9543 40 20 40Z" fill="#6F3FAA"/>
<path d="M30.5799 14.0563L30.5733 14.0299C30.0389 11.8695 27.6297 9.55142 25.4172 9.06915L25.3923 9.06399C21.8137 8.38134 18.1852 8.38134 14.6074 9.06399L14.5817 9.06915C12.37 9.55142 9.96066 11.8697 9.42559 14.0299L9.41965 14.0563C8.75902 17.0733 8.75902 20.133 9.41965 23.1499L9.42559 23.1763C9.93793 25.2445 12.1677 27.4562 14.2976 28.0644V30.4759C14.2976 31.3488 15.3613 31.7775 15.9661 31.1476L18.4095 28.6078C18.9395 28.6374 19.4697 28.654 19.9998 28.654C21.8011 28.654 23.6033 28.4836 25.3922 28.1424L25.4171 28.1372C27.6296 27.6549 30.0389 25.3367 30.5732 23.1764L30.5798 23.15C31.2404 20.133 31.2404 17.0734 30.5799 14.0563ZM28.6462 22.7125C28.2894 24.122 26.4602 25.8741 25.0068 26.1979C23.104 26.5598 21.1861 26.7144 19.2702 26.6613C19.2321 26.6602 19.1954 26.6751 19.1689 26.7024C18.897 26.9815 17.385 28.5338 17.385 28.5338L15.4875 30.4813C15.3487 30.626 15.105 30.5275 15.105 30.3279V26.3329C15.105 26.2669 15.0579 26.2109 14.993 26.1981C14.9926 26.1979 14.9923 26.1979 14.9919 26.1978C13.5385 25.8741 11.7099 24.1219 11.3525 22.7124C10.7579 19.9854 10.7579 17.2209 11.3525 14.4938C11.7099 13.0844 13.5385 11.3322 14.9919 11.0084C18.315 10.3764 21.6844 10.3764 25.0068 11.0084C26.461 11.3322 28.2895 13.0844 28.6463 14.4938C29.2415 17.2209 29.2415 19.9855 28.6462 22.7125Z" fill="white"/>
<path d="M23.1613 24.5567C22.9379 24.4888 22.725 24.4433 22.5271 24.3613C20.4778 23.5111 18.5919 22.4142 17.0981 20.7329C16.2485 19.7768 15.5836 18.6973 15.0216 17.555C14.755 17.0133 14.5304 16.4504 14.3014 15.891C14.0927 15.381 14.4002 14.8541 14.7239 14.4698C15.0277 14.1091 15.4188 13.8331 15.8422 13.6296C16.1727 13.4709 16.4986 13.5624 16.74 13.8425C17.2617 14.4481 17.7411 15.0847 18.1291 15.7867C18.3677 16.2185 18.3023 16.7463 17.8697 17.0402C17.7645 17.1116 17.6688 17.1955 17.5709 17.2761C17.4849 17.3468 17.4042 17.4182 17.3452 17.5139C17.2377 17.689 17.2325 17.8956 17.3017 18.086C17.8351 19.5517 18.7341 20.6916 20.2095 21.3055C20.4456 21.4037 20.6826 21.518 20.9546 21.4864C21.4101 21.4332 21.5576 20.9335 21.8768 20.6725C22.1888 20.4174 22.5875 20.4141 22.9235 20.6267C23.2597 20.8395 23.5855 21.0678 23.9094 21.2987C24.2274 21.5252 24.5438 21.7467 24.837 22.0051C25.1191 22.2534 25.2162 22.5792 25.0574 22.9162C24.7667 23.5334 24.3437 24.0468 23.7336 24.3746C23.5613 24.467 23.3556 24.4969 23.1613 24.5567C22.9379 24.4888 23.3556 24.4969 23.1613 24.5567Z" fill="white"/>
<path d="M20.0048 12.9242C22.6852 12.9993 24.8869 14.7781 25.3587 17.4281C25.4391 17.8797 25.4676 18.3413 25.5034 18.7996C25.5185 18.9924 25.4093 19.1755 25.2013 19.1781C24.9865 19.1806 24.8898 19.0008 24.8758 18.8082C24.8482 18.4268 24.8291 18.0436 24.7765 17.6655C24.4991 15.6687 22.9069 14.0167 20.9194 13.6623C20.6202 13.6089 20.3143 13.5949 20.0112 13.5631C19.8198 13.5431 19.569 13.5315 19.5265 13.2934C19.491 13.0938 19.6594 12.9349 19.8495 12.9246C19.901 12.9216 19.953 12.924 20.0048 12.9242C22.6854 12.9993 19.953 12.924 20.0048 12.9242Z" fill="white"/>
<path d="M24.0786 18.2034C24.0741 18.2369 24.0719 18.3156 24.0522 18.3897C23.9811 18.6587 23.573 18.6924 23.4791 18.4209C23.4512 18.3404 23.4471 18.2487 23.4469 18.1619C23.446 17.5943 23.3226 17.0271 23.0363 16.5331C22.742 16.0254 22.2923 15.5987 21.7651 15.3404C21.4462 15.1843 21.1014 15.0872 20.7519 15.0294C20.5991 15.0041 20.4448 14.9889 20.2912 14.9675C20.1052 14.9416 20.0059 14.8231 20.0148 14.6398C20.023 14.4681 20.1485 14.3444 20.3357 14.3551C20.9508 14.39 21.545 14.5231 22.0919 14.8126C23.204 15.4016 23.8393 16.3312 24.0248 17.5725C24.0331 17.6288 24.0466 17.6844 24.0509 17.7408C24.0613 17.8801 24.068 18.0195 24.0786 18.2034C24.0741 18.2368 24.068 18.0195 24.0786 18.2034Z" fill="white"/>
<path d="M22.4111 18.1399C22.1869 18.144 22.0669 18.0198 22.0437 17.8143C22.0277 17.671 22.0148 17.5257 21.9806 17.3862C21.9133 17.1114 21.7673 16.8569 21.5362 16.6885C21.4271 16.6091 21.3034 16.5512 21.174 16.5137C21.0095 16.4661 20.8386 16.4792 20.6746 16.4391C20.4964 16.3954 20.3978 16.251 20.4259 16.0839C20.4513 15.9317 20.5993 15.813 20.7656 15.8251C21.8048 15.9001 22.5476 16.4373 22.6536 17.6608C22.6612 17.7471 22.6699 17.8383 22.6508 17.921C22.6178 18.0622 22.5131 18.133 22.4111 18.1399C22.1868 18.1439 22.5131 18.133 22.4111 18.1399Z" fill="white"/>
<path d="M23.1613 24.5572C23.3555 24.4974 22.9378 24.4893 23.1613 24.5572V24.5572Z" fill="white"/>
<path d="M20.0125 12.9239C20.0102 12.9239 20.0081 12.9236 20.0058 12.9236C20.0036 12.9235 20.0064 12.9236 20.0125 12.9239Z" fill="white"/>
<path d="M20.0054 12.9243C20.0076 12.9243 20.0098 12.9246 20.0121 12.9246C20.1608 12.9299 22.5802 12.9965 20.0054 12.9243Z" fill="white"/>
<path d="M24.0791 18.2054C24.0685 18.0215 24.0747 18.2388 24.0791 18.2054V18.2054Z" fill="white"/>
<path d="M22.412 18.1404C22.4155 18.1401 22.4189 18.1383 22.4222 18.1379C22.4128 18.1379 22.3982 18.1382 22.3833 18.1387C22.393 18.139 22.4018 18.1404 22.412 18.1404Z" fill="white"/>
<path d="M22.4118 18.1406C22.4017 18.1407 22.3928 18.1392 22.3831 18.1389C22.3346 18.1402 22.2845 18.1428 22.4118 18.1406Z" fill="white"/>
<path d="M22.422 18.1379C22.4185 18.1383 22.4152 18.1401 22.4118 18.1404C22.4381 18.1386 22.4358 18.1379 22.422 18.1379Z" fill="white"/>
</svg>
