<svg height="512pt" viewBox="0 0 512 512.00109" width="512pt" xmlns="http://www.w3.org/2000/svg"><path fill="#00C7CB" d="m1.140625 261.738281c2.324219 5.605469 7.792969 9.261719 13.859375 9.261719h46.566406c7.050782 93.230469 79.289063 168.429688 170.878906 179.5625l-19.863281 39.726562c-3.703125 7.410157-.703125 16.417969 6.707031 20.125 7.410157 3.703126 16.421876.703126 20.125-6.707031l16.585938-33.167969 16.582031 33.167969c3.707031 7.410157 12.714844 10.410157 20.125 6.707031 7.410157-3.707031 10.410157-12.714843 6.707031-20.125l-19.863281-39.726562c91.59375-11.132812 163.828125-86.332031 170.882813-179.5625h46.5625c6.066406 0 11.539062-3.65625 13.859375-9.261719 2.320312-5.605469 1.039062-12.058593-3.253907-16.347656l-240.996093-240.996094c-5.855469-5.859375-15.355469-5.859375-21.214844 0l-240.996094 240.996094c-4.289062 4.289063-5.574219 10.742187-3.253906 16.347656zm254.859375 160.257813c-85.953125 0-156.757812-66.480469-164.316406-151.007813h328.632812c-7.5625 84.527344-78.363281 151.007813-164.316406 151.007813zm-54.789062-330.996094h6.488281l-28.144531 60h-38.339844zm109.574218 0 60 60h-38.394531l-28.140625-60zm-39.671875 0 28.144531 60h-28.257812v-60zm42.214844 90 28.140625 60h-70.46875v-60zm-72.496094-90h.167969v60h-28.308594zm.167969 90v60h-70.523438l28.144532-60zm133.605469 60-28.144531-60h54.324218l60 60zm-118.605469-204.785156 24.785156 24.785156h-49.574218zm-144.785156 144.785156h54.269531l-28.140625 60h-86.128906zm0 0"/></svg>