<svg width="40" height="40" viewBox="0 0 40 40" fill="none" xmlns="http://www.w3.org/2000/svg">
<path d="M20 40C31.0457 40 40 31.0457 40 20C40 8.95431 31.0457 0 20 0C8.95431 0 0 8.95431 0 20C0 31.0457 8.95431 40 20 40Z" fill="#4D76A1"/>
<path fill-rule="evenodd" clip-rule="evenodd" d="M18.2315 27.2259H19.7259C19.7259 27.2259 20.1773 27.1763 20.4077 26.9274C20.6198 26.699 20.613 26.27 20.613 26.27C20.613 26.27 20.5838 24.2615 21.5145 23.9657C22.4318 23.6744 23.6099 25.9069 24.8585 26.7653C25.8027 27.4149 26.5202 27.2725 26.5202 27.2725L29.8588 27.2259C29.8588 27.2259 31.6053 27.1181 30.7772 25.7427C30.7093 25.6302 30.2949 24.7252 28.2948 22.8657C26.2015 20.9194 26.4818 21.2342 29.0035 17.8676C30.5392 15.8174 31.1532 14.5657 30.9614 14.0296C30.7785 13.519 29.649 13.6539 29.649 13.6539L25.8899 13.6774C25.8899 13.6774 25.6113 13.6393 25.4046 13.763C25.2026 13.8844 25.0726 14.1672 25.0726 14.1672C25.0726 14.1672 24.4777 15.7538 23.6842 17.1031C22.0103 19.9502 21.341 20.1005 21.0675 19.9237C20.4311 19.5117 20.59 18.2685 20.59 17.3853C20.59 14.6262 21.0077 13.4758 19.7764 13.178C19.3678 13.0791 19.0671 13.0138 18.0221 13.0032C16.6808 12.9893 15.5456 13.0073 14.9028 13.3228C14.4751 13.5326 14.1452 14 14.3462 14.0268C14.5946 14.0602 15.1573 14.1788 15.4556 14.5857C15.8408 15.1106 15.8273 16.2896 15.8273 16.2896C15.8273 16.2896 16.0485 19.5375 15.3104 19.941C14.8037 20.2178 14.1086 19.6527 12.6163 17.0698C11.8516 15.7467 11.2743 14.2842 11.2743 14.2842C11.2743 14.2842 11.163 14.0109 10.9644 13.8647C10.7235 13.6876 10.3868 13.6311 10.3868 13.6311L6.8147 13.6546C6.8147 13.6546 6.27846 13.6696 6.08161 13.9031C5.90649 14.1108 6.0677 14.5405 6.0677 14.5405C6.0677 14.5405 8.86429 21.0942 12.0308 24.3968C14.9343 27.4248 18.2315 27.2259 18.2315 27.2259Z" fill="white"/>
</svg>
