<svg width="40" height="40" viewBox="0 0 40 40" fill="none" xmlns="http://www.w3.org/2000/svg">
<circle cx="20" cy="20" r="20" fill="url(#paint0_linear)"/>
<path d="M31 20.2296C31 25.8793 26.3849 30.4591 20.6909 30.4591C18.8832 30.4591 17.185 29.9971 15.7076 29.1863L10 31L11.8608 25.5115C10.9221 23.9701 10.3815 22.1623 10.3815 20.2296C10.3815 14.5799 14.9971 10 20.6909 10C26.3854 10 31 14.5799 31 20.2296ZM20.6909 11.6291C15.9113 11.6291 12.0235 15.4873 12.0235 20.2296C12.0235 22.1114 12.6369 23.8542 13.6745 25.2719L12.5916 28.466L15.9225 27.4074C17.291 28.3059 18.9304 28.83 20.6911 28.83C25.47 28.83 29.3585 24.9723 29.3585 20.23C29.3585 15.4878 25.4702 11.6291 20.6909 11.6291ZM25.8968 22.5855C25.8331 22.4812 25.6648 22.4182 25.4124 22.2929C25.1594 22.1676 23.9167 21.5607 23.6857 21.4774C23.454 21.3939 23.2851 21.3519 23.1168 21.6027C22.9486 21.8538 22.4642 22.4182 22.3165 22.5855C22.169 22.7533 22.0218 22.7743 21.7689 22.6488C21.5164 22.5235 20.7023 22.2584 19.737 21.4044C18.9859 20.7399 18.4786 19.9195 18.3312 19.6682C18.1839 19.4173 18.3158 19.2818 18.442 19.1569C18.5559 19.0445 18.6949 18.8641 18.8212 18.7178C18.9479 18.5713 18.9899 18.467 19.0736 18.2994C19.1583 18.1321 19.1161 17.9858 19.0526 17.8601C18.9896 17.7348 18.4838 16.5009 18.2733 15.9988C18.0628 15.4971 17.8526 15.5806 17.7049 15.5806C17.5577 15.5806 17.389 15.5596 17.2205 15.5596C17.052 15.5596 16.7781 15.6224 16.5464 15.8732C16.3149 16.1243 15.6623 16.731 15.6623 17.9646C15.6623 19.1985 16.5674 20.3906 16.6941 20.5576C16.8203 20.7247 18.4418 23.339 21.0108 24.343C23.58 25.3466 23.58 25.0117 24.0434 24.9697C24.5063 24.928 25.5381 24.3633 25.7495 23.7781C25.9595 23.192 25.9595 22.6901 25.8968 22.5855Z" fill="white"/>
<defs>
<linearGradient id="paint0_linear" x1="20" y1="0" x2="20" y2="40" gradientUnits="userSpaceOnUse">
<stop stop-color="#64ED7B"/>
<stop offset="1" stop-color="#0BB529"/>
</linearGradient>
</defs>
</svg>
